%TF.GenerationSoftware,KiCad,Pcbnew,9.0.7*%
%TF.CreationDate,2026-04-29T17:56:40-05:00*%
%TF.ProjectId,OSLUV_OfflineConverter,4f534c55-565f-44f6-9666-6c696e65436f,01*%
%TF.SameCoordinates,Original*%
%TF.FileFunction,Copper,L1,Top*%
%TF.FilePolarity,Positive*%
%FSLAX46Y46*%
G04 Gerber Fmt 4.6, Leading zero omitted, Abs format (unit mm)*
G04 Created by KiCad (PCBNEW 9.0.7) date 2026-04-29 17:56:40*
%MOMM*%
%LPD*%
G01*
G04 APERTURE LIST*
G04 Aperture macros list*
%AMRoundRect*
0 Rectangle with rounded corners*
0 $1 Rounding radius*
0 $2 $3 $4 $5 $6 $7 $8 $9 X,Y pos of 4 corners*
0 Add a 4 corners polygon primitive as box body*
4,1,4,$2,$3,$4,$5,$6,$7,$8,$9,$2,$3,0*
0 Add four circle primitives for the rounded corners*
1,1,$1+$1,$2,$3*
1,1,$1+$1,$4,$5*
1,1,$1+$1,$6,$7*
1,1,$1+$1,$8,$9*
0 Add four rect primitives between the rounded corners*
20,1,$1+$1,$2,$3,$4,$5,0*
20,1,$1+$1,$4,$5,$6,$7,0*
20,1,$1+$1,$6,$7,$8,$9,0*
20,1,$1+$1,$8,$9,$2,$3,0*%
G04 Aperture macros list end*
%TA.AperFunction,SMDPad,CuDef*%
%ADD10RoundRect,0.225000X-0.225000X-0.250000X0.225000X-0.250000X0.225000X0.250000X-0.225000X0.250000X0*%
%TD*%
%TA.AperFunction,SMDPad,CuDef*%
%ADD11RoundRect,0.250000X-0.325000X-1.100000X0.325000X-1.100000X0.325000X1.100000X-0.325000X1.100000X0*%
%TD*%
%TA.AperFunction,SMDPad,CuDef*%
%ADD12RoundRect,0.200000X0.200000X0.275000X-0.200000X0.275000X-0.200000X-0.275000X0.200000X-0.275000X0*%
%TD*%
%TA.AperFunction,SMDPad,CuDef*%
%ADD13RoundRect,0.250000X-0.625000X0.312500X-0.625000X-0.312500X0.625000X-0.312500X0.625000X0.312500X0*%
%TD*%
%TA.AperFunction,SMDPad,CuDef*%
%ADD14RoundRect,0.200000X-0.200000X-0.275000X0.200000X-0.275000X0.200000X0.275000X-0.200000X0.275000X0*%
%TD*%
%TA.AperFunction,SMDPad,CuDef*%
%ADD15RoundRect,0.200000X0.275000X-0.200000X0.275000X0.200000X-0.275000X0.200000X-0.275000X-0.200000X0*%
%TD*%
%TA.AperFunction,SMDPad,CuDef*%
%ADD16RoundRect,0.250000X-0.650000X1.000000X-0.650000X-1.000000X0.650000X-1.000000X0.650000X1.000000X0*%
%TD*%
%TA.AperFunction,ComponentPad*%
%ADD17C,2.000000*%
%TD*%
%TA.AperFunction,SMDPad,CuDef*%
%ADD18RoundRect,0.112500X0.187500X0.112500X-0.187500X0.112500X-0.187500X-0.112500X0.187500X-0.112500X0*%
%TD*%
%TA.AperFunction,SMDPad,CuDef*%
%ADD19RoundRect,0.200000X-0.275000X0.200000X-0.275000X-0.200000X0.275000X-0.200000X0.275000X0.200000X0*%
%TD*%
%TA.AperFunction,SMDPad,CuDef*%
%ADD20RoundRect,0.250000X0.512500X0.640000X-0.512500X0.640000X-0.512500X-0.640000X0.512500X-0.640000X0*%
%TD*%
%TA.AperFunction,SMDPad,CuDef*%
%ADD21RoundRect,0.250000X-0.475000X0.250000X-0.475000X-0.250000X0.475000X-0.250000X0.475000X0.250000X0*%
%TD*%
%TA.AperFunction,ComponentPad*%
%ADD22R,3.000000X2.000000*%
%TD*%
%TA.AperFunction,ComponentPad*%
%ADD23O,3.000000X2.000000*%
%TD*%
%TA.AperFunction,SMDPad,CuDef*%
%ADD24RoundRect,0.250000X-1.000000X-0.650000X1.000000X-0.650000X1.000000X0.650000X-1.000000X0.650000X0*%
%TD*%
%TA.AperFunction,SMDPad,CuDef*%
%ADD25RoundRect,0.250000X0.625000X-0.312500X0.625000X0.312500X-0.625000X0.312500X-0.625000X-0.312500X0*%
%TD*%
%TA.AperFunction,SMDPad,CuDef*%
%ADD26RoundRect,0.250000X-0.850000X-0.350000X0.850000X-0.350000X0.850000X0.350000X-0.850000X0.350000X0*%
%TD*%
%TA.AperFunction,SMDPad,CuDef*%
%ADD27RoundRect,0.249997X-2.950003X-2.650003X2.950003X-2.650003X2.950003X2.650003X-2.950003X2.650003X0*%
%TD*%
%TA.AperFunction,SMDPad,CuDef*%
%ADD28RoundRect,0.250000X0.925000X-0.425000X0.925000X0.425000X-0.925000X0.425000X-0.925000X-0.425000X0*%
%TD*%
%TA.AperFunction,SMDPad,CuDef*%
%ADD29RoundRect,0.225000X0.225000X0.250000X-0.225000X0.250000X-0.225000X-0.250000X0.225000X-0.250000X0*%
%TD*%
%TA.AperFunction,ComponentPad*%
%ADD30R,1.550000X2.000000*%
%TD*%
%TA.AperFunction,ComponentPad*%
%ADD31O,1.550000X2.000000*%
%TD*%
%TA.AperFunction,SMDPad,CuDef*%
%ADD32RoundRect,0.125000X-0.125000X-0.125000X0.125000X-0.125000X0.125000X0.125000X-0.125000X0.125000X0*%
%TD*%
%TA.AperFunction,ComponentPad*%
%ADD33R,2.200000X1.600000*%
%TD*%
%TA.AperFunction,ComponentPad*%
%ADD34O,2.200000X1.600000*%
%TD*%
%TA.AperFunction,SMDPad,CuDef*%
%ADD35RoundRect,0.250000X1.100000X-0.325000X1.100000X0.325000X-1.100000X0.325000X-1.100000X-0.325000X0*%
%TD*%
%TA.AperFunction,ComponentPad*%
%ADD36C,0.600000*%
%TD*%
%TA.AperFunction,SMDPad,CuDef*%
%ADD37C,6.600000*%
%TD*%
%TA.AperFunction,SMDPad,CuDef*%
%ADD38RoundRect,0.250000X0.312500X0.625000X-0.312500X0.625000X-0.312500X-0.625000X0.312500X-0.625000X0*%
%TD*%
%TA.AperFunction,ComponentPad*%
%ADD39R,1.200000X1.800000*%
%TD*%
%TA.AperFunction,ComponentPad*%
%ADD40O,1.200000X1.800000*%
%TD*%
%TA.AperFunction,SMDPad,CuDef*%
%ADD41RoundRect,0.125000X0.125000X-0.125000X0.125000X0.125000X-0.125000X0.125000X-0.125000X-0.125000X0*%
%TD*%
%TA.AperFunction,ComponentPad*%
%ADD42R,1.600000X2.200000*%
%TD*%
%TA.AperFunction,ComponentPad*%
%ADD43O,1.600000X2.200000*%
%TD*%
%TA.AperFunction,SMDPad,CuDef*%
%ADD44RoundRect,0.150000X0.150000X-0.587500X0.150000X0.587500X-0.150000X0.587500X-0.150000X-0.587500X0*%
%TD*%
%TA.AperFunction,SMDPad,CuDef*%
%ADD45RoundRect,0.225000X0.250000X-0.225000X0.250000X0.225000X-0.250000X0.225000X-0.250000X-0.225000X0*%
%TD*%
%TA.AperFunction,ComponentPad*%
%ADD46C,2.400000*%
%TD*%
%TA.AperFunction,SMDPad,CuDef*%
%ADD47RoundRect,0.250000X0.650000X-0.412500X0.650000X0.412500X-0.650000X0.412500X-0.650000X-0.412500X0*%
%TD*%
%TA.AperFunction,SMDPad,CuDef*%
%ADD48RoundRect,0.250000X0.650000X-1.000000X0.650000X1.000000X-0.650000X1.000000X-0.650000X-1.000000X0*%
%TD*%
%TA.AperFunction,SMDPad,CuDef*%
%ADD49RoundRect,0.150000X-0.587500X-0.150000X0.587500X-0.150000X0.587500X0.150000X-0.587500X0.150000X0*%
%TD*%
%TA.AperFunction,SMDPad,CuDef*%
%ADD50RoundRect,0.250000X0.325000X1.100000X-0.325000X1.100000X-0.325000X-1.100000X0.325000X-1.100000X0*%
%TD*%
%TA.AperFunction,ComponentPad*%
%ADD51C,3.540000*%
%TD*%
%TA.AperFunction,SMDPad,CuDef*%
%ADD52RoundRect,0.250000X0.450000X-0.262500X0.450000X0.262500X-0.450000X0.262500X-0.450000X-0.262500X0*%
%TD*%
%TA.AperFunction,ComponentPad*%
%ADD53O,1.600000X2.000000*%
%TD*%
%TA.AperFunction,SMDPad,CuDef*%
%ADD54RoundRect,0.150000X0.150000X0.475000X-0.150000X0.475000X-0.150000X-0.475000X0.150000X-0.475000X0*%
%TD*%
%TA.AperFunction,SMDPad,CuDef*%
%ADD55RoundRect,0.250000X-0.262500X-0.450000X0.262500X-0.450000X0.262500X0.450000X-0.262500X0.450000X0*%
%TD*%
%TA.AperFunction,SMDPad,CuDef*%
%ADD56RoundRect,0.225000X-0.250000X0.225000X-0.250000X-0.225000X0.250000X-0.225000X0.250000X0.225000X0*%
%TD*%
%TA.AperFunction,ComponentPad*%
%ADD57O,2.500000X2.000000*%
%TD*%
%TA.AperFunction,ComponentPad*%
%ADD58R,2.500000X1.800000*%
%TD*%
%TA.AperFunction,ComponentPad*%
%ADD59O,2.500000X1.800000*%
%TD*%
%TA.AperFunction,ViaPad*%
%ADD60C,0.550000*%
%TD*%
%TA.AperFunction,Conductor*%
%ADD61C,1.000000*%
%TD*%
%TA.AperFunction,Conductor*%
%ADD62C,0.200000*%
%TD*%
%TA.AperFunction,Conductor*%
%ADD63C,0.300000*%
%TD*%
%TA.AperFunction,Conductor*%
%ADD64C,0.500000*%
%TD*%
%TA.AperFunction,Conductor*%
%ADD65C,2.000000*%
%TD*%
G04 APERTURE END LIST*
D10*
%TO.P,C22,1*%
%TO.N,Net-(D9-K)*%
X138725000Y-86250000D03*
%TO.P,C22,2*%
%TO.N,GND*%
X140275000Y-86250000D03*
%TD*%
D11*
%TO.P,C21,1*%
%TO.N,/offlineConverter/VDC*%
X144525000Y-77750000D03*
%TO.P,C21,2*%
%TO.N,GND*%
X147475000Y-77750000D03*
%TD*%
D12*
%TO.P,R83,1*%
%TO.N,Net-(R22-Pad1)*%
X143825000Y-89250000D03*
%TO.P,R83,2*%
%TO.N,Net-(IC3-REF)*%
X142175000Y-89250000D03*
%TD*%
D13*
%TO.P,R2,1*%
%TO.N,Net-(T101-S)*%
X110500000Y-76787500D03*
%TO.P,R2,2*%
%TO.N,GNDS*%
X110500000Y-79712500D03*
%TD*%
D14*
%TO.P,R14,1*%
%TO.N,Net-(D7-A)*%
X113925000Y-90250000D03*
%TO.P,R14,2*%
%TO.N,Net-(D5-A)*%
X115575000Y-90250000D03*
%TD*%
D15*
%TO.P,R16,1*%
%TO.N,Net-(D6-A)*%
X103000000Y-92075000D03*
%TO.P,R16,2*%
%TO.N,Net-(R15-Pad1)*%
X103000000Y-90425000D03*
%TD*%
D14*
%TO.P,R20,1*%
%TO.N,Net-(IC2-A)*%
X131425000Y-90000000D03*
%TO.P,R20,2*%
%TO.N,Net-(IC2-K)*%
X133075000Y-90000000D03*
%TD*%
D16*
%TO.P,D8,1,K*%
%TO.N,/offlineConverter/VDC*%
X145250000Y-67250000D03*
%TO.P,D8,2,A*%
%TO.N,Net-(D10-A)*%
X145250000Y-71250000D03*
%TD*%
D15*
%TO.P,R15,1*%
%TO.N,Net-(R15-Pad1)*%
X104500000Y-91725000D03*
%TO.P,R15,2*%
%TO.N,Net-(D7-A)*%
X104500000Y-90075000D03*
%TD*%
D17*
%TO.P,C103,1*%
%TO.N,GNDS*%
X80500000Y-61450000D03*
%TO.P,C103,2*%
%TO.N,Earth*%
X80500000Y-53950000D03*
%TD*%
D18*
%TO.P,D9,1,K*%
%TO.N,Net-(D9-K)*%
X137050000Y-91000000D03*
%TO.P,D9,2,A*%
%TO.N,GND*%
X134950000Y-91000000D03*
%TD*%
D19*
%TO.P,R17,1*%
%TO.N,GNDS*%
X103000000Y-87425000D03*
%TO.P,R17,2*%
%TO.N,Net-(D6-A)*%
X103000000Y-89075000D03*
%TD*%
D20*
%TO.P,IC2,1,A*%
%TO.N,Net-(IC2-A)*%
X129513000Y-89520000D03*
%TO.P,IC2,2,K*%
%TO.N,Net-(IC2-K)*%
X129513000Y-86980000D03*
%TO.P,IC2,3,E*%
%TO.N,GNDS*%
X119987000Y-86980000D03*
%TO.P,IC2,4,C*%
%TO.N,Net-(IC1-FB)*%
X119987000Y-89520000D03*
%TD*%
D17*
%TO.P,C109,1*%
%TO.N,Net-(C108-Pad2)*%
X136250000Y-58000000D03*
%TO.P,C109,2*%
%TO.N,GND*%
X143750000Y-58000000D03*
%TD*%
D21*
%TO.P,C18,1*%
%TO.N,Net-(C18-Pad1)*%
X147750000Y-62300000D03*
%TO.P,C18,2*%
%TO.N,/offlineConverter/VDC*%
X147750000Y-64200000D03*
%TD*%
D16*
%TO.P,D10,1,K*%
%TO.N,/offlineConverter/VDC*%
X148750000Y-67250000D03*
%TO.P,D10,2,A*%
%TO.N,Net-(D10-A)*%
X148750000Y-71250000D03*
%TD*%
D22*
%TO.P,L104,1,N1_2*%
%TO.N,PDC*%
X120500000Y-65770000D03*
D23*
%TO.P,L104,3,N1_1*%
%TO.N,/offlineConverter/Drain*%
X120500000Y-70750000D03*
%TO.P,L104,4,NC_1*%
%TO.N,unconnected-(L104-NC_1-Pad4)*%
X120500000Y-75750000D03*
%TO.P,L104,5,AUX_1*%
%TO.N,Net-(D5-A)*%
X120500000Y-78240000D03*
%TO.P,L104,6,AUX_2*%
%TO.N,GNDS*%
X120500000Y-80730000D03*
%TO.P,L104,7,NC_2*%
%TO.N,unconnected-(L104-NC_2-Pad7)*%
X139500000Y-81965000D03*
%TO.P,L104,8,N2_1.2*%
%TO.N,Net-(D10-A)*%
X139500000Y-79475000D03*
%TO.P,L104,9,N2_1.1*%
X139500000Y-76985000D03*
%TO.P,L104,10,NC_3*%
%TO.N,unconnected-(L104-NC_3-Pad10)*%
X139500000Y-74495000D03*
%TO.P,L104,11,NC_4*%
%TO.N,unconnected-(L104-NC_4-Pad11)*%
X139500000Y-72005000D03*
%TO.P,L104,12,N2_2.1*%
%TO.N,GND*%
X139500000Y-69515000D03*
%TO.P,L104,13,N2_2.2*%
X139500000Y-67025000D03*
%TO.P,L104,14,NC_5*%
%TO.N,unconnected-(L104-NC_5-Pad14)*%
X139500000Y-64535000D03*
%TD*%
D24*
%TO.P,D2,1,K*%
%TO.N,Net-(D2-K)*%
X101000000Y-66500000D03*
%TO.P,D2,2,A*%
%TO.N,/offlineConverter/Drain*%
X105000000Y-66500000D03*
%TD*%
D18*
%TO.P,D4,1,K*%
%TO.N,Net-(D4-K)*%
X112300000Y-88250000D03*
%TO.P,D4,2,A*%
%TO.N,GNDS*%
X110200000Y-88250000D03*
%TD*%
D11*
%TO.P,C20,1*%
%TO.N,/offlineConverter/VDC*%
X144525000Y-81000000D03*
%TO.P,C20,2*%
%TO.N,GND*%
X147475000Y-81000000D03*
%TD*%
D17*
%TO.P,C104,1*%
%TO.N,/offlineConverter/PDC_CM*%
X74000000Y-61450000D03*
%TO.P,C104,2*%
%TO.N,Earth*%
X74000000Y-53950000D03*
%TD*%
D13*
%TO.P,R8,1*%
%TO.N,Net-(R7-Pad2)*%
X99750000Y-88537500D03*
%TO.P,R8,2*%
%TO.N,/offlineConverter/VCC_Off*%
X99750000Y-91462500D03*
%TD*%
D12*
%TO.P,R12,1*%
%TO.N,Net-(D5-K)*%
X112075000Y-86250000D03*
%TO.P,R12,2*%
%TO.N,Net-(D4-K)*%
X110425000Y-86250000D03*
%TD*%
D25*
%TO.P,R18,1*%
%TO.N,Net-(D10-A)*%
X145250000Y-64712500D03*
%TO.P,R18,2*%
%TO.N,Net-(C18-Pad1)*%
X145250000Y-61787500D03*
%TD*%
D26*
%TO.P,T101,1,G*%
%TO.N,Net-(T101-G)*%
X103760000Y-69470000D03*
D27*
%TO.P,T101,2,D*%
%TO.N,/offlineConverter/Drain*%
X110060000Y-71750000D03*
D26*
%TO.P,T101,3,S*%
%TO.N,Net-(T101-S)*%
X103760000Y-74030000D03*
%TD*%
D14*
%TO.P,R25,1*%
%TO.N,Net-(IC3-REF)*%
X142175000Y-86250000D03*
%TO.P,R25,2*%
%TO.N,GND*%
X143825000Y-86250000D03*
%TD*%
D28*
%TO.P,BR1,1,~_1*%
%TO.N,/offlineConverter/L_Fuse*%
X77150000Y-84450000D03*
%TO.P,BR1,2,~_2*%
%TO.N,/offlineConverter/N_NTC*%
X77150000Y-89550000D03*
%TO.P,BR1,3,+*%
%TO.N,/offlineConverter/PDC_Rect*%
X85850000Y-89550000D03*
%TO.P,BR1,4,-*%
%TO.N,/offlineConverter/GNDS_rect*%
X85850000Y-84450000D03*
%TD*%
D29*
%TO.P,C15,1*%
%TO.N,Net-(IC1-FB)*%
X102015000Y-80500000D03*
%TO.P,C15,2*%
%TO.N,GNDS*%
X100465000Y-80500000D03*
%TD*%
D30*
%TO.P,C105,1,+*%
%TO.N,PDC*%
X92750000Y-57500000D03*
D31*
%TO.P,C105,2,-*%
%TO.N,GNDS*%
X87750000Y-57500000D03*
%TD*%
D32*
%TO.P,D7,1,K*%
%TO.N,Net-(D6-K)*%
X110400000Y-91000000D03*
%TO.P,D7,2,A*%
%TO.N,Net-(D7-A)*%
X112600000Y-91000000D03*
%TD*%
D33*
%TO.P,J2,1,1*%
%TO.N,/offlineConverter/VDC*%
X155000000Y-65000000D03*
D34*
%TO.P,J2,2,2*%
%TO.N,unconnected-(J2-Pad2)*%
X155000000Y-67500000D03*
%TO.P,J2,3,3*%
%TO.N,unconnected-(J2-Pad3)*%
X155000000Y-70000000D03*
%TO.P,J2,4,4*%
%TO.N,GND*%
X155000000Y-72500000D03*
%TD*%
D15*
%TO.P,R6,1*%
%TO.N,Net-(IC1-CS)*%
X104750000Y-80575000D03*
%TO.P,R6,2*%
%TO.N,Net-(T101-S)*%
X104750000Y-78925000D03*
%TD*%
D35*
%TO.P,C11,1*%
%TO.N,Net-(D5-K)*%
X107500000Y-84475000D03*
%TO.P,C11,2*%
%TO.N,GNDS*%
X107500000Y-81525000D03*
%TD*%
D17*
%TO.P,C101,1*%
%TO.N,/offlineConverter/N_NTC*%
X63000000Y-86850000D03*
%TO.P,C101,2*%
%TO.N,/offlineConverter/L_Fuse*%
X73000000Y-86850000D03*
%TD*%
D13*
%TO.P,R85,1*%
%TO.N,Net-(R3-Pad2)*%
X116500000Y-74537500D03*
%TO.P,R85,2*%
%TO.N,Net-(C58-Pad2)*%
X116500000Y-77462500D03*
%TD*%
D36*
%TO.P,H2,1,1*%
%TO.N,Earth*%
X153000000Y-54000000D03*
X154000000Y-52000000D03*
X154000000Y-56000000D03*
X156000000Y-51000000D03*
D37*
X156000000Y-54000000D03*
D36*
X156000000Y-57000000D03*
X158000000Y-52000000D03*
X158000000Y-56000000D03*
X159000000Y-54000000D03*
%TD*%
D38*
%TO.P,R11,1*%
%TO.N,Net-(C9-Pad2)*%
X104712500Y-62500000D03*
%TO.P,R11,2*%
%TO.N,Net-(D2-K)*%
X101787500Y-62500000D03*
%TD*%
D13*
%TO.P,R3,1*%
%TO.N,/offlineConverter/Drain*%
X116500000Y-70037500D03*
%TO.P,R3,2*%
%TO.N,Net-(R3-Pad2)*%
X116500000Y-72962500D03*
%TD*%
D10*
%TO.P,C14,1*%
%TO.N,Net-(D7-A)*%
X113975000Y-91750000D03*
%TO.P,C14,2*%
%TO.N,GNDS*%
X115525000Y-91750000D03*
%TD*%
D13*
%TO.P,R1,1*%
%TO.N,Net-(T101-S)*%
X108250000Y-76787500D03*
%TO.P,R1,2*%
%TO.N,GNDS*%
X108250000Y-79712500D03*
%TD*%
D39*
%TO.P,L102,1,1*%
%TO.N,/offlineConverter/PDC_CM*%
X91500000Y-69750000D03*
D40*
%TO.P,L102,2,2*%
%TO.N,PDC*%
X96500000Y-69750000D03*
%TD*%
D41*
%TO.P,D3,1,K*%
%TO.N,/offlineConverter/VCC_Off*%
X105000000Y-88850000D03*
%TO.P,D3,2,A*%
%TO.N,Net-(D3-A)*%
X105000000Y-86650000D03*
%TD*%
D18*
%TO.P,D6,1,K*%
%TO.N,Net-(D6-K)*%
X109050000Y-91000000D03*
%TO.P,D6,2,A*%
%TO.N,Net-(D6-A)*%
X106950000Y-91000000D03*
%TD*%
D13*
%TO.P,R7,1*%
%TO.N,PDC*%
X99750000Y-83787500D03*
%TO.P,R7,2*%
%TO.N,Net-(R7-Pad2)*%
X99750000Y-86712500D03*
%TD*%
D36*
%TO.P,H1,1,1*%
%TO.N,Earth*%
X51000000Y-54000000D03*
X52000000Y-52000000D03*
X52000000Y-56000000D03*
X54000000Y-51000000D03*
D37*
X54000000Y-54000000D03*
D36*
X54000000Y-57000000D03*
X56000000Y-52000000D03*
X56000000Y-56000000D03*
X57000000Y-54000000D03*
%TD*%
D10*
%TO.P,C23,1*%
%TO.N,Net-(IC2-K)*%
X135225000Y-87750000D03*
%TO.P,C23,2*%
%TO.N,Net-(C23-Pad2)*%
X136775000Y-87750000D03*
%TD*%
D42*
%TO.P,C110,1*%
%TO.N,/offlineConverter/VDC*%
X154500000Y-80500000D03*
D43*
%TO.P,C110,2*%
%TO.N,GND*%
X151000000Y-80500000D03*
%TD*%
D44*
%TO.P,T1,1,B*%
%TO.N,Net-(D4-K)*%
X106800000Y-88437500D03*
%TO.P,T1,2,E*%
%TO.N,Net-(D3-A)*%
X108700000Y-88437500D03*
%TO.P,T1,3,C*%
%TO.N,Net-(D5-K)*%
X107750000Y-86562500D03*
%TD*%
D45*
%TO.P,C7,1*%
%TO.N,Net-(IC1-CS)*%
X104100000Y-77525000D03*
%TO.P,C7,2*%
%TO.N,GNDS*%
X104100000Y-75975000D03*
%TD*%
D46*
%TO.P,C107,1*%
%TO.N,PDC*%
X98000000Y-57500000D03*
%TO.P,C107,2*%
%TO.N,GNDS*%
X113000000Y-57500000D03*
%TD*%
D14*
%TO.P,R23,1*%
%TO.N,Net-(IC3-REF)*%
X135175000Y-86250000D03*
%TO.P,R23,2*%
%TO.N,Net-(C23-Pad2)*%
X136825000Y-86250000D03*
%TD*%
D35*
%TO.P,C10,1*%
%TO.N,/offlineConverter/VCC_Off*%
X104250000Y-85225000D03*
%TO.P,C10,2*%
%TO.N,GNDS*%
X104250000Y-82275000D03*
%TD*%
D11*
%TO.P,C19,1*%
%TO.N,/offlineConverter/VDC*%
X144525000Y-74500000D03*
%TO.P,C19,2*%
%TO.N,GND*%
X147475000Y-74500000D03*
%TD*%
D47*
%TO.P,C58,1*%
%TO.N,Net-(T101-S)*%
X114000000Y-80312500D03*
%TO.P,C58,2*%
%TO.N,Net-(C58-Pad2)*%
X114000000Y-77187500D03*
%TD*%
D48*
%TO.P,D5,1,K*%
%TO.N,Net-(D5-K)*%
X114750000Y-87750000D03*
%TO.P,D5,2,A*%
%TO.N,Net-(D5-A)*%
X114750000Y-83750000D03*
%TD*%
D49*
%TO.P,IC3,1,REF*%
%TO.N,Net-(IC3-REF)*%
X131562500Y-86300000D03*
%TO.P,IC3,2,K*%
%TO.N,Net-(IC2-K)*%
X131562500Y-88200000D03*
%TO.P,IC3,3,A*%
%TO.N,GND*%
X133437500Y-87250000D03*
%TD*%
D17*
%TO.P,C106,1*%
%TO.N,/offlineConverter/PDC_CM*%
X76500000Y-69400000D03*
%TO.P,C106,2*%
%TO.N,GNDS*%
X86500000Y-69400000D03*
%TD*%
D50*
%TO.P,C9,1*%
%TO.N,PDC*%
X113975000Y-66000000D03*
%TO.P,C9,2*%
%TO.N,Net-(C9-Pad2)*%
X111025000Y-66000000D03*
%TD*%
D51*
%TO.P,J1,1,P*%
%TO.N,Earth*%
X54600000Y-61300000D03*
%TO.P,J1,2,P*%
%TO.N,/offlineConverter/L*%
X54600000Y-69225000D03*
%TO.P,J1,3,P*%
%TO.N,/offlineConverter/N*%
X54600000Y-77150000D03*
%TD*%
D15*
%TO.P,R84,1*%
%TO.N,Net-(IC1-CS)*%
X106250000Y-79825000D03*
%TO.P,R84,2*%
%TO.N,Net-(T101-S)*%
X106250000Y-78175000D03*
%TD*%
D52*
%TO.P,R4,1*%
%TO.N,Net-(D1-A)*%
X101250000Y-71412500D03*
%TO.P,R4,2*%
%TO.N,Net-(T101-G)*%
X101250000Y-69587500D03*
%TD*%
%TO.P,R5,1*%
%TO.N,Net-(D1-K)*%
X99250000Y-71412500D03*
%TO.P,R5,2*%
%TO.N,Net-(T101-G)*%
X99250000Y-69587500D03*
%TD*%
D17*
%TO.P,C108,1*%
%TO.N,GNDS*%
X118250000Y-58000000D03*
%TO.P,C108,2*%
%TO.N,Net-(C108-Pad2)*%
X125750000Y-58000000D03*
%TD*%
D12*
%TO.P,R19,1*%
%TO.N,Net-(D9-K)*%
X136825000Y-89250000D03*
%TO.P,R19,2*%
%TO.N,Net-(IC2-A)*%
X135175000Y-89250000D03*
%TD*%
D53*
%TO.P,RV1,1,1*%
%TO.N,/offlineConverter/L_Fuse*%
X67750000Y-79900000D03*
%TO.P,RV1,2,2*%
%TO.N,/offlineConverter/N_NTC*%
X62750000Y-78600000D03*
%TD*%
D35*
%TO.P,C12,1*%
%TO.N,Net-(D5-K)*%
X110750000Y-84475000D03*
%TO.P,C12,2*%
%TO.N,GNDS*%
X110750000Y-81525000D03*
%TD*%
D54*
%TO.P,IC1,1,GND*%
%TO.N,GNDS*%
X100550000Y-78750000D03*
%TO.P,IC1,2,FB*%
%TO.N,Net-(IC1-FB)*%
X101500000Y-78750000D03*
%TO.P,IC1,3,OPP/LATCH*%
%TO.N,Net-(D6-A)*%
X102450000Y-78750000D03*
%TO.P,IC1,4,CS*%
%TO.N,Net-(IC1-CS)*%
X102450000Y-76250000D03*
%TO.P,IC1,5,VCC*%
%TO.N,/offlineConverter/VCC_Off*%
X101500000Y-76250000D03*
%TO.P,IC1,6,DRV*%
%TO.N,Net-(D1-K)*%
X100550000Y-76250000D03*
%TD*%
D32*
%TO.P,D1,1,K*%
%TO.N,Net-(D1-K)*%
X98900000Y-74000000D03*
%TO.P,D1,2,A*%
%TO.N,Net-(D1-A)*%
X101100000Y-74000000D03*
%TD*%
D38*
%TO.P,R10,1*%
%TO.N,Net-(R10-Pad1)*%
X109962500Y-62500000D03*
%TO.P,R10,2*%
%TO.N,Net-(C9-Pad2)*%
X107037500Y-62500000D03*
%TD*%
D12*
%TO.P,R21,1*%
%TO.N,Net-(R21-Pad1)*%
X140325000Y-88000000D03*
%TO.P,R21,2*%
%TO.N,Net-(D9-K)*%
X138675000Y-88000000D03*
%TD*%
D55*
%TO.P,R26,1*%
%TO.N,/offlineConverter/VDC*%
X141837500Y-91000000D03*
%TO.P,R26,2*%
%TO.N,Net-(R22-Pad1)*%
X143662500Y-91000000D03*
%TD*%
D31*
%TO.P,F1,1,1*%
%TO.N,/offlineConverter/N*%
X62460000Y-70500000D03*
%TO.P,F1,2,2*%
%TO.N,/offlineConverter/N_NTC*%
X67540000Y-70500000D03*
%TD*%
D12*
%TO.P,R22,1*%
%TO.N,Net-(R22-Pad1)*%
X140325000Y-89500000D03*
%TO.P,R22,2*%
%TO.N,Net-(R21-Pad1)*%
X138675000Y-89500000D03*
%TD*%
D56*
%TO.P,C8,1*%
%TO.N,/offlineConverter/VCC_Off*%
X98750000Y-77475000D03*
%TO.P,C8,2*%
%TO.N,GNDS*%
X98750000Y-79025000D03*
%TD*%
D57*
%TO.P,C102,1*%
%TO.N,/offlineConverter/PDC_Rect*%
X93000000Y-89725000D03*
%TO.P,C102,2*%
%TO.N,/offlineConverter/GNDS_rect*%
X93000000Y-79725000D03*
%TD*%
D12*
%TO.P,R24,1*%
%TO.N,Net-(R22-Pad1)*%
X143825000Y-87750000D03*
%TO.P,R24,2*%
%TO.N,Net-(IC3-REF)*%
X142175000Y-87750000D03*
%TD*%
D58*
%TO.P,L101,1,1*%
%TO.N,/offlineConverter/PDC_Rect*%
X76350000Y-79940000D03*
D59*
%TO.P,L101,2,2*%
%TO.N,/offlineConverter/GNDS_rect*%
X85650000Y-79940000D03*
%TO.P,L101,3,3*%
%TO.N,GNDS*%
X85650000Y-75440000D03*
%TO.P,L101,4,4*%
%TO.N,/offlineConverter/PDC_CM*%
X76350000Y-75440000D03*
%TD*%
D31*
%TO.P,RT1,1,1*%
%TO.N,/offlineConverter/L*%
X62500000Y-61250000D03*
%TO.P,RT1,2,2*%
%TO.N,/offlineConverter/L_Fuse*%
X67500000Y-61250000D03*
%TD*%
D38*
%TO.P,R9,1*%
%TO.N,PDC*%
X114712500Y-62500000D03*
%TO.P,R9,2*%
%TO.N,Net-(R10-Pad1)*%
X111787500Y-62500000D03*
%TD*%
D60*
%TO.N,GNDS*%
X109000000Y-81525000D03*
X110500000Y-89000000D03*
X105750000Y-81525000D03*
X103500000Y-80750000D03*
X103750000Y-75250000D03*
X116500000Y-91500000D03*
X109240000Y-79712500D03*
X99750000Y-79500000D03*
X118500000Y-87250000D03*
X111750000Y-79750000D03*
X103500000Y-87750000D03*
X100250000Y-81500000D03*
%TO.N,Net-(D6-A)*%
X103222126Y-79758937D03*
X101500000Y-92000000D03*
%TO.N,Net-(IC1-FB)*%
X102029000Y-81500000D03*
X118250000Y-89500000D03*
%TO.N,GND*%
X146750000Y-77000000D03*
X146750000Y-75250000D03*
X136000000Y-91000000D03*
X141000000Y-86750000D03*
X146750000Y-73500000D03*
X143750000Y-85250000D03*
X133500000Y-88000000D03*
%TO.N,/offlineConverter/Drain*%
X107250000Y-74000000D03*
X109250000Y-71000000D03*
X108250000Y-70000000D03*
X109250000Y-72000000D03*
X113250000Y-69000000D03*
X112250000Y-74000000D03*
X110250000Y-69000000D03*
X109250000Y-73000000D03*
X112250000Y-70000000D03*
X113250000Y-73000000D03*
X109250000Y-69000000D03*
X113250000Y-71000000D03*
X107250000Y-69000000D03*
X113250000Y-72000000D03*
X112250000Y-71000000D03*
X113250000Y-70000000D03*
X111250000Y-72000000D03*
X110250000Y-71000000D03*
X113250000Y-74000000D03*
X110250000Y-73000000D03*
X107250000Y-70000000D03*
X107250000Y-73000000D03*
X111250000Y-71000000D03*
X108250000Y-73000000D03*
X111250000Y-74000000D03*
X108250000Y-69000000D03*
X108250000Y-74000000D03*
X110250000Y-72000000D03*
X108250000Y-71000000D03*
X109250000Y-74000000D03*
X107250000Y-71000000D03*
X111250000Y-70000000D03*
X110250000Y-74000000D03*
X107250000Y-72000000D03*
X112250000Y-73000000D03*
X110250000Y-70000000D03*
X108250000Y-72000000D03*
X111250000Y-69000000D03*
X112250000Y-69000000D03*
X111250000Y-73000000D03*
X109250000Y-70000000D03*
X112250000Y-72000000D03*
%TO.N,/offlineConverter/VDC*%
X144525000Y-74500000D03*
X144000000Y-67250000D03*
X147000000Y-67250000D03*
X147000000Y-66000000D03*
X144525000Y-79250000D03*
X140500000Y-91000000D03*
X144525000Y-77750000D03*
X144525000Y-81000000D03*
X147000000Y-68500000D03*
X144000000Y-68500000D03*
X144525000Y-76250000D03*
X144000000Y-66000000D03*
%TO.N,/offlineConverter/VCC_Off*%
X101990000Y-77500000D03*
X103240000Y-86250000D03*
%TD*%
D61*
%TO.N,GNDS*%
X103500000Y-80750000D02*
X103500000Y-81192000D01*
X86250000Y-69775000D02*
X86286919Y-69738081D01*
D62*
X104475000Y-75975000D02*
X103750000Y-75250000D01*
D63*
X100540000Y-78750000D02*
X100500000Y-78750000D01*
D61*
X107952500Y-79712500D02*
X109240000Y-79712500D01*
D62*
X115525000Y-91750000D02*
X116250000Y-91750000D01*
X116250000Y-91750000D02*
X116500000Y-91500000D01*
D61*
X108750000Y-81525000D02*
X110000000Y-81525000D01*
D62*
X103000000Y-87425000D02*
X103175000Y-87425000D01*
D61*
X110452500Y-79712500D02*
X109240000Y-79712500D01*
X110000000Y-81525000D02*
X111240000Y-81525000D01*
X86250000Y-75190000D02*
X86250000Y-69775000D01*
D63*
X100465000Y-80500000D02*
X100465000Y-78825000D01*
D61*
X110565000Y-79750000D02*
X111750000Y-79750000D01*
X86000000Y-75440000D02*
X86250000Y-75190000D01*
D62*
X120275000Y-86980000D02*
X118770000Y-86980000D01*
D61*
X104885000Y-81630000D02*
X105870000Y-81630000D01*
D63*
X100465000Y-81285000D02*
X100250000Y-81500000D01*
X100465000Y-78825000D02*
X100540000Y-78750000D01*
D61*
X104240000Y-81932000D02*
X104240000Y-82275000D01*
X105975000Y-81525000D02*
X107740000Y-81525000D01*
D62*
X110190000Y-88690000D02*
X110500000Y-89000000D01*
D63*
X100500000Y-78750000D02*
X99750000Y-79500000D01*
X100540000Y-78750000D02*
X99015000Y-78750000D01*
D61*
X107740000Y-81525000D02*
X108750000Y-81525000D01*
X105870000Y-81630000D02*
X105975000Y-81525000D01*
X103500000Y-81192000D02*
X104240000Y-81932000D01*
X110527500Y-79712500D02*
X110565000Y-79750000D01*
X111750000Y-79750000D02*
X110490000Y-79750000D01*
D62*
X118770000Y-86980000D02*
X118500000Y-87250000D01*
X110190000Y-88250000D02*
X110190000Y-88690000D01*
X103175000Y-87425000D02*
X103500000Y-87750000D01*
D63*
X100465000Y-80500000D02*
X100465000Y-81285000D01*
D61*
X104240000Y-82275000D02*
X104885000Y-81630000D01*
X110490000Y-79750000D02*
X110452500Y-79712500D01*
D63*
%TO.N,PDC*%
X96900000Y-70150000D02*
X96500000Y-69750000D01*
D64*
X114702500Y-62500000D02*
X114300000Y-62902500D01*
X113965000Y-66000000D02*
X114195000Y-65770000D01*
X114300000Y-65665000D02*
X113965000Y-66000000D01*
D63*
X96900000Y-80947500D02*
X96900000Y-70150000D01*
D64*
X114195000Y-65770000D02*
X120000000Y-65770000D01*
D63*
X99740000Y-83787500D02*
X96900000Y-80947500D01*
D64*
X114300000Y-62902500D02*
X114300000Y-65665000D01*
%TO.N,Net-(C9-Pad2)*%
X107037500Y-63250000D02*
X107037500Y-64125000D01*
X104712500Y-62500000D02*
X107037500Y-62500000D01*
X107037500Y-64125000D02*
X107581250Y-64668750D01*
X108912500Y-66000000D02*
X111015000Y-66000000D01*
X107581250Y-64668750D02*
X108912500Y-66000000D01*
D63*
%TO.N,Net-(D5-K)*%
X112065000Y-85300000D02*
X111240000Y-84475000D01*
X111240000Y-84475000D02*
X111975000Y-84475000D01*
X111240000Y-84475000D02*
X107740000Y-84475000D01*
X113565000Y-87750000D02*
X112065000Y-86250000D01*
X107750000Y-86562500D02*
X107750000Y-84485000D01*
X112065000Y-86250000D02*
X112065000Y-85300000D01*
X107750000Y-84485000D02*
X107740000Y-84475000D01*
X114750000Y-87750000D02*
X113565000Y-87750000D01*
D62*
%TO.N,Net-(D7-A)*%
X104500000Y-90425000D02*
X104675000Y-90250000D01*
X111850000Y-90250000D02*
X112600000Y-91000000D01*
X113925000Y-91750000D02*
X113175000Y-91000000D01*
X104675000Y-90250000D02*
X111850000Y-90250000D01*
X113975000Y-91750000D02*
X113925000Y-91750000D01*
X112600000Y-91000000D02*
X113175000Y-91000000D01*
X113175000Y-91000000D02*
X113925000Y-90250000D01*
%TO.N,Net-(D1-K)*%
X98900000Y-74000000D02*
X98900000Y-71762500D01*
X100540000Y-76250000D02*
X98900000Y-74610000D01*
X98900000Y-71762500D02*
X99250000Y-71412500D01*
X98900000Y-74610000D02*
X98900000Y-74000000D01*
%TO.N,Net-(D1-A)*%
X101250000Y-73850000D02*
X101100000Y-74000000D01*
X101250000Y-71412500D02*
X101250000Y-73850000D01*
D64*
%TO.N,Net-(D2-K)*%
X101787500Y-63250000D02*
X101787500Y-65702500D01*
X101787500Y-65702500D02*
X100990000Y-66500000D01*
D63*
%TO.N,Net-(D3-A)*%
X106240000Y-89750000D02*
X107387500Y-89750000D01*
X104990000Y-87250000D02*
X105740000Y-88000000D01*
X107387500Y-89750000D02*
X108700000Y-88437500D01*
X105740000Y-88000000D02*
X105740000Y-89250000D01*
X105740000Y-89250000D02*
X106240000Y-89750000D01*
X104990000Y-86650000D02*
X104990000Y-87250000D01*
D62*
%TO.N,Net-(D4-K)*%
X110415000Y-86250000D02*
X110415000Y-86375000D01*
X110415000Y-86250000D02*
X109376914Y-86250000D01*
X107189414Y-88437500D02*
X106800000Y-88437500D01*
X109376914Y-86250000D02*
X107189414Y-88437500D01*
X110415000Y-86375000D02*
X112290000Y-88250000D01*
D63*
%TO.N,Net-(D5-A)*%
X116500000Y-89325000D02*
X116500000Y-85500000D01*
X120000000Y-78240000D02*
X115193400Y-83046600D01*
X115193400Y-83046600D02*
X115193400Y-83750000D01*
X116500000Y-85500000D02*
X114750000Y-83750000D01*
X115575000Y-90250000D02*
X116500000Y-89325000D01*
D62*
%TO.N,Net-(D6-K)*%
X110400000Y-91000000D02*
X109050000Y-91000000D01*
%TO.N,Net-(D6-A)*%
X102250000Y-89825000D02*
X103000000Y-89075000D01*
X102250000Y-91325000D02*
X102250000Y-89825000D01*
X102075000Y-92075000D02*
X103000000Y-92075000D01*
X105571600Y-92378400D02*
X106950000Y-91000000D01*
X101500000Y-92000000D02*
X102000000Y-92000000D01*
X103000000Y-92075000D02*
X102250000Y-91325000D01*
X102440000Y-78976811D02*
X103222126Y-79758937D01*
X102000000Y-92000000D02*
X102075000Y-92075000D01*
X102440000Y-78750000D02*
X102440000Y-78976811D01*
X103000000Y-92075000D02*
X103303400Y-92378400D01*
X103303400Y-92378400D02*
X105571600Y-92378400D01*
%TO.N,Net-(IC1-CS)*%
X102440000Y-76250000D02*
X103715000Y-77525000D01*
D63*
X103740000Y-79500000D02*
X103740000Y-77885000D01*
X104740000Y-80575000D02*
X105500000Y-80575000D01*
X103740000Y-77885000D02*
X104100000Y-77525000D01*
X104740000Y-80500000D02*
X103740000Y-79500000D01*
D62*
X103715000Y-77525000D02*
X104100000Y-77525000D01*
D63*
X104740000Y-80575000D02*
X104740000Y-80500000D01*
X105500000Y-80575000D02*
X106250000Y-79825000D01*
%TO.N,Net-(IC1-FB)*%
X102015000Y-81486000D02*
X102029000Y-81500000D01*
X101490000Y-79975000D02*
X102015000Y-80500000D01*
D62*
X102015000Y-80500000D02*
X102015000Y-81486000D01*
D63*
X101490000Y-78750000D02*
X101490000Y-79975000D01*
D62*
X120275000Y-89520000D02*
X118270000Y-89520000D01*
X118270000Y-89520000D02*
X118250000Y-89500000D01*
D63*
%TO.N,Net-(R7-Pad2)*%
X99740000Y-88537500D02*
X99740000Y-86712500D01*
D64*
%TO.N,Net-(R10-Pad1)*%
X109842500Y-62500000D02*
X111657500Y-62500000D01*
D62*
%TO.N,Net-(R15-Pad1)*%
X104500000Y-91925000D02*
X103000000Y-90425000D01*
%TO.N,GND*%
X133437500Y-87250000D02*
X133437500Y-87937500D01*
X136000000Y-91000000D02*
X134950000Y-91000000D01*
X140500000Y-86250000D02*
X141000000Y-86750000D01*
D61*
X147475000Y-74500000D02*
X147475000Y-77750000D01*
D62*
X140275000Y-86250000D02*
X140500000Y-86250000D01*
X143825000Y-86250000D02*
X143825000Y-85325000D01*
X133437500Y-87937500D02*
X133500000Y-88000000D01*
X143825000Y-85325000D02*
X143750000Y-85250000D01*
D63*
%TO.N,Net-(C18-Pad1)*%
X145762500Y-62300000D02*
X145250000Y-61787500D01*
X147750000Y-62300000D02*
X145762500Y-62300000D01*
D62*
%TO.N,Net-(D9-K)*%
X137425000Y-89250000D02*
X138675000Y-88000000D01*
X136825000Y-90775000D02*
X137050000Y-91000000D01*
X138725000Y-87950000D02*
X138675000Y-88000000D01*
X136825000Y-89250000D02*
X136825000Y-90775000D01*
X138725000Y-86250000D02*
X138725000Y-87950000D01*
X136825000Y-89250000D02*
X137425000Y-89250000D01*
%TO.N,Net-(IC2-K)*%
X133075000Y-89675000D02*
X133075000Y-90000000D01*
X131562500Y-88200000D02*
X131562500Y-88487500D01*
X131562500Y-88487500D02*
X133075000Y-90000000D01*
X134750000Y-88000000D02*
X133075000Y-89675000D01*
X130445000Y-88200000D02*
X131562500Y-88200000D01*
X129225000Y-86980000D02*
X130445000Y-88200000D01*
X135225000Y-88000000D02*
X134750000Y-88000000D01*
%TO.N,Net-(C23-Pad2)*%
X136775000Y-88000000D02*
X136775000Y-86300000D01*
X136775000Y-86300000D02*
X136825000Y-86250000D01*
%TO.N,Net-(IC2-A)*%
X135175000Y-89325000D02*
X133750000Y-90750000D01*
X132175000Y-90750000D02*
X131425000Y-90000000D01*
X135175000Y-89250000D02*
X135175000Y-89325000D01*
X129225000Y-89520000D02*
X129705000Y-90000000D01*
X133750000Y-90750000D02*
X132175000Y-90750000D01*
X129705000Y-90000000D02*
X131425000Y-90000000D01*
%TO.N,Net-(R21-Pad1)*%
X138825000Y-89500000D02*
X140325000Y-88000000D01*
X138675000Y-89500000D02*
X138825000Y-89500000D01*
%TO.N,Net-(R22-Pad1)*%
X143096600Y-89978400D02*
X143825000Y-89250000D01*
X143987500Y-88162500D02*
X143825000Y-88000000D01*
X143662500Y-91000000D02*
X143662500Y-89412500D01*
X143662500Y-89412500D02*
X143825000Y-89250000D01*
X140803400Y-89978400D02*
X143096600Y-89978400D01*
X143825000Y-89250000D02*
X143825000Y-87750000D01*
X140325000Y-89500000D02*
X140803400Y-89978400D01*
D61*
%TO.N,/offlineConverter/GNDS_rect*%
X86000000Y-84300000D02*
X86000000Y-79940000D01*
X85850000Y-84450000D02*
X86000000Y-84300000D01*
X86000000Y-79940000D02*
X93215000Y-79940000D01*
%TO.N,/offlineConverter/L_Fuse*%
X67966459Y-63466459D02*
X71316000Y-66816000D01*
X67750000Y-81600000D02*
X67750000Y-80100000D01*
X73000000Y-86850000D02*
X67750000Y-81600000D01*
X75400000Y-84450000D02*
X73000000Y-86850000D01*
X67750000Y-78351162D02*
X67750000Y-80100000D01*
X71316000Y-74785162D02*
X67750000Y-78351162D01*
X71316000Y-66816000D02*
X71316000Y-74785162D01*
X76650000Y-84450000D02*
X75400000Y-84450000D01*
X67966459Y-61424959D02*
X67966459Y-63466459D01*
%TO.N,/offlineConverter/N_NTC*%
X67400000Y-91250000D02*
X63000000Y-86850000D01*
X62658531Y-78658531D02*
X63000000Y-79000000D01*
X62658531Y-78658531D02*
X62833531Y-78483531D01*
X76650000Y-89550000D02*
X74950000Y-91250000D01*
X63000000Y-79000000D02*
X63000000Y-86850000D01*
X67811000Y-72000000D02*
X67811000Y-70500000D01*
X67811000Y-73339000D02*
X67811000Y-72000000D01*
X62750000Y-78400000D02*
X67811000Y-73339000D01*
X74950000Y-91250000D02*
X67400000Y-91250000D01*
%TO.N,/offlineConverter/PDC_Rect*%
X81674000Y-81622000D02*
X81674000Y-88626000D01*
X82598000Y-89550000D02*
X93325000Y-89550000D01*
X79992000Y-79940000D02*
X81674000Y-81622000D01*
X76500000Y-79940000D02*
X79992000Y-79940000D01*
X81674000Y-88626000D02*
X82598000Y-89550000D01*
X93325000Y-89550000D02*
X93500000Y-89725000D01*
%TO.N,/offlineConverter/PDC_CM*%
X74817000Y-67717000D02*
X76500000Y-69400000D01*
X76500000Y-74940000D02*
X76000000Y-75440000D01*
X82157269Y-65451000D02*
X80449000Y-65451000D01*
X74817000Y-62267000D02*
X74817000Y-67717000D01*
X91500000Y-69750000D02*
X91500000Y-67173000D01*
X80449000Y-65451000D02*
X76500000Y-69400000D01*
X82209269Y-65399000D02*
X82157269Y-65451000D01*
X76500000Y-69400000D02*
X76500000Y-74940000D01*
X91500000Y-67173000D02*
X89726000Y-65399000D01*
X89726000Y-65399000D02*
X82209269Y-65399000D01*
X74000000Y-61450000D02*
X74817000Y-62267000D01*
D64*
%TO.N,/offlineConverter/Drain*%
X110500000Y-71750000D02*
X112250000Y-70000000D01*
X108000000Y-69250000D02*
X110500000Y-71750000D01*
X118287904Y-70000000D02*
X118988904Y-70701000D01*
X106000000Y-66500000D02*
X108750000Y-69250000D01*
X105990000Y-66500000D02*
X106000000Y-66500000D01*
X118988904Y-70701000D02*
X119951000Y-70701000D01*
X113000000Y-70000000D02*
X118287904Y-70000000D01*
X119951000Y-70701000D02*
X120000000Y-70750000D01*
D61*
%TO.N,/offlineConverter/N*%
X56050000Y-77150000D02*
X61836696Y-71363304D01*
X61836696Y-71363304D02*
X61847672Y-71363304D01*
X54450000Y-77150000D02*
X56050000Y-77150000D01*
X62164000Y-71046976D02*
X62164000Y-70500000D01*
X61847672Y-71363304D02*
X62164000Y-71046976D01*
%TO.N,/offlineConverter/L*%
X55775000Y-69225000D02*
X61830200Y-63169800D01*
X61830200Y-63169800D02*
X61830200Y-61709421D01*
X54450000Y-69225000D02*
X55775000Y-69225000D01*
D63*
%TO.N,/offlineConverter/VDC*%
X141837500Y-91000000D02*
X140500000Y-91000000D01*
D61*
X144525000Y-74500000D02*
X144525000Y-76250000D01*
D63*
X147750000Y-64200000D02*
X147750000Y-66750000D01*
X147750000Y-66750000D02*
X148250000Y-66750000D01*
D61*
X144525000Y-77750000D02*
X144525000Y-76250000D01*
D63*
X148250000Y-66750000D02*
X148750000Y-67250000D01*
%TO.N,Net-(C58-Pad2)*%
X116750000Y-77462500D02*
X114275000Y-77462500D01*
X114275000Y-77462500D02*
X114000000Y-77187500D01*
%TO.N,Net-(R3-Pad2)*%
X116750000Y-74537500D02*
X116750000Y-72962500D01*
%TO.N,/offlineConverter/VCC_Off*%
X104240000Y-87837500D02*
X104240000Y-85225000D01*
X100033582Y-91462500D02*
X102221600Y-89274482D01*
X104240000Y-85250000D02*
X103240000Y-86250000D01*
X101190000Y-77475000D02*
X101490000Y-77175000D01*
X102221600Y-89274482D02*
X102221600Y-86523400D01*
X99750000Y-91462500D02*
X100033582Y-91462500D01*
X104990000Y-88587500D02*
X104240000Y-87837500D01*
X101190000Y-77475000D02*
X101215000Y-77500000D01*
X98740000Y-77475000D02*
X101190000Y-77475000D01*
X101490000Y-77175000D02*
X101490000Y-76250000D01*
X102221600Y-86523400D02*
X102495000Y-86250000D01*
X104240000Y-85225000D02*
X104240000Y-85250000D01*
X104990000Y-88850000D02*
X104990000Y-88587500D01*
X101215000Y-77500000D02*
X101990000Y-77500000D01*
X102495000Y-86250000D02*
X103240000Y-86250000D01*
X99740000Y-91462500D02*
X99750000Y-91462500D01*
D65*
%TO.N,Net-(C108-Pad2)*%
X125750000Y-58000000D02*
X136000000Y-58000000D01*
D61*
%TO.N,Net-(D10-A)*%
X143500000Y-71250000D02*
X142750000Y-72000000D01*
D63*
X143537500Y-64712500D02*
X142750000Y-65500000D01*
D61*
X141265000Y-76985000D02*
X140000000Y-76985000D01*
X142750000Y-75500000D02*
X141265000Y-76985000D01*
D63*
X142750000Y-70500000D02*
X143500000Y-71250000D01*
D61*
X145250000Y-71250000D02*
X143500000Y-71250000D01*
X140000000Y-79475000D02*
X140000000Y-76985000D01*
D63*
X145250000Y-64712500D02*
X143537500Y-64712500D01*
D65*
X148000000Y-71250000D02*
X145250000Y-71250000D01*
D63*
X142750000Y-65500000D02*
X142750000Y-70500000D01*
D61*
X142750000Y-72000000D02*
X142750000Y-75500000D01*
%TO.N,Net-(T101-S)*%
X106721440Y-76787500D02*
X107750000Y-76787500D01*
X103750000Y-74030000D02*
X104280000Y-74030000D01*
X108250000Y-76787500D02*
X110500000Y-76787500D01*
X105149000Y-75215060D02*
X106721440Y-76787500D01*
X104280000Y-74030000D02*
X105149000Y-74899000D01*
D63*
X104740000Y-78925000D02*
X105500000Y-78925000D01*
X106362500Y-78175000D02*
X107750000Y-76787500D01*
X114000000Y-80312500D02*
X114000000Y-80287500D01*
X106250000Y-78175000D02*
X106362500Y-78175000D01*
X105500000Y-78925000D02*
X106250000Y-78175000D01*
X104740000Y-78787500D02*
X104740000Y-78925000D01*
D61*
X105149000Y-74899000D02*
X105149000Y-75215060D01*
D63*
X114000000Y-80287500D02*
X110500000Y-76787500D01*
D62*
%TO.N,Net-(T101-G)*%
X101530000Y-69470000D02*
X103750000Y-69470000D01*
X101412500Y-69587500D02*
X101530000Y-69470000D01*
X101250000Y-69587500D02*
X101412500Y-69587500D01*
X99250000Y-69587500D02*
X101250000Y-69587500D01*
%TO.N,Net-(IC3-REF)*%
X135905000Y-85520000D02*
X135175000Y-86250000D01*
X142175000Y-88000000D02*
X142175000Y-86250000D01*
X135125000Y-86300000D02*
X135175000Y-86250000D01*
X141445000Y-85520000D02*
X142175000Y-86250000D01*
X141445000Y-85520000D02*
X135905000Y-85520000D01*
X131562500Y-86300000D02*
X135125000Y-86300000D01*
X142175000Y-87750000D02*
X142175000Y-89250000D01*
%TD*%
%TA.AperFunction,Conductor*%
%TO.N,GND*%
G36*
X147943039Y-73019685D02*
G01*
X147988794Y-73072489D01*
X148000000Y-73124000D01*
X148000000Y-78000000D01*
X148750000Y-78750000D01*
X150472849Y-78750000D01*
X150539888Y-78769685D01*
X150585643Y-78822489D01*
X150595587Y-78891647D01*
X150566562Y-78955203D01*
X150511168Y-78991931D01*
X150500968Y-78995244D01*
X150318650Y-79088140D01*
X150153105Y-79208417D01*
X150153104Y-79208417D01*
X150107537Y-79253985D01*
X150953552Y-80100000D01*
X150947339Y-80100000D01*
X150845606Y-80127259D01*
X150754394Y-80179920D01*
X150679920Y-80254394D01*
X150627259Y-80345606D01*
X150600000Y-80447339D01*
X150600000Y-80453552D01*
X149812854Y-79666406D01*
X149795246Y-79700965D01*
X149795243Y-79700972D01*
X149732009Y-79895582D01*
X149700000Y-80097682D01*
X149700000Y-80902317D01*
X149732009Y-81104417D01*
X149795243Y-81299025D01*
X149812855Y-81333592D01*
X150600000Y-80546447D01*
X150600000Y-80552661D01*
X150627259Y-80654394D01*
X150679920Y-80745606D01*
X150754394Y-80820080D01*
X150845606Y-80872741D01*
X150947339Y-80900000D01*
X150953552Y-80900000D01*
X150107537Y-81746015D01*
X150153104Y-81791582D01*
X150318650Y-81911859D01*
X150500968Y-82004755D01*
X150695582Y-82067990D01*
X150897683Y-82100000D01*
X151102317Y-82100000D01*
X151304417Y-82067990D01*
X151499031Y-82004755D01*
X151681349Y-81911859D01*
X151846894Y-81791582D01*
X151846895Y-81791582D01*
X151991582Y-81646895D01*
X151991587Y-81646889D01*
X152025682Y-81599962D01*
X152081011Y-81557296D01*
X152150625Y-81551317D01*
X152212420Y-81583922D01*
X152246777Y-81644761D01*
X152250000Y-81672847D01*
X152250000Y-81948638D01*
X152230315Y-82015677D01*
X152213681Y-82036319D01*
X151786319Y-82463681D01*
X151724996Y-82497166D01*
X151698638Y-82500000D01*
X146624000Y-82500000D01*
X146556961Y-82480315D01*
X146511206Y-82427511D01*
X146500000Y-82376000D01*
X146500000Y-73124000D01*
X146519685Y-73056961D01*
X146572489Y-73011206D01*
X146624000Y-73000000D01*
X147876000Y-73000000D01*
X147943039Y-73019685D01*
G37*
%TD.AperFunction*%
%TD*%
%TA.AperFunction,Conductor*%
%TO.N,/offlineConverter/Drain*%
G36*
X113693039Y-68769685D02*
G01*
X113738794Y-68822489D01*
X113750000Y-68874000D01*
X113750000Y-74626000D01*
X113730315Y-74693039D01*
X113677511Y-74738794D01*
X113626000Y-74750000D01*
X107140172Y-74750000D01*
X107073133Y-74730315D01*
X107052491Y-74713681D01*
X106812807Y-74473997D01*
X106805188Y-74461145D01*
X106796125Y-74453281D01*
X106783237Y-74424120D01*
X106781486Y-74421166D01*
X106781091Y-74419817D01*
X106762711Y-74351220D01*
X106756879Y-74337141D01*
X106754998Y-74330717D01*
X106755004Y-74321028D01*
X106750000Y-74295867D01*
X106750000Y-68874000D01*
X106769685Y-68806961D01*
X106822489Y-68761206D01*
X106874000Y-68750000D01*
X113626000Y-68750000D01*
X113693039Y-68769685D01*
G37*
%TD.AperFunction*%
%TD*%
%TA.AperFunction,Conductor*%
%TO.N,/offlineConverter/VDC*%
G36*
X145193039Y-73019685D02*
G01*
X145238794Y-73072489D01*
X145250000Y-73124000D01*
X145250000Y-82626000D01*
X145230315Y-82693039D01*
X145177511Y-82738794D01*
X145126000Y-82750000D01*
X143624000Y-82750000D01*
X143556961Y-82730315D01*
X143511206Y-82677511D01*
X143500000Y-82626000D01*
X143500000Y-73124000D01*
X143519685Y-73056961D01*
X143572489Y-73011206D01*
X143624000Y-73000000D01*
X145126000Y-73000000D01*
X145193039Y-73019685D01*
G37*
%TD.AperFunction*%
%TD*%
%TA.AperFunction,Conductor*%
%TO.N,Earth*%
G36*
X156943039Y-50520185D02*
G01*
X156988794Y-50572989D01*
X157000000Y-50624500D01*
X157000000Y-51955069D01*
X156980315Y-52022108D01*
X156927511Y-52067863D01*
X156858353Y-52077807D01*
X156828548Y-52069630D01*
X156676633Y-52006705D01*
X156579283Y-51980620D01*
X156410666Y-51935440D01*
X156410660Y-51935439D01*
X156410655Y-51935438D01*
X156137684Y-51899501D01*
X156137679Y-51899500D01*
X156137674Y-51899500D01*
X155862326Y-51899500D01*
X155862320Y-51899500D01*
X155862315Y-51899501D01*
X155589344Y-51935438D01*
X155589337Y-51935439D01*
X155589334Y-51935440D01*
X155533125Y-51950500D01*
X155323369Y-52006704D01*
X155068982Y-52112075D01*
X155068971Y-52112080D01*
X154830516Y-52249754D01*
X154612073Y-52417370D01*
X154612066Y-52417376D01*
X154417376Y-52612066D01*
X154417370Y-52612073D01*
X154249754Y-52830516D01*
X154112080Y-53068971D01*
X154112075Y-53068982D01*
X154006704Y-53323369D01*
X153979335Y-53425513D01*
X153935707Y-53588340D01*
X153935441Y-53589331D01*
X153935438Y-53589344D01*
X153899501Y-53862315D01*
X153899500Y-53862332D01*
X153899500Y-54137667D01*
X153899501Y-54137684D01*
X153935438Y-54410655D01*
X153935439Y-54410660D01*
X153935440Y-54410666D01*
X153953381Y-54477624D01*
X154006704Y-54676630D01*
X154112075Y-54931017D01*
X154112080Y-54931028D01*
X154164373Y-55021600D01*
X154249751Y-55169479D01*
X154249753Y-55169482D01*
X154249754Y-55169483D01*
X154417370Y-55387926D01*
X154417376Y-55387933D01*
X154612066Y-55582623D01*
X154612072Y-55582628D01*
X154830521Y-55750249D01*
X154983778Y-55838732D01*
X155068971Y-55887919D01*
X155068976Y-55887921D01*
X155068979Y-55887923D01*
X155323368Y-55993295D01*
X155589334Y-56064560D01*
X155862326Y-56100500D01*
X155862333Y-56100500D01*
X156137667Y-56100500D01*
X156137674Y-56100500D01*
X156410666Y-56064560D01*
X156676632Y-55993295D01*
X156828548Y-55930368D01*
X156898016Y-55922900D01*
X156960496Y-55954175D01*
X156996148Y-56014264D01*
X157000000Y-56044930D01*
X157000000Y-56876000D01*
X156980315Y-56943039D01*
X156927511Y-56988794D01*
X156876000Y-57000000D01*
X155051362Y-57000000D01*
X154984323Y-56980315D01*
X154963681Y-56963681D01*
X153000000Y-55000000D01*
X147940489Y-55000000D01*
X147873450Y-54980315D01*
X147838914Y-54947123D01*
X147800353Y-54892052D01*
X147599679Y-54652900D01*
X147514065Y-54550869D01*
X147199131Y-54235935D01*
X147082040Y-54137684D01*
X146857947Y-53949646D01*
X146493124Y-53694195D01*
X146493113Y-53694188D01*
X146493107Y-53694184D01*
X146309777Y-53588338D01*
X146107398Y-53471494D01*
X146107383Y-53471486D01*
X145703731Y-53283260D01*
X145285222Y-53130937D01*
X145285221Y-53130936D01*
X145285211Y-53130933D01*
X144970278Y-53046546D01*
X144855003Y-53015658D01*
X144854992Y-53015656D01*
X144416387Y-52938318D01*
X143972696Y-52899500D01*
X143972693Y-52899500D01*
X143527307Y-52899500D01*
X143527303Y-52899500D01*
X143083614Y-52938318D01*
X143083610Y-52938318D01*
X142645007Y-53015656D01*
X142644996Y-53015658D01*
X142414446Y-53077434D01*
X142214789Y-53130933D01*
X142214782Y-53130935D01*
X142214777Y-53130937D01*
X141796268Y-53283260D01*
X141392616Y-53471486D01*
X141392601Y-53471494D01*
X141006901Y-53694179D01*
X141006875Y-53694195D01*
X140642052Y-53949646D01*
X140300866Y-54235937D01*
X140087681Y-54449123D01*
X140026358Y-54482608D01*
X139956666Y-54477624D01*
X139912319Y-54449123D01*
X139699133Y-54235937D01*
X139357947Y-53949646D01*
X138993124Y-53694195D01*
X138993113Y-53694188D01*
X138993107Y-53694184D01*
X138809777Y-53588338D01*
X138607398Y-53471494D01*
X138607383Y-53471486D01*
X138203731Y-53283260D01*
X137785222Y-53130937D01*
X137785221Y-53130936D01*
X137785211Y-53130933D01*
X137470278Y-53046546D01*
X137355003Y-53015658D01*
X137354992Y-53015656D01*
X136916387Y-52938318D01*
X136472696Y-52899500D01*
X136472693Y-52899500D01*
X136222693Y-52899500D01*
X125527307Y-52899500D01*
X125527303Y-52899500D01*
X125083614Y-52938318D01*
X125083610Y-52938318D01*
X124645007Y-53015656D01*
X124644996Y-53015658D01*
X124414446Y-53077434D01*
X124214789Y-53130933D01*
X124214782Y-53130935D01*
X124214777Y-53130937D01*
X123796268Y-53283260D01*
X123392616Y-53471486D01*
X123392601Y-53471494D01*
X123006901Y-53694179D01*
X123006875Y-53694195D01*
X122642052Y-53949646D01*
X122300866Y-54235937D01*
X122087681Y-54449123D01*
X122026358Y-54482608D01*
X121956666Y-54477624D01*
X121912319Y-54449123D01*
X121699133Y-54235937D01*
X121357947Y-53949646D01*
X120993124Y-53694195D01*
X120993113Y-53694188D01*
X120993107Y-53694184D01*
X120809777Y-53588338D01*
X120607398Y-53471494D01*
X120607383Y-53471486D01*
X120203731Y-53283260D01*
X119785222Y-53130937D01*
X119785221Y-53130936D01*
X119785211Y-53130933D01*
X119470278Y-53046546D01*
X119355003Y-53015658D01*
X119354992Y-53015656D01*
X118916387Y-52938318D01*
X118472696Y-52899500D01*
X118472693Y-52899500D01*
X118027307Y-52899500D01*
X118027303Y-52899500D01*
X117583614Y-52938318D01*
X117583610Y-52938318D01*
X117145007Y-53015656D01*
X117144996Y-53015658D01*
X116914446Y-53077434D01*
X116714789Y-53130933D01*
X116714782Y-53130935D01*
X116714777Y-53130937D01*
X116306092Y-53279685D01*
X116236363Y-53284116D01*
X116192559Y-53264738D01*
X115850687Y-53025356D01*
X115850676Y-53025349D01*
X115850670Y-53025345D01*
X115632700Y-52899500D01*
X115449836Y-52793923D01*
X115449820Y-52793915D01*
X115030363Y-52598318D01*
X115030355Y-52598315D01*
X115030353Y-52598314D01*
X115030346Y-52598311D01*
X114595410Y-52440007D01*
X114595409Y-52440006D01*
X114595399Y-52440003D01*
X114148338Y-52320215D01*
X114148341Y-52320215D01*
X114148331Y-52320213D01*
X114148325Y-52320211D01*
X114148321Y-52320211D01*
X113692517Y-52239840D01*
X113231428Y-52199500D01*
X113231425Y-52199500D01*
X112768575Y-52199500D01*
X112768571Y-52199500D01*
X112307484Y-52239840D01*
X112307480Y-52239840D01*
X111851678Y-52320211D01*
X111851661Y-52320215D01*
X111404600Y-52440003D01*
X111210822Y-52510533D01*
X110969654Y-52598311D01*
X110969650Y-52598312D01*
X110969644Y-52598315D01*
X110969636Y-52598318D01*
X110550179Y-52793915D01*
X110550163Y-52793923D01*
X110149338Y-53025340D01*
X110149312Y-53025356D01*
X109770184Y-53290824D01*
X109415619Y-53588340D01*
X109088340Y-53915619D01*
X108790824Y-54270184D01*
X108525356Y-54649312D01*
X108525340Y-54649338D01*
X108463324Y-54756752D01*
X108358680Y-54938001D01*
X108308115Y-54986216D01*
X108251295Y-55000000D01*
X102748705Y-55000000D01*
X102681666Y-54980315D01*
X102641319Y-54938001D01*
X102474655Y-54649330D01*
X102474647Y-54649319D01*
X102474643Y-54649312D01*
X102209175Y-54270184D01*
X102035366Y-54063047D01*
X101911662Y-53915622D01*
X101584378Y-53588338D01*
X101486094Y-53505868D01*
X101229815Y-53290824D01*
X100850687Y-53025356D01*
X100850676Y-53025349D01*
X100850670Y-53025345D01*
X100632700Y-52899500D01*
X100449836Y-52793923D01*
X100449820Y-52793915D01*
X100030363Y-52598318D01*
X100030355Y-52598315D01*
X100030353Y-52598314D01*
X100030346Y-52598311D01*
X99595410Y-52440007D01*
X99595409Y-52440006D01*
X99595399Y-52440003D01*
X99148338Y-52320215D01*
X99148341Y-52320215D01*
X99148331Y-52320213D01*
X99148325Y-52320211D01*
X99148321Y-52320211D01*
X98692517Y-52239840D01*
X98231428Y-52199500D01*
X98231425Y-52199500D01*
X97768575Y-52199500D01*
X97768571Y-52199500D01*
X97307484Y-52239840D01*
X97307480Y-52239840D01*
X96851678Y-52320211D01*
X96851661Y-52320215D01*
X96404600Y-52440003D01*
X96210822Y-52510533D01*
X95969654Y-52598311D01*
X95969650Y-52598312D01*
X95969644Y-52598315D01*
X95969636Y-52598318D01*
X95550178Y-52793915D01*
X95550177Y-52793915D01*
X95484659Y-52831741D01*
X95416759Y-52848211D01*
X95369645Y-52836447D01*
X95096086Y-52707063D01*
X95096066Y-52707055D01*
X94716758Y-52571337D01*
X94716752Y-52571335D01*
X94716748Y-52571334D01*
X94474017Y-52510533D01*
X94325939Y-52473441D01*
X94325934Y-52473440D01*
X94325933Y-52473440D01*
X94178190Y-52451524D01*
X93927412Y-52414325D01*
X93927410Y-52414324D01*
X93927404Y-52414324D01*
X93625657Y-52399500D01*
X93625643Y-52399500D01*
X91874357Y-52399500D01*
X91755723Y-52405328D01*
X91572596Y-52414324D01*
X91572590Y-52414324D01*
X91572587Y-52414325D01*
X91174060Y-52473441D01*
X90879039Y-52547340D01*
X90783252Y-52571334D01*
X90783249Y-52571334D01*
X90783241Y-52571337D01*
X90403933Y-52707055D01*
X90403913Y-52707063D01*
X90039701Y-52879324D01*
X90017482Y-52892641D01*
X89949860Y-52910220D01*
X89901331Y-52898663D01*
X89617568Y-52766341D01*
X89617560Y-52766338D01*
X89617558Y-52766337D01*
X89617551Y-52766334D01*
X89217488Y-52620723D01*
X89217487Y-52620722D01*
X89217477Y-52620719D01*
X88806264Y-52510536D01*
X88806267Y-52510536D01*
X88806257Y-52510534D01*
X88747064Y-52500096D01*
X88386989Y-52436605D01*
X87962873Y-52399500D01*
X87962869Y-52399500D01*
X87537131Y-52399500D01*
X87537126Y-52399500D01*
X87113010Y-52436605D01*
X86693748Y-52510533D01*
X86693745Y-52510533D01*
X86693743Y-52510534D01*
X86693738Y-52510535D01*
X86693735Y-52510536D01*
X86282522Y-52620719D01*
X86082480Y-52693528D01*
X85882449Y-52766334D01*
X85882445Y-52766335D01*
X85882439Y-52766338D01*
X85882431Y-52766341D01*
X85496609Y-52946254D01*
X85496593Y-52946262D01*
X85127908Y-53159122D01*
X85127893Y-53159131D01*
X84779149Y-53403325D01*
X84453019Y-53676982D01*
X84151982Y-53978019D01*
X83878325Y-54304149D01*
X83634131Y-54652893D01*
X83634122Y-54652908D01*
X83620425Y-54676632D01*
X83469524Y-54938001D01*
X83418959Y-54986215D01*
X83362139Y-55000000D01*
X61999999Y-55000000D01*
X60369127Y-56630871D01*
X60333853Y-56655571D01*
X60246595Y-56696261D01*
X60246591Y-56696263D01*
X59877908Y-56909122D01*
X59877893Y-56909131D01*
X59529149Y-57153325D01*
X59203019Y-57426982D01*
X58901982Y-57728019D01*
X58628325Y-58054149D01*
X58384131Y-58402893D01*
X58384122Y-58402908D01*
X58171263Y-58771591D01*
X58171261Y-58771595D01*
X58130571Y-58858853D01*
X58105871Y-58894127D01*
X54036319Y-62963681D01*
X53974996Y-62997166D01*
X53948638Y-63000000D01*
X50624500Y-63000000D01*
X50557461Y-62980315D01*
X50511706Y-62927511D01*
X50500500Y-62876000D01*
X50500500Y-53862332D01*
X51899500Y-53862332D01*
X51899500Y-54137667D01*
X51899501Y-54137684D01*
X51935438Y-54410655D01*
X51935439Y-54410660D01*
X51935440Y-54410666D01*
X51953381Y-54477624D01*
X52006704Y-54676630D01*
X52112075Y-54931017D01*
X52112080Y-54931028D01*
X52164373Y-55021600D01*
X52249751Y-55169479D01*
X52249753Y-55169482D01*
X52249754Y-55169483D01*
X52417370Y-55387926D01*
X52417376Y-55387933D01*
X52612066Y-55582623D01*
X52612072Y-55582628D01*
X52830521Y-55750249D01*
X52983778Y-55838732D01*
X53068971Y-55887919D01*
X53068976Y-55887921D01*
X53068979Y-55887923D01*
X53323368Y-55993295D01*
X53589334Y-56064560D01*
X53862326Y-56100500D01*
X53862333Y-56100500D01*
X54137667Y-56100500D01*
X54137674Y-56100500D01*
X54410666Y-56064560D01*
X54676632Y-55993295D01*
X54931021Y-55887923D01*
X55169479Y-55750249D01*
X55387928Y-55582628D01*
X55582628Y-55387928D01*
X55750249Y-55169479D01*
X55887923Y-54931021D01*
X55993295Y-54676632D01*
X56064560Y-54410666D01*
X56100500Y-54137674D01*
X56100500Y-53862326D01*
X56064560Y-53589334D01*
X55993295Y-53323368D01*
X55887923Y-53068979D01*
X55887921Y-53068976D01*
X55887919Y-53068971D01*
X55817070Y-52946259D01*
X55750249Y-52830521D01*
X55582628Y-52612072D01*
X55582623Y-52612066D01*
X55387933Y-52417376D01*
X55387926Y-52417370D01*
X55169483Y-52249754D01*
X55169482Y-52249753D01*
X55169479Y-52249751D01*
X55074407Y-52194861D01*
X54931028Y-52112080D01*
X54931017Y-52112075D01*
X54676630Y-52006704D01*
X54543649Y-51971072D01*
X54410666Y-51935440D01*
X54410660Y-51935439D01*
X54410655Y-51935438D01*
X54137684Y-51899501D01*
X54137679Y-51899500D01*
X54137674Y-51899500D01*
X53862326Y-51899500D01*
X53862320Y-51899500D01*
X53862315Y-51899501D01*
X53589344Y-51935438D01*
X53589337Y-51935439D01*
X53589334Y-51935440D01*
X53533125Y-51950500D01*
X53323369Y-52006704D01*
X53068982Y-52112075D01*
X53068971Y-52112080D01*
X52830516Y-52249754D01*
X52612073Y-52417370D01*
X52612066Y-52417376D01*
X52417376Y-52612066D01*
X52417370Y-52612073D01*
X52249754Y-52830516D01*
X52112080Y-53068971D01*
X52112075Y-53068982D01*
X52006704Y-53323369D01*
X51979335Y-53425513D01*
X51935707Y-53588340D01*
X51935441Y-53589331D01*
X51935438Y-53589344D01*
X51899501Y-53862315D01*
X51899500Y-53862332D01*
X50500500Y-53862332D01*
X50500500Y-50624500D01*
X50520185Y-50557461D01*
X50572989Y-50511706D01*
X50624500Y-50500500D01*
X156876000Y-50500500D01*
X156943039Y-50520185D01*
G37*
%TD.AperFunction*%
%TD*%
%TA.AperFunction,Conductor*%
%TO.N,/offlineConverter/VDC*%
G36*
X153345353Y-64019685D02*
G01*
X153391108Y-64072489D01*
X153401603Y-64137257D01*
X153400000Y-64152158D01*
X153400000Y-64750000D01*
X154624722Y-64750000D01*
X154580667Y-64826306D01*
X154550000Y-64940756D01*
X154550000Y-65059244D01*
X154580667Y-65173694D01*
X154624722Y-65250000D01*
X153400000Y-65250000D01*
X153400000Y-65847844D01*
X153406401Y-65907372D01*
X153406403Y-65907382D01*
X153429141Y-65968345D01*
X153434125Y-66038036D01*
X153400640Y-66099358D01*
X150536319Y-68963681D01*
X150474996Y-68997166D01*
X150448638Y-69000000D01*
X143624000Y-69000000D01*
X143556961Y-68980315D01*
X143511206Y-68927511D01*
X143500000Y-68876000D01*
X143500000Y-65624000D01*
X143519685Y-65556961D01*
X143572489Y-65511206D01*
X143624000Y-65500000D01*
X150500000Y-65500000D01*
X151963681Y-64036319D01*
X152025004Y-64002834D01*
X152051362Y-64000000D01*
X153278314Y-64000000D01*
X153345353Y-64019685D01*
G37*
%TD.AperFunction*%
%TD*%
M02*
