%TF.GenerationSoftware,KiCad,Pcbnew,9.0.7*%
%TF.CreationDate,2026-04-29T20:25:52-05:00*%
%TF.ProjectId,OSLUV_OfflineConverter,4f534c55-565f-44f6-9666-6c696e65436f,01*%
%TF.SameCoordinates,Original*%
%TF.FileFunction,Soldermask,Bot*%
%TF.FilePolarity,Negative*%
%FSLAX46Y46*%
G04 Gerber Fmt 4.6, Leading zero omitted, Abs format (unit mm)*
G04 Created by KiCad (PCBNEW 9.0.7) date 2026-04-29 20:25:52*
%MOMM*%
%LPD*%
G01*
G04 APERTURE LIST*
%ADD10C,2.000000*%
%ADD11R,3.000000X2.000000*%
%ADD12O,3.000000X2.000000*%
%ADD13R,1.550000X2.000000*%
%ADD14O,1.550000X2.000000*%
%ADD15R,2.200000X1.600000*%
%ADD16O,2.200000X1.600000*%
%ADD17C,0.600000*%
%ADD18C,6.600000*%
%ADD19R,1.200000X1.800000*%
%ADD20O,1.200000X1.800000*%
%ADD21R,1.600000X2.200000*%
%ADD22O,1.600000X2.200000*%
%ADD23C,2.400000*%
%ADD24C,3.540000*%
%ADD25O,1.600000X2.000000*%
%ADD26O,2.500000X2.000000*%
%ADD27R,2.500000X1.800000*%
%ADD28O,2.500000X1.800000*%
G04 APERTURE END LIST*
D10*
%TO.C,C103*%
X80500000Y-61450000D03*
X80500000Y-53950000D03*
%TD*%
%TO.C,C109*%
X136250000Y-58000000D03*
X143750000Y-58000000D03*
%TD*%
D11*
%TO.C,L104*%
X120500000Y-65770000D03*
D12*
X120500000Y-70750000D03*
X120500000Y-75750000D03*
X120500000Y-78240000D03*
X120500000Y-80730000D03*
X139500000Y-81965000D03*
X139500000Y-79475000D03*
X139500000Y-76985000D03*
X139500000Y-74495000D03*
X139500000Y-72005000D03*
X139500000Y-69515000D03*
X139500000Y-67025000D03*
X139500000Y-64535000D03*
%TD*%
D10*
%TO.C,C104*%
X74000000Y-61450000D03*
X74000000Y-53950000D03*
%TD*%
D13*
%TO.C,C105*%
X92750000Y-57500000D03*
D14*
X87750000Y-57500000D03*
%TD*%
D15*
%TO.C,J2*%
X155000000Y-65000000D03*
D16*
X155000000Y-67500000D03*
X155000000Y-70000000D03*
X155000000Y-72500000D03*
%TD*%
D10*
%TO.C,C101*%
X63000000Y-86850000D03*
X73000000Y-86850000D03*
%TD*%
D17*
%TO.C,H2*%
X153000000Y-54000000D03*
X154000000Y-52000000D03*
X154000000Y-56000000D03*
X156000000Y-51000000D03*
D18*
X156000000Y-54000000D03*
D17*
X156000000Y-57000000D03*
X158000000Y-52000000D03*
X158000000Y-56000000D03*
X159000000Y-54000000D03*
%TD*%
D19*
%TO.C,L102*%
X91500000Y-69750000D03*
D20*
X96500000Y-69750000D03*
%TD*%
D17*
%TO.C,H1*%
X51000000Y-54000000D03*
X52000000Y-52000000D03*
X52000000Y-56000000D03*
X54000000Y-51000000D03*
D18*
X54000000Y-54000000D03*
D17*
X54000000Y-57000000D03*
X56000000Y-52000000D03*
X56000000Y-56000000D03*
X57000000Y-54000000D03*
%TD*%
D21*
%TO.C,C110*%
X154500000Y-80500000D03*
D22*
X151000000Y-80500000D03*
%TD*%
D23*
%TO.C,C107*%
X98000000Y-57500000D03*
X113000000Y-57500000D03*
%TD*%
D10*
%TO.C,C106*%
X76500000Y-69400000D03*
X86500000Y-69400000D03*
%TD*%
D24*
%TO.C,J1*%
X54600000Y-61300000D03*
X54600000Y-69225000D03*
X54600000Y-77150000D03*
%TD*%
D10*
%TO.C,C108*%
X118250000Y-58000000D03*
X125750000Y-58000000D03*
%TD*%
D25*
%TO.C,RV1*%
X67750000Y-79900000D03*
X62750000Y-78600000D03*
%TD*%
D14*
%TO.C,F1*%
X62460000Y-70500000D03*
X67540000Y-70500000D03*
%TD*%
D26*
%TO.C,C102*%
X93000000Y-89725000D03*
X93000000Y-79725000D03*
%TD*%
D27*
%TO.C,L101*%
X76350000Y-79940000D03*
D28*
X85650000Y-79940000D03*
X85650000Y-75440000D03*
X76350000Y-75440000D03*
%TD*%
D14*
%TO.C,RT1*%
X62500000Y-61250000D03*
X67500000Y-61250000D03*
%TD*%
M02*
