%TF.GenerationSoftware,KiCad,Pcbnew,9.0.7*%
%TF.CreationDate,2026-04-29T20:25:52-05:00*%
%TF.ProjectId,OSLUV_OfflineConverter,4f534c55-565f-44f6-9666-6c696e65436f,01*%
%TF.SameCoordinates,Original*%
%TF.FileFunction,Legend,Top*%
%TF.FilePolarity,Positive*%
%FSLAX46Y46*%
G04 Gerber Fmt 4.6, Leading zero omitted, Abs format (unit mm)*
G04 Created by KiCad (PCBNEW 9.0.7) date 2026-04-29 20:25:52*
%MOMM*%
%LPD*%
G01*
G04 APERTURE LIST*
%ADD10C,0.100000*%
%ADD11C,0.200000*%
%ADD12C,0.150000*%
%ADD13C,0.120000*%
%ADD14C,0.300000*%
%ADD15C,0.400000*%
G04 APERTURE END LIST*
D10*
X50250000Y-58300000D02*
X51750000Y-58300000D01*
X59250000Y-53250000D02*
X59250000Y-54250000D01*
X50750000Y-58800000D02*
X51250000Y-58800000D01*
X59000000Y-54750000D02*
X59500000Y-54750000D01*
X58500000Y-54250000D02*
X60000000Y-54250000D01*
X50500000Y-58550000D02*
X51500000Y-58550000D01*
X151000000Y-53000000D02*
X151000000Y-54000000D01*
X58750000Y-54500000D02*
X59750000Y-54500000D01*
X150250000Y-54000000D02*
X151750000Y-54000000D01*
X150750000Y-54500000D02*
X151250000Y-54500000D01*
X150500000Y-54250000D02*
X151500000Y-54250000D01*
X51000000Y-57300000D02*
X51000000Y-58300000D01*
D11*
X128930149Y-50957275D02*
X129120625Y-50957275D01*
X129120625Y-50957275D02*
X129215863Y-51004894D01*
X129215863Y-51004894D02*
X129311101Y-51100132D01*
X129311101Y-51100132D02*
X129358720Y-51290608D01*
X129358720Y-51290608D02*
X129358720Y-51623941D01*
X129358720Y-51623941D02*
X129311101Y-51814417D01*
X129311101Y-51814417D02*
X129215863Y-51909656D01*
X129215863Y-51909656D02*
X129120625Y-51957275D01*
X129120625Y-51957275D02*
X128930149Y-51957275D01*
X128930149Y-51957275D02*
X128834911Y-51909656D01*
X128834911Y-51909656D02*
X128739673Y-51814417D01*
X128739673Y-51814417D02*
X128692054Y-51623941D01*
X128692054Y-51623941D02*
X128692054Y-51290608D01*
X128692054Y-51290608D02*
X128739673Y-51100132D01*
X128739673Y-51100132D02*
X128834911Y-51004894D01*
X128834911Y-51004894D02*
X128930149Y-50957275D01*
X129739673Y-51909656D02*
X129882530Y-51957275D01*
X129882530Y-51957275D02*
X130120625Y-51957275D01*
X130120625Y-51957275D02*
X130215863Y-51909656D01*
X130215863Y-51909656D02*
X130263482Y-51862036D01*
X130263482Y-51862036D02*
X130311101Y-51766798D01*
X130311101Y-51766798D02*
X130311101Y-51671560D01*
X130311101Y-51671560D02*
X130263482Y-51576322D01*
X130263482Y-51576322D02*
X130215863Y-51528703D01*
X130215863Y-51528703D02*
X130120625Y-51481084D01*
X130120625Y-51481084D02*
X129930149Y-51433465D01*
X129930149Y-51433465D02*
X129834911Y-51385846D01*
X129834911Y-51385846D02*
X129787292Y-51338227D01*
X129787292Y-51338227D02*
X129739673Y-51242989D01*
X129739673Y-51242989D02*
X129739673Y-51147751D01*
X129739673Y-51147751D02*
X129787292Y-51052513D01*
X129787292Y-51052513D02*
X129834911Y-51004894D01*
X129834911Y-51004894D02*
X129930149Y-50957275D01*
X129930149Y-50957275D02*
X130168244Y-50957275D01*
X130168244Y-50957275D02*
X130311101Y-51004894D01*
X131215863Y-51957275D02*
X130739673Y-51957275D01*
X130739673Y-51957275D02*
X130739673Y-50957275D01*
X131549197Y-50957275D02*
X131549197Y-51766798D01*
X131549197Y-51766798D02*
X131596816Y-51862036D01*
X131596816Y-51862036D02*
X131644435Y-51909656D01*
X131644435Y-51909656D02*
X131739673Y-51957275D01*
X131739673Y-51957275D02*
X131930149Y-51957275D01*
X131930149Y-51957275D02*
X132025387Y-51909656D01*
X132025387Y-51909656D02*
X132073006Y-51862036D01*
X132073006Y-51862036D02*
X132120625Y-51766798D01*
X132120625Y-51766798D02*
X132120625Y-50957275D01*
X132453959Y-50957275D02*
X132787292Y-51957275D01*
X132787292Y-51957275D02*
X133120625Y-50957275D01*
X134406340Y-50957275D02*
X134596816Y-50957275D01*
X134596816Y-50957275D02*
X134692054Y-51004894D01*
X134692054Y-51004894D02*
X134787292Y-51100132D01*
X134787292Y-51100132D02*
X134834911Y-51290608D01*
X134834911Y-51290608D02*
X134834911Y-51623941D01*
X134834911Y-51623941D02*
X134787292Y-51814417D01*
X134787292Y-51814417D02*
X134692054Y-51909656D01*
X134692054Y-51909656D02*
X134596816Y-51957275D01*
X134596816Y-51957275D02*
X134406340Y-51957275D01*
X134406340Y-51957275D02*
X134311102Y-51909656D01*
X134311102Y-51909656D02*
X134215864Y-51814417D01*
X134215864Y-51814417D02*
X134168245Y-51623941D01*
X134168245Y-51623941D02*
X134168245Y-51290608D01*
X134168245Y-51290608D02*
X134215864Y-51100132D01*
X134215864Y-51100132D02*
X134311102Y-51004894D01*
X134311102Y-51004894D02*
X134406340Y-50957275D01*
X135120626Y-51290608D02*
X135501578Y-51290608D01*
X135263483Y-51957275D02*
X135263483Y-51100132D01*
X135263483Y-51100132D02*
X135311102Y-51004894D01*
X135311102Y-51004894D02*
X135406340Y-50957275D01*
X135406340Y-50957275D02*
X135501578Y-50957275D01*
X135692055Y-51290608D02*
X136073007Y-51290608D01*
X135834912Y-51957275D02*
X135834912Y-51100132D01*
X135834912Y-51100132D02*
X135882531Y-51004894D01*
X135882531Y-51004894D02*
X135977769Y-50957275D01*
X135977769Y-50957275D02*
X136073007Y-50957275D01*
X136549198Y-51957275D02*
X136453960Y-51909656D01*
X136453960Y-51909656D02*
X136406341Y-51814417D01*
X136406341Y-51814417D02*
X136406341Y-50957275D01*
X136930151Y-51957275D02*
X136930151Y-51290608D01*
X136930151Y-50957275D02*
X136882532Y-51004894D01*
X136882532Y-51004894D02*
X136930151Y-51052513D01*
X136930151Y-51052513D02*
X136977770Y-51004894D01*
X136977770Y-51004894D02*
X136930151Y-50957275D01*
X136930151Y-50957275D02*
X136930151Y-51052513D01*
X137406341Y-51290608D02*
X137406341Y-51957275D01*
X137406341Y-51385846D02*
X137453960Y-51338227D01*
X137453960Y-51338227D02*
X137549198Y-51290608D01*
X137549198Y-51290608D02*
X137692055Y-51290608D01*
X137692055Y-51290608D02*
X137787293Y-51338227D01*
X137787293Y-51338227D02*
X137834912Y-51433465D01*
X137834912Y-51433465D02*
X137834912Y-51957275D01*
X138692055Y-51909656D02*
X138596817Y-51957275D01*
X138596817Y-51957275D02*
X138406341Y-51957275D01*
X138406341Y-51957275D02*
X138311103Y-51909656D01*
X138311103Y-51909656D02*
X138263484Y-51814417D01*
X138263484Y-51814417D02*
X138263484Y-51433465D01*
X138263484Y-51433465D02*
X138311103Y-51338227D01*
X138311103Y-51338227D02*
X138406341Y-51290608D01*
X138406341Y-51290608D02*
X138596817Y-51290608D01*
X138596817Y-51290608D02*
X138692055Y-51338227D01*
X138692055Y-51338227D02*
X138739674Y-51433465D01*
X138739674Y-51433465D02*
X138739674Y-51528703D01*
X138739674Y-51528703D02*
X138263484Y-51623941D01*
X140501579Y-51862036D02*
X140453960Y-51909656D01*
X140453960Y-51909656D02*
X140311103Y-51957275D01*
X140311103Y-51957275D02*
X140215865Y-51957275D01*
X140215865Y-51957275D02*
X140073008Y-51909656D01*
X140073008Y-51909656D02*
X139977770Y-51814417D01*
X139977770Y-51814417D02*
X139930151Y-51719179D01*
X139930151Y-51719179D02*
X139882532Y-51528703D01*
X139882532Y-51528703D02*
X139882532Y-51385846D01*
X139882532Y-51385846D02*
X139930151Y-51195370D01*
X139930151Y-51195370D02*
X139977770Y-51100132D01*
X139977770Y-51100132D02*
X140073008Y-51004894D01*
X140073008Y-51004894D02*
X140215865Y-50957275D01*
X140215865Y-50957275D02*
X140311103Y-50957275D01*
X140311103Y-50957275D02*
X140453960Y-51004894D01*
X140453960Y-51004894D02*
X140501579Y-51052513D01*
X141073008Y-51957275D02*
X140977770Y-51909656D01*
X140977770Y-51909656D02*
X140930151Y-51862036D01*
X140930151Y-51862036D02*
X140882532Y-51766798D01*
X140882532Y-51766798D02*
X140882532Y-51481084D01*
X140882532Y-51481084D02*
X140930151Y-51385846D01*
X140930151Y-51385846D02*
X140977770Y-51338227D01*
X140977770Y-51338227D02*
X141073008Y-51290608D01*
X141073008Y-51290608D02*
X141215865Y-51290608D01*
X141215865Y-51290608D02*
X141311103Y-51338227D01*
X141311103Y-51338227D02*
X141358722Y-51385846D01*
X141358722Y-51385846D02*
X141406341Y-51481084D01*
X141406341Y-51481084D02*
X141406341Y-51766798D01*
X141406341Y-51766798D02*
X141358722Y-51862036D01*
X141358722Y-51862036D02*
X141311103Y-51909656D01*
X141311103Y-51909656D02*
X141215865Y-51957275D01*
X141215865Y-51957275D02*
X141073008Y-51957275D01*
X141834913Y-51290608D02*
X141834913Y-51957275D01*
X141834913Y-51385846D02*
X141882532Y-51338227D01*
X141882532Y-51338227D02*
X141977770Y-51290608D01*
X141977770Y-51290608D02*
X142120627Y-51290608D01*
X142120627Y-51290608D02*
X142215865Y-51338227D01*
X142215865Y-51338227D02*
X142263484Y-51433465D01*
X142263484Y-51433465D02*
X142263484Y-51957275D01*
X142644437Y-51290608D02*
X142882532Y-51957275D01*
X142882532Y-51957275D02*
X143120627Y-51290608D01*
X143882532Y-51909656D02*
X143787294Y-51957275D01*
X143787294Y-51957275D02*
X143596818Y-51957275D01*
X143596818Y-51957275D02*
X143501580Y-51909656D01*
X143501580Y-51909656D02*
X143453961Y-51814417D01*
X143453961Y-51814417D02*
X143453961Y-51433465D01*
X143453961Y-51433465D02*
X143501580Y-51338227D01*
X143501580Y-51338227D02*
X143596818Y-51290608D01*
X143596818Y-51290608D02*
X143787294Y-51290608D01*
X143787294Y-51290608D02*
X143882532Y-51338227D01*
X143882532Y-51338227D02*
X143930151Y-51433465D01*
X143930151Y-51433465D02*
X143930151Y-51528703D01*
X143930151Y-51528703D02*
X143453961Y-51623941D01*
X144358723Y-51957275D02*
X144358723Y-51290608D01*
X144358723Y-51481084D02*
X144406342Y-51385846D01*
X144406342Y-51385846D02*
X144453961Y-51338227D01*
X144453961Y-51338227D02*
X144549199Y-51290608D01*
X144549199Y-51290608D02*
X144644437Y-51290608D01*
X144834914Y-51290608D02*
X145215866Y-51290608D01*
X144977771Y-50957275D02*
X144977771Y-51814417D01*
X144977771Y-51814417D02*
X145025390Y-51909656D01*
X145025390Y-51909656D02*
X145120628Y-51957275D01*
X145120628Y-51957275D02*
X145215866Y-51957275D01*
X145930152Y-51909656D02*
X145834914Y-51957275D01*
X145834914Y-51957275D02*
X145644438Y-51957275D01*
X145644438Y-51957275D02*
X145549200Y-51909656D01*
X145549200Y-51909656D02*
X145501581Y-51814417D01*
X145501581Y-51814417D02*
X145501581Y-51433465D01*
X145501581Y-51433465D02*
X145549200Y-51338227D01*
X145549200Y-51338227D02*
X145644438Y-51290608D01*
X145644438Y-51290608D02*
X145834914Y-51290608D01*
X145834914Y-51290608D02*
X145930152Y-51338227D01*
X145930152Y-51338227D02*
X145977771Y-51433465D01*
X145977771Y-51433465D02*
X145977771Y-51528703D01*
X145977771Y-51528703D02*
X145501581Y-51623941D01*
X146406343Y-51957275D02*
X146406343Y-51290608D01*
X146406343Y-51481084D02*
X146453962Y-51385846D01*
X146453962Y-51385846D02*
X146501581Y-51338227D01*
X146501581Y-51338227D02*
X146596819Y-51290608D01*
X146596819Y-51290608D02*
X146692057Y-51290608D01*
X129311101Y-53567219D02*
X128977768Y-53091028D01*
X128739673Y-53567219D02*
X128739673Y-52567219D01*
X128739673Y-52567219D02*
X129120625Y-52567219D01*
X129120625Y-52567219D02*
X129215863Y-52614838D01*
X129215863Y-52614838D02*
X129263482Y-52662457D01*
X129263482Y-52662457D02*
X129311101Y-52757695D01*
X129311101Y-52757695D02*
X129311101Y-52900552D01*
X129311101Y-52900552D02*
X129263482Y-52995790D01*
X129263482Y-52995790D02*
X129215863Y-53043409D01*
X129215863Y-53043409D02*
X129120625Y-53091028D01*
X129120625Y-53091028D02*
X128739673Y-53091028D01*
X130120625Y-53519600D02*
X130025387Y-53567219D01*
X130025387Y-53567219D02*
X129834911Y-53567219D01*
X129834911Y-53567219D02*
X129739673Y-53519600D01*
X129739673Y-53519600D02*
X129692054Y-53424361D01*
X129692054Y-53424361D02*
X129692054Y-53043409D01*
X129692054Y-53043409D02*
X129739673Y-52948171D01*
X129739673Y-52948171D02*
X129834911Y-52900552D01*
X129834911Y-52900552D02*
X130025387Y-52900552D01*
X130025387Y-52900552D02*
X130120625Y-52948171D01*
X130120625Y-52948171D02*
X130168244Y-53043409D01*
X130168244Y-53043409D02*
X130168244Y-53138647D01*
X130168244Y-53138647D02*
X129692054Y-53233885D01*
X130501578Y-52900552D02*
X130739673Y-53567219D01*
X130739673Y-53567219D02*
X130977768Y-52900552D01*
X132073007Y-52662457D02*
X132120626Y-52614838D01*
X132120626Y-52614838D02*
X132215864Y-52567219D01*
X132215864Y-52567219D02*
X132453959Y-52567219D01*
X132453959Y-52567219D02*
X132549197Y-52614838D01*
X132549197Y-52614838D02*
X132596816Y-52662457D01*
X132596816Y-52662457D02*
X132644435Y-52757695D01*
X132644435Y-52757695D02*
X132644435Y-52852933D01*
X132644435Y-52852933D02*
X132596816Y-52995790D01*
X132596816Y-52995790D02*
X132025388Y-53567219D01*
X132025388Y-53567219D02*
X132644435Y-53567219D01*
X133073007Y-53471980D02*
X133120626Y-53519600D01*
X133120626Y-53519600D02*
X133073007Y-53567219D01*
X133073007Y-53567219D02*
X133025388Y-53519600D01*
X133025388Y-53519600D02*
X133073007Y-53471980D01*
X133073007Y-53471980D02*
X133073007Y-53567219D01*
X133739673Y-52567219D02*
X133834911Y-52567219D01*
X133834911Y-52567219D02*
X133930149Y-52614838D01*
X133930149Y-52614838D02*
X133977768Y-52662457D01*
X133977768Y-52662457D02*
X134025387Y-52757695D01*
X134025387Y-52757695D02*
X134073006Y-52948171D01*
X134073006Y-52948171D02*
X134073006Y-53186266D01*
X134073006Y-53186266D02*
X134025387Y-53376742D01*
X134025387Y-53376742D02*
X133977768Y-53471980D01*
X133977768Y-53471980D02*
X133930149Y-53519600D01*
X133930149Y-53519600D02*
X133834911Y-53567219D01*
X133834911Y-53567219D02*
X133739673Y-53567219D01*
X133739673Y-53567219D02*
X133644435Y-53519600D01*
X133644435Y-53519600D02*
X133596816Y-53471980D01*
X133596816Y-53471980D02*
X133549197Y-53376742D01*
X133549197Y-53376742D02*
X133501578Y-53186266D01*
X133501578Y-53186266D02*
X133501578Y-52948171D01*
X133501578Y-52948171D02*
X133549197Y-52757695D01*
X133549197Y-52757695D02*
X133596816Y-52662457D01*
X133596816Y-52662457D02*
X133644435Y-52614838D01*
X133644435Y-52614838D02*
X133739673Y-52567219D01*
X134501578Y-53471980D02*
X134549197Y-53519600D01*
X134549197Y-53519600D02*
X134501578Y-53567219D01*
X134501578Y-53567219D02*
X134453959Y-53519600D01*
X134453959Y-53519600D02*
X134501578Y-53471980D01*
X134501578Y-53471980D02*
X134501578Y-53567219D01*
X135168244Y-52567219D02*
X135263482Y-52567219D01*
X135263482Y-52567219D02*
X135358720Y-52614838D01*
X135358720Y-52614838D02*
X135406339Y-52662457D01*
X135406339Y-52662457D02*
X135453958Y-52757695D01*
X135453958Y-52757695D02*
X135501577Y-52948171D01*
X135501577Y-52948171D02*
X135501577Y-53186266D01*
X135501577Y-53186266D02*
X135453958Y-53376742D01*
X135453958Y-53376742D02*
X135406339Y-53471980D01*
X135406339Y-53471980D02*
X135358720Y-53519600D01*
X135358720Y-53519600D02*
X135263482Y-53567219D01*
X135263482Y-53567219D02*
X135168244Y-53567219D01*
X135168244Y-53567219D02*
X135073006Y-53519600D01*
X135073006Y-53519600D02*
X135025387Y-53471980D01*
X135025387Y-53471980D02*
X134977768Y-53376742D01*
X134977768Y-53376742D02*
X134930149Y-53186266D01*
X134930149Y-53186266D02*
X134930149Y-52948171D01*
X134930149Y-52948171D02*
X134977768Y-52757695D01*
X134977768Y-52757695D02*
X135025387Y-52662457D01*
X135025387Y-52662457D02*
X135073006Y-52614838D01*
X135073006Y-52614838D02*
X135168244Y-52567219D01*
X137406340Y-52662457D02*
X137453959Y-52614838D01*
X137453959Y-52614838D02*
X137549197Y-52567219D01*
X137549197Y-52567219D02*
X137787292Y-52567219D01*
X137787292Y-52567219D02*
X137882530Y-52614838D01*
X137882530Y-52614838D02*
X137930149Y-52662457D01*
X137930149Y-52662457D02*
X137977768Y-52757695D01*
X137977768Y-52757695D02*
X137977768Y-52852933D01*
X137977768Y-52852933D02*
X137930149Y-52995790D01*
X137930149Y-52995790D02*
X137358721Y-53567219D01*
X137358721Y-53567219D02*
X137977768Y-53567219D01*
X138596816Y-52567219D02*
X138692054Y-52567219D01*
X138692054Y-52567219D02*
X138787292Y-52614838D01*
X138787292Y-52614838D02*
X138834911Y-52662457D01*
X138834911Y-52662457D02*
X138882530Y-52757695D01*
X138882530Y-52757695D02*
X138930149Y-52948171D01*
X138930149Y-52948171D02*
X138930149Y-53186266D01*
X138930149Y-53186266D02*
X138882530Y-53376742D01*
X138882530Y-53376742D02*
X138834911Y-53471980D01*
X138834911Y-53471980D02*
X138787292Y-53519600D01*
X138787292Y-53519600D02*
X138692054Y-53567219D01*
X138692054Y-53567219D02*
X138596816Y-53567219D01*
X138596816Y-53567219D02*
X138501578Y-53519600D01*
X138501578Y-53519600D02*
X138453959Y-53471980D01*
X138453959Y-53471980D02*
X138406340Y-53376742D01*
X138406340Y-53376742D02*
X138358721Y-53186266D01*
X138358721Y-53186266D02*
X138358721Y-52948171D01*
X138358721Y-52948171D02*
X138406340Y-52757695D01*
X138406340Y-52757695D02*
X138453959Y-52662457D01*
X138453959Y-52662457D02*
X138501578Y-52614838D01*
X138501578Y-52614838D02*
X138596816Y-52567219D01*
X139311102Y-52662457D02*
X139358721Y-52614838D01*
X139358721Y-52614838D02*
X139453959Y-52567219D01*
X139453959Y-52567219D02*
X139692054Y-52567219D01*
X139692054Y-52567219D02*
X139787292Y-52614838D01*
X139787292Y-52614838D02*
X139834911Y-52662457D01*
X139834911Y-52662457D02*
X139882530Y-52757695D01*
X139882530Y-52757695D02*
X139882530Y-52852933D01*
X139882530Y-52852933D02*
X139834911Y-52995790D01*
X139834911Y-52995790D02*
X139263483Y-53567219D01*
X139263483Y-53567219D02*
X139882530Y-53567219D01*
X140739673Y-52567219D02*
X140549197Y-52567219D01*
X140549197Y-52567219D02*
X140453959Y-52614838D01*
X140453959Y-52614838D02*
X140406340Y-52662457D01*
X140406340Y-52662457D02*
X140311102Y-52805314D01*
X140311102Y-52805314D02*
X140263483Y-52995790D01*
X140263483Y-52995790D02*
X140263483Y-53376742D01*
X140263483Y-53376742D02*
X140311102Y-53471980D01*
X140311102Y-53471980D02*
X140358721Y-53519600D01*
X140358721Y-53519600D02*
X140453959Y-53567219D01*
X140453959Y-53567219D02*
X140644435Y-53567219D01*
X140644435Y-53567219D02*
X140739673Y-53519600D01*
X140739673Y-53519600D02*
X140787292Y-53471980D01*
X140787292Y-53471980D02*
X140834911Y-53376742D01*
X140834911Y-53376742D02*
X140834911Y-53138647D01*
X140834911Y-53138647D02*
X140787292Y-53043409D01*
X140787292Y-53043409D02*
X140739673Y-52995790D01*
X140739673Y-52995790D02*
X140644435Y-52948171D01*
X140644435Y-52948171D02*
X140453959Y-52948171D01*
X140453959Y-52948171D02*
X140358721Y-52995790D01*
X140358721Y-52995790D02*
X140311102Y-53043409D01*
X140311102Y-53043409D02*
X140263483Y-53138647D01*
X141263483Y-53186266D02*
X142025388Y-53186266D01*
X142692054Y-52567219D02*
X142787292Y-52567219D01*
X142787292Y-52567219D02*
X142882530Y-52614838D01*
X142882530Y-52614838D02*
X142930149Y-52662457D01*
X142930149Y-52662457D02*
X142977768Y-52757695D01*
X142977768Y-52757695D02*
X143025387Y-52948171D01*
X143025387Y-52948171D02*
X143025387Y-53186266D01*
X143025387Y-53186266D02*
X142977768Y-53376742D01*
X142977768Y-53376742D02*
X142930149Y-53471980D01*
X142930149Y-53471980D02*
X142882530Y-53519600D01*
X142882530Y-53519600D02*
X142787292Y-53567219D01*
X142787292Y-53567219D02*
X142692054Y-53567219D01*
X142692054Y-53567219D02*
X142596816Y-53519600D01*
X142596816Y-53519600D02*
X142549197Y-53471980D01*
X142549197Y-53471980D02*
X142501578Y-53376742D01*
X142501578Y-53376742D02*
X142453959Y-53186266D01*
X142453959Y-53186266D02*
X142453959Y-52948171D01*
X142453959Y-52948171D02*
X142501578Y-52757695D01*
X142501578Y-52757695D02*
X142549197Y-52662457D01*
X142549197Y-52662457D02*
X142596816Y-52614838D01*
X142596816Y-52614838D02*
X142692054Y-52567219D01*
X143882530Y-52900552D02*
X143882530Y-53567219D01*
X143644435Y-52519600D02*
X143406340Y-53233885D01*
X143406340Y-53233885D02*
X144025387Y-53233885D01*
X144406340Y-53186266D02*
X145168245Y-53186266D01*
X145596816Y-52662457D02*
X145644435Y-52614838D01*
X145644435Y-52614838D02*
X145739673Y-52567219D01*
X145739673Y-52567219D02*
X145977768Y-52567219D01*
X145977768Y-52567219D02*
X146073006Y-52614838D01*
X146073006Y-52614838D02*
X146120625Y-52662457D01*
X146120625Y-52662457D02*
X146168244Y-52757695D01*
X146168244Y-52757695D02*
X146168244Y-52852933D01*
X146168244Y-52852933D02*
X146120625Y-52995790D01*
X146120625Y-52995790D02*
X145549197Y-53567219D01*
X145549197Y-53567219D02*
X146168244Y-53567219D01*
X146644435Y-53567219D02*
X146834911Y-53567219D01*
X146834911Y-53567219D02*
X146930149Y-53519600D01*
X146930149Y-53519600D02*
X146977768Y-53471980D01*
X146977768Y-53471980D02*
X147073006Y-53329123D01*
X147073006Y-53329123D02*
X147120625Y-53138647D01*
X147120625Y-53138647D02*
X147120625Y-52757695D01*
X147120625Y-52757695D02*
X147073006Y-52662457D01*
X147073006Y-52662457D02*
X147025387Y-52614838D01*
X147025387Y-52614838D02*
X146930149Y-52567219D01*
X146930149Y-52567219D02*
X146739673Y-52567219D01*
X146739673Y-52567219D02*
X146644435Y-52614838D01*
X146644435Y-52614838D02*
X146596816Y-52662457D01*
X146596816Y-52662457D02*
X146549197Y-52757695D01*
X146549197Y-52757695D02*
X146549197Y-52995790D01*
X146549197Y-52995790D02*
X146596816Y-53091028D01*
X146596816Y-53091028D02*
X146644435Y-53138647D01*
X146644435Y-53138647D02*
X146739673Y-53186266D01*
X146739673Y-53186266D02*
X146930149Y-53186266D01*
X146930149Y-53186266D02*
X147025387Y-53138647D01*
X147025387Y-53138647D02*
X147073006Y-53091028D01*
X147073006Y-53091028D02*
X147120625Y-52995790D01*
X58257768Y-61167219D02*
X58924435Y-61167219D01*
X59210149Y-62214838D02*
X58257768Y-62214838D01*
X58257768Y-62214838D02*
X58257768Y-60214838D01*
X58257768Y-60214838D02*
X59210149Y-60214838D01*
X59210149Y-70239838D02*
X58257768Y-70239838D01*
X58257768Y-70239838D02*
X58257768Y-68239838D01*
D12*
X155251064Y-61170485D02*
X155289160Y-61132390D01*
X155289160Y-61132390D02*
X155365350Y-61094295D01*
X155365350Y-61094295D02*
X155555826Y-61094295D01*
X155555826Y-61094295D02*
X155632017Y-61132390D01*
X155632017Y-61132390D02*
X155670112Y-61170485D01*
X155670112Y-61170485D02*
X155708207Y-61246676D01*
X155708207Y-61246676D02*
X155708207Y-61322866D01*
X155708207Y-61322866D02*
X155670112Y-61437152D01*
X155670112Y-61437152D02*
X155212969Y-61894295D01*
X155212969Y-61894295D02*
X155708207Y-61894295D01*
X156393922Y-61360961D02*
X156393922Y-61894295D01*
X156203446Y-61056200D02*
X156012969Y-61627628D01*
X156012969Y-61627628D02*
X156508208Y-61627628D01*
X156698684Y-61094295D02*
X156965351Y-61894295D01*
X156965351Y-61894295D02*
X157232017Y-61094295D01*
X155208207Y-75382390D02*
X155132017Y-75344295D01*
X155132017Y-75344295D02*
X155017731Y-75344295D01*
X155017731Y-75344295D02*
X154903445Y-75382390D01*
X154903445Y-75382390D02*
X154827255Y-75458580D01*
X154827255Y-75458580D02*
X154789160Y-75534771D01*
X154789160Y-75534771D02*
X154751064Y-75687152D01*
X154751064Y-75687152D02*
X154751064Y-75801438D01*
X154751064Y-75801438D02*
X154789160Y-75953819D01*
X154789160Y-75953819D02*
X154827255Y-76030009D01*
X154827255Y-76030009D02*
X154903445Y-76106200D01*
X154903445Y-76106200D02*
X155017731Y-76144295D01*
X155017731Y-76144295D02*
X155093922Y-76144295D01*
X155093922Y-76144295D02*
X155208207Y-76106200D01*
X155208207Y-76106200D02*
X155246303Y-76068104D01*
X155246303Y-76068104D02*
X155246303Y-75801438D01*
X155246303Y-75801438D02*
X155093922Y-75801438D01*
X155589160Y-76144295D02*
X155589160Y-75344295D01*
X155589160Y-75344295D02*
X156046303Y-76144295D01*
X156046303Y-76144295D02*
X156046303Y-75344295D01*
X156427255Y-76144295D02*
X156427255Y-75344295D01*
X156427255Y-75344295D02*
X156617731Y-75344295D01*
X156617731Y-75344295D02*
X156732017Y-75382390D01*
X156732017Y-75382390D02*
X156808207Y-75458580D01*
X156808207Y-75458580D02*
X156846302Y-75534771D01*
X156846302Y-75534771D02*
X156884398Y-75687152D01*
X156884398Y-75687152D02*
X156884398Y-75801438D01*
X156884398Y-75801438D02*
X156846302Y-75953819D01*
X156846302Y-75953819D02*
X156808207Y-76030009D01*
X156808207Y-76030009D02*
X156732017Y-76106200D01*
X156732017Y-76106200D02*
X156617731Y-76144295D01*
X156617731Y-76144295D02*
X156427255Y-76144295D01*
D11*
X58307768Y-78114838D02*
X58307768Y-76114838D01*
X58307768Y-76114838D02*
X59450625Y-78114838D01*
X59450625Y-78114838D02*
X59450625Y-76114838D01*
D12*
X145235714Y-89612295D02*
X144969047Y-89231342D01*
X144778571Y-89612295D02*
X144778571Y-88812295D01*
X144778571Y-88812295D02*
X145083333Y-88812295D01*
X145083333Y-88812295D02*
X145159523Y-88850390D01*
X145159523Y-88850390D02*
X145197618Y-88888485D01*
X145197618Y-88888485D02*
X145235714Y-88964676D01*
X145235714Y-88964676D02*
X145235714Y-89078961D01*
X145235714Y-89078961D02*
X145197618Y-89155152D01*
X145197618Y-89155152D02*
X145159523Y-89193247D01*
X145159523Y-89193247D02*
X145083333Y-89231342D01*
X145083333Y-89231342D02*
X144778571Y-89231342D01*
X145692856Y-89155152D02*
X145616666Y-89117057D01*
X145616666Y-89117057D02*
X145578571Y-89078961D01*
X145578571Y-89078961D02*
X145540475Y-89002771D01*
X145540475Y-89002771D02*
X145540475Y-88964676D01*
X145540475Y-88964676D02*
X145578571Y-88888485D01*
X145578571Y-88888485D02*
X145616666Y-88850390D01*
X145616666Y-88850390D02*
X145692856Y-88812295D01*
X145692856Y-88812295D02*
X145845237Y-88812295D01*
X145845237Y-88812295D02*
X145921428Y-88850390D01*
X145921428Y-88850390D02*
X145959523Y-88888485D01*
X145959523Y-88888485D02*
X145997618Y-88964676D01*
X145997618Y-88964676D02*
X145997618Y-89002771D01*
X145997618Y-89002771D02*
X145959523Y-89078961D01*
X145959523Y-89078961D02*
X145921428Y-89117057D01*
X145921428Y-89117057D02*
X145845237Y-89155152D01*
X145845237Y-89155152D02*
X145692856Y-89155152D01*
X145692856Y-89155152D02*
X145616666Y-89193247D01*
X145616666Y-89193247D02*
X145578571Y-89231342D01*
X145578571Y-89231342D02*
X145540475Y-89307533D01*
X145540475Y-89307533D02*
X145540475Y-89459914D01*
X145540475Y-89459914D02*
X145578571Y-89536104D01*
X145578571Y-89536104D02*
X145616666Y-89574200D01*
X145616666Y-89574200D02*
X145692856Y-89612295D01*
X145692856Y-89612295D02*
X145845237Y-89612295D01*
X145845237Y-89612295D02*
X145921428Y-89574200D01*
X145921428Y-89574200D02*
X145959523Y-89536104D01*
X145959523Y-89536104D02*
X145997618Y-89459914D01*
X145997618Y-89459914D02*
X145997618Y-89307533D01*
X145997618Y-89307533D02*
X145959523Y-89231342D01*
X145959523Y-89231342D02*
X145921428Y-89193247D01*
X145921428Y-89193247D02*
X145845237Y-89155152D01*
X146264285Y-88812295D02*
X146759523Y-88812295D01*
X146759523Y-88812295D02*
X146492857Y-89117057D01*
X146492857Y-89117057D02*
X146607142Y-89117057D01*
X146607142Y-89117057D02*
X146683333Y-89155152D01*
X146683333Y-89155152D02*
X146721428Y-89193247D01*
X146721428Y-89193247D02*
X146759523Y-89269438D01*
X146759523Y-89269438D02*
X146759523Y-89459914D01*
X146759523Y-89459914D02*
X146721428Y-89536104D01*
X146721428Y-89536104D02*
X146683333Y-89574200D01*
X146683333Y-89574200D02*
X146607142Y-89612295D01*
X146607142Y-89612295D02*
X146378571Y-89612295D01*
X146378571Y-89612295D02*
X146302380Y-89574200D01*
X146302380Y-89574200D02*
X146264285Y-89536104D01*
X84536104Y-54395237D02*
X84574200Y-54433333D01*
X84574200Y-54433333D02*
X84612295Y-54547618D01*
X84612295Y-54547618D02*
X84612295Y-54623809D01*
X84612295Y-54623809D02*
X84574200Y-54738095D01*
X84574200Y-54738095D02*
X84498009Y-54814285D01*
X84498009Y-54814285D02*
X84421819Y-54852380D01*
X84421819Y-54852380D02*
X84269438Y-54890476D01*
X84269438Y-54890476D02*
X84155152Y-54890476D01*
X84155152Y-54890476D02*
X84002771Y-54852380D01*
X84002771Y-54852380D02*
X83926580Y-54814285D01*
X83926580Y-54814285D02*
X83850390Y-54738095D01*
X83850390Y-54738095D02*
X83812295Y-54623809D01*
X83812295Y-54623809D02*
X83812295Y-54547618D01*
X83812295Y-54547618D02*
X83850390Y-54433333D01*
X83850390Y-54433333D02*
X83888485Y-54395237D01*
X84612295Y-53633333D02*
X84612295Y-54090476D01*
X84612295Y-53861904D02*
X83812295Y-53861904D01*
X83812295Y-53861904D02*
X83926580Y-53938095D01*
X83926580Y-53938095D02*
X84002771Y-54014285D01*
X84002771Y-54014285D02*
X84040866Y-54090476D01*
X83812295Y-53138094D02*
X83812295Y-53061904D01*
X83812295Y-53061904D02*
X83850390Y-52985713D01*
X83850390Y-52985713D02*
X83888485Y-52947618D01*
X83888485Y-52947618D02*
X83964676Y-52909523D01*
X83964676Y-52909523D02*
X84117057Y-52871428D01*
X84117057Y-52871428D02*
X84307533Y-52871428D01*
X84307533Y-52871428D02*
X84459914Y-52909523D01*
X84459914Y-52909523D02*
X84536104Y-52947618D01*
X84536104Y-52947618D02*
X84574200Y-52985713D01*
X84574200Y-52985713D02*
X84612295Y-53061904D01*
X84612295Y-53061904D02*
X84612295Y-53138094D01*
X84612295Y-53138094D02*
X84574200Y-53214285D01*
X84574200Y-53214285D02*
X84536104Y-53252380D01*
X84536104Y-53252380D02*
X84459914Y-53290475D01*
X84459914Y-53290475D02*
X84307533Y-53328571D01*
X84307533Y-53328571D02*
X84117057Y-53328571D01*
X84117057Y-53328571D02*
X83964676Y-53290475D01*
X83964676Y-53290475D02*
X83888485Y-53252380D01*
X83888485Y-53252380D02*
X83850390Y-53214285D01*
X83850390Y-53214285D02*
X83812295Y-53138094D01*
X83812295Y-52604761D02*
X83812295Y-52109523D01*
X83812295Y-52109523D02*
X84117057Y-52376189D01*
X84117057Y-52376189D02*
X84117057Y-52261904D01*
X84117057Y-52261904D02*
X84155152Y-52185713D01*
X84155152Y-52185713D02*
X84193247Y-52147618D01*
X84193247Y-52147618D02*
X84269438Y-52109523D01*
X84269438Y-52109523D02*
X84459914Y-52109523D01*
X84459914Y-52109523D02*
X84536104Y-52147618D01*
X84536104Y-52147618D02*
X84574200Y-52185713D01*
X84574200Y-52185713D02*
X84612295Y-52261904D01*
X84612295Y-52261904D02*
X84612295Y-52490475D01*
X84612295Y-52490475D02*
X84574200Y-52566666D01*
X84574200Y-52566666D02*
X84536104Y-52604761D01*
X123969048Y-92362295D02*
X123969048Y-91562295D01*
X124807143Y-92286104D02*
X124769047Y-92324200D01*
X124769047Y-92324200D02*
X124654762Y-92362295D01*
X124654762Y-92362295D02*
X124578571Y-92362295D01*
X124578571Y-92362295D02*
X124464285Y-92324200D01*
X124464285Y-92324200D02*
X124388095Y-92248009D01*
X124388095Y-92248009D02*
X124350000Y-92171819D01*
X124350000Y-92171819D02*
X124311904Y-92019438D01*
X124311904Y-92019438D02*
X124311904Y-91905152D01*
X124311904Y-91905152D02*
X124350000Y-91752771D01*
X124350000Y-91752771D02*
X124388095Y-91676580D01*
X124388095Y-91676580D02*
X124464285Y-91600390D01*
X124464285Y-91600390D02*
X124578571Y-91562295D01*
X124578571Y-91562295D02*
X124654762Y-91562295D01*
X124654762Y-91562295D02*
X124769047Y-91600390D01*
X124769047Y-91600390D02*
X124807143Y-91638485D01*
X125111904Y-91638485D02*
X125150000Y-91600390D01*
X125150000Y-91600390D02*
X125226190Y-91562295D01*
X125226190Y-91562295D02*
X125416666Y-91562295D01*
X125416666Y-91562295D02*
X125492857Y-91600390D01*
X125492857Y-91600390D02*
X125530952Y-91638485D01*
X125530952Y-91638485D02*
X125569047Y-91714676D01*
X125569047Y-91714676D02*
X125569047Y-91790866D01*
X125569047Y-91790866D02*
X125530952Y-91905152D01*
X125530952Y-91905152D02*
X125073809Y-92362295D01*
X125073809Y-92362295D02*
X125569047Y-92362295D01*
X147354762Y-58286104D02*
X147316666Y-58324200D01*
X147316666Y-58324200D02*
X147202381Y-58362295D01*
X147202381Y-58362295D02*
X147126190Y-58362295D01*
X147126190Y-58362295D02*
X147011904Y-58324200D01*
X147011904Y-58324200D02*
X146935714Y-58248009D01*
X146935714Y-58248009D02*
X146897619Y-58171819D01*
X146897619Y-58171819D02*
X146859523Y-58019438D01*
X146859523Y-58019438D02*
X146859523Y-57905152D01*
X146859523Y-57905152D02*
X146897619Y-57752771D01*
X146897619Y-57752771D02*
X146935714Y-57676580D01*
X146935714Y-57676580D02*
X147011904Y-57600390D01*
X147011904Y-57600390D02*
X147126190Y-57562295D01*
X147126190Y-57562295D02*
X147202381Y-57562295D01*
X147202381Y-57562295D02*
X147316666Y-57600390D01*
X147316666Y-57600390D02*
X147354762Y-57638485D01*
X148116666Y-58362295D02*
X147659523Y-58362295D01*
X147888095Y-58362295D02*
X147888095Y-57562295D01*
X147888095Y-57562295D02*
X147811904Y-57676580D01*
X147811904Y-57676580D02*
X147735714Y-57752771D01*
X147735714Y-57752771D02*
X147659523Y-57790866D01*
X148611905Y-57562295D02*
X148688095Y-57562295D01*
X148688095Y-57562295D02*
X148764286Y-57600390D01*
X148764286Y-57600390D02*
X148802381Y-57638485D01*
X148802381Y-57638485D02*
X148840476Y-57714676D01*
X148840476Y-57714676D02*
X148878571Y-57867057D01*
X148878571Y-57867057D02*
X148878571Y-58057533D01*
X148878571Y-58057533D02*
X148840476Y-58209914D01*
X148840476Y-58209914D02*
X148802381Y-58286104D01*
X148802381Y-58286104D02*
X148764286Y-58324200D01*
X148764286Y-58324200D02*
X148688095Y-58362295D01*
X148688095Y-58362295D02*
X148611905Y-58362295D01*
X148611905Y-58362295D02*
X148535714Y-58324200D01*
X148535714Y-58324200D02*
X148497619Y-58286104D01*
X148497619Y-58286104D02*
X148459524Y-58209914D01*
X148459524Y-58209914D02*
X148421428Y-58057533D01*
X148421428Y-58057533D02*
X148421428Y-57867057D01*
X148421428Y-57867057D02*
X148459524Y-57714676D01*
X148459524Y-57714676D02*
X148497619Y-57638485D01*
X148497619Y-57638485D02*
X148535714Y-57600390D01*
X148535714Y-57600390D02*
X148611905Y-57562295D01*
X149259524Y-58362295D02*
X149411905Y-58362295D01*
X149411905Y-58362295D02*
X149488095Y-58324200D01*
X149488095Y-58324200D02*
X149526191Y-58286104D01*
X149526191Y-58286104D02*
X149602381Y-58171819D01*
X149602381Y-58171819D02*
X149640476Y-58019438D01*
X149640476Y-58019438D02*
X149640476Y-57714676D01*
X149640476Y-57714676D02*
X149602381Y-57638485D01*
X149602381Y-57638485D02*
X149564286Y-57600390D01*
X149564286Y-57600390D02*
X149488095Y-57562295D01*
X149488095Y-57562295D02*
X149335714Y-57562295D01*
X149335714Y-57562295D02*
X149259524Y-57600390D01*
X149259524Y-57600390D02*
X149221429Y-57638485D01*
X149221429Y-57638485D02*
X149183333Y-57714676D01*
X149183333Y-57714676D02*
X149183333Y-57905152D01*
X149183333Y-57905152D02*
X149221429Y-57981342D01*
X149221429Y-57981342D02*
X149259524Y-58019438D01*
X149259524Y-58019438D02*
X149335714Y-58057533D01*
X149335714Y-58057533D02*
X149488095Y-58057533D01*
X149488095Y-58057533D02*
X149564286Y-58019438D01*
X149564286Y-58019438D02*
X149602381Y-57981342D01*
X149602381Y-57981342D02*
X149640476Y-57905152D01*
X130304761Y-61762295D02*
X129923809Y-61762295D01*
X129923809Y-61762295D02*
X129923809Y-60962295D01*
X130990475Y-61762295D02*
X130533332Y-61762295D01*
X130761904Y-61762295D02*
X130761904Y-60962295D01*
X130761904Y-60962295D02*
X130685713Y-61076580D01*
X130685713Y-61076580D02*
X130609523Y-61152771D01*
X130609523Y-61152771D02*
X130533332Y-61190866D01*
X131485714Y-60962295D02*
X131561904Y-60962295D01*
X131561904Y-60962295D02*
X131638095Y-61000390D01*
X131638095Y-61000390D02*
X131676190Y-61038485D01*
X131676190Y-61038485D02*
X131714285Y-61114676D01*
X131714285Y-61114676D02*
X131752380Y-61267057D01*
X131752380Y-61267057D02*
X131752380Y-61457533D01*
X131752380Y-61457533D02*
X131714285Y-61609914D01*
X131714285Y-61609914D02*
X131676190Y-61686104D01*
X131676190Y-61686104D02*
X131638095Y-61724200D01*
X131638095Y-61724200D02*
X131561904Y-61762295D01*
X131561904Y-61762295D02*
X131485714Y-61762295D01*
X131485714Y-61762295D02*
X131409523Y-61724200D01*
X131409523Y-61724200D02*
X131371428Y-61686104D01*
X131371428Y-61686104D02*
X131333333Y-61609914D01*
X131333333Y-61609914D02*
X131295237Y-61457533D01*
X131295237Y-61457533D02*
X131295237Y-61267057D01*
X131295237Y-61267057D02*
X131333333Y-61114676D01*
X131333333Y-61114676D02*
X131371428Y-61038485D01*
X131371428Y-61038485D02*
X131409523Y-61000390D01*
X131409523Y-61000390D02*
X131485714Y-60962295D01*
X132438095Y-61228961D02*
X132438095Y-61762295D01*
X132247619Y-60924200D02*
X132057142Y-61495628D01*
X132057142Y-61495628D02*
X132552381Y-61495628D01*
X70786104Y-53895237D02*
X70824200Y-53933333D01*
X70824200Y-53933333D02*
X70862295Y-54047618D01*
X70862295Y-54047618D02*
X70862295Y-54123809D01*
X70862295Y-54123809D02*
X70824200Y-54238095D01*
X70824200Y-54238095D02*
X70748009Y-54314285D01*
X70748009Y-54314285D02*
X70671819Y-54352380D01*
X70671819Y-54352380D02*
X70519438Y-54390476D01*
X70519438Y-54390476D02*
X70405152Y-54390476D01*
X70405152Y-54390476D02*
X70252771Y-54352380D01*
X70252771Y-54352380D02*
X70176580Y-54314285D01*
X70176580Y-54314285D02*
X70100390Y-54238095D01*
X70100390Y-54238095D02*
X70062295Y-54123809D01*
X70062295Y-54123809D02*
X70062295Y-54047618D01*
X70062295Y-54047618D02*
X70100390Y-53933333D01*
X70100390Y-53933333D02*
X70138485Y-53895237D01*
X70862295Y-53133333D02*
X70862295Y-53590476D01*
X70862295Y-53361904D02*
X70062295Y-53361904D01*
X70062295Y-53361904D02*
X70176580Y-53438095D01*
X70176580Y-53438095D02*
X70252771Y-53514285D01*
X70252771Y-53514285D02*
X70290866Y-53590476D01*
X70062295Y-52638094D02*
X70062295Y-52561904D01*
X70062295Y-52561904D02*
X70100390Y-52485713D01*
X70100390Y-52485713D02*
X70138485Y-52447618D01*
X70138485Y-52447618D02*
X70214676Y-52409523D01*
X70214676Y-52409523D02*
X70367057Y-52371428D01*
X70367057Y-52371428D02*
X70557533Y-52371428D01*
X70557533Y-52371428D02*
X70709914Y-52409523D01*
X70709914Y-52409523D02*
X70786104Y-52447618D01*
X70786104Y-52447618D02*
X70824200Y-52485713D01*
X70824200Y-52485713D02*
X70862295Y-52561904D01*
X70862295Y-52561904D02*
X70862295Y-52638094D01*
X70862295Y-52638094D02*
X70824200Y-52714285D01*
X70824200Y-52714285D02*
X70786104Y-52752380D01*
X70786104Y-52752380D02*
X70709914Y-52790475D01*
X70709914Y-52790475D02*
X70557533Y-52828571D01*
X70557533Y-52828571D02*
X70367057Y-52828571D01*
X70367057Y-52828571D02*
X70214676Y-52790475D01*
X70214676Y-52790475D02*
X70138485Y-52752380D01*
X70138485Y-52752380D02*
X70100390Y-52714285D01*
X70100390Y-52714285D02*
X70062295Y-52638094D01*
X70328961Y-51685713D02*
X70862295Y-51685713D01*
X70024200Y-51876189D02*
X70595628Y-52066666D01*
X70595628Y-52066666D02*
X70595628Y-51571427D01*
X107328571Y-67162295D02*
X107785714Y-67162295D01*
X107557142Y-67962295D02*
X107557142Y-67162295D01*
X108471428Y-67962295D02*
X108014285Y-67962295D01*
X108242857Y-67962295D02*
X108242857Y-67162295D01*
X108242857Y-67162295D02*
X108166666Y-67276580D01*
X108166666Y-67276580D02*
X108090476Y-67352771D01*
X108090476Y-67352771D02*
X108014285Y-67390866D01*
X108966667Y-67162295D02*
X109042857Y-67162295D01*
X109042857Y-67162295D02*
X109119048Y-67200390D01*
X109119048Y-67200390D02*
X109157143Y-67238485D01*
X109157143Y-67238485D02*
X109195238Y-67314676D01*
X109195238Y-67314676D02*
X109233333Y-67467057D01*
X109233333Y-67467057D02*
X109233333Y-67657533D01*
X109233333Y-67657533D02*
X109195238Y-67809914D01*
X109195238Y-67809914D02*
X109157143Y-67886104D01*
X109157143Y-67886104D02*
X109119048Y-67924200D01*
X109119048Y-67924200D02*
X109042857Y-67962295D01*
X109042857Y-67962295D02*
X108966667Y-67962295D01*
X108966667Y-67962295D02*
X108890476Y-67924200D01*
X108890476Y-67924200D02*
X108852381Y-67886104D01*
X108852381Y-67886104D02*
X108814286Y-67809914D01*
X108814286Y-67809914D02*
X108776190Y-67657533D01*
X108776190Y-67657533D02*
X108776190Y-67467057D01*
X108776190Y-67467057D02*
X108814286Y-67314676D01*
X108814286Y-67314676D02*
X108852381Y-67238485D01*
X108852381Y-67238485D02*
X108890476Y-67200390D01*
X108890476Y-67200390D02*
X108966667Y-67162295D01*
X109995238Y-67962295D02*
X109538095Y-67962295D01*
X109766667Y-67962295D02*
X109766667Y-67162295D01*
X109766667Y-67162295D02*
X109690476Y-67276580D01*
X109690476Y-67276580D02*
X109614286Y-67352771D01*
X109614286Y-67352771D02*
X109538095Y-67390866D01*
X145235714Y-86612295D02*
X144969047Y-86231342D01*
X144778571Y-86612295D02*
X144778571Y-85812295D01*
X144778571Y-85812295D02*
X145083333Y-85812295D01*
X145083333Y-85812295D02*
X145159523Y-85850390D01*
X145159523Y-85850390D02*
X145197618Y-85888485D01*
X145197618Y-85888485D02*
X145235714Y-85964676D01*
X145235714Y-85964676D02*
X145235714Y-86078961D01*
X145235714Y-86078961D02*
X145197618Y-86155152D01*
X145197618Y-86155152D02*
X145159523Y-86193247D01*
X145159523Y-86193247D02*
X145083333Y-86231342D01*
X145083333Y-86231342D02*
X144778571Y-86231342D01*
X145540475Y-85888485D02*
X145578571Y-85850390D01*
X145578571Y-85850390D02*
X145654761Y-85812295D01*
X145654761Y-85812295D02*
X145845237Y-85812295D01*
X145845237Y-85812295D02*
X145921428Y-85850390D01*
X145921428Y-85850390D02*
X145959523Y-85888485D01*
X145959523Y-85888485D02*
X145997618Y-85964676D01*
X145997618Y-85964676D02*
X145997618Y-86040866D01*
X145997618Y-86040866D02*
X145959523Y-86155152D01*
X145959523Y-86155152D02*
X145502380Y-86612295D01*
X145502380Y-86612295D02*
X145997618Y-86612295D01*
X146721428Y-85812295D02*
X146340476Y-85812295D01*
X146340476Y-85812295D02*
X146302380Y-86193247D01*
X146302380Y-86193247D02*
X146340476Y-86155152D01*
X146340476Y-86155152D02*
X146416666Y-86117057D01*
X146416666Y-86117057D02*
X146607142Y-86117057D01*
X146607142Y-86117057D02*
X146683333Y-86155152D01*
X146683333Y-86155152D02*
X146721428Y-86193247D01*
X146721428Y-86193247D02*
X146759523Y-86269438D01*
X146759523Y-86269438D02*
X146759523Y-86459914D01*
X146759523Y-86459914D02*
X146721428Y-86536104D01*
X146721428Y-86536104D02*
X146683333Y-86574200D01*
X146683333Y-86574200D02*
X146607142Y-86612295D01*
X146607142Y-86612295D02*
X146416666Y-86612295D01*
X146416666Y-86612295D02*
X146340476Y-86574200D01*
X146340476Y-86574200D02*
X146302380Y-86536104D01*
X80776190Y-92193247D02*
X80890476Y-92231342D01*
X80890476Y-92231342D02*
X80928571Y-92269438D01*
X80928571Y-92269438D02*
X80966667Y-92345628D01*
X80966667Y-92345628D02*
X80966667Y-92459914D01*
X80966667Y-92459914D02*
X80928571Y-92536104D01*
X80928571Y-92536104D02*
X80890476Y-92574200D01*
X80890476Y-92574200D02*
X80814286Y-92612295D01*
X80814286Y-92612295D02*
X80509524Y-92612295D01*
X80509524Y-92612295D02*
X80509524Y-91812295D01*
X80509524Y-91812295D02*
X80776190Y-91812295D01*
X80776190Y-91812295D02*
X80852381Y-91850390D01*
X80852381Y-91850390D02*
X80890476Y-91888485D01*
X80890476Y-91888485D02*
X80928571Y-91964676D01*
X80928571Y-91964676D02*
X80928571Y-92040866D01*
X80928571Y-92040866D02*
X80890476Y-92117057D01*
X80890476Y-92117057D02*
X80852381Y-92155152D01*
X80852381Y-92155152D02*
X80776190Y-92193247D01*
X80776190Y-92193247D02*
X80509524Y-92193247D01*
X81766667Y-92612295D02*
X81500000Y-92231342D01*
X81309524Y-92612295D02*
X81309524Y-91812295D01*
X81309524Y-91812295D02*
X81614286Y-91812295D01*
X81614286Y-91812295D02*
X81690476Y-91850390D01*
X81690476Y-91850390D02*
X81728571Y-91888485D01*
X81728571Y-91888485D02*
X81766667Y-91964676D01*
X81766667Y-91964676D02*
X81766667Y-92078961D01*
X81766667Y-92078961D02*
X81728571Y-92155152D01*
X81728571Y-92155152D02*
X81690476Y-92193247D01*
X81690476Y-92193247D02*
X81614286Y-92231342D01*
X81614286Y-92231342D02*
X81309524Y-92231342D01*
X82528571Y-92612295D02*
X82071428Y-92612295D01*
X82300000Y-92612295D02*
X82300000Y-91812295D01*
X82300000Y-91812295D02*
X82223809Y-91926580D01*
X82223809Y-91926580D02*
X82147619Y-92002771D01*
X82147619Y-92002771D02*
X82071428Y-92040866D01*
X89354762Y-51686104D02*
X89316666Y-51724200D01*
X89316666Y-51724200D02*
X89202381Y-51762295D01*
X89202381Y-51762295D02*
X89126190Y-51762295D01*
X89126190Y-51762295D02*
X89011904Y-51724200D01*
X89011904Y-51724200D02*
X88935714Y-51648009D01*
X88935714Y-51648009D02*
X88897619Y-51571819D01*
X88897619Y-51571819D02*
X88859523Y-51419438D01*
X88859523Y-51419438D02*
X88859523Y-51305152D01*
X88859523Y-51305152D02*
X88897619Y-51152771D01*
X88897619Y-51152771D02*
X88935714Y-51076580D01*
X88935714Y-51076580D02*
X89011904Y-51000390D01*
X89011904Y-51000390D02*
X89126190Y-50962295D01*
X89126190Y-50962295D02*
X89202381Y-50962295D01*
X89202381Y-50962295D02*
X89316666Y-51000390D01*
X89316666Y-51000390D02*
X89354762Y-51038485D01*
X90116666Y-51762295D02*
X89659523Y-51762295D01*
X89888095Y-51762295D02*
X89888095Y-50962295D01*
X89888095Y-50962295D02*
X89811904Y-51076580D01*
X89811904Y-51076580D02*
X89735714Y-51152771D01*
X89735714Y-51152771D02*
X89659523Y-51190866D01*
X90611905Y-50962295D02*
X90688095Y-50962295D01*
X90688095Y-50962295D02*
X90764286Y-51000390D01*
X90764286Y-51000390D02*
X90802381Y-51038485D01*
X90802381Y-51038485D02*
X90840476Y-51114676D01*
X90840476Y-51114676D02*
X90878571Y-51267057D01*
X90878571Y-51267057D02*
X90878571Y-51457533D01*
X90878571Y-51457533D02*
X90840476Y-51609914D01*
X90840476Y-51609914D02*
X90802381Y-51686104D01*
X90802381Y-51686104D02*
X90764286Y-51724200D01*
X90764286Y-51724200D02*
X90688095Y-51762295D01*
X90688095Y-51762295D02*
X90611905Y-51762295D01*
X90611905Y-51762295D02*
X90535714Y-51724200D01*
X90535714Y-51724200D02*
X90497619Y-51686104D01*
X90497619Y-51686104D02*
X90459524Y-51609914D01*
X90459524Y-51609914D02*
X90421428Y-51457533D01*
X90421428Y-51457533D02*
X90421428Y-51267057D01*
X90421428Y-51267057D02*
X90459524Y-51114676D01*
X90459524Y-51114676D02*
X90497619Y-51038485D01*
X90497619Y-51038485D02*
X90535714Y-51000390D01*
X90535714Y-51000390D02*
X90611905Y-50962295D01*
X91602381Y-50962295D02*
X91221429Y-50962295D01*
X91221429Y-50962295D02*
X91183333Y-51343247D01*
X91183333Y-51343247D02*
X91221429Y-51305152D01*
X91221429Y-51305152D02*
X91297619Y-51267057D01*
X91297619Y-51267057D02*
X91488095Y-51267057D01*
X91488095Y-51267057D02*
X91564286Y-51305152D01*
X91564286Y-51305152D02*
X91602381Y-51343247D01*
X91602381Y-51343247D02*
X91640476Y-51419438D01*
X91640476Y-51419438D02*
X91640476Y-51609914D01*
X91640476Y-51609914D02*
X91602381Y-51686104D01*
X91602381Y-51686104D02*
X91564286Y-51724200D01*
X91564286Y-51724200D02*
X91488095Y-51762295D01*
X91488095Y-51762295D02*
X91297619Y-51762295D01*
X91297619Y-51762295D02*
X91221429Y-51724200D01*
X91221429Y-51724200D02*
X91183333Y-51686104D01*
X158812295Y-68266666D02*
X159383723Y-68266666D01*
X159383723Y-68266666D02*
X159498009Y-68304761D01*
X159498009Y-68304761D02*
X159574200Y-68380952D01*
X159574200Y-68380952D02*
X159612295Y-68495237D01*
X159612295Y-68495237D02*
X159612295Y-68571428D01*
X158888485Y-67923809D02*
X158850390Y-67885713D01*
X158850390Y-67885713D02*
X158812295Y-67809523D01*
X158812295Y-67809523D02*
X158812295Y-67619047D01*
X158812295Y-67619047D02*
X158850390Y-67542856D01*
X158850390Y-67542856D02*
X158888485Y-67504761D01*
X158888485Y-67504761D02*
X158964676Y-67466666D01*
X158964676Y-67466666D02*
X159040866Y-67466666D01*
X159040866Y-67466666D02*
X159155152Y-67504761D01*
X159155152Y-67504761D02*
X159612295Y-67961904D01*
X159612295Y-67961904D02*
X159612295Y-67466666D01*
X65604762Y-92286104D02*
X65566666Y-92324200D01*
X65566666Y-92324200D02*
X65452381Y-92362295D01*
X65452381Y-92362295D02*
X65376190Y-92362295D01*
X65376190Y-92362295D02*
X65261904Y-92324200D01*
X65261904Y-92324200D02*
X65185714Y-92248009D01*
X65185714Y-92248009D02*
X65147619Y-92171819D01*
X65147619Y-92171819D02*
X65109523Y-92019438D01*
X65109523Y-92019438D02*
X65109523Y-91905152D01*
X65109523Y-91905152D02*
X65147619Y-91752771D01*
X65147619Y-91752771D02*
X65185714Y-91676580D01*
X65185714Y-91676580D02*
X65261904Y-91600390D01*
X65261904Y-91600390D02*
X65376190Y-91562295D01*
X65376190Y-91562295D02*
X65452381Y-91562295D01*
X65452381Y-91562295D02*
X65566666Y-91600390D01*
X65566666Y-91600390D02*
X65604762Y-91638485D01*
X66366666Y-92362295D02*
X65909523Y-92362295D01*
X66138095Y-92362295D02*
X66138095Y-91562295D01*
X66138095Y-91562295D02*
X66061904Y-91676580D01*
X66061904Y-91676580D02*
X65985714Y-91752771D01*
X65985714Y-91752771D02*
X65909523Y-91790866D01*
X66861905Y-91562295D02*
X66938095Y-91562295D01*
X66938095Y-91562295D02*
X67014286Y-91600390D01*
X67014286Y-91600390D02*
X67052381Y-91638485D01*
X67052381Y-91638485D02*
X67090476Y-91714676D01*
X67090476Y-91714676D02*
X67128571Y-91867057D01*
X67128571Y-91867057D02*
X67128571Y-92057533D01*
X67128571Y-92057533D02*
X67090476Y-92209914D01*
X67090476Y-92209914D02*
X67052381Y-92286104D01*
X67052381Y-92286104D02*
X67014286Y-92324200D01*
X67014286Y-92324200D02*
X66938095Y-92362295D01*
X66938095Y-92362295D02*
X66861905Y-92362295D01*
X66861905Y-92362295D02*
X66785714Y-92324200D01*
X66785714Y-92324200D02*
X66747619Y-92286104D01*
X66747619Y-92286104D02*
X66709524Y-92209914D01*
X66709524Y-92209914D02*
X66671428Y-92057533D01*
X66671428Y-92057533D02*
X66671428Y-91867057D01*
X66671428Y-91867057D02*
X66709524Y-91714676D01*
X66709524Y-91714676D02*
X66747619Y-91638485D01*
X66747619Y-91638485D02*
X66785714Y-91600390D01*
X66785714Y-91600390D02*
X66861905Y-91562295D01*
X67890476Y-92362295D02*
X67433333Y-92362295D01*
X67661905Y-92362295D02*
X67661905Y-91562295D01*
X67661905Y-91562295D02*
X67585714Y-91676580D01*
X67585714Y-91676580D02*
X67509524Y-91752771D01*
X67509524Y-91752771D02*
X67433333Y-91790866D01*
X89862295Y-70645238D02*
X89862295Y-71026190D01*
X89862295Y-71026190D02*
X89062295Y-71026190D01*
X89862295Y-69959524D02*
X89862295Y-70416667D01*
X89862295Y-70188095D02*
X89062295Y-70188095D01*
X89062295Y-70188095D02*
X89176580Y-70264286D01*
X89176580Y-70264286D02*
X89252771Y-70340476D01*
X89252771Y-70340476D02*
X89290866Y-70416667D01*
X89062295Y-69464285D02*
X89062295Y-69388095D01*
X89062295Y-69388095D02*
X89100390Y-69311904D01*
X89100390Y-69311904D02*
X89138485Y-69273809D01*
X89138485Y-69273809D02*
X89214676Y-69235714D01*
X89214676Y-69235714D02*
X89367057Y-69197619D01*
X89367057Y-69197619D02*
X89557533Y-69197619D01*
X89557533Y-69197619D02*
X89709914Y-69235714D01*
X89709914Y-69235714D02*
X89786104Y-69273809D01*
X89786104Y-69273809D02*
X89824200Y-69311904D01*
X89824200Y-69311904D02*
X89862295Y-69388095D01*
X89862295Y-69388095D02*
X89862295Y-69464285D01*
X89862295Y-69464285D02*
X89824200Y-69540476D01*
X89824200Y-69540476D02*
X89786104Y-69578571D01*
X89786104Y-69578571D02*
X89709914Y-69616666D01*
X89709914Y-69616666D02*
X89557533Y-69654762D01*
X89557533Y-69654762D02*
X89367057Y-69654762D01*
X89367057Y-69654762D02*
X89214676Y-69616666D01*
X89214676Y-69616666D02*
X89138485Y-69578571D01*
X89138485Y-69578571D02*
X89100390Y-69540476D01*
X89100390Y-69540476D02*
X89062295Y-69464285D01*
X89138485Y-68892857D02*
X89100390Y-68854761D01*
X89100390Y-68854761D02*
X89062295Y-68778571D01*
X89062295Y-68778571D02*
X89062295Y-68588095D01*
X89062295Y-68588095D02*
X89100390Y-68511904D01*
X89100390Y-68511904D02*
X89138485Y-68473809D01*
X89138485Y-68473809D02*
X89214676Y-68435714D01*
X89214676Y-68435714D02*
X89290866Y-68435714D01*
X89290866Y-68435714D02*
X89405152Y-68473809D01*
X89405152Y-68473809D02*
X89862295Y-68930952D01*
X89862295Y-68930952D02*
X89862295Y-68435714D01*
X151004762Y-85986104D02*
X150966666Y-86024200D01*
X150966666Y-86024200D02*
X150852381Y-86062295D01*
X150852381Y-86062295D02*
X150776190Y-86062295D01*
X150776190Y-86062295D02*
X150661904Y-86024200D01*
X150661904Y-86024200D02*
X150585714Y-85948009D01*
X150585714Y-85948009D02*
X150547619Y-85871819D01*
X150547619Y-85871819D02*
X150509523Y-85719438D01*
X150509523Y-85719438D02*
X150509523Y-85605152D01*
X150509523Y-85605152D02*
X150547619Y-85452771D01*
X150547619Y-85452771D02*
X150585714Y-85376580D01*
X150585714Y-85376580D02*
X150661904Y-85300390D01*
X150661904Y-85300390D02*
X150776190Y-85262295D01*
X150776190Y-85262295D02*
X150852381Y-85262295D01*
X150852381Y-85262295D02*
X150966666Y-85300390D01*
X150966666Y-85300390D02*
X151004762Y-85338485D01*
X151766666Y-86062295D02*
X151309523Y-86062295D01*
X151538095Y-86062295D02*
X151538095Y-85262295D01*
X151538095Y-85262295D02*
X151461904Y-85376580D01*
X151461904Y-85376580D02*
X151385714Y-85452771D01*
X151385714Y-85452771D02*
X151309523Y-85490866D01*
X152528571Y-86062295D02*
X152071428Y-86062295D01*
X152300000Y-86062295D02*
X152300000Y-85262295D01*
X152300000Y-85262295D02*
X152223809Y-85376580D01*
X152223809Y-85376580D02*
X152147619Y-85452771D01*
X152147619Y-85452771D02*
X152071428Y-85490866D01*
X153023810Y-85262295D02*
X153100000Y-85262295D01*
X153100000Y-85262295D02*
X153176191Y-85300390D01*
X153176191Y-85300390D02*
X153214286Y-85338485D01*
X153214286Y-85338485D02*
X153252381Y-85414676D01*
X153252381Y-85414676D02*
X153290476Y-85567057D01*
X153290476Y-85567057D02*
X153290476Y-85757533D01*
X153290476Y-85757533D02*
X153252381Y-85909914D01*
X153252381Y-85909914D02*
X153214286Y-85986104D01*
X153214286Y-85986104D02*
X153176191Y-86024200D01*
X153176191Y-86024200D02*
X153100000Y-86062295D01*
X153100000Y-86062295D02*
X153023810Y-86062295D01*
X153023810Y-86062295D02*
X152947619Y-86024200D01*
X152947619Y-86024200D02*
X152909524Y-85986104D01*
X152909524Y-85986104D02*
X152871429Y-85909914D01*
X152871429Y-85909914D02*
X152833333Y-85757533D01*
X152833333Y-85757533D02*
X152833333Y-85567057D01*
X152833333Y-85567057D02*
X152871429Y-85414676D01*
X152871429Y-85414676D02*
X152909524Y-85338485D01*
X152909524Y-85338485D02*
X152947619Y-85300390D01*
X152947619Y-85300390D02*
X153023810Y-85262295D01*
X105004762Y-53386104D02*
X104966666Y-53424200D01*
X104966666Y-53424200D02*
X104852381Y-53462295D01*
X104852381Y-53462295D02*
X104776190Y-53462295D01*
X104776190Y-53462295D02*
X104661904Y-53424200D01*
X104661904Y-53424200D02*
X104585714Y-53348009D01*
X104585714Y-53348009D02*
X104547619Y-53271819D01*
X104547619Y-53271819D02*
X104509523Y-53119438D01*
X104509523Y-53119438D02*
X104509523Y-53005152D01*
X104509523Y-53005152D02*
X104547619Y-52852771D01*
X104547619Y-52852771D02*
X104585714Y-52776580D01*
X104585714Y-52776580D02*
X104661904Y-52700390D01*
X104661904Y-52700390D02*
X104776190Y-52662295D01*
X104776190Y-52662295D02*
X104852381Y-52662295D01*
X104852381Y-52662295D02*
X104966666Y-52700390D01*
X104966666Y-52700390D02*
X105004762Y-52738485D01*
X105766666Y-53462295D02*
X105309523Y-53462295D01*
X105538095Y-53462295D02*
X105538095Y-52662295D01*
X105538095Y-52662295D02*
X105461904Y-52776580D01*
X105461904Y-52776580D02*
X105385714Y-52852771D01*
X105385714Y-52852771D02*
X105309523Y-52890866D01*
X106261905Y-52662295D02*
X106338095Y-52662295D01*
X106338095Y-52662295D02*
X106414286Y-52700390D01*
X106414286Y-52700390D02*
X106452381Y-52738485D01*
X106452381Y-52738485D02*
X106490476Y-52814676D01*
X106490476Y-52814676D02*
X106528571Y-52967057D01*
X106528571Y-52967057D02*
X106528571Y-53157533D01*
X106528571Y-53157533D02*
X106490476Y-53309914D01*
X106490476Y-53309914D02*
X106452381Y-53386104D01*
X106452381Y-53386104D02*
X106414286Y-53424200D01*
X106414286Y-53424200D02*
X106338095Y-53462295D01*
X106338095Y-53462295D02*
X106261905Y-53462295D01*
X106261905Y-53462295D02*
X106185714Y-53424200D01*
X106185714Y-53424200D02*
X106147619Y-53386104D01*
X106147619Y-53386104D02*
X106109524Y-53309914D01*
X106109524Y-53309914D02*
X106071428Y-53157533D01*
X106071428Y-53157533D02*
X106071428Y-52967057D01*
X106071428Y-52967057D02*
X106109524Y-52814676D01*
X106109524Y-52814676D02*
X106147619Y-52738485D01*
X106147619Y-52738485D02*
X106185714Y-52700390D01*
X106185714Y-52700390D02*
X106261905Y-52662295D01*
X106795238Y-52662295D02*
X107328572Y-52662295D01*
X107328572Y-52662295D02*
X106985714Y-53462295D01*
X72204762Y-69786104D02*
X72166666Y-69824200D01*
X72166666Y-69824200D02*
X72052381Y-69862295D01*
X72052381Y-69862295D02*
X71976190Y-69862295D01*
X71976190Y-69862295D02*
X71861904Y-69824200D01*
X71861904Y-69824200D02*
X71785714Y-69748009D01*
X71785714Y-69748009D02*
X71747619Y-69671819D01*
X71747619Y-69671819D02*
X71709523Y-69519438D01*
X71709523Y-69519438D02*
X71709523Y-69405152D01*
X71709523Y-69405152D02*
X71747619Y-69252771D01*
X71747619Y-69252771D02*
X71785714Y-69176580D01*
X71785714Y-69176580D02*
X71861904Y-69100390D01*
X71861904Y-69100390D02*
X71976190Y-69062295D01*
X71976190Y-69062295D02*
X72052381Y-69062295D01*
X72052381Y-69062295D02*
X72166666Y-69100390D01*
X72166666Y-69100390D02*
X72204762Y-69138485D01*
X72966666Y-69862295D02*
X72509523Y-69862295D01*
X72738095Y-69862295D02*
X72738095Y-69062295D01*
X72738095Y-69062295D02*
X72661904Y-69176580D01*
X72661904Y-69176580D02*
X72585714Y-69252771D01*
X72585714Y-69252771D02*
X72509523Y-69290866D01*
X73461905Y-69062295D02*
X73538095Y-69062295D01*
X73538095Y-69062295D02*
X73614286Y-69100390D01*
X73614286Y-69100390D02*
X73652381Y-69138485D01*
X73652381Y-69138485D02*
X73690476Y-69214676D01*
X73690476Y-69214676D02*
X73728571Y-69367057D01*
X73728571Y-69367057D02*
X73728571Y-69557533D01*
X73728571Y-69557533D02*
X73690476Y-69709914D01*
X73690476Y-69709914D02*
X73652381Y-69786104D01*
X73652381Y-69786104D02*
X73614286Y-69824200D01*
X73614286Y-69824200D02*
X73538095Y-69862295D01*
X73538095Y-69862295D02*
X73461905Y-69862295D01*
X73461905Y-69862295D02*
X73385714Y-69824200D01*
X73385714Y-69824200D02*
X73347619Y-69786104D01*
X73347619Y-69786104D02*
X73309524Y-69709914D01*
X73309524Y-69709914D02*
X73271428Y-69557533D01*
X73271428Y-69557533D02*
X73271428Y-69367057D01*
X73271428Y-69367057D02*
X73309524Y-69214676D01*
X73309524Y-69214676D02*
X73347619Y-69138485D01*
X73347619Y-69138485D02*
X73385714Y-69100390D01*
X73385714Y-69100390D02*
X73461905Y-69062295D01*
X74414286Y-69062295D02*
X74261905Y-69062295D01*
X74261905Y-69062295D02*
X74185714Y-69100390D01*
X74185714Y-69100390D02*
X74147619Y-69138485D01*
X74147619Y-69138485D02*
X74071429Y-69252771D01*
X74071429Y-69252771D02*
X74033333Y-69405152D01*
X74033333Y-69405152D02*
X74033333Y-69709914D01*
X74033333Y-69709914D02*
X74071429Y-69786104D01*
X74071429Y-69786104D02*
X74109524Y-69824200D01*
X74109524Y-69824200D02*
X74185714Y-69862295D01*
X74185714Y-69862295D02*
X74338095Y-69862295D01*
X74338095Y-69862295D02*
X74414286Y-69824200D01*
X74414286Y-69824200D02*
X74452381Y-69786104D01*
X74452381Y-69786104D02*
X74490476Y-69709914D01*
X74490476Y-69709914D02*
X74490476Y-69519438D01*
X74490476Y-69519438D02*
X74452381Y-69443247D01*
X74452381Y-69443247D02*
X74414286Y-69405152D01*
X74414286Y-69405152D02*
X74338095Y-69367057D01*
X74338095Y-69367057D02*
X74185714Y-69367057D01*
X74185714Y-69367057D02*
X74109524Y-69405152D01*
X74109524Y-69405152D02*
X74071429Y-69443247D01*
X74071429Y-69443247D02*
X74033333Y-69519438D01*
X54383333Y-79562295D02*
X54383333Y-80133723D01*
X54383333Y-80133723D02*
X54345238Y-80248009D01*
X54345238Y-80248009D02*
X54269047Y-80324200D01*
X54269047Y-80324200D02*
X54154762Y-80362295D01*
X54154762Y-80362295D02*
X54078571Y-80362295D01*
X55183333Y-80362295D02*
X54726190Y-80362295D01*
X54954762Y-80362295D02*
X54954762Y-79562295D01*
X54954762Y-79562295D02*
X54878571Y-79676580D01*
X54878571Y-79676580D02*
X54802381Y-79752771D01*
X54802381Y-79752771D02*
X54726190Y-79790866D01*
X121104762Y-54986104D02*
X121066666Y-55024200D01*
X121066666Y-55024200D02*
X120952381Y-55062295D01*
X120952381Y-55062295D02*
X120876190Y-55062295D01*
X120876190Y-55062295D02*
X120761904Y-55024200D01*
X120761904Y-55024200D02*
X120685714Y-54948009D01*
X120685714Y-54948009D02*
X120647619Y-54871819D01*
X120647619Y-54871819D02*
X120609523Y-54719438D01*
X120609523Y-54719438D02*
X120609523Y-54605152D01*
X120609523Y-54605152D02*
X120647619Y-54452771D01*
X120647619Y-54452771D02*
X120685714Y-54376580D01*
X120685714Y-54376580D02*
X120761904Y-54300390D01*
X120761904Y-54300390D02*
X120876190Y-54262295D01*
X120876190Y-54262295D02*
X120952381Y-54262295D01*
X120952381Y-54262295D02*
X121066666Y-54300390D01*
X121066666Y-54300390D02*
X121104762Y-54338485D01*
X121866666Y-55062295D02*
X121409523Y-55062295D01*
X121638095Y-55062295D02*
X121638095Y-54262295D01*
X121638095Y-54262295D02*
X121561904Y-54376580D01*
X121561904Y-54376580D02*
X121485714Y-54452771D01*
X121485714Y-54452771D02*
X121409523Y-54490866D01*
X122361905Y-54262295D02*
X122438095Y-54262295D01*
X122438095Y-54262295D02*
X122514286Y-54300390D01*
X122514286Y-54300390D02*
X122552381Y-54338485D01*
X122552381Y-54338485D02*
X122590476Y-54414676D01*
X122590476Y-54414676D02*
X122628571Y-54567057D01*
X122628571Y-54567057D02*
X122628571Y-54757533D01*
X122628571Y-54757533D02*
X122590476Y-54909914D01*
X122590476Y-54909914D02*
X122552381Y-54986104D01*
X122552381Y-54986104D02*
X122514286Y-55024200D01*
X122514286Y-55024200D02*
X122438095Y-55062295D01*
X122438095Y-55062295D02*
X122361905Y-55062295D01*
X122361905Y-55062295D02*
X122285714Y-55024200D01*
X122285714Y-55024200D02*
X122247619Y-54986104D01*
X122247619Y-54986104D02*
X122209524Y-54909914D01*
X122209524Y-54909914D02*
X122171428Y-54757533D01*
X122171428Y-54757533D02*
X122171428Y-54567057D01*
X122171428Y-54567057D02*
X122209524Y-54414676D01*
X122209524Y-54414676D02*
X122247619Y-54338485D01*
X122247619Y-54338485D02*
X122285714Y-54300390D01*
X122285714Y-54300390D02*
X122361905Y-54262295D01*
X123085714Y-54605152D02*
X123009524Y-54567057D01*
X123009524Y-54567057D02*
X122971429Y-54528961D01*
X122971429Y-54528961D02*
X122933333Y-54452771D01*
X122933333Y-54452771D02*
X122933333Y-54414676D01*
X122933333Y-54414676D02*
X122971429Y-54338485D01*
X122971429Y-54338485D02*
X123009524Y-54300390D01*
X123009524Y-54300390D02*
X123085714Y-54262295D01*
X123085714Y-54262295D02*
X123238095Y-54262295D01*
X123238095Y-54262295D02*
X123314286Y-54300390D01*
X123314286Y-54300390D02*
X123352381Y-54338485D01*
X123352381Y-54338485D02*
X123390476Y-54414676D01*
X123390476Y-54414676D02*
X123390476Y-54452771D01*
X123390476Y-54452771D02*
X123352381Y-54528961D01*
X123352381Y-54528961D02*
X123314286Y-54567057D01*
X123314286Y-54567057D02*
X123238095Y-54605152D01*
X123238095Y-54605152D02*
X123085714Y-54605152D01*
X123085714Y-54605152D02*
X123009524Y-54643247D01*
X123009524Y-54643247D02*
X122971429Y-54681342D01*
X122971429Y-54681342D02*
X122933333Y-54757533D01*
X122933333Y-54757533D02*
X122933333Y-54909914D01*
X122933333Y-54909914D02*
X122971429Y-54986104D01*
X122971429Y-54986104D02*
X123009524Y-55024200D01*
X123009524Y-55024200D02*
X123085714Y-55062295D01*
X123085714Y-55062295D02*
X123238095Y-55062295D01*
X123238095Y-55062295D02*
X123314286Y-55024200D01*
X123314286Y-55024200D02*
X123352381Y-54986104D01*
X123352381Y-54986104D02*
X123390476Y-54909914D01*
X123390476Y-54909914D02*
X123390476Y-54757533D01*
X123390476Y-54757533D02*
X123352381Y-54681342D01*
X123352381Y-54681342D02*
X123314286Y-54643247D01*
X123314286Y-54643247D02*
X123238095Y-54605152D01*
X59323810Y-81162295D02*
X59057143Y-80781342D01*
X58866667Y-81162295D02*
X58866667Y-80362295D01*
X58866667Y-80362295D02*
X59171429Y-80362295D01*
X59171429Y-80362295D02*
X59247619Y-80400390D01*
X59247619Y-80400390D02*
X59285714Y-80438485D01*
X59285714Y-80438485D02*
X59323810Y-80514676D01*
X59323810Y-80514676D02*
X59323810Y-80628961D01*
X59323810Y-80628961D02*
X59285714Y-80705152D01*
X59285714Y-80705152D02*
X59247619Y-80743247D01*
X59247619Y-80743247D02*
X59171429Y-80781342D01*
X59171429Y-80781342D02*
X58866667Y-80781342D01*
X59552381Y-80362295D02*
X59819048Y-81162295D01*
X59819048Y-81162295D02*
X60085714Y-80362295D01*
X60771428Y-81162295D02*
X60314285Y-81162295D01*
X60542857Y-81162295D02*
X60542857Y-80362295D01*
X60542857Y-80362295D02*
X60466666Y-80476580D01*
X60466666Y-80476580D02*
X60390476Y-80552771D01*
X60390476Y-80552771D02*
X60314285Y-80590866D01*
X98119048Y-76362295D02*
X98119048Y-75562295D01*
X98957143Y-76286104D02*
X98919047Y-76324200D01*
X98919047Y-76324200D02*
X98804762Y-76362295D01*
X98804762Y-76362295D02*
X98728571Y-76362295D01*
X98728571Y-76362295D02*
X98614285Y-76324200D01*
X98614285Y-76324200D02*
X98538095Y-76248009D01*
X98538095Y-76248009D02*
X98500000Y-76171819D01*
X98500000Y-76171819D02*
X98461904Y-76019438D01*
X98461904Y-76019438D02*
X98461904Y-75905152D01*
X98461904Y-75905152D02*
X98500000Y-75752771D01*
X98500000Y-75752771D02*
X98538095Y-75676580D01*
X98538095Y-75676580D02*
X98614285Y-75600390D01*
X98614285Y-75600390D02*
X98728571Y-75562295D01*
X98728571Y-75562295D02*
X98804762Y-75562295D01*
X98804762Y-75562295D02*
X98919047Y-75600390D01*
X98919047Y-75600390D02*
X98957143Y-75638485D01*
X99719047Y-76362295D02*
X99261904Y-76362295D01*
X99490476Y-76362295D02*
X99490476Y-75562295D01*
X99490476Y-75562295D02*
X99414285Y-75676580D01*
X99414285Y-75676580D02*
X99338095Y-75752771D01*
X99338095Y-75752771D02*
X99261904Y-75790866D01*
X60983333Y-66443247D02*
X60716667Y-66443247D01*
X60716667Y-66862295D02*
X60716667Y-66062295D01*
X60716667Y-66062295D02*
X61097619Y-66062295D01*
X61821428Y-66862295D02*
X61364285Y-66862295D01*
X61592857Y-66862295D02*
X61592857Y-66062295D01*
X61592857Y-66062295D02*
X61516666Y-66176580D01*
X61516666Y-66176580D02*
X61440476Y-66252771D01*
X61440476Y-66252771D02*
X61364285Y-66290866D01*
X98186104Y-82195237D02*
X98224200Y-82233333D01*
X98224200Y-82233333D02*
X98262295Y-82347618D01*
X98262295Y-82347618D02*
X98262295Y-82423809D01*
X98262295Y-82423809D02*
X98224200Y-82538095D01*
X98224200Y-82538095D02*
X98148009Y-82614285D01*
X98148009Y-82614285D02*
X98071819Y-82652380D01*
X98071819Y-82652380D02*
X97919438Y-82690476D01*
X97919438Y-82690476D02*
X97805152Y-82690476D01*
X97805152Y-82690476D02*
X97652771Y-82652380D01*
X97652771Y-82652380D02*
X97576580Y-82614285D01*
X97576580Y-82614285D02*
X97500390Y-82538095D01*
X97500390Y-82538095D02*
X97462295Y-82423809D01*
X97462295Y-82423809D02*
X97462295Y-82347618D01*
X97462295Y-82347618D02*
X97500390Y-82233333D01*
X97500390Y-82233333D02*
X97538485Y-82195237D01*
X98262295Y-81433333D02*
X98262295Y-81890476D01*
X98262295Y-81661904D02*
X97462295Y-81661904D01*
X97462295Y-81661904D02*
X97576580Y-81738095D01*
X97576580Y-81738095D02*
X97652771Y-81814285D01*
X97652771Y-81814285D02*
X97690866Y-81890476D01*
X97462295Y-80938094D02*
X97462295Y-80861904D01*
X97462295Y-80861904D02*
X97500390Y-80785713D01*
X97500390Y-80785713D02*
X97538485Y-80747618D01*
X97538485Y-80747618D02*
X97614676Y-80709523D01*
X97614676Y-80709523D02*
X97767057Y-80671428D01*
X97767057Y-80671428D02*
X97957533Y-80671428D01*
X97957533Y-80671428D02*
X98109914Y-80709523D01*
X98109914Y-80709523D02*
X98186104Y-80747618D01*
X98186104Y-80747618D02*
X98224200Y-80785713D01*
X98224200Y-80785713D02*
X98262295Y-80861904D01*
X98262295Y-80861904D02*
X98262295Y-80938094D01*
X98262295Y-80938094D02*
X98224200Y-81014285D01*
X98224200Y-81014285D02*
X98186104Y-81052380D01*
X98186104Y-81052380D02*
X98109914Y-81090475D01*
X98109914Y-81090475D02*
X97957533Y-81128571D01*
X97957533Y-81128571D02*
X97767057Y-81128571D01*
X97767057Y-81128571D02*
X97614676Y-81090475D01*
X97614676Y-81090475D02*
X97538485Y-81052380D01*
X97538485Y-81052380D02*
X97500390Y-81014285D01*
X97500390Y-81014285D02*
X97462295Y-80938094D01*
X97538485Y-80366666D02*
X97500390Y-80328570D01*
X97500390Y-80328570D02*
X97462295Y-80252380D01*
X97462295Y-80252380D02*
X97462295Y-80061904D01*
X97462295Y-80061904D02*
X97500390Y-79985713D01*
X97500390Y-79985713D02*
X97538485Y-79947618D01*
X97538485Y-79947618D02*
X97614676Y-79909523D01*
X97614676Y-79909523D02*
X97690866Y-79909523D01*
X97690866Y-79909523D02*
X97805152Y-79947618D01*
X97805152Y-79947618D02*
X98262295Y-80404761D01*
X98262295Y-80404761D02*
X98262295Y-79909523D01*
X145235714Y-88112295D02*
X144969047Y-87731342D01*
X144778571Y-88112295D02*
X144778571Y-87312295D01*
X144778571Y-87312295D02*
X145083333Y-87312295D01*
X145083333Y-87312295D02*
X145159523Y-87350390D01*
X145159523Y-87350390D02*
X145197618Y-87388485D01*
X145197618Y-87388485D02*
X145235714Y-87464676D01*
X145235714Y-87464676D02*
X145235714Y-87578961D01*
X145235714Y-87578961D02*
X145197618Y-87655152D01*
X145197618Y-87655152D02*
X145159523Y-87693247D01*
X145159523Y-87693247D02*
X145083333Y-87731342D01*
X145083333Y-87731342D02*
X144778571Y-87731342D01*
X145540475Y-87388485D02*
X145578571Y-87350390D01*
X145578571Y-87350390D02*
X145654761Y-87312295D01*
X145654761Y-87312295D02*
X145845237Y-87312295D01*
X145845237Y-87312295D02*
X145921428Y-87350390D01*
X145921428Y-87350390D02*
X145959523Y-87388485D01*
X145959523Y-87388485D02*
X145997618Y-87464676D01*
X145997618Y-87464676D02*
X145997618Y-87540866D01*
X145997618Y-87540866D02*
X145959523Y-87655152D01*
X145959523Y-87655152D02*
X145502380Y-88112295D01*
X145502380Y-88112295D02*
X145997618Y-88112295D01*
X146683333Y-87578961D02*
X146683333Y-88112295D01*
X146492857Y-87274200D02*
X146302380Y-87845628D01*
X146302380Y-87845628D02*
X146797619Y-87845628D01*
X70894810Y-75973272D02*
X70513858Y-75973272D01*
X70513858Y-75973272D02*
X70513858Y-75173272D01*
X71580524Y-75973272D02*
X71123381Y-75973272D01*
X71351953Y-75973272D02*
X71351953Y-75173272D01*
X71351953Y-75173272D02*
X71275762Y-75287557D01*
X71275762Y-75287557D02*
X71199572Y-75363748D01*
X71199572Y-75363748D02*
X71123381Y-75401843D01*
X72075763Y-75173272D02*
X72151953Y-75173272D01*
X72151953Y-75173272D02*
X72228144Y-75211367D01*
X72228144Y-75211367D02*
X72266239Y-75249462D01*
X72266239Y-75249462D02*
X72304334Y-75325653D01*
X72304334Y-75325653D02*
X72342429Y-75478034D01*
X72342429Y-75478034D02*
X72342429Y-75668510D01*
X72342429Y-75668510D02*
X72304334Y-75820891D01*
X72304334Y-75820891D02*
X72266239Y-75897081D01*
X72266239Y-75897081D02*
X72228144Y-75935177D01*
X72228144Y-75935177D02*
X72151953Y-75973272D01*
X72151953Y-75973272D02*
X72075763Y-75973272D01*
X72075763Y-75973272D02*
X71999572Y-75935177D01*
X71999572Y-75935177D02*
X71961477Y-75897081D01*
X71961477Y-75897081D02*
X71923382Y-75820891D01*
X71923382Y-75820891D02*
X71885286Y-75668510D01*
X71885286Y-75668510D02*
X71885286Y-75478034D01*
X71885286Y-75478034D02*
X71923382Y-75325653D01*
X71923382Y-75325653D02*
X71961477Y-75249462D01*
X71961477Y-75249462D02*
X71999572Y-75211367D01*
X71999572Y-75211367D02*
X72075763Y-75173272D01*
X73104334Y-75973272D02*
X72647191Y-75973272D01*
X72875763Y-75973272D02*
X72875763Y-75173272D01*
X72875763Y-75173272D02*
X72799572Y-75287557D01*
X72799572Y-75287557D02*
X72723382Y-75363748D01*
X72723382Y-75363748D02*
X72647191Y-75401843D01*
X61061905Y-57982295D02*
X60795238Y-57601342D01*
X60604762Y-57982295D02*
X60604762Y-57182295D01*
X60604762Y-57182295D02*
X60909524Y-57182295D01*
X60909524Y-57182295D02*
X60985714Y-57220390D01*
X60985714Y-57220390D02*
X61023809Y-57258485D01*
X61023809Y-57258485D02*
X61061905Y-57334676D01*
X61061905Y-57334676D02*
X61061905Y-57448961D01*
X61061905Y-57448961D02*
X61023809Y-57525152D01*
X61023809Y-57525152D02*
X60985714Y-57563247D01*
X60985714Y-57563247D02*
X60909524Y-57601342D01*
X60909524Y-57601342D02*
X60604762Y-57601342D01*
X61290476Y-57182295D02*
X61747619Y-57182295D01*
X61519047Y-57982295D02*
X61519047Y-57182295D01*
X62433333Y-57982295D02*
X61976190Y-57982295D01*
X62204762Y-57982295D02*
X62204762Y-57182295D01*
X62204762Y-57182295D02*
X62128571Y-57296580D01*
X62128571Y-57296580D02*
X62052381Y-57372771D01*
X62052381Y-57372771D02*
X61976190Y-57410866D01*
D13*
%TO.C,C21*%
X145288748Y-76390000D02*
X146711252Y-76390000D01*
X145288748Y-79110000D02*
X146711252Y-79110000D01*
%TO.C,R83*%
X143237258Y-88727500D02*
X142762742Y-88727500D01*
X143237258Y-89772500D02*
X142762742Y-89772500D01*
%TO.C,R14*%
X114512742Y-89727500D02*
X114987258Y-89727500D01*
X114512742Y-90772500D02*
X114987258Y-90772500D01*
%TO.C,R16*%
X102477500Y-91487258D02*
X102477500Y-91012742D01*
X103522500Y-91487258D02*
X103522500Y-91012742D01*
%TO.C,R20*%
X132012742Y-89477500D02*
X132487258Y-89477500D01*
X132012742Y-90522500D02*
X132487258Y-90522500D01*
%TO.C,D8*%
X143600000Y-65740000D02*
X143600000Y-71250000D01*
X146900000Y-65740000D02*
X143600000Y-65740000D01*
X146900000Y-65740000D02*
X146900000Y-71250000D01*
%TO.C,R15*%
X103977500Y-91137258D02*
X103977500Y-90662742D01*
X105022500Y-91137258D02*
X105022500Y-90662742D01*
%TO.C,C103*%
X77880000Y-51330000D02*
X83120000Y-51330000D01*
X77880000Y-64070000D02*
X77880000Y-51330000D01*
X77880000Y-64070000D02*
X83120000Y-64070000D01*
X83120000Y-64070000D02*
X83120000Y-51330000D01*
%TO.C,D9*%
X137610000Y-90150000D02*
X134950000Y-90150000D01*
X137610000Y-91850000D02*
X134950000Y-91850000D01*
X137610000Y-91850000D02*
X137610000Y-90150000D01*
%TO.C,R17*%
X102477500Y-88012742D02*
X102477500Y-88487258D01*
X103522500Y-88012742D02*
X103522500Y-88487258D01*
D11*
%TO.C,IC2*%
X121550000Y-85905000D02*
X127950000Y-85905000D01*
X121550000Y-90595000D02*
X121550000Y-85905000D01*
X127950000Y-85905000D02*
X127950000Y-90595000D01*
X127950000Y-90595000D02*
X121550000Y-90595000D01*
X130150000Y-90645000D02*
X128300000Y-90645000D01*
D13*
%TO.C,C109*%
X133630000Y-55380000D02*
X133630000Y-60620000D01*
X133630000Y-55380000D02*
X146370000Y-55380000D01*
X133630000Y-60620000D02*
X146370000Y-60620000D01*
X146370000Y-55380000D02*
X146370000Y-60620000D01*
%TO.C,D10*%
X147100000Y-65740000D02*
X147100000Y-71250000D01*
X150400000Y-65740000D02*
X147100000Y-65740000D01*
X150400000Y-65740000D02*
X150400000Y-71250000D01*
D11*
%TO.C,L104*%
X117600000Y-62670000D02*
X142600000Y-62670000D01*
X117600000Y-83870000D02*
X117600000Y-62670000D01*
X128500000Y-65770000D02*
X122300000Y-65770000D01*
X128500000Y-70770000D02*
X122300000Y-70770000D01*
X128500000Y-77970000D02*
X122300000Y-77970000D01*
X128500000Y-80970000D02*
X122300000Y-80970000D01*
X130000000Y-65670000D02*
X130000000Y-81070000D01*
X131500000Y-67270000D02*
X137700000Y-67270000D01*
X131500000Y-79270000D02*
X137700000Y-79270000D01*
X136700000Y-69570000D02*
X136700000Y-67270000D01*
X136700000Y-69570000D02*
X137700000Y-69570000D01*
X136700000Y-76870000D02*
X137700000Y-76870000D01*
X136700000Y-79270000D02*
X136700000Y-76870000D01*
X142600000Y-62670000D02*
X142600000Y-83870000D01*
X142600000Y-83870000D02*
X117600000Y-83870000D01*
X128500000Y-65770000D02*
G75*
G02*
X128500000Y-66770000I0J-500000D01*
G01*
X128500000Y-66770000D02*
G75*
G02*
X128500000Y-67770000I0J-500000D01*
G01*
X128500000Y-67770000D02*
G75*
G02*
X128500000Y-68770000I0J-500000D01*
G01*
X128500000Y-68770000D02*
G75*
G02*
X128500000Y-69770000I0J-500000D01*
G01*
X128500000Y-69770000D02*
G75*
G02*
X128500000Y-70770000I0J-500000D01*
G01*
X128500000Y-77970000D02*
G75*
G02*
X128500000Y-78970000I0J-500000D01*
G01*
X128500000Y-78970000D02*
G75*
G02*
X128500000Y-79970000I0J-500000D01*
G01*
X128500000Y-79970000D02*
G75*
G02*
X128500000Y-80970000I0J-500000D01*
G01*
X131500000Y-68270000D02*
G75*
G02*
X131500000Y-67270000I0J500000D01*
G01*
X131500000Y-69270000D02*
G75*
G02*
X131500000Y-68270000I0J500000D01*
G01*
X131500000Y-70270000D02*
G75*
G02*
X131500000Y-69270000I0J500000D01*
G01*
X131500000Y-71270000D02*
G75*
G02*
X131500000Y-70270000I0J500000D01*
G01*
X131500000Y-72270000D02*
G75*
G02*
X131500000Y-71270000I0J500000D01*
G01*
X131500000Y-73270000D02*
G75*
G02*
X131500000Y-72270000I0J500000D01*
G01*
X131500000Y-74270000D02*
G75*
G02*
X131500000Y-73270000I0J500000D01*
G01*
X131500000Y-75270000D02*
G75*
G02*
X131500000Y-74270000I0J500000D01*
G01*
X131500000Y-76270000D02*
G75*
G02*
X131500000Y-75270000I0J500000D01*
G01*
X131500000Y-77270000D02*
G75*
G02*
X131500000Y-76270000I0J500000D01*
G01*
X131500000Y-78270000D02*
G75*
G02*
X131500000Y-77270000I0J500000D01*
G01*
X131500000Y-79270000D02*
G75*
G02*
X131500000Y-78270000I0J500000D01*
G01*
D14*
X118450000Y-65770000D02*
G75*
G02*
X118150000Y-65770000I-150000J0D01*
G01*
X118150000Y-65770000D02*
G75*
G02*
X118450000Y-65770000I150000J0D01*
G01*
D15*
X127900000Y-70070000D02*
G75*
G02*
X127500000Y-70070000I-200000J0D01*
G01*
X127500000Y-70070000D02*
G75*
G02*
X127900000Y-70070000I200000J0D01*
G01*
X127900000Y-78670000D02*
G75*
G02*
X127500000Y-78670000I-200000J0D01*
G01*
X127500000Y-78670000D02*
G75*
G02*
X127900000Y-78670000I200000J0D01*
G01*
X132500000Y-78570000D02*
G75*
G02*
X132100000Y-78570000I-200000J0D01*
G01*
X132100000Y-78570000D02*
G75*
G02*
X132500000Y-78570000I200000J0D01*
G01*
D13*
%TO.C,D2*%
X99490000Y-64850000D02*
X99490000Y-68150000D01*
X99490000Y-64850000D02*
X105000000Y-64850000D01*
X99490000Y-68150000D02*
X105000000Y-68150000D01*
%TO.C,D4*%
X112860000Y-87400000D02*
X110200000Y-87400000D01*
X112860000Y-89100000D02*
X110200000Y-89100000D01*
X112860000Y-89100000D02*
X112860000Y-87400000D01*
%TO.C,C20*%
X145288748Y-79640000D02*
X146711252Y-79640000D01*
X145288748Y-82360000D02*
X146711252Y-82360000D01*
%TO.C,C104*%
X71380000Y-51330000D02*
X76620000Y-51330000D01*
X71380000Y-64070000D02*
X71380000Y-51330000D01*
X71380000Y-64070000D02*
X76620000Y-64070000D01*
X76620000Y-64070000D02*
X76620000Y-51330000D01*
%TO.C,R12*%
X111487258Y-85727500D02*
X111012742Y-85727500D01*
X111487258Y-86772500D02*
X111012742Y-86772500D01*
%TO.C,R25*%
X142762742Y-85727500D02*
X143237258Y-85727500D01*
X142762742Y-86772500D02*
X143237258Y-86772500D01*
D11*
%TO.C,BR1*%
X75700000Y-83500000D02*
X75700000Y-85400000D01*
X75700000Y-85400000D02*
X78300000Y-85400000D01*
X75700000Y-88600000D02*
X75700000Y-90500000D01*
X75700000Y-90500000D02*
X78300000Y-90500000D01*
X78300000Y-82800000D02*
X78300000Y-83500000D01*
X78300000Y-82800000D02*
X84700000Y-82800000D01*
X78300000Y-83500000D02*
X75700000Y-83500000D01*
X78300000Y-85400000D02*
X78300000Y-88600000D01*
X78300000Y-88600000D02*
X75700000Y-88600000D01*
X78300000Y-90500000D02*
X78300000Y-91200000D01*
X84700000Y-82800000D02*
X84700000Y-83500000D01*
X84700000Y-85400000D02*
X87300000Y-85400000D01*
X84700000Y-88600000D02*
X84700000Y-85400000D01*
X84700000Y-90500000D02*
X87300000Y-90500000D01*
X84700000Y-91200000D02*
X78300000Y-91200000D01*
X84700000Y-91200000D02*
X84700000Y-90500000D01*
X87300000Y-83500000D02*
X84700000Y-83500000D01*
X87300000Y-85400000D02*
X87300000Y-83500000D01*
X87300000Y-88600000D02*
X84700000Y-88600000D01*
X87300000Y-90500000D02*
X87300000Y-88600000D01*
D14*
X77850000Y-82900000D02*
G75*
G02*
X77550000Y-82900000I-150000J0D01*
G01*
X77550000Y-82900000D02*
G75*
G02*
X77850000Y-82900000I150000J0D01*
G01*
D11*
%TO.C,C105*%
X95375000Y-57500000D02*
G75*
G02*
X85125000Y-57500000I-5125000J0D01*
G01*
X85125000Y-57500000D02*
G75*
G02*
X95375000Y-57500000I5125000J0D01*
G01*
D13*
%TO.C,D7*%
X109890000Y-90150000D02*
X109890000Y-91850000D01*
X109890000Y-90150000D02*
X112550000Y-90150000D01*
X109890000Y-91850000D02*
X112550000Y-91850000D01*
D11*
%TO.C,J2*%
X151800000Y-62500000D02*
X158200000Y-62500000D01*
X151800000Y-75000000D02*
X151800000Y-62500000D01*
X158200000Y-62500000D02*
X158200000Y-75000000D01*
X158200000Y-75000000D02*
X151800000Y-75000000D01*
X157200000Y-67900000D02*
X158200000Y-67900000D01*
X158200000Y-66100000D01*
X157200000Y-66100000D01*
X157200000Y-67900000D01*
G36*
X157200000Y-67900000D02*
G01*
X158200000Y-67900000D01*
X158200000Y-66100000D01*
X157200000Y-66100000D01*
X157200000Y-67900000D01*
G37*
X157200000Y-71400000D02*
X158200000Y-71400000D01*
X158200000Y-69600000D01*
X157200000Y-69600000D01*
X157200000Y-71400000D01*
G36*
X157200000Y-71400000D02*
G01*
X158200000Y-71400000D01*
X158200000Y-69600000D01*
X157200000Y-69600000D01*
X157200000Y-71400000D01*
G37*
X157800000Y-69600000D02*
X158200000Y-69600000D01*
X158200000Y-67900000D01*
X157800000Y-67900000D01*
X157800000Y-69600000D01*
G36*
X157800000Y-69600000D02*
G01*
X158200000Y-69600000D01*
X158200000Y-67900000D01*
X157800000Y-67900000D01*
X157800000Y-69600000D01*
G37*
D14*
X159150000Y-65000000D02*
G75*
G02*
X158850000Y-65000000I-150000J0D01*
G01*
X158850000Y-65000000D02*
G75*
G02*
X159150000Y-65000000I150000J0D01*
G01*
D13*
%TO.C,R6*%
X104227500Y-79987258D02*
X104227500Y-79512742D01*
X105272500Y-79987258D02*
X105272500Y-79512742D01*
%TO.C,C11*%
X106140000Y-83711252D02*
X106140000Y-82288748D01*
X108860000Y-83711252D02*
X108860000Y-82288748D01*
%TO.C,C101*%
X61380000Y-82730000D02*
X61380000Y-90970000D01*
X61380000Y-82730000D02*
X74620000Y-82730000D01*
X61380000Y-90970000D02*
X74620000Y-90970000D01*
X74620000Y-82730000D02*
X74620000Y-90970000D01*
%TO.C,R85*%
X115590000Y-75272936D02*
X115590000Y-76727064D01*
X117410000Y-75272936D02*
X117410000Y-76727064D01*
%TO.C,R3*%
X115590000Y-70772936D02*
X115590000Y-72227064D01*
X117410000Y-70772936D02*
X117410000Y-72227064D01*
%TO.C,C14*%
X114609420Y-91240000D02*
X114890580Y-91240000D01*
X114609420Y-92260000D02*
X114890580Y-92260000D01*
%TO.C,L102*%
D11*
X90240000Y-62890000D02*
X97760000Y-62890000D01*
X97760000Y-76610000D01*
X90240000Y-76610000D01*
X90240000Y-62890000D01*
D13*
%TO.C,D3*%
X104150000Y-89360000D02*
X104150000Y-86700000D01*
X104150000Y-89360000D02*
X105850000Y-89360000D01*
X105850000Y-89360000D02*
X105850000Y-86700000D01*
%TO.C,D6*%
X109610000Y-90150000D02*
X106950000Y-90150000D01*
X109610000Y-91850000D02*
X106950000Y-91850000D01*
X109610000Y-91850000D02*
X109610000Y-90150000D01*
%TO.C,C110*%
X148670000Y-81033000D02*
X148670000Y-79967000D01*
X148710000Y-81268000D02*
X148710000Y-79732000D01*
X148750000Y-81447000D02*
X148750000Y-79553000D01*
X148790000Y-81597000D02*
X148790000Y-79403000D01*
X148830000Y-81728000D02*
X148830000Y-79272000D01*
X148870000Y-81846000D02*
X148870000Y-79154000D01*
X148910000Y-81953000D02*
X148910000Y-79047000D01*
X148950000Y-82052000D02*
X148950000Y-78948000D01*
X148990000Y-82144000D02*
X148990000Y-78856000D01*
X149030000Y-82231000D02*
X149030000Y-78769000D01*
X149070000Y-82313000D02*
X149070000Y-78687000D01*
X149110000Y-82390000D02*
X149110000Y-78610000D01*
X149150000Y-82464000D02*
X149150000Y-78536000D01*
X149190000Y-82534000D02*
X149190000Y-78466000D01*
X149230000Y-82601000D02*
X149230000Y-78399000D01*
X149270000Y-82665000D02*
X149270000Y-78335000D01*
X149310000Y-82727000D02*
X149310000Y-78273000D01*
X149350000Y-82787000D02*
X149350000Y-78213000D01*
X149390000Y-82844000D02*
X149390000Y-78156000D01*
X149430000Y-82900000D02*
X149430000Y-78100000D01*
X149470000Y-82953000D02*
X149470000Y-78047000D01*
X149510000Y-83005000D02*
X149510000Y-77995000D01*
X149550000Y-83055000D02*
X149550000Y-77945000D01*
X149590000Y-83104000D02*
X149590000Y-77896000D01*
X149630000Y-83151000D02*
X149630000Y-77849000D01*
X149670000Y-83196000D02*
X149670000Y-77804000D01*
X149710000Y-83241000D02*
X149710000Y-77759000D01*
X149750000Y-83284000D02*
X149750000Y-77716000D01*
X149790000Y-83326000D02*
X149790000Y-77674000D01*
X149830000Y-83367000D02*
X149830000Y-77633000D01*
X149870000Y-83406000D02*
X149870000Y-77594000D01*
X149910000Y-83445000D02*
X149910000Y-77555000D01*
X149950000Y-83482000D02*
X149950000Y-77518000D01*
X149990000Y-79460000D02*
X149990000Y-77481000D01*
X149990000Y-83519000D02*
X149990000Y-81540000D01*
X150030000Y-79460000D02*
X150030000Y-77445000D01*
X150030000Y-83555000D02*
X150030000Y-81540000D01*
X150070000Y-79460000D02*
X150070000Y-77411000D01*
X150070000Y-83589000D02*
X150070000Y-81540000D01*
X150110000Y-79460000D02*
X150110000Y-77377000D01*
X150110000Y-83623000D02*
X150110000Y-81540000D01*
X150150000Y-79460000D02*
X150150000Y-77344000D01*
X150150000Y-83656000D02*
X150150000Y-81540000D01*
X150190000Y-79460000D02*
X150190000Y-77312000D01*
X150190000Y-83688000D02*
X150190000Y-81540000D01*
X150230000Y-79460000D02*
X150230000Y-77281000D01*
X150230000Y-83719000D02*
X150230000Y-81540000D01*
X150270000Y-79460000D02*
X150270000Y-77250000D01*
X150270000Y-83750000D02*
X150270000Y-81540000D01*
X150310000Y-79460000D02*
X150310000Y-77220000D01*
X150310000Y-83780000D02*
X150310000Y-81540000D01*
X150350000Y-79460000D02*
X150350000Y-77191000D01*
X150350000Y-83809000D02*
X150350000Y-81540000D01*
X150390000Y-79460000D02*
X150390000Y-77163000D01*
X150390000Y-83837000D02*
X150390000Y-81540000D01*
X150420000Y-77135000D02*
X150420000Y-79200000D01*
X150430000Y-83865000D02*
X150430000Y-81800000D01*
X150460000Y-77108000D02*
X150460000Y-79200000D01*
X150470000Y-83892000D02*
X150470000Y-81800000D01*
X150500000Y-77082000D02*
X150500000Y-79200000D01*
X150510000Y-83918000D02*
X150510000Y-81800000D01*
X150540000Y-77057000D02*
X150540000Y-79200000D01*
X150550000Y-83943000D02*
X150550000Y-81800000D01*
X150580000Y-77032000D02*
X150580000Y-79200000D01*
X150590000Y-83968000D02*
X150590000Y-81800000D01*
X150620000Y-77007000D02*
X150620000Y-79200000D01*
X150630000Y-83993000D02*
X150630000Y-81800000D01*
X150660000Y-76984000D02*
X150660000Y-79200000D01*
X150670000Y-84016000D02*
X150670000Y-81800000D01*
X150700000Y-77001000D02*
X150700000Y-79200000D01*
X150710000Y-83999000D02*
X150710000Y-81800000D01*
X150740000Y-76938000D02*
X150740000Y-79200000D01*
X150750000Y-84062000D02*
X150750000Y-81800000D01*
X150780000Y-76916000D02*
X150780000Y-79200000D01*
X150790000Y-84084000D02*
X150790000Y-81800000D01*
X150820000Y-76895000D02*
X150820000Y-79200000D01*
X150830000Y-84105000D02*
X150830000Y-81800000D01*
X150860000Y-76874000D02*
X150860000Y-79200000D01*
X150870000Y-84126000D02*
X150870000Y-81800000D01*
X150900000Y-76854000D02*
X150900000Y-79200000D01*
X150910000Y-84146000D02*
X150910000Y-81800000D01*
X150940000Y-76834000D02*
X150940000Y-79200000D01*
X150950000Y-84166000D02*
X150950000Y-81800000D01*
X150980000Y-76815000D02*
X150990000Y-79200000D01*
X150990000Y-84185000D02*
X151000000Y-81800000D01*
X151020000Y-76796000D02*
X151020000Y-79200000D01*
X151030000Y-84204000D02*
X151030000Y-81800000D01*
X151060000Y-76778000D02*
X151060000Y-79200000D01*
X151070000Y-84222000D02*
X151070000Y-81800000D01*
X151100000Y-76760000D02*
X151100000Y-79200000D01*
X151110000Y-84240000D02*
X151110000Y-81800000D01*
X151140000Y-76743000D02*
X151140000Y-79200000D01*
X151150000Y-84257000D02*
X151150000Y-81800000D01*
X151180000Y-76727000D02*
X151180000Y-79200000D01*
X151190000Y-84273000D02*
X151190000Y-81800000D01*
X151220000Y-76711000D02*
X151220000Y-79200000D01*
X151230000Y-84289000D02*
X151230000Y-81800000D01*
X151260000Y-76695000D02*
X151260000Y-79200000D01*
X151270000Y-84305000D02*
X151270000Y-81800000D01*
X151300000Y-76680000D02*
X151300000Y-79200000D01*
X151310000Y-84320000D02*
X151310000Y-81800000D01*
X151340000Y-76665000D02*
X151340000Y-79200000D01*
X151350000Y-84335000D02*
X151350000Y-81800000D01*
X151380000Y-76651000D02*
X151380000Y-79200000D01*
X151390000Y-84349000D02*
X151390000Y-81800000D01*
X151420000Y-76637000D02*
X151420000Y-79200000D01*
X151430000Y-84363000D02*
X151430000Y-81800000D01*
X151460000Y-76624000D02*
X151460000Y-79200000D01*
X151470000Y-84376000D02*
X151470000Y-81800000D01*
X151500000Y-76611000D02*
X151500000Y-79200000D01*
X151510000Y-84389000D02*
X151510000Y-81800000D01*
X151540000Y-76599000D02*
X151540000Y-79200000D01*
X151550000Y-84401000D02*
X151550000Y-81800000D01*
X151590000Y-79460000D02*
X151590000Y-76587000D01*
X151590000Y-84413000D02*
X151590000Y-81540000D01*
X151630000Y-79460000D02*
X151630000Y-76575000D01*
X151630000Y-84425000D02*
X151630000Y-81540000D01*
X151670000Y-79460000D02*
X151670000Y-76564000D01*
X151670000Y-84436000D02*
X151670000Y-81540000D01*
X151710000Y-79460000D02*
X151710000Y-76553000D01*
X151710000Y-84447000D02*
X151710000Y-81540000D01*
X151750000Y-79460000D02*
X151750000Y-76543000D01*
X151750000Y-84457000D02*
X151750000Y-81540000D01*
X151790000Y-79460000D02*
X151790000Y-76533000D01*
X151790000Y-84467000D02*
X151790000Y-81540000D01*
X151830000Y-79460000D02*
X151830000Y-76524000D01*
X151830000Y-84476000D02*
X151830000Y-81540000D01*
X151870000Y-79460000D02*
X151870000Y-76515000D01*
X151870000Y-84485000D02*
X151870000Y-81540000D01*
X151910000Y-79460000D02*
X151910000Y-76507000D01*
X151910000Y-84493000D02*
X151910000Y-81540000D01*
X151950000Y-79460000D02*
X151950000Y-76498000D01*
X151950000Y-84502000D02*
X151950000Y-81540000D01*
X151990000Y-79460000D02*
X151990000Y-76491000D01*
X151990000Y-84509000D02*
X151990000Y-81540000D01*
X152030000Y-79460000D02*
X152030000Y-76483000D01*
X152030000Y-84517000D02*
X152030000Y-81540000D01*
X152070000Y-84523000D02*
X152070000Y-76477000D01*
X152110000Y-84530000D02*
X152110000Y-76470000D01*
X152150000Y-84536000D02*
X152150000Y-76464000D01*
X152190000Y-84542000D02*
X152190000Y-76458000D01*
X152230000Y-84547000D02*
X152230000Y-76453000D01*
X152270000Y-84552000D02*
X152270000Y-76448000D01*
X152310000Y-84556000D02*
X152310000Y-76444000D01*
X152350000Y-84561000D02*
X152350000Y-76439000D01*
X152390000Y-84564000D02*
X152390000Y-76436000D01*
X152430000Y-84568000D02*
X152430000Y-76432000D01*
X152470000Y-84570000D02*
X152470000Y-76430000D01*
X152510000Y-84573000D02*
X152510000Y-76427000D01*
X152550000Y-84575000D02*
X152550000Y-76425000D01*
X152590000Y-84577000D02*
X152590000Y-76423000D01*
X152630000Y-84578000D02*
X152630000Y-76422000D01*
X152670000Y-84579000D02*
X152670000Y-76421000D01*
X152710000Y-84580000D02*
X152710000Y-76420000D01*
X152750000Y-84580000D02*
X152750000Y-76420000D01*
X156759698Y-83215000D02*
X156759698Y-82415000D01*
X157159698Y-82815000D02*
X156359698Y-82815000D01*
X156870000Y-80500000D02*
G75*
G02*
X148630000Y-80500000I-4120000J0D01*
G01*
X148630000Y-80500000D02*
G75*
G02*
X156870000Y-80500000I4120000J0D01*
G01*
%TO.C,C107*%
X95880000Y-53880000D02*
X95880000Y-61120000D01*
X95880000Y-53880000D02*
X115120000Y-53880000D01*
X95880000Y-61120000D02*
X115120000Y-61120000D01*
X115120000Y-53880000D02*
X115120000Y-61120000D01*
%TO.C,R23*%
X135762742Y-85727500D02*
X136237258Y-85727500D01*
X135762742Y-86772500D02*
X136237258Y-86772500D01*
%TO.C,C10*%
X102890000Y-84461252D02*
X102890000Y-83038748D01*
X105610000Y-84461252D02*
X105610000Y-83038748D01*
%TO.C,C19*%
X145288748Y-73140000D02*
X146711252Y-73140000D01*
X145288748Y-75860000D02*
X146711252Y-75860000D01*
%TO.C,C58*%
X113090000Y-79461252D02*
X113090000Y-78038748D01*
X114910000Y-79461252D02*
X114910000Y-78038748D01*
%TO.C,D5*%
X113100000Y-89260000D02*
X113100000Y-83750000D01*
X113100000Y-89260000D02*
X116400000Y-89260000D01*
X116400000Y-89260000D02*
X116400000Y-83750000D01*
%TO.C,C106*%
X74880000Y-65280000D02*
X74880000Y-73520000D01*
X74880000Y-65280000D02*
X88120000Y-65280000D01*
X74880000Y-73520000D02*
X88120000Y-73520000D01*
X88120000Y-65280000D02*
X88120000Y-73520000D01*
%TO.C,C9*%
X113211252Y-64640000D02*
X111788748Y-64640000D01*
X113211252Y-67360000D02*
X111788748Y-67360000D01*
D11*
%TO.C,J1*%
X50000000Y-79225000D02*
X50000000Y-59225000D01*
X57700000Y-59225000D02*
X50000000Y-59225000D01*
X57700000Y-59225000D02*
X57700000Y-79225000D01*
X57700000Y-79225000D02*
X50000000Y-79225000D01*
X50000000Y-61225000D02*
X51600000Y-61225000D01*
X51600000Y-77225000D01*
X50000000Y-77225000D01*
X50000000Y-61225000D01*
G36*
X50000000Y-61225000D02*
G01*
X51600000Y-61225000D01*
X51600000Y-77225000D01*
X50000000Y-77225000D01*
X50000000Y-61225000D01*
G37*
D13*
%TO.C,R84*%
X105727500Y-79237258D02*
X105727500Y-78762742D01*
X106772500Y-79237258D02*
X106772500Y-78762742D01*
%TO.C,C108*%
X115630000Y-55380000D02*
X115630000Y-60620000D01*
X115630000Y-55380000D02*
X128370000Y-55380000D01*
X115630000Y-60620000D02*
X128370000Y-60620000D01*
X128370000Y-55380000D02*
X128370000Y-60620000D01*
%TO.C,R19*%
X136237258Y-88727500D02*
X135762742Y-88727500D01*
X136237258Y-89772500D02*
X135762742Y-89772500D01*
D11*
%TO.C,RV1*%
X63050000Y-76900000D02*
X67450000Y-76900000D01*
X63050000Y-81600000D02*
X63050000Y-81600000D01*
X67450000Y-76900000D02*
X67450000Y-76900000D01*
X67450000Y-81600000D02*
X63050000Y-81600000D01*
X63050000Y-81600000D02*
G75*
G02*
X63050000Y-76900000I0J2350000D01*
G01*
X67450000Y-76900000D02*
G75*
G02*
X67450000Y-81600000I0J-2350000D01*
G01*
D13*
%TO.C,C12*%
X109390000Y-83711252D02*
X109390000Y-82288748D01*
X112110000Y-83711252D02*
X112110000Y-82288748D01*
%TO.C,IC1*%
D11*
X99900000Y-79600000D02*
X103100000Y-79600000D01*
X103100000Y-75400000D01*
X99900000Y-75400000D01*
X99900000Y-79600000D01*
D14*
X99650000Y-80000000D02*
G75*
G02*
X99350000Y-80000000I-150000J0D01*
G01*
X99350000Y-80000000D02*
G75*
G02*
X99650000Y-80000000I150000J0D01*
G01*
D13*
%TO.C,D1*%
X98390000Y-73150000D02*
X98390000Y-74850000D01*
X98390000Y-73150000D02*
X101050000Y-73150000D01*
X98390000Y-74850000D02*
X101050000Y-74850000D01*
%TO.C,R21*%
X139737258Y-87477500D02*
X139262742Y-87477500D01*
X139737258Y-88522500D02*
X139262742Y-88522500D01*
D11*
%TO.C,F1*%
X65000000Y-66250000D02*
X65000000Y-66250000D01*
X65000000Y-74750000D02*
X65000000Y-74750000D01*
X65000000Y-66250000D02*
G75*
G02*
X65000000Y-74750000I0J-4250000D01*
G01*
X65000000Y-74750000D02*
G75*
G02*
X65000000Y-66250000I0J4250000D01*
G01*
D13*
%TO.C,R22*%
X139737258Y-88977500D02*
X139262742Y-88977500D01*
X139737258Y-90022500D02*
X139262742Y-90022500D01*
%TO.C,C102*%
X88880000Y-78105000D02*
X97120000Y-78105000D01*
X88880000Y-91345000D02*
X88880000Y-78105000D01*
X88880000Y-91345000D02*
X97120000Y-91345000D01*
X97120000Y-91345000D02*
X97120000Y-78105000D01*
%TO.C,R24*%
X143237258Y-87227500D02*
X142762742Y-87227500D01*
X143237258Y-88272500D02*
X142762742Y-88272500D01*
D11*
%TO.C,L101*%
X79700000Y-74690000D02*
X79700000Y-75690000D01*
X79700000Y-79690000D02*
X79700000Y-80690000D01*
X81000000Y-79640000D02*
X81000000Y-75740000D01*
X82300000Y-75690000D02*
X82300000Y-74690000D01*
X82300000Y-80690000D02*
X82300000Y-79690000D01*
X73790000Y-81550000D02*
X88210000Y-81550000D01*
X88210000Y-73830000D01*
X73790000Y-73830000D01*
X73790000Y-81550000D01*
X79700000Y-75690000D02*
G75*
G02*
X79700000Y-76690000I0J-500000D01*
G01*
X79700000Y-76690000D02*
G75*
G02*
X79700000Y-77690000I0J-500000D01*
G01*
X79700000Y-77690000D02*
G75*
G02*
X79700000Y-78690000I0J-500000D01*
G01*
X79700000Y-78690000D02*
G75*
G02*
X79700000Y-79690000I0J-500000D01*
G01*
X82300000Y-76690000D02*
G75*
G02*
X82300000Y-75690000I0J500000D01*
G01*
X82300000Y-77690000D02*
G75*
G02*
X82300000Y-76690000I0J500000D01*
G01*
X82300000Y-78690000D02*
G75*
G02*
X82300000Y-77690000I0J500000D01*
G01*
X82300000Y-79690000D02*
G75*
G02*
X82300000Y-78690000I0J500000D01*
G01*
D15*
X74600000Y-79940000D02*
G75*
G02*
X74200000Y-79940000I-200000J0D01*
G01*
X74200000Y-79940000D02*
G75*
G02*
X74600000Y-79940000I200000J0D01*
G01*
D14*
X80550000Y-80340000D02*
G75*
G02*
X80250000Y-80340000I-150000J0D01*
G01*
X80250000Y-80340000D02*
G75*
G02*
X80550000Y-80340000I150000J0D01*
G01*
X81750000Y-80340000D02*
G75*
G02*
X81450000Y-80340000I-150000J0D01*
G01*
X81450000Y-80340000D02*
G75*
G02*
X81750000Y-80340000I150000J0D01*
G01*
D11*
%TO.C,RT1*%
X60250000Y-58250000D02*
X69750000Y-58250000D01*
X60250000Y-64250000D02*
X60250000Y-58250000D01*
X69750000Y-58250000D02*
X69750000Y-64250000D01*
X69750000Y-64250000D02*
X60250000Y-64250000D01*
%TD*%
M02*
