M48
; DRILL file {KiCad 9.0.7} date 2026-04-29T17:56:40-0500
; FORMAT={-:-/ absolute / inch / decimal}
; #@! TF.CreationDate,2026-04-29T17:56:40-05:00
; #@! TF.GenerationSoftware,Kicad,Pcbnew,9.0.7
; #@! TF.FileFunction,MixedPlating,1,4
FMAT,2
INCH
; #@! TA.AperFunction,Plated,PTH,ViaDrill
T1C0.0079
; #@! TA.AperFunction,Plated,PTH,ComponentDrill
T2C0.0079
; #@! TA.AperFunction,Plated,PTH,ComponentDrill
T3C0.0197
; #@! TA.AperFunction,Plated,PTH,ComponentDrill
T4C0.0315
; #@! TA.AperFunction,Plated,PTH,ComponentDrill
T5C0.0335
; #@! TA.AperFunction,Plated,PTH,ComponentDrill
T6C0.0354
; #@! TA.AperFunction,Plated,PTH,ComponentDrill
T7C0.0394
; #@! TA.AperFunction,Plated,PTH,ComponentDrill
T8C0.0433
; #@! TA.AperFunction,Plated,PTH,ComponentDrill
T9C0.0472
; #@! TA.AperFunction,Plated,PTH,ComponentDrill
T10C0.0520
; #@! TA.AperFunction,Plated,PTH,ComponentDrill
T11C0.0709
; #@! TA.AperFunction,NonPlated,NPTH,ComponentDrill
T12C0.0520
%
G90
G05
T1
X3.9272Y-3.1299
X3.9469Y-3.2087
X3.9961Y-3.622
X4.0154Y-3.0512
X4.0169Y-3.2087
X4.0639Y-3.1401
X4.0646Y-3.3957
X4.0748Y-3.1791
X4.0748Y-3.4547
X4.0846Y-2.9626
X4.1634Y-3.2096
X4.2224Y-2.7165
X4.2224Y-2.7559
X4.2224Y-2.7953
X4.2224Y-2.8346
X4.2224Y-2.874
X4.2224Y-2.9134
X4.2618Y-2.7165
X4.2618Y-2.7559
X4.2618Y-2.7953
X4.2618Y-2.8346
X4.2618Y-2.874
X4.2618Y-2.9134
X4.2913Y-3.2096
X4.3008Y-3.1383
X4.3012Y-2.7165
X4.3012Y-2.7559
X4.3012Y-2.7953
X4.3012Y-2.8346
X4.3012Y-2.874
X4.3012Y-2.9134
X4.3406Y-2.7165
X4.3406Y-2.7559
X4.3406Y-2.7953
X4.3406Y-2.8346
X4.3406Y-2.874
X4.3406Y-2.9134
X4.3504Y-3.5039
X4.3799Y-2.7165
X4.3799Y-2.7559
X4.3799Y-2.7953
X4.3799Y-2.8346
X4.3799Y-2.874
X4.3799Y-2.9134
X4.3996Y-3.1398
X4.4193Y-2.7165
X4.4193Y-2.7559
X4.4193Y-2.7953
X4.4193Y-2.8346
X4.4193Y-2.874
X4.4193Y-2.9134
X4.4587Y-2.7165
X4.4587Y-2.7559
X4.4587Y-2.7953
X4.4587Y-2.8346
X4.4587Y-2.874
X4.4587Y-2.9134
X4.5866Y-3.6024
X4.6555Y-3.5236
X4.6654Y-3.435
X5.2559Y-3.4646
X5.3543Y-3.5827
X5.5315Y-3.5827
X5.5512Y-3.4154
X5.6594Y-3.3563
X5.6693Y-2.5984
X5.6693Y-2.6476
X5.6693Y-2.6969
X5.69Y-2.9331
X5.69Y-3.002
X5.69Y-3.061
X5.69Y-3.1201
X5.69Y-3.189
X5.7776Y-2.8937
X5.7776Y-2.9626
X5.7776Y-3.0315
X5.7874Y-2.5984
X5.7874Y-2.6476
X5.7874Y-2.6969
T2
X2.0079Y-2.126
X2.0472Y-2.0472
X2.0472Y-2.2047
X2.126Y-2.0079
X2.126Y-2.2441
X2.2047Y-2.0472
X2.2047Y-2.2047
X2.2441Y-2.126
X6.0236Y-2.126
X6.063Y-2.0472
X6.063Y-2.2047
X6.1417Y-2.0079
X6.1417Y-2.2441
X6.2205Y-2.0472
X6.2205Y-2.2047
X6.2598Y-2.126
T3
X3.6024Y-2.7461
X3.7992Y-2.7461
T4
X5.9449Y-3.1693
X6.0827Y-3.1693
T5
X2.4591Y-2.7756
X2.4606Y-2.4114
X2.6575Y-2.4114
X2.6591Y-2.7756
X3.4547Y-2.2638
X3.6516Y-2.2638
T6
X2.4705Y-3.0866
X2.6673Y-3.1535
X6.1024Y-2.5591
X6.1024Y-2.6575
X6.1024Y-2.7559
X6.1024Y-2.8543
T7
X2.4803Y-3.4193
X2.874Y-3.4193
X2.9134Y-2.124
X2.9134Y-2.4193
X3.0118Y-2.7323
X3.1693Y-2.124
X3.1693Y-2.4193
X3.4055Y-2.7323
X3.6614Y-3.1388
X3.6614Y-3.5325
X4.6555Y-2.2835
X4.9508Y-2.2835
X5.3642Y-2.2835
X5.6594Y-2.2835
T8
X2.9921Y-2.9701
X2.9921Y-3.1472
X3.3858Y-2.9701
X3.3858Y-3.1472
T9
X3.8583Y-2.2638
X4.4488Y-2.2638
T10
X4.7244Y-2.5894
X4.7244Y-2.7854
X4.7244Y-2.9823
X4.7244Y-3.0803
X4.7244Y-3.1783
X5.5118Y-2.5407
X5.5118Y-2.6388
X5.5118Y-2.7368
X5.5118Y-2.8348
X5.5118Y-2.9329
X5.5118Y-3.0309
X5.5118Y-3.1289
X5.5118Y-3.227
T11
X2.1496Y-2.4134
X2.1496Y-2.7254
X2.1496Y-3.0374
T12
X4.7244Y-2.6874
M30
