%TF.GenerationSoftware,KiCad,Pcbnew,9.0.7*%
%TF.CreationDate,2026-04-29T20:25:52-05:00*%
%TF.ProjectId,OSLUV_OfflineConverter,4f534c55-565f-44f6-9666-6c696e65436f,01*%
%TF.SameCoordinates,Original*%
%TF.FileFunction,Copper,L4,Bot*%
%TF.FilePolarity,Positive*%
%FSLAX46Y46*%
G04 Gerber Fmt 4.6, Leading zero omitted, Abs format (unit mm)*
G04 Created by KiCad (PCBNEW 9.0.7) date 2026-04-29 20:25:52*
%MOMM*%
%LPD*%
G01*
G04 APERTURE LIST*
%ADD10C,0.200000*%
%TA.AperFunction,ComponentPad*%
%ADD11C,2.000000*%
%TD*%
%TA.AperFunction,ComponentPad*%
%ADD12R,3.000000X2.000000*%
%TD*%
%TA.AperFunction,ComponentPad*%
%ADD13O,3.000000X2.000000*%
%TD*%
%TA.AperFunction,ComponentPad*%
%ADD14R,1.550000X2.000000*%
%TD*%
%TA.AperFunction,ComponentPad*%
%ADD15O,1.550000X2.000000*%
%TD*%
%TA.AperFunction,ComponentPad*%
%ADD16R,2.200000X1.600000*%
%TD*%
%TA.AperFunction,ComponentPad*%
%ADD17O,2.200000X1.600000*%
%TD*%
%TA.AperFunction,ComponentPad*%
%ADD18C,0.600000*%
%TD*%
%TA.AperFunction,SMDPad,CuDef*%
%ADD19C,6.600000*%
%TD*%
%TA.AperFunction,ComponentPad*%
%ADD20R,1.200000X1.800000*%
%TD*%
%TA.AperFunction,ComponentPad*%
%ADD21O,1.200000X1.800000*%
%TD*%
%TA.AperFunction,ComponentPad*%
%ADD22R,1.600000X2.200000*%
%TD*%
%TA.AperFunction,ComponentPad*%
%ADD23O,1.600000X2.200000*%
%TD*%
%TA.AperFunction,ComponentPad*%
%ADD24C,2.400000*%
%TD*%
%TA.AperFunction,ComponentPad*%
%ADD25C,3.540000*%
%TD*%
%TA.AperFunction,ComponentPad*%
%ADD26O,1.600000X2.000000*%
%TD*%
%TA.AperFunction,ComponentPad*%
%ADD27O,2.500000X2.000000*%
%TD*%
%TA.AperFunction,ComponentPad*%
%ADD28R,2.500000X1.800000*%
%TD*%
%TA.AperFunction,ComponentPad*%
%ADD29O,2.500000X1.800000*%
%TD*%
%TA.AperFunction,ViaPad*%
%ADD30C,0.550000*%
%TD*%
%TA.AperFunction,Conductor*%
%ADD31C,1.000000*%
%TD*%
%TA.AperFunction,Conductor*%
%ADD32C,0.200000*%
%TD*%
G04 APERTURE END LIST*
D10*
X130000000Y-145000000D02*
X130000000Y-145000000D01*
D11*
%TO.P,C103,1*%
%TO.N,GNDS*%
X80500000Y-61450000D03*
%TO.P,C103,2*%
%TO.N,Earth*%
X80500000Y-53950000D03*
%TD*%
%TO.P,C109,1*%
%TO.N,Net-(C108-Pad2)*%
X136250000Y-58000000D03*
%TO.P,C109,2*%
%TO.N,GND*%
X143750000Y-58000000D03*
%TD*%
D12*
%TO.P,L104,1,N1_2*%
%TO.N,PDC*%
X120500000Y-65770000D03*
D13*
%TO.P,L104,3,N1_1*%
%TO.N,/offlineConverter/Drain*%
X120500000Y-70750000D03*
%TO.P,L104,4,NC_1*%
%TO.N,unconnected-(L104-NC_1-Pad4)*%
X120500000Y-75750000D03*
%TO.P,L104,5,AUX_1*%
%TO.N,Net-(D5-A)*%
X120500000Y-78240000D03*
%TO.P,L104,6,AUX_2*%
%TO.N,GNDS*%
X120500000Y-80730000D03*
%TO.P,L104,7,NC_2*%
%TO.N,unconnected-(L104-NC_2-Pad7)*%
X139500000Y-81965000D03*
%TO.P,L104,8,N2_1.2*%
%TO.N,Net-(D10-A)*%
X139500000Y-79475000D03*
%TO.P,L104,9,N2_1.1*%
X139500000Y-76985000D03*
%TO.P,L104,10,NC_3*%
%TO.N,unconnected-(L104-NC_3-Pad10)*%
X139500000Y-74495000D03*
%TO.P,L104,11,NC_4*%
%TO.N,unconnected-(L104-NC_4-Pad11)*%
X139500000Y-72005000D03*
%TO.P,L104,12,N2_2.1*%
%TO.N,GND*%
X139500000Y-69515000D03*
%TO.P,L104,13,N2_2.2*%
X139500000Y-67025000D03*
%TO.P,L104,14,NC_5*%
%TO.N,unconnected-(L104-NC_5-Pad14)*%
X139500000Y-64535000D03*
%TD*%
D11*
%TO.P,C104,1*%
%TO.N,/offlineConverter/PDC_CM*%
X74000000Y-61450000D03*
%TO.P,C104,2*%
%TO.N,Earth*%
X74000000Y-53950000D03*
%TD*%
D14*
%TO.P,C105,1,+*%
%TO.N,PDC*%
X92750000Y-57500000D03*
D15*
%TO.P,C105,2,-*%
%TO.N,GNDS*%
X87750000Y-57500000D03*
%TD*%
D16*
%TO.P,J2,1,1*%
%TO.N,/offlineConverter/VDC*%
X155000000Y-65000000D03*
D17*
%TO.P,J2,2,2*%
%TO.N,unconnected-(J2-Pad2)*%
X155000000Y-67500000D03*
%TO.P,J2,3,3*%
%TO.N,unconnected-(J2-Pad3)*%
X155000000Y-70000000D03*
%TO.P,J2,4,4*%
%TO.N,GND*%
X155000000Y-72500000D03*
%TD*%
D11*
%TO.P,C101,1*%
%TO.N,/offlineConverter/N_NTC*%
X63000000Y-86850000D03*
%TO.P,C101,2*%
%TO.N,/offlineConverter/L_Fuse*%
X73000000Y-86850000D03*
%TD*%
D18*
%TO.P,H2,1,1*%
%TO.N,Earth*%
X153000000Y-54000000D03*
X154000000Y-52000000D03*
X154000000Y-56000000D03*
X156000000Y-51000000D03*
D19*
X156000000Y-54000000D03*
D18*
X156000000Y-57000000D03*
X158000000Y-52000000D03*
X158000000Y-56000000D03*
X159000000Y-54000000D03*
%TD*%
D20*
%TO.P,L102,1,1*%
%TO.N,/offlineConverter/PDC_CM*%
X91500000Y-69750000D03*
D21*
%TO.P,L102,2,2*%
%TO.N,PDC*%
X96500000Y-69750000D03*
%TD*%
D18*
%TO.P,H1,1,1*%
%TO.N,Earth*%
X51000000Y-54000000D03*
X52000000Y-52000000D03*
X52000000Y-56000000D03*
X54000000Y-51000000D03*
D19*
X54000000Y-54000000D03*
D18*
X54000000Y-57000000D03*
X56000000Y-52000000D03*
X56000000Y-56000000D03*
X57000000Y-54000000D03*
%TD*%
D22*
%TO.P,C110,1*%
%TO.N,/offlineConverter/VDC*%
X154500000Y-80500000D03*
D23*
%TO.P,C110,2*%
%TO.N,GND*%
X151000000Y-80500000D03*
%TD*%
D24*
%TO.P,C107,1*%
%TO.N,PDC*%
X98000000Y-57500000D03*
%TO.P,C107,2*%
%TO.N,GNDS*%
X113000000Y-57500000D03*
%TD*%
D11*
%TO.P,C106,1*%
%TO.N,/offlineConverter/PDC_CM*%
X76500000Y-69400000D03*
%TO.P,C106,2*%
%TO.N,GNDS*%
X86500000Y-69400000D03*
%TD*%
D25*
%TO.P,J1,1,P*%
%TO.N,Earth*%
X54600000Y-61300000D03*
%TO.P,J1,2,P*%
%TO.N,/offlineConverter/L*%
X54600000Y-69225000D03*
%TO.P,J1,3,P*%
%TO.N,/offlineConverter/N*%
X54600000Y-77150000D03*
%TD*%
D11*
%TO.P,C108,1*%
%TO.N,GNDS*%
X118250000Y-58000000D03*
%TO.P,C108,2*%
%TO.N,Net-(C108-Pad2)*%
X125750000Y-58000000D03*
%TD*%
D26*
%TO.P,RV1,1,1*%
%TO.N,/offlineConverter/L_Fuse*%
X67750000Y-79900000D03*
%TO.P,RV1,2,2*%
%TO.N,/offlineConverter/N_NTC*%
X62750000Y-78600000D03*
%TD*%
D15*
%TO.P,F1,1,1*%
%TO.N,/offlineConverter/N*%
X62460000Y-70500000D03*
%TO.P,F1,2,2*%
%TO.N,/offlineConverter/N_NTC*%
X67540000Y-70500000D03*
%TD*%
D27*
%TO.P,C102,1*%
%TO.N,/offlineConverter/PDC_Rect*%
X93000000Y-89725000D03*
%TO.P,C102,2*%
%TO.N,/offlineConverter/GNDS_rect*%
X93000000Y-79725000D03*
%TD*%
D28*
%TO.P,L101,1,1*%
%TO.N,/offlineConverter/PDC_Rect*%
X76350000Y-79940000D03*
D29*
%TO.P,L101,2,2*%
%TO.N,/offlineConverter/GNDS_rect*%
X85650000Y-79940000D03*
%TO.P,L101,3,3*%
%TO.N,GNDS*%
X85650000Y-75440000D03*
%TO.P,L101,4,4*%
%TO.N,/offlineConverter/PDC_CM*%
X76350000Y-75440000D03*
%TD*%
D15*
%TO.P,RT1,1,1*%
%TO.N,/offlineConverter/L*%
X62500000Y-61250000D03*
%TO.P,RT1,2,2*%
%TO.N,/offlineConverter/L_Fuse*%
X67500000Y-61250000D03*
%TD*%
D30*
%TO.N,GNDS*%
X109000000Y-81525000D03*
X110500000Y-89000000D03*
X105750000Y-81525000D03*
X103500000Y-80750000D03*
X103750000Y-75250000D03*
X116500000Y-91500000D03*
X109240000Y-79712500D03*
X99750000Y-79500000D03*
X118500000Y-87250000D03*
X111750000Y-79750000D03*
X103500000Y-87750000D03*
X100250000Y-81500000D03*
%TO.N,Net-(D6-A)*%
X103222126Y-79758937D03*
X101500000Y-92000000D03*
%TO.N,Net-(IC1-FB)*%
X102029000Y-81500000D03*
X118250000Y-89500000D03*
%TO.N,GND*%
X146750000Y-77000000D03*
X146750000Y-75250000D03*
X136000000Y-91000000D03*
X141000000Y-86750000D03*
X146750000Y-73500000D03*
X143750000Y-85250000D03*
X133500000Y-88000000D03*
%TO.N,/offlineConverter/Drain*%
X107250000Y-74000000D03*
X109250000Y-71000000D03*
X108250000Y-70000000D03*
X109250000Y-72000000D03*
X113250000Y-69000000D03*
X112250000Y-74000000D03*
X110250000Y-69000000D03*
X109250000Y-73000000D03*
X112250000Y-70000000D03*
X113250000Y-73000000D03*
X109250000Y-69000000D03*
X113250000Y-71000000D03*
X107250000Y-69000000D03*
X113250000Y-72000000D03*
X112250000Y-71000000D03*
X113250000Y-70000000D03*
X111250000Y-72000000D03*
X110250000Y-71000000D03*
X113250000Y-74000000D03*
X110250000Y-73000000D03*
X107250000Y-70000000D03*
X107250000Y-73000000D03*
X111250000Y-71000000D03*
X108250000Y-73000000D03*
X111250000Y-74000000D03*
X108250000Y-69000000D03*
X108250000Y-74000000D03*
X110250000Y-72000000D03*
X108250000Y-71000000D03*
X109250000Y-74000000D03*
X107250000Y-71000000D03*
X111250000Y-70000000D03*
X110250000Y-74000000D03*
X107250000Y-72000000D03*
X112250000Y-73000000D03*
X110250000Y-70000000D03*
X108250000Y-72000000D03*
X111250000Y-69000000D03*
X112250000Y-69000000D03*
X111250000Y-73000000D03*
X109250000Y-70000000D03*
X112250000Y-72000000D03*
%TO.N,/offlineConverter/VDC*%
X144525000Y-74500000D03*
X144000000Y-67250000D03*
X147000000Y-67250000D03*
X147000000Y-66000000D03*
X144525000Y-79250000D03*
X140500000Y-91000000D03*
X144525000Y-77750000D03*
X144525000Y-81000000D03*
X147000000Y-68500000D03*
X144000000Y-68500000D03*
X144525000Y-76250000D03*
X144000000Y-66000000D03*
%TO.N,/offlineConverter/VCC_Off*%
X101990000Y-77500000D03*
X103240000Y-86250000D03*
%TD*%
D31*
%TO.N,GNDS*%
X80500000Y-63475000D02*
X80500000Y-61450000D01*
X86525000Y-69500000D02*
X80500000Y-63475000D01*
D32*
X111250000Y-87250000D02*
X104500000Y-80500000D01*
X118500000Y-87250000D02*
X111250000Y-87250000D01*
X104000000Y-78750000D02*
X101750000Y-78750000D01*
X104500000Y-79250000D02*
X104000000Y-78750000D01*
X101750000Y-78750000D02*
X100250000Y-80250000D01*
X104500000Y-80500000D02*
X104500000Y-79250000D01*
X100250000Y-80250000D02*
X100250000Y-81500000D01*
%TO.N,Net-(D6-A)*%
X101500000Y-80750000D02*
X101500000Y-92000000D01*
X103222126Y-79758937D02*
X102491063Y-79758937D01*
X102491063Y-79758937D02*
X101500000Y-80750000D01*
%TO.N,Net-(IC1-FB)*%
X102500000Y-81971000D02*
X105398244Y-81971000D01*
X116404999Y-87654999D02*
X118250000Y-89500000D01*
X102029000Y-81500000D02*
X102500000Y-81971000D01*
X111082244Y-87655000D02*
X116404999Y-87654999D01*
X105398244Y-81971000D02*
X111082244Y-87655000D01*
D31*
%TO.N,GND*%
X147500000Y-84300000D02*
X147500000Y-79000000D01*
X147500000Y-79000000D02*
X147500000Y-73500000D01*
%TO.N,/offlineConverter/VDC*%
X144525000Y-81000000D02*
X144525000Y-79250000D01*
X144525000Y-77750000D02*
X144525000Y-79250000D01*
X144750000Y-81225000D02*
X144525000Y-81000000D01*
X144525000Y-74500000D02*
X144525000Y-77750000D01*
%TD*%
%TA.AperFunction,Conductor*%
%TO.N,/offlineConverter/Drain*%
G36*
X113443039Y-68769685D02*
G01*
X113488794Y-68822489D01*
X113500000Y-68874000D01*
X113500000Y-74626000D01*
X113480315Y-74693039D01*
X113427511Y-74738794D01*
X113376000Y-74750000D01*
X107124000Y-74750000D01*
X107056961Y-74730315D01*
X107011206Y-74677511D01*
X107000000Y-74626000D01*
X107000000Y-68874000D01*
X107019685Y-68806961D01*
X107072489Y-68761206D01*
X107124000Y-68750000D01*
X113376000Y-68750000D01*
X113443039Y-68769685D01*
G37*
%TD.AperFunction*%
%TD*%
%TA.AperFunction,Conductor*%
%TO.N,Earth*%
G36*
X156943039Y-50520185D02*
G01*
X156988794Y-50572989D01*
X157000000Y-50624500D01*
X157000000Y-51955069D01*
X156980315Y-52022108D01*
X156927511Y-52067863D01*
X156858353Y-52077807D01*
X156828548Y-52069630D01*
X156676633Y-52006705D01*
X156579283Y-51980620D01*
X156410666Y-51935440D01*
X156410660Y-51935439D01*
X156410655Y-51935438D01*
X156137684Y-51899501D01*
X156137679Y-51899500D01*
X156137674Y-51899500D01*
X155862326Y-51899500D01*
X155862320Y-51899500D01*
X155862315Y-51899501D01*
X155589344Y-51935438D01*
X155589337Y-51935439D01*
X155589334Y-51935440D01*
X155533125Y-51950500D01*
X155323369Y-52006704D01*
X155068982Y-52112075D01*
X155068971Y-52112080D01*
X154830516Y-52249754D01*
X154612073Y-52417370D01*
X154612066Y-52417376D01*
X154417376Y-52612066D01*
X154417370Y-52612073D01*
X154249754Y-52830516D01*
X154112080Y-53068971D01*
X154112075Y-53068982D01*
X154006704Y-53323369D01*
X153935441Y-53589331D01*
X153935438Y-53589344D01*
X153899501Y-53862315D01*
X153899500Y-53862332D01*
X153899500Y-54137667D01*
X153899501Y-54137684D01*
X153935438Y-54410655D01*
X153935439Y-54410660D01*
X153935440Y-54410666D01*
X153953381Y-54477624D01*
X154006704Y-54676630D01*
X154112075Y-54931017D01*
X154112080Y-54931028D01*
X154164373Y-55021600D01*
X154249751Y-55169479D01*
X154249753Y-55169482D01*
X154249754Y-55169483D01*
X154417370Y-55387926D01*
X154417376Y-55387933D01*
X154612066Y-55582623D01*
X154612072Y-55582628D01*
X154830521Y-55750249D01*
X154983778Y-55838732D01*
X155068971Y-55887919D01*
X155068976Y-55887921D01*
X155068979Y-55887923D01*
X155323368Y-55993295D01*
X155589334Y-56064560D01*
X155862326Y-56100500D01*
X155862333Y-56100500D01*
X156137667Y-56100500D01*
X156137674Y-56100500D01*
X156410666Y-56064560D01*
X156676632Y-55993295D01*
X156828548Y-55930368D01*
X156898016Y-55922900D01*
X156960496Y-55954175D01*
X156996148Y-56014264D01*
X157000000Y-56044930D01*
X157000000Y-56876000D01*
X156980315Y-56943039D01*
X156927511Y-56988794D01*
X156876000Y-57000000D01*
X155051362Y-57000000D01*
X154984323Y-56980315D01*
X154963681Y-56963681D01*
X153000000Y-55000000D01*
X147940489Y-55000000D01*
X147873450Y-54980315D01*
X147838914Y-54947123D01*
X147800353Y-54892052D01*
X147599679Y-54652900D01*
X147514065Y-54550869D01*
X147199131Y-54235935D01*
X147082040Y-54137684D01*
X146857947Y-53949646D01*
X146493124Y-53694195D01*
X146493113Y-53694188D01*
X146493107Y-53694184D01*
X146311497Y-53589331D01*
X146107398Y-53471494D01*
X146107383Y-53471486D01*
X145703731Y-53283260D01*
X145285222Y-53130937D01*
X145285221Y-53130936D01*
X145285211Y-53130933D01*
X144970278Y-53046546D01*
X144855003Y-53015658D01*
X144854992Y-53015656D01*
X144416387Y-52938318D01*
X143972696Y-52899500D01*
X143972693Y-52899500D01*
X143527307Y-52899500D01*
X143527303Y-52899500D01*
X143083614Y-52938318D01*
X143083610Y-52938318D01*
X142645007Y-53015656D01*
X142644996Y-53015658D01*
X142414446Y-53077434D01*
X142214789Y-53130933D01*
X142214782Y-53130935D01*
X142214777Y-53130937D01*
X141796268Y-53283260D01*
X141392616Y-53471486D01*
X141392601Y-53471494D01*
X141006901Y-53694179D01*
X141006875Y-53694195D01*
X140642052Y-53949646D01*
X140300866Y-54235937D01*
X140087681Y-54449123D01*
X140026358Y-54482608D01*
X139956666Y-54477624D01*
X139912319Y-54449123D01*
X139699133Y-54235937D01*
X139357947Y-53949646D01*
X138993124Y-53694195D01*
X138993113Y-53694188D01*
X138993107Y-53694184D01*
X138811497Y-53589331D01*
X138607398Y-53471494D01*
X138607383Y-53471486D01*
X138203731Y-53283260D01*
X137785222Y-53130937D01*
X137785221Y-53130936D01*
X137785211Y-53130933D01*
X137470278Y-53046546D01*
X137355003Y-53015658D01*
X137354992Y-53015656D01*
X136916387Y-52938318D01*
X136472696Y-52899500D01*
X136472693Y-52899500D01*
X136027307Y-52899500D01*
X136027303Y-52899500D01*
X135583614Y-52938318D01*
X135583610Y-52938318D01*
X135145007Y-53015656D01*
X135144996Y-53015658D01*
X134914446Y-53077434D01*
X134714789Y-53130933D01*
X134714782Y-53130935D01*
X134714777Y-53130937D01*
X134296268Y-53283260D01*
X133892616Y-53471486D01*
X133892601Y-53471494D01*
X133506901Y-53694179D01*
X133506875Y-53694195D01*
X133142052Y-53949646D01*
X132800866Y-54235937D01*
X132485937Y-54550866D01*
X132199646Y-54892052D01*
X132161086Y-54947123D01*
X132106509Y-54990748D01*
X132059511Y-55000000D01*
X129940489Y-55000000D01*
X129873450Y-54980315D01*
X129838914Y-54947123D01*
X129800353Y-54892052D01*
X129599679Y-54652900D01*
X129514065Y-54550869D01*
X129199131Y-54235935D01*
X129082040Y-54137684D01*
X128857947Y-53949646D01*
X128493124Y-53694195D01*
X128493113Y-53694188D01*
X128493107Y-53694184D01*
X128311497Y-53589331D01*
X128107398Y-53471494D01*
X128107383Y-53471486D01*
X127703731Y-53283260D01*
X127285222Y-53130937D01*
X127285221Y-53130936D01*
X127285211Y-53130933D01*
X126970278Y-53046546D01*
X126855003Y-53015658D01*
X126854992Y-53015656D01*
X126416387Y-52938318D01*
X125972696Y-52899500D01*
X125972693Y-52899500D01*
X125527307Y-52899500D01*
X125527303Y-52899500D01*
X125083614Y-52938318D01*
X125083610Y-52938318D01*
X124645007Y-53015656D01*
X124644996Y-53015658D01*
X124414446Y-53077434D01*
X124214789Y-53130933D01*
X124214782Y-53130935D01*
X124214777Y-53130937D01*
X123796268Y-53283260D01*
X123392616Y-53471486D01*
X123392601Y-53471494D01*
X123041814Y-53674021D01*
X122973914Y-53690494D01*
X122917016Y-53673556D01*
X122846002Y-53631848D01*
X122845995Y-53631844D01*
X122754023Y-53589344D01*
X122480264Y-53462840D01*
X122480262Y-53462839D01*
X122099726Y-53330497D01*
X122032678Y-53310809D01*
X121779127Y-53248498D01*
X121676943Y-53223386D01*
X121676940Y-53223385D01*
X121676934Y-53223384D01*
X121278418Y-53164270D01*
X121278414Y-53164269D01*
X121278409Y-53164269D01*
X120876000Y-53144500D01*
X120875986Y-53144500D01*
X119844351Y-53144500D01*
X119801943Y-53137023D01*
X119785217Y-53130935D01*
X119785215Y-53130934D01*
X119785211Y-53130933D01*
X119470278Y-53046546D01*
X119355003Y-53015658D01*
X119354992Y-53015656D01*
X118916387Y-52938318D01*
X118472696Y-52899500D01*
X118472693Y-52899500D01*
X118027307Y-52899500D01*
X118027303Y-52899500D01*
X117583614Y-52938318D01*
X117583610Y-52938318D01*
X117145007Y-53015656D01*
X117144996Y-53015658D01*
X116914446Y-53077434D01*
X116714789Y-53130933D01*
X116714785Y-53130934D01*
X116714782Y-53130935D01*
X116698057Y-53137023D01*
X116655649Y-53144500D01*
X116059938Y-53144500D01*
X115992899Y-53124815D01*
X115988832Y-53122087D01*
X115850670Y-53025345D01*
X115632700Y-52899500D01*
X115449836Y-52793923D01*
X115449820Y-52793915D01*
X115030363Y-52598318D01*
X115030355Y-52598315D01*
X115030353Y-52598314D01*
X115030346Y-52598311D01*
X114595410Y-52440007D01*
X114595409Y-52440006D01*
X114595399Y-52440003D01*
X114148338Y-52320215D01*
X114148341Y-52320215D01*
X114148331Y-52320213D01*
X114148325Y-52320211D01*
X114148321Y-52320211D01*
X113692517Y-52239840D01*
X113231428Y-52199500D01*
X113231425Y-52199500D01*
X112768575Y-52199500D01*
X112768571Y-52199500D01*
X112307484Y-52239840D01*
X112307480Y-52239840D01*
X111851678Y-52320211D01*
X111851661Y-52320215D01*
X111404600Y-52440003D01*
X111210822Y-52510533D01*
X110969654Y-52598311D01*
X110969650Y-52598312D01*
X110969644Y-52598315D01*
X110969636Y-52598318D01*
X110550179Y-52793915D01*
X110550163Y-52793923D01*
X110149338Y-53025340D01*
X110149323Y-53025349D01*
X110087014Y-53068979D01*
X110011184Y-53122075D01*
X109944979Y-53144402D01*
X109940062Y-53144500D01*
X101059938Y-53144500D01*
X100992899Y-53124815D01*
X100988832Y-53122087D01*
X100850670Y-53025345D01*
X100632700Y-52899500D01*
X100449836Y-52793923D01*
X100449820Y-52793915D01*
X100030363Y-52598318D01*
X100030355Y-52598315D01*
X100030353Y-52598314D01*
X100030346Y-52598311D01*
X99595410Y-52440007D01*
X99595409Y-52440006D01*
X99595399Y-52440003D01*
X99148338Y-52320215D01*
X99148341Y-52320215D01*
X99148331Y-52320213D01*
X99148325Y-52320211D01*
X99148321Y-52320211D01*
X98692517Y-52239840D01*
X98231428Y-52199500D01*
X98231425Y-52199500D01*
X97768575Y-52199500D01*
X97768571Y-52199500D01*
X97307484Y-52239840D01*
X97307480Y-52239840D01*
X96851678Y-52320211D01*
X96851661Y-52320215D01*
X96404600Y-52440003D01*
X96210822Y-52510533D01*
X95969654Y-52598311D01*
X95969650Y-52598312D01*
X95969644Y-52598315D01*
X95969636Y-52598318D01*
X95550178Y-52793915D01*
X95550177Y-52793915D01*
X95484659Y-52831741D01*
X95416759Y-52848211D01*
X95369645Y-52836447D01*
X95096086Y-52707063D01*
X95096066Y-52707055D01*
X94716758Y-52571337D01*
X94716752Y-52571335D01*
X94716748Y-52571334D01*
X94474017Y-52510533D01*
X94325939Y-52473441D01*
X94325934Y-52473440D01*
X94325933Y-52473440D01*
X94178190Y-52451524D01*
X93927412Y-52414325D01*
X93927410Y-52414324D01*
X93927404Y-52414324D01*
X93625657Y-52399500D01*
X93625643Y-52399500D01*
X91874357Y-52399500D01*
X91755723Y-52405328D01*
X91572596Y-52414324D01*
X91572590Y-52414324D01*
X91572587Y-52414325D01*
X91174060Y-52473441D01*
X90879039Y-52547340D01*
X90783252Y-52571334D01*
X90783249Y-52571334D01*
X90783241Y-52571337D01*
X90403933Y-52707055D01*
X90403913Y-52707063D01*
X90039701Y-52879324D01*
X90017482Y-52892641D01*
X89949860Y-52910220D01*
X89901331Y-52898663D01*
X89617568Y-52766341D01*
X89617560Y-52766338D01*
X89617558Y-52766337D01*
X89617551Y-52766334D01*
X89217488Y-52620723D01*
X89217487Y-52620722D01*
X89217477Y-52620719D01*
X88806264Y-52510536D01*
X88806267Y-52510536D01*
X88806257Y-52510534D01*
X88747064Y-52500096D01*
X88386989Y-52436605D01*
X87962873Y-52399500D01*
X87962869Y-52399500D01*
X87537131Y-52399500D01*
X87537126Y-52399500D01*
X87113010Y-52436605D01*
X86693748Y-52510533D01*
X86693745Y-52510533D01*
X86693743Y-52510534D01*
X86693738Y-52510535D01*
X86693735Y-52510536D01*
X86282522Y-52620719D01*
X86082480Y-52693528D01*
X85882449Y-52766334D01*
X85882445Y-52766335D01*
X85882439Y-52766338D01*
X85882431Y-52766341D01*
X85496609Y-52946254D01*
X85496593Y-52946262D01*
X85127908Y-53159122D01*
X85127893Y-53159131D01*
X84779149Y-53403325D01*
X84453019Y-53676982D01*
X84151982Y-53978019D01*
X83878325Y-54304149D01*
X83634131Y-54652893D01*
X83634122Y-54652908D01*
X83620425Y-54676632D01*
X83469524Y-54938001D01*
X83418959Y-54986215D01*
X83362139Y-55000000D01*
X61999999Y-55000000D01*
X60369127Y-56630871D01*
X60333853Y-56655571D01*
X60246595Y-56696261D01*
X60246591Y-56696263D01*
X59877908Y-56909122D01*
X59877893Y-56909131D01*
X59529149Y-57153325D01*
X59203019Y-57426982D01*
X58901982Y-57728019D01*
X58628325Y-58054149D01*
X58384131Y-58402893D01*
X58384122Y-58402908D01*
X58171263Y-58771591D01*
X58171261Y-58771595D01*
X58130571Y-58858853D01*
X58105871Y-58894127D01*
X54036319Y-62963681D01*
X53974996Y-62997166D01*
X53948638Y-63000000D01*
X50624500Y-63000000D01*
X50557461Y-62980315D01*
X50511706Y-62927511D01*
X50500500Y-62876000D01*
X50500500Y-53862332D01*
X51899500Y-53862332D01*
X51899500Y-54137667D01*
X51899501Y-54137684D01*
X51935438Y-54410655D01*
X51935439Y-54410660D01*
X51935440Y-54410666D01*
X51953381Y-54477624D01*
X52006704Y-54676630D01*
X52112075Y-54931017D01*
X52112080Y-54931028D01*
X52164373Y-55021600D01*
X52249751Y-55169479D01*
X52249753Y-55169482D01*
X52249754Y-55169483D01*
X52417370Y-55387926D01*
X52417376Y-55387933D01*
X52612066Y-55582623D01*
X52612072Y-55582628D01*
X52830521Y-55750249D01*
X52983778Y-55838732D01*
X53068971Y-55887919D01*
X53068976Y-55887921D01*
X53068979Y-55887923D01*
X53323368Y-55993295D01*
X53589334Y-56064560D01*
X53862326Y-56100500D01*
X53862333Y-56100500D01*
X54137667Y-56100500D01*
X54137674Y-56100500D01*
X54410666Y-56064560D01*
X54676632Y-55993295D01*
X54931021Y-55887923D01*
X55169479Y-55750249D01*
X55387928Y-55582628D01*
X55582628Y-55387928D01*
X55750249Y-55169479D01*
X55887923Y-54931021D01*
X55993295Y-54676632D01*
X56064560Y-54410666D01*
X56100500Y-54137674D01*
X56100500Y-53862326D01*
X56064560Y-53589334D01*
X55993295Y-53323368D01*
X55887923Y-53068979D01*
X55887921Y-53068976D01*
X55887919Y-53068971D01*
X55817070Y-52946259D01*
X55750249Y-52830521D01*
X55582628Y-52612072D01*
X55582623Y-52612066D01*
X55387933Y-52417376D01*
X55387926Y-52417370D01*
X55169483Y-52249754D01*
X55169482Y-52249753D01*
X55169479Y-52249751D01*
X55074407Y-52194861D01*
X54931028Y-52112080D01*
X54931017Y-52112075D01*
X54676630Y-52006704D01*
X54543649Y-51971072D01*
X54410666Y-51935440D01*
X54410660Y-51935439D01*
X54410655Y-51935438D01*
X54137684Y-51899501D01*
X54137679Y-51899500D01*
X54137674Y-51899500D01*
X53862326Y-51899500D01*
X53862320Y-51899500D01*
X53862315Y-51899501D01*
X53589344Y-51935438D01*
X53589337Y-51935439D01*
X53589334Y-51935440D01*
X53533125Y-51950500D01*
X53323369Y-52006704D01*
X53068982Y-52112075D01*
X53068971Y-52112080D01*
X52830516Y-52249754D01*
X52612073Y-52417370D01*
X52612066Y-52417376D01*
X52417376Y-52612066D01*
X52417370Y-52612073D01*
X52249754Y-52830516D01*
X52112080Y-53068971D01*
X52112075Y-53068982D01*
X52006704Y-53323369D01*
X51935441Y-53589331D01*
X51935438Y-53589344D01*
X51899501Y-53862315D01*
X51899500Y-53862332D01*
X50500500Y-53862332D01*
X50500500Y-50624500D01*
X50520185Y-50557461D01*
X50572989Y-50511706D01*
X50624500Y-50500500D01*
X156876000Y-50500500D01*
X156943039Y-50520185D01*
G37*
%TD.AperFunction*%
%TD*%
%TA.AperFunction,Conductor*%
%TO.N,GNDS*%
G36*
X120943039Y-57269685D02*
G01*
X120988794Y-57322489D01*
X121000000Y-57374000D01*
X121000000Y-63445500D01*
X120980315Y-63512539D01*
X120927511Y-63558294D01*
X120876000Y-63569500D01*
X118925904Y-63569500D01*
X118833438Y-63575918D01*
X118833422Y-63575920D01*
X118616864Y-63626854D01*
X118616848Y-63626860D01*
X118413331Y-63716721D01*
X118229779Y-63842457D01*
X118229773Y-63842462D01*
X118072462Y-63999773D01*
X118072457Y-63999779D01*
X117946721Y-64183331D01*
X117856860Y-64386848D01*
X117856854Y-64386864D01*
X117805920Y-64603422D01*
X117805918Y-64603438D01*
X117799500Y-64695904D01*
X117799500Y-66844095D01*
X117805918Y-66936561D01*
X117805920Y-66936577D01*
X117856854Y-67153135D01*
X117856860Y-67153151D01*
X117946721Y-67356668D01*
X118072457Y-67540220D01*
X118072462Y-67540226D01*
X118229773Y-67697537D01*
X118229779Y-67697542D01*
X118413329Y-67823277D01*
X118413330Y-67823277D01*
X118413331Y-67823278D01*
X118577819Y-67895906D01*
X118616857Y-67913143D01*
X118616861Y-67913144D01*
X118616864Y-67913145D01*
X118833422Y-67964079D01*
X118833427Y-67964079D01*
X118833433Y-67964081D01*
X118884808Y-67967647D01*
X118925904Y-67970500D01*
X118925908Y-67970500D01*
X118978153Y-67970500D01*
X119045192Y-67990185D01*
X119090947Y-68042989D01*
X119100891Y-68112147D01*
X119099770Y-68118691D01*
X119089500Y-68170320D01*
X119089500Y-68349680D01*
X119124487Y-68525575D01*
X119124490Y-68525584D01*
X119149607Y-68586222D01*
X119157076Y-68655692D01*
X119125800Y-68718171D01*
X119082500Y-68748234D01*
X119024667Y-68772190D01*
X119024647Y-68772199D01*
X118774851Y-68916420D01*
X118774835Y-68916431D01*
X118545997Y-69092024D01*
X118545990Y-69092030D01*
X118342030Y-69295990D01*
X118342024Y-69295997D01*
X118166431Y-69524835D01*
X118166420Y-69524851D01*
X118022199Y-69774647D01*
X118022191Y-69774663D01*
X117911814Y-70041139D01*
X117911809Y-70041155D01*
X117857886Y-70242401D01*
X117837152Y-70319780D01*
X117837149Y-70319793D01*
X117799501Y-70605761D01*
X117799500Y-70605778D01*
X117799500Y-70894221D01*
X117799501Y-70894238D01*
X117837149Y-71180206D01*
X117837150Y-71180211D01*
X117837151Y-71180217D01*
X117897808Y-71406592D01*
X117911809Y-71458844D01*
X117911814Y-71458860D01*
X118022191Y-71725336D01*
X118022199Y-71725352D01*
X118166420Y-71975148D01*
X118166431Y-71975164D01*
X118342024Y-72204002D01*
X118342030Y-72204009D01*
X118545990Y-72407969D01*
X118545996Y-72407974D01*
X118774844Y-72583575D01*
X118774851Y-72583579D01*
X119024647Y-72727800D01*
X119024663Y-72727808D01*
X119105856Y-72761439D01*
X119160260Y-72805280D01*
X119182325Y-72871574D01*
X119165046Y-72939273D01*
X119113909Y-72986884D01*
X119058404Y-73000000D01*
X118499999Y-73000000D01*
X112500000Y-78999999D01*
X112500000Y-80073638D01*
X112480315Y-80140677D01*
X112463681Y-80161319D01*
X112161319Y-80463681D01*
X112099996Y-80497166D01*
X112073638Y-80500000D01*
X107551362Y-80500000D01*
X107484323Y-80480315D01*
X107463681Y-80463681D01*
X105786319Y-78786319D01*
X105752834Y-78724996D01*
X105750000Y-78698638D01*
X105750000Y-75500000D01*
X105749999Y-75499999D01*
X104250000Y-74250000D01*
X103500000Y-74250000D01*
X105206699Y-75712885D01*
X105244788Y-75771457D01*
X105250000Y-75807031D01*
X105250000Y-79000000D01*
X107250000Y-81000000D01*
X112500000Y-81000000D01*
X113000000Y-80500000D01*
X113000000Y-79051362D01*
X113019685Y-78984323D01*
X113036319Y-78963681D01*
X118713681Y-73286319D01*
X118775004Y-73252834D01*
X118801362Y-73250000D01*
X120876000Y-73250000D01*
X120943039Y-73269685D01*
X120988794Y-73322489D01*
X121000000Y-73374000D01*
X121000000Y-74473100D01*
X120980315Y-74540139D01*
X120927511Y-74585894D01*
X120876000Y-74597100D01*
X119909260Y-74597100D01*
X119730032Y-74625487D01*
X119557437Y-74681567D01*
X119395748Y-74763951D01*
X119311986Y-74824808D01*
X119248936Y-74870617D01*
X119248934Y-74870619D01*
X119248933Y-74870619D01*
X119120619Y-74998933D01*
X119120619Y-74998934D01*
X119120617Y-74998936D01*
X119096110Y-75032667D01*
X119013951Y-75145748D01*
X118931567Y-75307437D01*
X118875487Y-75480032D01*
X118847100Y-75659259D01*
X118847100Y-75840740D01*
X118872325Y-76000000D01*
X118875488Y-76019971D01*
X118931566Y-76192560D01*
X119013951Y-76354251D01*
X119120617Y-76501064D01*
X119248936Y-76629383D01*
X119395749Y-76736049D01*
X119557440Y-76818434D01*
X119730029Y-76874512D01*
X119730031Y-76874512D01*
X119734662Y-76876017D01*
X119734313Y-76877089D01*
X119790268Y-76909221D01*
X119822429Y-76971249D01*
X119815950Y-77040817D01*
X119772888Y-77095839D01*
X119734467Y-77113385D01*
X119734662Y-77113983D01*
X119730031Y-77115487D01*
X119730029Y-77115488D01*
X119600438Y-77157595D01*
X119557437Y-77171567D01*
X119395748Y-77253951D01*
X119311986Y-77314808D01*
X119248936Y-77360617D01*
X119248934Y-77360619D01*
X119248933Y-77360619D01*
X119120619Y-77488933D01*
X119120619Y-77488934D01*
X119120617Y-77488936D01*
X119074808Y-77551986D01*
X119013951Y-77635748D01*
X118931567Y-77797437D01*
X118875487Y-77970032D01*
X118847100Y-78149259D01*
X118847100Y-78330740D01*
X118875487Y-78509967D01*
X118875488Y-78509971D01*
X118931566Y-78682560D01*
X119013951Y-78844251D01*
X119120617Y-78991064D01*
X119248936Y-79119383D01*
X119395749Y-79226049D01*
X119557440Y-79308434D01*
X119730029Y-79364512D01*
X119797242Y-79375157D01*
X119909260Y-79392900D01*
X120876000Y-79392900D01*
X120943039Y-79412585D01*
X120988794Y-79465389D01*
X121000000Y-79516900D01*
X121000000Y-91876000D01*
X120980315Y-91943039D01*
X120927511Y-91988794D01*
X120876000Y-92000000D01*
X102038143Y-92000000D01*
X101971104Y-91980315D01*
X101925349Y-91927511D01*
X101918368Y-91908094D01*
X101898739Y-91834837D01*
X101885993Y-91812760D01*
X101842409Y-91737269D01*
X101842403Y-91737261D01*
X101789219Y-91684077D01*
X101755734Y-91622754D01*
X101752900Y-91596396D01*
X101752900Y-86193666D01*
X102812100Y-86193666D01*
X102812100Y-86306334D01*
X102817185Y-86325310D01*
X102841261Y-86415164D01*
X102841264Y-86415169D01*
X102897590Y-86512730D01*
X102897594Y-86512735D01*
X102897595Y-86512737D01*
X102977263Y-86592405D01*
X102977265Y-86592406D01*
X102977269Y-86592409D01*
X103074830Y-86648735D01*
X103074837Y-86648739D01*
X103183666Y-86677900D01*
X103183669Y-86677900D01*
X103296331Y-86677900D01*
X103296334Y-86677900D01*
X103405163Y-86648739D01*
X103502737Y-86592405D01*
X103582405Y-86512737D01*
X103638739Y-86415163D01*
X103667900Y-86306334D01*
X103667900Y-86193666D01*
X103638739Y-86084837D01*
X103638735Y-86084830D01*
X103582409Y-85987269D01*
X103582403Y-85987261D01*
X103502738Y-85907596D01*
X103502730Y-85907590D01*
X103405169Y-85851264D01*
X103405164Y-85851261D01*
X103377955Y-85843970D01*
X103296334Y-85822100D01*
X103183666Y-85822100D01*
X103118368Y-85839596D01*
X103074835Y-85851261D01*
X103074830Y-85851264D01*
X102977269Y-85907590D01*
X102977261Y-85907596D01*
X102897596Y-85987261D01*
X102897590Y-85987269D01*
X102841264Y-86084830D01*
X102841261Y-86084835D01*
X102826680Y-86139251D01*
X102812100Y-86193666D01*
X101752900Y-86193666D01*
X101752900Y-82374000D01*
X101772585Y-82306961D01*
X101825389Y-82261206D01*
X101876900Y-82250000D01*
X104948638Y-82250000D01*
X105015677Y-82269685D01*
X105036319Y-82286319D01*
X110750000Y-88000000D01*
X115198638Y-88000000D01*
X115265677Y-88019685D01*
X115286319Y-88036319D01*
X117750000Y-90500000D01*
X119000000Y-90500000D01*
X119000000Y-86750000D01*
X111551362Y-86750000D01*
X111484323Y-86730315D01*
X111463681Y-86713681D01*
X105036319Y-80286319D01*
X105002834Y-80224996D01*
X105000000Y-80198638D01*
X105000000Y-79250000D01*
X104000000Y-78250000D01*
X101750000Y-78250000D01*
X99750000Y-80000000D01*
X99750000Y-81750000D01*
X100250000Y-82250000D01*
X101123100Y-82250000D01*
X101190139Y-82269685D01*
X101235894Y-82322489D01*
X101247100Y-82374000D01*
X101247100Y-91596396D01*
X101227415Y-91663435D01*
X101210781Y-91684077D01*
X101157596Y-91737261D01*
X101157590Y-91737269D01*
X101101264Y-91834830D01*
X101101261Y-91834835D01*
X101081632Y-91908094D01*
X101045266Y-91967754D01*
X100982419Y-91998283D01*
X100961857Y-92000000D01*
X98124000Y-92000000D01*
X98056961Y-91980315D01*
X98011206Y-91927511D01*
X98000000Y-91876000D01*
X98000000Y-77443666D01*
X101562100Y-77443666D01*
X101562100Y-77556334D01*
X101583379Y-77635748D01*
X101591261Y-77665164D01*
X101591264Y-77665169D01*
X101647590Y-77762730D01*
X101647594Y-77762735D01*
X101647595Y-77762737D01*
X101727263Y-77842405D01*
X101727265Y-77842406D01*
X101727269Y-77842409D01*
X101824830Y-77898735D01*
X101824837Y-77898739D01*
X101933666Y-77927900D01*
X101933669Y-77927900D01*
X102046331Y-77927900D01*
X102046334Y-77927900D01*
X102155163Y-77898739D01*
X102252737Y-77842405D01*
X102332405Y-77762737D01*
X102388739Y-77665163D01*
X102417900Y-77556334D01*
X102417900Y-77443666D01*
X102388739Y-77334837D01*
X102342040Y-77253951D01*
X102332409Y-77237269D01*
X102332403Y-77237261D01*
X102252738Y-77157596D01*
X102252730Y-77157590D01*
X102155169Y-77101264D01*
X102155164Y-77101261D01*
X102127955Y-77093970D01*
X102046334Y-77072100D01*
X101933666Y-77072100D01*
X101877686Y-77087100D01*
X101824835Y-77101261D01*
X101824830Y-77101264D01*
X101727269Y-77157590D01*
X101727261Y-77157596D01*
X101647596Y-77237261D01*
X101647590Y-77237269D01*
X101591264Y-77334830D01*
X101591261Y-77334835D01*
X101581471Y-77371373D01*
X101562100Y-77443666D01*
X98000000Y-77443666D01*
X98000000Y-71086148D01*
X98016613Y-71024148D01*
X98118280Y-70848056D01*
X98118280Y-70848055D01*
X98118284Y-70848049D01*
X98208606Y-70629993D01*
X98269693Y-70402014D01*
X98300500Y-70168011D01*
X98300500Y-69331989D01*
X98269693Y-69097986D01*
X98212321Y-68883870D01*
X105774500Y-68883870D01*
X105774500Y-69116129D01*
X105792973Y-69232760D01*
X105794500Y-69252158D01*
X105794500Y-69747841D01*
X105792973Y-69767239D01*
X105774500Y-69883870D01*
X105774500Y-70116129D01*
X105792973Y-70232760D01*
X105794500Y-70252158D01*
X105794500Y-70747841D01*
X105792973Y-70767239D01*
X105774500Y-70883870D01*
X105774500Y-71116129D01*
X105792973Y-71232760D01*
X105794500Y-71252158D01*
X105794500Y-71747841D01*
X105792973Y-71767239D01*
X105774500Y-71883870D01*
X105774500Y-72116129D01*
X105792973Y-72232760D01*
X105794500Y-72252158D01*
X105794500Y-72747841D01*
X105792973Y-72767239D01*
X105774500Y-72883870D01*
X105774500Y-73116129D01*
X105792973Y-73232760D01*
X105794500Y-73252158D01*
X105794500Y-73747841D01*
X105792973Y-73767239D01*
X105774500Y-73883870D01*
X105774500Y-74116129D01*
X105792973Y-74232760D01*
X105794500Y-74252158D01*
X105794500Y-74625973D01*
X105795021Y-74661453D01*
X105822051Y-74882257D01*
X105833256Y-74933763D01*
X105876494Y-75084524D01*
X105970606Y-75286102D01*
X106100145Y-75466938D01*
X106100153Y-75466949D01*
X106145936Y-75519785D01*
X106159281Y-75534927D01*
X106159292Y-75534939D01*
X106322419Y-75686181D01*
X106322422Y-75686183D01*
X106510569Y-75804878D01*
X106717323Y-75886981D01*
X106717328Y-75886982D01*
X106717332Y-75886984D01*
X106737579Y-75892928D01*
X106784362Y-75906666D01*
X106902490Y-75934974D01*
X107124000Y-75955500D01*
X107124003Y-75955500D01*
X113375974Y-75955500D01*
X113376000Y-75955500D01*
X113411447Y-75954979D01*
X113632258Y-75927948D01*
X113683769Y-75916742D01*
X113834526Y-75873505D01*
X114036099Y-75779395D01*
X114047181Y-75771457D01*
X114128950Y-75712883D01*
X114216946Y-75649849D01*
X114269750Y-75604094D01*
X114284936Y-75590711D01*
X114436183Y-75427578D01*
X114554878Y-75239431D01*
X114636981Y-75032677D01*
X114656666Y-74965638D01*
X114684974Y-74847510D01*
X114705500Y-74626000D01*
X114705500Y-74252158D01*
X114707027Y-74232760D01*
X114725500Y-74116129D01*
X114725500Y-73883870D01*
X114707027Y-73767239D01*
X114705500Y-73747841D01*
X114705500Y-73252158D01*
X114707027Y-73232760D01*
X114725500Y-73116129D01*
X114725500Y-72883870D01*
X114707027Y-72767239D01*
X114705500Y-72747841D01*
X114705500Y-72252158D01*
X114707027Y-72232760D01*
X114725500Y-72116129D01*
X114725500Y-71883870D01*
X114707027Y-71767239D01*
X114705500Y-71747841D01*
X114705500Y-71252158D01*
X114707027Y-71232760D01*
X114725500Y-71116129D01*
X114725500Y-70883870D01*
X114707027Y-70767239D01*
X114705500Y-70747841D01*
X114705500Y-70252158D01*
X114707027Y-70232760D01*
X114725500Y-70116129D01*
X114725500Y-69883870D01*
X114707027Y-69767239D01*
X114705500Y-69747841D01*
X114705500Y-69252158D01*
X114707027Y-69232760D01*
X114725500Y-69116129D01*
X114725500Y-68883870D01*
X114699255Y-68718171D01*
X114689169Y-68654486D01*
X114681321Y-68630334D01*
X114678087Y-68618380D01*
X114666742Y-68566233D01*
X114666742Y-68566231D01*
X114623505Y-68415474D01*
X114529395Y-68213901D01*
X114529394Y-68213900D01*
X114529393Y-68213897D01*
X114399854Y-68033061D01*
X114399846Y-68033050D01*
X114354063Y-67980214D01*
X114340718Y-67965072D01*
X114340707Y-67965060D01*
X114177580Y-67813818D01*
X114177577Y-67813816D01*
X113989430Y-67695121D01*
X113782667Y-67613015D01*
X113715640Y-67593334D01*
X113643849Y-67576130D01*
X113634429Y-67573475D01*
X113595515Y-67560831D01*
X113366129Y-67524500D01*
X113366124Y-67524500D01*
X113133876Y-67524500D01*
X113133871Y-67524500D01*
X113031106Y-67540776D01*
X113017238Y-67542973D01*
X112997842Y-67544500D01*
X112502158Y-67544500D01*
X112482761Y-67542973D01*
X112468893Y-67540776D01*
X112366129Y-67524500D01*
X112366124Y-67524500D01*
X112133876Y-67524500D01*
X112133871Y-67524500D01*
X112031106Y-67540776D01*
X112017238Y-67542973D01*
X111997842Y-67544500D01*
X111502158Y-67544500D01*
X111482761Y-67542973D01*
X111468893Y-67540776D01*
X111366129Y-67524500D01*
X111366124Y-67524500D01*
X111133876Y-67524500D01*
X111133871Y-67524500D01*
X111031106Y-67540776D01*
X111017238Y-67542973D01*
X110997842Y-67544500D01*
X110502158Y-67544500D01*
X110482761Y-67542973D01*
X110468893Y-67540776D01*
X110366129Y-67524500D01*
X110366124Y-67524500D01*
X110133876Y-67524500D01*
X110133871Y-67524500D01*
X110031106Y-67540776D01*
X110017238Y-67542973D01*
X109997842Y-67544500D01*
X109502158Y-67544500D01*
X109482761Y-67542973D01*
X109468893Y-67540776D01*
X109366129Y-67524500D01*
X109366124Y-67524500D01*
X109133876Y-67524500D01*
X109133871Y-67524500D01*
X109031106Y-67540776D01*
X109017238Y-67542973D01*
X108997842Y-67544500D01*
X108502158Y-67544500D01*
X108482761Y-67542973D01*
X108468893Y-67540776D01*
X108366129Y-67524500D01*
X108366124Y-67524500D01*
X108133876Y-67524500D01*
X108133871Y-67524500D01*
X108031106Y-67540776D01*
X108017238Y-67542973D01*
X107997842Y-67544500D01*
X107502158Y-67544500D01*
X107482761Y-67542973D01*
X107468893Y-67540776D01*
X107366129Y-67524500D01*
X107366124Y-67524500D01*
X107133876Y-67524500D01*
X107133871Y-67524500D01*
X106904485Y-67560831D01*
X106904482Y-67560831D01*
X106880328Y-67568680D01*
X106868370Y-67571915D01*
X106816233Y-67583257D01*
X106665475Y-67626494D01*
X106463897Y-67720606D01*
X106283061Y-67850145D01*
X106283050Y-67850153D01*
X106230214Y-67895936D01*
X106215072Y-67909281D01*
X106215060Y-67909292D01*
X106063818Y-68072419D01*
X106063816Y-68072422D01*
X105945121Y-68260569D01*
X105863015Y-68467332D01*
X105843330Y-68534374D01*
X105826131Y-68606140D01*
X105823479Y-68615554D01*
X105810830Y-68654486D01*
X105774500Y-68883870D01*
X98212321Y-68883870D01*
X98208606Y-68870007D01*
X98118284Y-68651951D01*
X98118282Y-68651948D01*
X98118280Y-68651943D01*
X98016613Y-68475851D01*
X98000000Y-68413851D01*
X98000000Y-60024500D01*
X98019685Y-59957461D01*
X98072489Y-59911706D01*
X98124000Y-59900500D01*
X98134812Y-59900500D01*
X98134812Y-59900499D01*
X98402732Y-59870312D01*
X98665591Y-59810316D01*
X98920079Y-59721267D01*
X99162997Y-59604284D01*
X99391289Y-59460838D01*
X99602085Y-59292734D01*
X99792734Y-59102085D01*
X99960838Y-58891289D01*
X100104284Y-58662997D01*
X100221267Y-58420079D01*
X100310316Y-58165591D01*
X100370312Y-57902732D01*
X100400500Y-57634809D01*
X100400500Y-57374000D01*
X100420185Y-57306961D01*
X100472989Y-57261206D01*
X100524500Y-57250000D01*
X120876000Y-57250000D01*
X120943039Y-57269685D01*
G37*
%TD.AperFunction*%
%TD*%
%TA.AperFunction,Conductor*%
%TO.N,GND*%
G36*
X142199670Y-58049723D02*
G01*
X142243996Y-58103733D01*
X142252337Y-58132810D01*
X142286934Y-58351247D01*
X142359897Y-58575802D01*
X142467087Y-58786174D01*
X142527338Y-58869104D01*
X142527340Y-58869105D01*
X143267037Y-58129408D01*
X143284075Y-58192993D01*
X143349901Y-58307007D01*
X143442993Y-58400099D01*
X143557007Y-58465925D01*
X143620590Y-58482962D01*
X142880893Y-59222658D01*
X142963828Y-59282914D01*
X143174197Y-59390102D01*
X143398752Y-59463065D01*
X143398751Y-59463065D01*
X143631948Y-59500000D01*
X143868052Y-59500000D01*
X144101247Y-59463065D01*
X144325802Y-59390102D01*
X144536163Y-59282918D01*
X144536169Y-59282914D01*
X144619104Y-59222658D01*
X144619105Y-59222658D01*
X143879408Y-58482962D01*
X143942993Y-58465925D01*
X144057007Y-58400099D01*
X144150099Y-58307007D01*
X144215925Y-58192993D01*
X144232962Y-58129409D01*
X144972658Y-58869105D01*
X144972658Y-58869104D01*
X145032914Y-58786169D01*
X145032920Y-58786161D01*
X145140102Y-58575802D01*
X145213064Y-58351252D01*
X145214835Y-58340071D01*
X145244764Y-58276936D01*
X145304075Y-58240004D01*
X145373938Y-58241000D01*
X145410282Y-58259212D01*
X145623086Y-58414116D01*
X145970494Y-58618156D01*
X146336228Y-58787161D01*
X146716766Y-58919504D01*
X146783805Y-58939189D01*
X147139546Y-59026614D01*
X147538080Y-59085731D01*
X147940489Y-59105500D01*
X150054138Y-59105500D01*
X150121177Y-59125185D01*
X150141819Y-59141819D01*
X154835419Y-63835419D01*
X154868904Y-63896742D01*
X154863920Y-63966434D01*
X154822048Y-64022367D01*
X154756584Y-64046784D01*
X154747738Y-64047100D01*
X153884945Y-64047100D01*
X153840341Y-64055972D01*
X153840338Y-64055973D01*
X153789766Y-64089765D01*
X153755971Y-64140343D01*
X153755970Y-64140345D01*
X153747100Y-64184940D01*
X153747100Y-65815054D01*
X153755972Y-65859658D01*
X153755973Y-65859661D01*
X153789017Y-65909113D01*
X153789766Y-65910234D01*
X153840342Y-65944028D01*
X153840343Y-65944028D01*
X153840345Y-65944029D01*
X153862642Y-65948464D01*
X153884943Y-65952900D01*
X155376001Y-65952899D01*
X155443039Y-65972584D01*
X155488794Y-66025387D01*
X155500000Y-66076899D01*
X155500000Y-66423100D01*
X155480315Y-66490139D01*
X155427511Y-66535894D01*
X155376000Y-66547100D01*
X154606143Y-66547100D01*
X154422056Y-66583717D01*
X154422048Y-66583719D01*
X154248634Y-66655549D01*
X154248625Y-66655554D01*
X154092561Y-66759833D01*
X154092557Y-66759836D01*
X153959836Y-66892557D01*
X153959833Y-66892561D01*
X153855554Y-67048625D01*
X153855549Y-67048634D01*
X153783719Y-67222048D01*
X153783717Y-67222056D01*
X153747100Y-67406143D01*
X153747100Y-67593856D01*
X153783717Y-67777943D01*
X153783719Y-67777951D01*
X153855549Y-67951365D01*
X153855554Y-67951374D01*
X153959833Y-68107438D01*
X153959836Y-68107442D01*
X154092557Y-68240163D01*
X154092561Y-68240166D01*
X154248625Y-68344445D01*
X154248634Y-68344450D01*
X154287918Y-68360722D01*
X154422049Y-68416281D01*
X154559725Y-68443666D01*
X154606143Y-68452899D01*
X154606147Y-68452900D01*
X155376000Y-68452900D01*
X155443039Y-68472585D01*
X155488794Y-68525389D01*
X155500000Y-68576900D01*
X155500000Y-68923100D01*
X155480315Y-68990139D01*
X155427511Y-69035894D01*
X155376000Y-69047100D01*
X154606143Y-69047100D01*
X154422056Y-69083717D01*
X154422048Y-69083719D01*
X154248634Y-69155549D01*
X154248625Y-69155554D01*
X154092561Y-69259833D01*
X154092557Y-69259836D01*
X153959836Y-69392557D01*
X153959833Y-69392561D01*
X153855554Y-69548625D01*
X153855549Y-69548634D01*
X153783719Y-69722048D01*
X153783717Y-69722056D01*
X153747100Y-69906143D01*
X153747100Y-70093856D01*
X153783717Y-70277943D01*
X153783719Y-70277951D01*
X153855549Y-70451365D01*
X153855554Y-70451374D01*
X153959833Y-70607438D01*
X153959836Y-70607442D01*
X154092557Y-70740163D01*
X154092561Y-70740166D01*
X154248625Y-70844445D01*
X154248631Y-70844448D01*
X154248632Y-70844449D01*
X154422049Y-70916281D01*
X154504061Y-70932593D01*
X154612123Y-70954089D01*
X154611772Y-70955853D01*
X154668701Y-70978840D01*
X154709060Y-71035875D01*
X154712177Y-71105675D01*
X154677063Y-71166080D01*
X154614866Y-71197911D01*
X154601483Y-71199701D01*
X154597683Y-71199999D01*
X154395582Y-71232009D01*
X154200972Y-71295243D01*
X154200965Y-71295246D01*
X154166406Y-71312854D01*
X154911414Y-72057862D01*
X154826306Y-72080667D01*
X154723694Y-72139910D01*
X154639910Y-72223694D01*
X154580667Y-72326306D01*
X154557862Y-72411414D01*
X153753985Y-71607537D01*
X153708417Y-71653104D01*
X153708417Y-71653105D01*
X153588140Y-71818650D01*
X153495244Y-72000968D01*
X153432009Y-72195582D01*
X153400000Y-72397682D01*
X153400000Y-72602317D01*
X153432009Y-72804417D01*
X153495244Y-72999031D01*
X153588140Y-73181349D01*
X153708417Y-73346894D01*
X153708417Y-73346895D01*
X153753985Y-73392463D01*
X154557862Y-72588585D01*
X154580667Y-72673694D01*
X154639910Y-72776306D01*
X154723694Y-72860090D01*
X154826306Y-72919333D01*
X154911412Y-72942137D01*
X154166406Y-73687143D01*
X154166406Y-73687144D01*
X154200967Y-73704754D01*
X154200971Y-73704755D01*
X154395582Y-73767990D01*
X154597683Y-73800000D01*
X155376000Y-73800000D01*
X155443039Y-73819685D01*
X155488794Y-73872489D01*
X155500000Y-73924000D01*
X155500000Y-79132792D01*
X155480315Y-79199831D01*
X155427511Y-79245586D01*
X155358353Y-79255530D01*
X155351811Y-79254410D01*
X155315058Y-79247100D01*
X153684945Y-79247100D01*
X153640341Y-79255972D01*
X153640338Y-79255973D01*
X153589766Y-79289765D01*
X153555971Y-79340343D01*
X153555970Y-79340345D01*
X153547100Y-79384940D01*
X153547100Y-81615054D01*
X153555972Y-81659658D01*
X153555973Y-81659661D01*
X153589766Y-81710235D01*
X153598401Y-81718870D01*
X153596247Y-81721023D01*
X153628831Y-81760011D01*
X153637538Y-81829336D01*
X153607384Y-81892363D01*
X153602816Y-81897182D01*
X143036819Y-92463181D01*
X142975496Y-92496666D01*
X142949138Y-92499500D01*
X128864000Y-92499500D01*
X128796961Y-92479815D01*
X128751206Y-92427011D01*
X128740000Y-92375500D01*
X128740000Y-90943666D01*
X140072100Y-90943666D01*
X140072100Y-91056334D01*
X140093970Y-91137955D01*
X140101261Y-91165164D01*
X140101264Y-91165169D01*
X140157590Y-91262730D01*
X140157594Y-91262735D01*
X140157595Y-91262737D01*
X140237263Y-91342405D01*
X140237265Y-91342406D01*
X140237269Y-91342409D01*
X140334830Y-91398735D01*
X140334837Y-91398739D01*
X140443666Y-91427900D01*
X140443669Y-91427900D01*
X140556331Y-91427900D01*
X140556334Y-91427900D01*
X140665163Y-91398739D01*
X140762737Y-91342405D01*
X140842405Y-91262737D01*
X140898739Y-91165163D01*
X140927900Y-91056334D01*
X140927900Y-90943666D01*
X140898739Y-90834837D01*
X140898735Y-90834830D01*
X140842409Y-90737269D01*
X140842403Y-90737261D01*
X140762738Y-90657596D01*
X140762730Y-90657590D01*
X140665169Y-90601264D01*
X140665164Y-90601261D01*
X140637955Y-90593970D01*
X140556334Y-90572100D01*
X140443666Y-90572100D01*
X140378368Y-90589596D01*
X140334835Y-90601261D01*
X140334830Y-90601264D01*
X140237269Y-90657590D01*
X140237261Y-90657596D01*
X140157596Y-90737261D01*
X140157590Y-90737269D01*
X140101264Y-90834830D01*
X140101261Y-90834835D01*
X140087036Y-90887923D01*
X140072100Y-90943666D01*
X128740000Y-90943666D01*
X128740000Y-84624000D01*
X128759685Y-84556961D01*
X128812489Y-84511206D01*
X128864000Y-84500000D01*
X138500000Y-84500000D01*
X138500000Y-83185441D01*
X138519685Y-83118402D01*
X138572489Y-83072647D01*
X138641647Y-83062703D01*
X138662300Y-83067505D01*
X138730029Y-83089512D01*
X138751664Y-83092938D01*
X138909260Y-83117900D01*
X138909265Y-83117900D01*
X140090740Y-83117900D01*
X140190310Y-83102128D01*
X140269971Y-83089512D01*
X140442560Y-83033434D01*
X140604251Y-82951049D01*
X140751064Y-82844383D01*
X140879383Y-82716064D01*
X140986049Y-82569251D01*
X141068434Y-82407560D01*
X141124512Y-82234971D01*
X141137128Y-82155310D01*
X141152900Y-82055740D01*
X141152900Y-81874259D01*
X141124512Y-81695032D01*
X141124512Y-81695029D01*
X141068434Y-81522440D01*
X140986049Y-81360749D01*
X140879383Y-81213936D01*
X140751064Y-81085617D01*
X140721733Y-81064307D01*
X143872099Y-81064307D01*
X143891390Y-81161281D01*
X143891390Y-81161282D01*
X143897189Y-81190437D01*
X143897190Y-81190441D01*
X143897191Y-81190444D01*
X143946408Y-81309264D01*
X144017859Y-81416200D01*
X144017862Y-81416204D01*
X144017863Y-81416205D01*
X144333796Y-81732137D01*
X144333797Y-81732138D01*
X144333800Y-81732140D01*
X144440736Y-81803592D01*
X144559556Y-81852809D01*
X144685690Y-81877898D01*
X144685694Y-81877899D01*
X144685695Y-81877899D01*
X144814306Y-81877899D01*
X144814307Y-81877898D01*
X144940444Y-81852809D01*
X145059264Y-81803592D01*
X145166199Y-81732140D01*
X145257140Y-81641199D01*
X145274609Y-81615056D01*
X145328588Y-81534270D01*
X145328588Y-81534269D01*
X145328592Y-81534264D01*
X145377809Y-81415444D01*
X145402899Y-81289305D01*
X145402899Y-81160695D01*
X145377809Y-81034556D01*
X145328592Y-80915736D01*
X145257140Y-80808800D01*
X145254124Y-80805784D01*
X145214217Y-80765875D01*
X145180733Y-80704552D01*
X145177900Y-80678196D01*
X145177900Y-80097682D01*
X149700000Y-80097682D01*
X149700000Y-80902317D01*
X149732009Y-81104417D01*
X149795243Y-81299025D01*
X149812855Y-81333592D01*
X150600000Y-80546447D01*
X150600000Y-80552661D01*
X150627259Y-80654394D01*
X150679920Y-80745606D01*
X150754394Y-80820080D01*
X150845606Y-80872741D01*
X150947339Y-80900000D01*
X150953552Y-80900000D01*
X150107537Y-81746015D01*
X150153104Y-81791582D01*
X150318650Y-81911859D01*
X150500968Y-82004755D01*
X150695582Y-82067990D01*
X150897683Y-82100000D01*
X151102317Y-82100000D01*
X151304417Y-82067990D01*
X151499031Y-82004755D01*
X151681349Y-81911859D01*
X151846894Y-81791582D01*
X151846895Y-81791582D01*
X151892463Y-81746015D01*
X151046448Y-80900000D01*
X151052661Y-80900000D01*
X151154394Y-80872741D01*
X151245606Y-80820080D01*
X151320080Y-80745606D01*
X151372741Y-80654394D01*
X151400000Y-80552661D01*
X151400000Y-80546448D01*
X152187143Y-81333591D01*
X152204756Y-81299028D01*
X152267990Y-81104417D01*
X152300000Y-80902317D01*
X152300000Y-80097682D01*
X152267990Y-79895582D01*
X152204755Y-79700971D01*
X152204754Y-79700967D01*
X152187143Y-79666406D01*
X151400000Y-80453550D01*
X151400000Y-80447339D01*
X151372741Y-80345606D01*
X151320080Y-80254394D01*
X151245606Y-80179920D01*
X151154394Y-80127259D01*
X151052661Y-80100000D01*
X151046448Y-80100000D01*
X151892463Y-79253985D01*
X151846895Y-79208417D01*
X151681349Y-79088140D01*
X151499031Y-78995244D01*
X151304417Y-78932009D01*
X151102317Y-78900000D01*
X150897683Y-78900000D01*
X150695582Y-78932009D01*
X150500968Y-78995244D01*
X150318650Y-79088140D01*
X150153105Y-79208417D01*
X150153104Y-79208417D01*
X150107537Y-79253985D01*
X150953552Y-80100000D01*
X150947339Y-80100000D01*
X150845606Y-80127259D01*
X150754394Y-80179920D01*
X150679920Y-80254394D01*
X150627259Y-80345606D01*
X150600000Y-80447339D01*
X150600000Y-80453552D01*
X149812854Y-79666406D01*
X149795246Y-79700965D01*
X149795243Y-79700972D01*
X149732009Y-79895582D01*
X149700000Y-80097682D01*
X145177900Y-80097682D01*
X145177900Y-74435692D01*
X145152810Y-74309561D01*
X145152809Y-74309560D01*
X145152809Y-74309556D01*
X145103592Y-74190736D01*
X145103591Y-74190735D01*
X145103588Y-74190729D01*
X145032140Y-74083801D01*
X145032137Y-74083797D01*
X144941202Y-73992862D01*
X144941198Y-73992859D01*
X144834270Y-73921411D01*
X144834261Y-73921406D01*
X144715444Y-73872191D01*
X144715438Y-73872189D01*
X144589307Y-73847100D01*
X144589305Y-73847100D01*
X144460695Y-73847100D01*
X144460693Y-73847100D01*
X144334561Y-73872189D01*
X144334555Y-73872191D01*
X144215738Y-73921406D01*
X144215729Y-73921411D01*
X144108801Y-73992859D01*
X144108797Y-73992862D01*
X144017862Y-74083797D01*
X144017859Y-74083801D01*
X143946411Y-74190729D01*
X143946406Y-74190738D01*
X143897191Y-74309555D01*
X143897189Y-74309561D01*
X143872100Y-74435692D01*
X143872100Y-74435695D01*
X143872100Y-77685695D01*
X143872100Y-79185695D01*
X143872100Y-81064305D01*
X143872100Y-81064307D01*
X143872099Y-81064307D01*
X140721733Y-81064307D01*
X140604251Y-80978951D01*
X140442560Y-80896566D01*
X140269971Y-80840488D01*
X140269968Y-80840487D01*
X140265338Y-80838983D01*
X140265686Y-80837909D01*
X140209735Y-80805784D01*
X140177571Y-80743758D01*
X140184047Y-80674189D01*
X140227106Y-80619164D01*
X140265532Y-80601615D01*
X140265338Y-80601017D01*
X140269968Y-80599512D01*
X140269971Y-80599512D01*
X140442560Y-80543434D01*
X140604251Y-80461049D01*
X140751064Y-80354383D01*
X140879383Y-80226064D01*
X140986049Y-80079251D01*
X141068434Y-79917560D01*
X141124512Y-79744971D01*
X141146604Y-79605488D01*
X141152900Y-79565740D01*
X141152900Y-79384259D01*
X141132581Y-79255973D01*
X141124512Y-79205029D01*
X141068434Y-79032440D01*
X140986049Y-78870749D01*
X140879383Y-78723936D01*
X140751064Y-78595617D01*
X140604251Y-78488951D01*
X140442560Y-78406566D01*
X140269971Y-78350488D01*
X140269968Y-78350487D01*
X140265338Y-78348983D01*
X140265686Y-78347909D01*
X140209735Y-78315784D01*
X140177571Y-78253758D01*
X140184047Y-78184189D01*
X140227106Y-78129164D01*
X140265532Y-78111615D01*
X140265338Y-78111017D01*
X140269968Y-78109512D01*
X140269971Y-78109512D01*
X140442560Y-78053434D01*
X140604251Y-77971049D01*
X140751064Y-77864383D01*
X140879383Y-77736064D01*
X140986049Y-77589251D01*
X141068434Y-77427560D01*
X141124512Y-77254971D01*
X141146604Y-77115488D01*
X141152900Y-77075740D01*
X141152900Y-76894259D01*
X141124512Y-76715032D01*
X141124512Y-76715029D01*
X141068434Y-76542440D01*
X140986049Y-76380749D01*
X140879383Y-76233936D01*
X140751064Y-76105617D01*
X140604251Y-75998951D01*
X140442560Y-75916566D01*
X140269971Y-75860488D01*
X140269968Y-75860487D01*
X140265338Y-75858983D01*
X140265686Y-75857909D01*
X140209735Y-75825784D01*
X140177571Y-75763758D01*
X140184047Y-75694189D01*
X140227106Y-75639164D01*
X140265532Y-75621615D01*
X140265338Y-75621017D01*
X140269968Y-75619512D01*
X140269971Y-75619512D01*
X140442560Y-75563434D01*
X140604251Y-75481049D01*
X140751064Y-75374383D01*
X140879383Y-75246064D01*
X140986049Y-75099251D01*
X141068434Y-74937560D01*
X141124512Y-74764971D01*
X141137722Y-74681566D01*
X141152900Y-74585740D01*
X141152900Y-74404259D01*
X141124512Y-74225032D01*
X141124512Y-74225029D01*
X141068434Y-74052440D01*
X140986049Y-73890749D01*
X140879383Y-73743936D01*
X140751064Y-73615617D01*
X140604251Y-73508951D01*
X140442560Y-73426566D01*
X140269971Y-73370488D01*
X140269968Y-73370487D01*
X140265338Y-73368983D01*
X140265686Y-73367909D01*
X140209735Y-73335784D01*
X140177571Y-73273758D01*
X140184047Y-73204189D01*
X140227106Y-73149164D01*
X140265532Y-73131615D01*
X140265338Y-73131017D01*
X140269968Y-73129512D01*
X140269971Y-73129512D01*
X140442560Y-73073434D01*
X140604251Y-72991049D01*
X140751064Y-72884383D01*
X140879383Y-72756064D01*
X140986049Y-72609251D01*
X141068434Y-72447560D01*
X141124512Y-72274971D01*
X141137128Y-72195310D01*
X141152900Y-72095740D01*
X141152900Y-71914259D01*
X141131576Y-71779630D01*
X141124512Y-71735029D01*
X141068434Y-71562440D01*
X140986049Y-71400749D01*
X140879383Y-71253936D01*
X140751064Y-71125617D01*
X140604251Y-71018951D01*
X140604249Y-71018950D01*
X140600526Y-71016245D01*
X140557861Y-70960915D01*
X140554619Y-70923171D01*
X139762415Y-70130967D01*
X139807485Y-70149636D01*
X139934996Y-70175000D01*
X140065004Y-70175000D01*
X140192515Y-70149636D01*
X140312627Y-70099884D01*
X140388043Y-70049491D01*
X140987436Y-70648884D01*
X141144133Y-70492186D01*
X141282914Y-70301171D01*
X141390102Y-70090802D01*
X141463065Y-69866247D01*
X141500000Y-69633052D01*
X141500000Y-69396947D01*
X141463065Y-69163752D01*
X141390102Y-68939197D01*
X141282914Y-68728828D01*
X141144133Y-68537813D01*
X141129879Y-68523559D01*
X141048845Y-68443666D01*
X143572100Y-68443666D01*
X143572100Y-68556334D01*
X143593970Y-68637955D01*
X143601261Y-68665164D01*
X143601264Y-68665169D01*
X143657590Y-68762730D01*
X143657594Y-68762735D01*
X143657595Y-68762737D01*
X143737263Y-68842405D01*
X143737265Y-68842406D01*
X143737269Y-68842409D01*
X143759078Y-68855000D01*
X143834837Y-68898739D01*
X143943666Y-68927900D01*
X143943669Y-68927900D01*
X144056331Y-68927900D01*
X144056334Y-68927900D01*
X144165163Y-68898739D01*
X144262737Y-68842405D01*
X144342405Y-68762737D01*
X144398739Y-68665163D01*
X144427900Y-68556334D01*
X144427900Y-68443666D01*
X146572100Y-68443666D01*
X146572100Y-68556334D01*
X146593970Y-68637955D01*
X146601261Y-68665164D01*
X146601264Y-68665169D01*
X146657590Y-68762730D01*
X146657594Y-68762735D01*
X146657595Y-68762737D01*
X146737263Y-68842405D01*
X146737265Y-68842406D01*
X146737269Y-68842409D01*
X146759078Y-68855000D01*
X146834837Y-68898739D01*
X146943666Y-68927900D01*
X146943669Y-68927900D01*
X147056331Y-68927900D01*
X147056334Y-68927900D01*
X147165163Y-68898739D01*
X147262737Y-68842405D01*
X147342405Y-68762737D01*
X147398739Y-68665163D01*
X147427900Y-68556334D01*
X147427900Y-68443666D01*
X147398739Y-68334837D01*
X147387286Y-68314999D01*
X147342409Y-68237269D01*
X147342403Y-68237261D01*
X147262738Y-68157596D01*
X147262730Y-68157590D01*
X147165169Y-68101264D01*
X147165164Y-68101261D01*
X147137955Y-68093970D01*
X147056334Y-68072100D01*
X146943666Y-68072100D01*
X146878368Y-68089596D01*
X146834835Y-68101261D01*
X146834830Y-68101264D01*
X146737269Y-68157590D01*
X146737261Y-68157596D01*
X146657596Y-68237261D01*
X146657590Y-68237269D01*
X146601264Y-68334830D01*
X146601261Y-68334835D01*
X146586680Y-68389251D01*
X146572100Y-68443666D01*
X144427900Y-68443666D01*
X144398739Y-68334837D01*
X144387286Y-68314999D01*
X144342409Y-68237269D01*
X144342403Y-68237261D01*
X144262738Y-68157596D01*
X144262730Y-68157590D01*
X144165169Y-68101264D01*
X144165164Y-68101261D01*
X144137955Y-68093970D01*
X144056334Y-68072100D01*
X143943666Y-68072100D01*
X143878368Y-68089596D01*
X143834835Y-68101261D01*
X143834830Y-68101264D01*
X143737269Y-68157590D01*
X143737261Y-68157596D01*
X143657596Y-68237261D01*
X143657590Y-68237269D01*
X143601264Y-68334830D01*
X143601261Y-68334835D01*
X143586680Y-68389251D01*
X143572100Y-68443666D01*
X141048845Y-68443666D01*
X140962261Y-68358301D01*
X140949645Y-68335580D01*
X140933771Y-68314999D01*
X140932956Y-68305526D01*
X140928342Y-68297216D01*
X140930011Y-68271283D01*
X140927785Y-68245386D01*
X140932221Y-68236976D01*
X140932832Y-68227491D01*
X140948259Y-68206575D01*
X140960386Y-68183588D01*
X140973766Y-68171993D01*
X140974306Y-68171262D01*
X140974849Y-68171054D01*
X140976442Y-68169675D01*
X140977183Y-68169136D01*
X141144133Y-68002186D01*
X141282914Y-67811171D01*
X141390102Y-67600802D01*
X141463065Y-67376247D01*
X141491983Y-67193666D01*
X143572100Y-67193666D01*
X143572100Y-67306334D01*
X143585588Y-67356671D01*
X143601261Y-67415164D01*
X143601264Y-67415169D01*
X143657590Y-67512730D01*
X143657594Y-67512735D01*
X143657595Y-67512737D01*
X143737263Y-67592405D01*
X143737265Y-67592406D01*
X143737269Y-67592409D01*
X143834830Y-67648735D01*
X143834837Y-67648739D01*
X143943666Y-67677900D01*
X143943669Y-67677900D01*
X144056331Y-67677900D01*
X144056334Y-67677900D01*
X144165163Y-67648739D01*
X144262737Y-67592405D01*
X144342405Y-67512737D01*
X144398739Y-67415163D01*
X144427900Y-67306334D01*
X144427900Y-67193666D01*
X146572100Y-67193666D01*
X146572100Y-67306334D01*
X146585588Y-67356671D01*
X146601261Y-67415164D01*
X146601264Y-67415169D01*
X146657590Y-67512730D01*
X146657594Y-67512735D01*
X146657595Y-67512737D01*
X146737263Y-67592405D01*
X146737265Y-67592406D01*
X146737269Y-67592409D01*
X146834830Y-67648735D01*
X146834837Y-67648739D01*
X146943666Y-67677900D01*
X146943669Y-67677900D01*
X147056331Y-67677900D01*
X147056334Y-67677900D01*
X147165163Y-67648739D01*
X147262737Y-67592405D01*
X147342405Y-67512737D01*
X147398739Y-67415163D01*
X147427900Y-67306334D01*
X147427900Y-67193666D01*
X147398739Y-67084837D01*
X147398735Y-67084830D01*
X147342409Y-66987269D01*
X147342403Y-66987261D01*
X147262738Y-66907596D01*
X147262730Y-66907590D01*
X147165169Y-66851264D01*
X147165164Y-66851261D01*
X147137955Y-66843970D01*
X147056334Y-66822100D01*
X146943666Y-66822100D01*
X146878368Y-66839596D01*
X146834835Y-66851261D01*
X146834830Y-66851264D01*
X146737269Y-66907590D01*
X146737261Y-66907596D01*
X146657596Y-66987261D01*
X146657590Y-66987269D01*
X146601264Y-67084830D01*
X146601261Y-67084835D01*
X146601021Y-67085731D01*
X146572100Y-67193666D01*
X144427900Y-67193666D01*
X144398739Y-67084837D01*
X144398735Y-67084830D01*
X144342409Y-66987269D01*
X144342403Y-66987261D01*
X144262738Y-66907596D01*
X144262730Y-66907590D01*
X144165169Y-66851264D01*
X144165164Y-66851261D01*
X144137955Y-66843970D01*
X144056334Y-66822100D01*
X143943666Y-66822100D01*
X143878368Y-66839596D01*
X143834835Y-66851261D01*
X143834830Y-66851264D01*
X143737269Y-66907590D01*
X143737261Y-66907596D01*
X143657596Y-66987261D01*
X143657590Y-66987269D01*
X143601264Y-67084830D01*
X143601261Y-67084835D01*
X143601021Y-67085731D01*
X143572100Y-67193666D01*
X141491983Y-67193666D01*
X141496343Y-67166141D01*
X141500000Y-67143051D01*
X141500000Y-66906947D01*
X141463065Y-66673752D01*
X141390102Y-66449197D01*
X141282914Y-66238828D01*
X141144133Y-66047813D01*
X141039986Y-65943666D01*
X143572100Y-65943666D01*
X143572100Y-66056334D01*
X143593788Y-66137275D01*
X143601261Y-66165164D01*
X143601264Y-66165169D01*
X143657590Y-66262730D01*
X143657594Y-66262735D01*
X143657595Y-66262737D01*
X143737263Y-66342405D01*
X143737265Y-66342406D01*
X143737269Y-66342409D01*
X143797667Y-66377279D01*
X143834837Y-66398739D01*
X143943666Y-66427900D01*
X143943669Y-66427900D01*
X144056331Y-66427900D01*
X144056334Y-66427900D01*
X144165163Y-66398739D01*
X144262737Y-66342405D01*
X144342405Y-66262737D01*
X144398739Y-66165163D01*
X144427900Y-66056334D01*
X144427900Y-65943666D01*
X146572100Y-65943666D01*
X146572100Y-66056334D01*
X146593788Y-66137275D01*
X146601261Y-66165164D01*
X146601264Y-66165169D01*
X146657590Y-66262730D01*
X146657594Y-66262735D01*
X146657595Y-66262737D01*
X146737263Y-66342405D01*
X146737265Y-66342406D01*
X146737269Y-66342409D01*
X146797667Y-66377279D01*
X146834837Y-66398739D01*
X146943666Y-66427900D01*
X146943669Y-66427900D01*
X147056331Y-66427900D01*
X147056334Y-66427900D01*
X147165163Y-66398739D01*
X147262737Y-66342405D01*
X147342405Y-66262737D01*
X147398739Y-66165163D01*
X147427900Y-66056334D01*
X147427900Y-65943666D01*
X147398739Y-65834837D01*
X147387317Y-65815054D01*
X147342409Y-65737269D01*
X147342403Y-65737261D01*
X147262738Y-65657596D01*
X147262730Y-65657590D01*
X147165169Y-65601264D01*
X147165164Y-65601261D01*
X147137955Y-65593970D01*
X147056334Y-65572100D01*
X146943666Y-65572100D01*
X146878368Y-65589596D01*
X146834835Y-65601261D01*
X146834830Y-65601264D01*
X146737269Y-65657590D01*
X146737261Y-65657596D01*
X146657596Y-65737261D01*
X146657590Y-65737269D01*
X146601264Y-65834830D01*
X146601261Y-65834835D01*
X146594610Y-65859658D01*
X146572100Y-65943666D01*
X144427900Y-65943666D01*
X144398739Y-65834837D01*
X144387317Y-65815054D01*
X144342409Y-65737269D01*
X144342403Y-65737261D01*
X144262738Y-65657596D01*
X144262730Y-65657590D01*
X144165169Y-65601264D01*
X144165164Y-65601261D01*
X144137955Y-65593970D01*
X144056334Y-65572100D01*
X143943666Y-65572100D01*
X143878368Y-65589596D01*
X143834835Y-65601261D01*
X143834830Y-65601264D01*
X143737269Y-65657590D01*
X143737261Y-65657596D01*
X143657596Y-65737261D01*
X143657590Y-65737269D01*
X143601264Y-65834830D01*
X143601261Y-65834835D01*
X143594610Y-65859658D01*
X143572100Y-65943666D01*
X141039986Y-65943666D01*
X140987436Y-65891116D01*
X140388043Y-66490508D01*
X140312627Y-66440116D01*
X140192515Y-66390364D01*
X140065004Y-66365000D01*
X139934996Y-66365000D01*
X139807485Y-66390364D01*
X139762412Y-66409033D01*
X140554650Y-65616796D01*
X140556328Y-65583239D01*
X140596990Y-65526421D01*
X140600527Y-65523754D01*
X140604247Y-65521050D01*
X140604251Y-65521049D01*
X140751064Y-65414383D01*
X140879383Y-65286064D01*
X140986049Y-65139251D01*
X141068434Y-64977560D01*
X141124512Y-64804971D01*
X141141786Y-64695908D01*
X141152900Y-64625740D01*
X141152900Y-64444259D01*
X141124512Y-64265032D01*
X141124512Y-64265029D01*
X141068434Y-64092440D01*
X140986049Y-63930749D01*
X140879383Y-63783936D01*
X140751064Y-63655617D01*
X140604251Y-63548951D01*
X140442560Y-63466566D01*
X140269971Y-63410488D01*
X140269969Y-63410487D01*
X140269967Y-63410487D01*
X140090740Y-63382100D01*
X140090735Y-63382100D01*
X138909265Y-63382100D01*
X138909260Y-63382100D01*
X138730032Y-63410487D01*
X138730027Y-63410488D01*
X138662317Y-63432488D01*
X138592475Y-63434483D01*
X138532643Y-63398402D01*
X138501816Y-63335700D01*
X138500000Y-63314557D01*
X138500000Y-58486509D01*
X138519685Y-58419470D01*
X138572489Y-58373715D01*
X138641647Y-58363771D01*
X138662629Y-58368680D01*
X138870523Y-58436843D01*
X138870521Y-58436843D01*
X138870526Y-58436844D01*
X138870535Y-58436847D01*
X139263836Y-58524242D01*
X139663810Y-58572666D01*
X139663816Y-58572666D01*
X139663821Y-58572667D01*
X139663817Y-58572667D01*
X139733486Y-58577649D01*
X139733489Y-58577649D01*
X139733502Y-58577650D01*
X140063005Y-58587944D01*
X140272068Y-58575802D01*
X140465210Y-58564585D01*
X140465213Y-58564584D01*
X140465221Y-58564584D01*
X140863212Y-58501912D01*
X141253143Y-58400532D01*
X141631259Y-58261420D01*
X141993920Y-58085916D01*
X142055243Y-58052431D01*
X142065640Y-58046135D01*
X142133181Y-58028252D01*
X142199670Y-58049723D01*
G37*
%TD.AperFunction*%
%TD*%
M02*
