%TF.GenerationSoftware,KiCad,Pcbnew,9.0.2*%
%TF.CreationDate,2026-03-04T08:25:36+01:00*%
%TF.ProjectId,OSLUV_OfflineConverter,4f534c55-565f-44f6-9666-6c696e65436f,01*%
%TF.SameCoordinates,Original*%
%TF.FileFunction,Legend,Top*%
%TF.FilePolarity,Positive*%
%FSLAX46Y46*%
G04 Gerber Fmt 4.6, Leading zero omitted, Abs format (unit mm)*
G04 Created by KiCad (PCBNEW 9.0.2) date 2026-03-04 08:25:36*
%MOMM*%
%LPD*%
G01*
G04 APERTURE LIST*
%ADD10C,0.150000*%
%ADD11C,0.100000*%
%ADD12C,0.200000*%
%ADD13C,0.120000*%
G04 APERTURE END LIST*
D10*
X155251064Y-61170485D02*
X155289160Y-61132390D01*
X155289160Y-61132390D02*
X155365350Y-61094295D01*
X155365350Y-61094295D02*
X155555826Y-61094295D01*
X155555826Y-61094295D02*
X155632017Y-61132390D01*
X155632017Y-61132390D02*
X155670112Y-61170485D01*
X155670112Y-61170485D02*
X155708207Y-61246676D01*
X155708207Y-61246676D02*
X155708207Y-61322866D01*
X155708207Y-61322866D02*
X155670112Y-61437152D01*
X155670112Y-61437152D02*
X155212969Y-61894295D01*
X155212969Y-61894295D02*
X155708207Y-61894295D01*
X156393922Y-61360961D02*
X156393922Y-61894295D01*
X156203446Y-61056200D02*
X156012969Y-61627628D01*
X156012969Y-61627628D02*
X156508208Y-61627628D01*
X156698684Y-61094295D02*
X156965351Y-61894295D01*
X156965351Y-61894295D02*
X157232017Y-61094295D01*
X155208207Y-75382390D02*
X155132017Y-75344295D01*
X155132017Y-75344295D02*
X155017731Y-75344295D01*
X155017731Y-75344295D02*
X154903445Y-75382390D01*
X154903445Y-75382390D02*
X154827255Y-75458580D01*
X154827255Y-75458580D02*
X154789160Y-75534771D01*
X154789160Y-75534771D02*
X154751064Y-75687152D01*
X154751064Y-75687152D02*
X154751064Y-75801438D01*
X154751064Y-75801438D02*
X154789160Y-75953819D01*
X154789160Y-75953819D02*
X154827255Y-76030009D01*
X154827255Y-76030009D02*
X154903445Y-76106200D01*
X154903445Y-76106200D02*
X155017731Y-76144295D01*
X155017731Y-76144295D02*
X155093922Y-76144295D01*
X155093922Y-76144295D02*
X155208207Y-76106200D01*
X155208207Y-76106200D02*
X155246303Y-76068104D01*
X155246303Y-76068104D02*
X155246303Y-75801438D01*
X155246303Y-75801438D02*
X155093922Y-75801438D01*
X155589160Y-76144295D02*
X155589160Y-75344295D01*
X155589160Y-75344295D02*
X156046303Y-76144295D01*
X156046303Y-76144295D02*
X156046303Y-75344295D01*
X156427255Y-76144295D02*
X156427255Y-75344295D01*
X156427255Y-75344295D02*
X156617731Y-75344295D01*
X156617731Y-75344295D02*
X156732017Y-75382390D01*
X156732017Y-75382390D02*
X156808207Y-75458580D01*
X156808207Y-75458580D02*
X156846302Y-75534771D01*
X156846302Y-75534771D02*
X156884398Y-75687152D01*
X156884398Y-75687152D02*
X156884398Y-75801438D01*
X156884398Y-75801438D02*
X156846302Y-75953819D01*
X156846302Y-75953819D02*
X156808207Y-76030009D01*
X156808207Y-76030009D02*
X156732017Y-76106200D01*
X156732017Y-76106200D02*
X156617731Y-76144295D01*
X156617731Y-76144295D02*
X156427255Y-76144295D01*
D11*
X150250000Y-54000000D02*
X151750000Y-54000000D01*
X151000000Y-53000000D02*
X151000000Y-54000000D01*
X150750000Y-54500000D02*
X151250000Y-54500000D01*
X150500000Y-54250000D02*
X151500000Y-54250000D01*
X58750000Y-54500000D02*
X59750000Y-54500000D01*
X59250000Y-53250000D02*
X59250000Y-54250000D01*
X59000000Y-54750000D02*
X59500000Y-54750000D01*
X58500000Y-54250000D02*
X60000000Y-54250000D01*
D12*
X144939850Y-53492724D02*
X144749374Y-53492724D01*
X144749374Y-53492724D02*
X144654136Y-53445105D01*
X144654136Y-53445105D02*
X144558898Y-53349867D01*
X144558898Y-53349867D02*
X144511279Y-53159391D01*
X144511279Y-53159391D02*
X144511279Y-52826058D01*
X144511279Y-52826058D02*
X144558898Y-52635582D01*
X144558898Y-52635582D02*
X144654136Y-52540344D01*
X144654136Y-52540344D02*
X144749374Y-52492724D01*
X144749374Y-52492724D02*
X144939850Y-52492724D01*
X144939850Y-52492724D02*
X145035088Y-52540344D01*
X145035088Y-52540344D02*
X145130326Y-52635582D01*
X145130326Y-52635582D02*
X145177945Y-52826058D01*
X145177945Y-52826058D02*
X145177945Y-53159391D01*
X145177945Y-53159391D02*
X145130326Y-53349867D01*
X145130326Y-53349867D02*
X145035088Y-53445105D01*
X145035088Y-53445105D02*
X144939850Y-53492724D01*
X144130326Y-52540344D02*
X143987469Y-52492724D01*
X143987469Y-52492724D02*
X143749374Y-52492724D01*
X143749374Y-52492724D02*
X143654136Y-52540344D01*
X143654136Y-52540344D02*
X143606517Y-52587963D01*
X143606517Y-52587963D02*
X143558898Y-52683201D01*
X143558898Y-52683201D02*
X143558898Y-52778439D01*
X143558898Y-52778439D02*
X143606517Y-52873677D01*
X143606517Y-52873677D02*
X143654136Y-52921296D01*
X143654136Y-52921296D02*
X143749374Y-52968915D01*
X143749374Y-52968915D02*
X143939850Y-53016534D01*
X143939850Y-53016534D02*
X144035088Y-53064153D01*
X144035088Y-53064153D02*
X144082707Y-53111772D01*
X144082707Y-53111772D02*
X144130326Y-53207010D01*
X144130326Y-53207010D02*
X144130326Y-53302248D01*
X144130326Y-53302248D02*
X144082707Y-53397486D01*
X144082707Y-53397486D02*
X144035088Y-53445105D01*
X144035088Y-53445105D02*
X143939850Y-53492724D01*
X143939850Y-53492724D02*
X143701755Y-53492724D01*
X143701755Y-53492724D02*
X143558898Y-53445105D01*
X142654136Y-52492724D02*
X143130326Y-52492724D01*
X143130326Y-52492724D02*
X143130326Y-53492724D01*
X142320802Y-53492724D02*
X142320802Y-52683201D01*
X142320802Y-52683201D02*
X142273183Y-52587963D01*
X142273183Y-52587963D02*
X142225564Y-52540344D01*
X142225564Y-52540344D02*
X142130326Y-52492724D01*
X142130326Y-52492724D02*
X141939850Y-52492724D01*
X141939850Y-52492724D02*
X141844612Y-52540344D01*
X141844612Y-52540344D02*
X141796993Y-52587963D01*
X141796993Y-52587963D02*
X141749374Y-52683201D01*
X141749374Y-52683201D02*
X141749374Y-53492724D01*
X141416040Y-53492724D02*
X141082707Y-52492724D01*
X141082707Y-52492724D02*
X140749374Y-53492724D01*
X139463659Y-53492724D02*
X139273183Y-53492724D01*
X139273183Y-53492724D02*
X139177945Y-53445105D01*
X139177945Y-53445105D02*
X139082707Y-53349867D01*
X139082707Y-53349867D02*
X139035088Y-53159391D01*
X139035088Y-53159391D02*
X139035088Y-52826058D01*
X139035088Y-52826058D02*
X139082707Y-52635582D01*
X139082707Y-52635582D02*
X139177945Y-52540344D01*
X139177945Y-52540344D02*
X139273183Y-52492724D01*
X139273183Y-52492724D02*
X139463659Y-52492724D01*
X139463659Y-52492724D02*
X139558897Y-52540344D01*
X139558897Y-52540344D02*
X139654135Y-52635582D01*
X139654135Y-52635582D02*
X139701754Y-52826058D01*
X139701754Y-52826058D02*
X139701754Y-53159391D01*
X139701754Y-53159391D02*
X139654135Y-53349867D01*
X139654135Y-53349867D02*
X139558897Y-53445105D01*
X139558897Y-53445105D02*
X139463659Y-53492724D01*
X138749373Y-53159391D02*
X138368421Y-53159391D01*
X138606516Y-52492724D02*
X138606516Y-53349867D01*
X138606516Y-53349867D02*
X138558897Y-53445105D01*
X138558897Y-53445105D02*
X138463659Y-53492724D01*
X138463659Y-53492724D02*
X138368421Y-53492724D01*
X138177944Y-53159391D02*
X137796992Y-53159391D01*
X138035087Y-52492724D02*
X138035087Y-53349867D01*
X138035087Y-53349867D02*
X137987468Y-53445105D01*
X137987468Y-53445105D02*
X137892230Y-53492724D01*
X137892230Y-53492724D02*
X137796992Y-53492724D01*
X137320801Y-52492724D02*
X137416039Y-52540344D01*
X137416039Y-52540344D02*
X137463658Y-52635582D01*
X137463658Y-52635582D02*
X137463658Y-53492724D01*
X136939848Y-52492724D02*
X136939848Y-53159391D01*
X136939848Y-53492724D02*
X136987467Y-53445105D01*
X136987467Y-53445105D02*
X136939848Y-53397486D01*
X136939848Y-53397486D02*
X136892229Y-53445105D01*
X136892229Y-53445105D02*
X136939848Y-53492724D01*
X136939848Y-53492724D02*
X136939848Y-53397486D01*
X136463658Y-53159391D02*
X136463658Y-52492724D01*
X136463658Y-53064153D02*
X136416039Y-53111772D01*
X136416039Y-53111772D02*
X136320801Y-53159391D01*
X136320801Y-53159391D02*
X136177944Y-53159391D01*
X136177944Y-53159391D02*
X136082706Y-53111772D01*
X136082706Y-53111772D02*
X136035087Y-53016534D01*
X136035087Y-53016534D02*
X136035087Y-52492724D01*
X135177944Y-52540344D02*
X135273182Y-52492724D01*
X135273182Y-52492724D02*
X135463658Y-52492724D01*
X135463658Y-52492724D02*
X135558896Y-52540344D01*
X135558896Y-52540344D02*
X135606515Y-52635582D01*
X135606515Y-52635582D02*
X135606515Y-53016534D01*
X135606515Y-53016534D02*
X135558896Y-53111772D01*
X135558896Y-53111772D02*
X135463658Y-53159391D01*
X135463658Y-53159391D02*
X135273182Y-53159391D01*
X135273182Y-53159391D02*
X135177944Y-53111772D01*
X135177944Y-53111772D02*
X135130325Y-53016534D01*
X135130325Y-53016534D02*
X135130325Y-52921296D01*
X135130325Y-52921296D02*
X135606515Y-52826058D01*
X133368420Y-52587963D02*
X133416039Y-52540344D01*
X133416039Y-52540344D02*
X133558896Y-52492724D01*
X133558896Y-52492724D02*
X133654134Y-52492724D01*
X133654134Y-52492724D02*
X133796991Y-52540344D01*
X133796991Y-52540344D02*
X133892229Y-52635582D01*
X133892229Y-52635582D02*
X133939848Y-52730820D01*
X133939848Y-52730820D02*
X133987467Y-52921296D01*
X133987467Y-52921296D02*
X133987467Y-53064153D01*
X133987467Y-53064153D02*
X133939848Y-53254629D01*
X133939848Y-53254629D02*
X133892229Y-53349867D01*
X133892229Y-53349867D02*
X133796991Y-53445105D01*
X133796991Y-53445105D02*
X133654134Y-53492724D01*
X133654134Y-53492724D02*
X133558896Y-53492724D01*
X133558896Y-53492724D02*
X133416039Y-53445105D01*
X133416039Y-53445105D02*
X133368420Y-53397486D01*
X132796991Y-52492724D02*
X132892229Y-52540344D01*
X132892229Y-52540344D02*
X132939848Y-52587963D01*
X132939848Y-52587963D02*
X132987467Y-52683201D01*
X132987467Y-52683201D02*
X132987467Y-52968915D01*
X132987467Y-52968915D02*
X132939848Y-53064153D01*
X132939848Y-53064153D02*
X132892229Y-53111772D01*
X132892229Y-53111772D02*
X132796991Y-53159391D01*
X132796991Y-53159391D02*
X132654134Y-53159391D01*
X132654134Y-53159391D02*
X132558896Y-53111772D01*
X132558896Y-53111772D02*
X132511277Y-53064153D01*
X132511277Y-53064153D02*
X132463658Y-52968915D01*
X132463658Y-52968915D02*
X132463658Y-52683201D01*
X132463658Y-52683201D02*
X132511277Y-52587963D01*
X132511277Y-52587963D02*
X132558896Y-52540344D01*
X132558896Y-52540344D02*
X132654134Y-52492724D01*
X132654134Y-52492724D02*
X132796991Y-52492724D01*
X132035086Y-53159391D02*
X132035086Y-52492724D01*
X132035086Y-53064153D02*
X131987467Y-53111772D01*
X131987467Y-53111772D02*
X131892229Y-53159391D01*
X131892229Y-53159391D02*
X131749372Y-53159391D01*
X131749372Y-53159391D02*
X131654134Y-53111772D01*
X131654134Y-53111772D02*
X131606515Y-53016534D01*
X131606515Y-53016534D02*
X131606515Y-52492724D01*
X131225562Y-53159391D02*
X130987467Y-52492724D01*
X130987467Y-52492724D02*
X130749372Y-53159391D01*
X129987467Y-52540344D02*
X130082705Y-52492724D01*
X130082705Y-52492724D02*
X130273181Y-52492724D01*
X130273181Y-52492724D02*
X130368419Y-52540344D01*
X130368419Y-52540344D02*
X130416038Y-52635582D01*
X130416038Y-52635582D02*
X130416038Y-53016534D01*
X130416038Y-53016534D02*
X130368419Y-53111772D01*
X130368419Y-53111772D02*
X130273181Y-53159391D01*
X130273181Y-53159391D02*
X130082705Y-53159391D01*
X130082705Y-53159391D02*
X129987467Y-53111772D01*
X129987467Y-53111772D02*
X129939848Y-53016534D01*
X129939848Y-53016534D02*
X129939848Y-52921296D01*
X129939848Y-52921296D02*
X130416038Y-52826058D01*
X129511276Y-52492724D02*
X129511276Y-53159391D01*
X129511276Y-52968915D02*
X129463657Y-53064153D01*
X129463657Y-53064153D02*
X129416038Y-53111772D01*
X129416038Y-53111772D02*
X129320800Y-53159391D01*
X129320800Y-53159391D02*
X129225562Y-53159391D01*
X129035085Y-53159391D02*
X128654133Y-53159391D01*
X128892228Y-53492724D02*
X128892228Y-52635582D01*
X128892228Y-52635582D02*
X128844609Y-52540344D01*
X128844609Y-52540344D02*
X128749371Y-52492724D01*
X128749371Y-52492724D02*
X128654133Y-52492724D01*
X127939847Y-52540344D02*
X128035085Y-52492724D01*
X128035085Y-52492724D02*
X128225561Y-52492724D01*
X128225561Y-52492724D02*
X128320799Y-52540344D01*
X128320799Y-52540344D02*
X128368418Y-52635582D01*
X128368418Y-52635582D02*
X128368418Y-53016534D01*
X128368418Y-53016534D02*
X128320799Y-53111772D01*
X128320799Y-53111772D02*
X128225561Y-53159391D01*
X128225561Y-53159391D02*
X128035085Y-53159391D01*
X128035085Y-53159391D02*
X127939847Y-53111772D01*
X127939847Y-53111772D02*
X127892228Y-53016534D01*
X127892228Y-53016534D02*
X127892228Y-52921296D01*
X127892228Y-52921296D02*
X128368418Y-52826058D01*
X127463656Y-52492724D02*
X127463656Y-53159391D01*
X127463656Y-52968915D02*
X127416037Y-53064153D01*
X127416037Y-53064153D02*
X127368418Y-53111772D01*
X127368418Y-53111772D02*
X127273180Y-53159391D01*
X127273180Y-53159391D02*
X127177942Y-53159391D01*
X144558898Y-50882780D02*
X144892231Y-51358971D01*
X145130326Y-50882780D02*
X145130326Y-51882780D01*
X145130326Y-51882780D02*
X144749374Y-51882780D01*
X144749374Y-51882780D02*
X144654136Y-51835161D01*
X144654136Y-51835161D02*
X144606517Y-51787542D01*
X144606517Y-51787542D02*
X144558898Y-51692304D01*
X144558898Y-51692304D02*
X144558898Y-51549447D01*
X144558898Y-51549447D02*
X144606517Y-51454209D01*
X144606517Y-51454209D02*
X144654136Y-51406590D01*
X144654136Y-51406590D02*
X144749374Y-51358971D01*
X144749374Y-51358971D02*
X145130326Y-51358971D01*
X143749374Y-50930400D02*
X143844612Y-50882780D01*
X143844612Y-50882780D02*
X144035088Y-50882780D01*
X144035088Y-50882780D02*
X144130326Y-50930400D01*
X144130326Y-50930400D02*
X144177945Y-51025638D01*
X144177945Y-51025638D02*
X144177945Y-51406590D01*
X144177945Y-51406590D02*
X144130326Y-51501828D01*
X144130326Y-51501828D02*
X144035088Y-51549447D01*
X144035088Y-51549447D02*
X143844612Y-51549447D01*
X143844612Y-51549447D02*
X143749374Y-51501828D01*
X143749374Y-51501828D02*
X143701755Y-51406590D01*
X143701755Y-51406590D02*
X143701755Y-51311352D01*
X143701755Y-51311352D02*
X144177945Y-51216114D01*
X143368421Y-51549447D02*
X143130326Y-50882780D01*
X143130326Y-50882780D02*
X142892231Y-51549447D01*
X141796992Y-51787542D02*
X141749373Y-51835161D01*
X141749373Y-51835161D02*
X141654135Y-51882780D01*
X141654135Y-51882780D02*
X141416040Y-51882780D01*
X141416040Y-51882780D02*
X141320802Y-51835161D01*
X141320802Y-51835161D02*
X141273183Y-51787542D01*
X141273183Y-51787542D02*
X141225564Y-51692304D01*
X141225564Y-51692304D02*
X141225564Y-51597066D01*
X141225564Y-51597066D02*
X141273183Y-51454209D01*
X141273183Y-51454209D02*
X141844611Y-50882780D01*
X141844611Y-50882780D02*
X141225564Y-50882780D01*
X140796992Y-50978019D02*
X140749373Y-50930400D01*
X140749373Y-50930400D02*
X140796992Y-50882780D01*
X140796992Y-50882780D02*
X140844611Y-50930400D01*
X140844611Y-50930400D02*
X140796992Y-50978019D01*
X140796992Y-50978019D02*
X140796992Y-50882780D01*
X140130326Y-51882780D02*
X140035088Y-51882780D01*
X140035088Y-51882780D02*
X139939850Y-51835161D01*
X139939850Y-51835161D02*
X139892231Y-51787542D01*
X139892231Y-51787542D02*
X139844612Y-51692304D01*
X139844612Y-51692304D02*
X139796993Y-51501828D01*
X139796993Y-51501828D02*
X139796993Y-51263733D01*
X139796993Y-51263733D02*
X139844612Y-51073257D01*
X139844612Y-51073257D02*
X139892231Y-50978019D01*
X139892231Y-50978019D02*
X139939850Y-50930400D01*
X139939850Y-50930400D02*
X140035088Y-50882780D01*
X140035088Y-50882780D02*
X140130326Y-50882780D01*
X140130326Y-50882780D02*
X140225564Y-50930400D01*
X140225564Y-50930400D02*
X140273183Y-50978019D01*
X140273183Y-50978019D02*
X140320802Y-51073257D01*
X140320802Y-51073257D02*
X140368421Y-51263733D01*
X140368421Y-51263733D02*
X140368421Y-51501828D01*
X140368421Y-51501828D02*
X140320802Y-51692304D01*
X140320802Y-51692304D02*
X140273183Y-51787542D01*
X140273183Y-51787542D02*
X140225564Y-51835161D01*
X140225564Y-51835161D02*
X140130326Y-51882780D01*
X139368421Y-50978019D02*
X139320802Y-50930400D01*
X139320802Y-50930400D02*
X139368421Y-50882780D01*
X139368421Y-50882780D02*
X139416040Y-50930400D01*
X139416040Y-50930400D02*
X139368421Y-50978019D01*
X139368421Y-50978019D02*
X139368421Y-50882780D01*
X138701755Y-51882780D02*
X138606517Y-51882780D01*
X138606517Y-51882780D02*
X138511279Y-51835161D01*
X138511279Y-51835161D02*
X138463660Y-51787542D01*
X138463660Y-51787542D02*
X138416041Y-51692304D01*
X138416041Y-51692304D02*
X138368422Y-51501828D01*
X138368422Y-51501828D02*
X138368422Y-51263733D01*
X138368422Y-51263733D02*
X138416041Y-51073257D01*
X138416041Y-51073257D02*
X138463660Y-50978019D01*
X138463660Y-50978019D02*
X138511279Y-50930400D01*
X138511279Y-50930400D02*
X138606517Y-50882780D01*
X138606517Y-50882780D02*
X138701755Y-50882780D01*
X138701755Y-50882780D02*
X138796993Y-50930400D01*
X138796993Y-50930400D02*
X138844612Y-50978019D01*
X138844612Y-50978019D02*
X138892231Y-51073257D01*
X138892231Y-51073257D02*
X138939850Y-51263733D01*
X138939850Y-51263733D02*
X138939850Y-51501828D01*
X138939850Y-51501828D02*
X138892231Y-51692304D01*
X138892231Y-51692304D02*
X138844612Y-51787542D01*
X138844612Y-51787542D02*
X138796993Y-51835161D01*
X138796993Y-51835161D02*
X138701755Y-51882780D01*
X134939849Y-51787542D02*
X134892230Y-51835161D01*
X134892230Y-51835161D02*
X134796992Y-51882780D01*
X134796992Y-51882780D02*
X134558897Y-51882780D01*
X134558897Y-51882780D02*
X134463659Y-51835161D01*
X134463659Y-51835161D02*
X134416040Y-51787542D01*
X134416040Y-51787542D02*
X134368421Y-51692304D01*
X134368421Y-51692304D02*
X134368421Y-51597066D01*
X134368421Y-51597066D02*
X134416040Y-51454209D01*
X134416040Y-51454209D02*
X134987468Y-50882780D01*
X134987468Y-50882780D02*
X134368421Y-50882780D01*
X133511278Y-51882780D02*
X133701754Y-51882780D01*
X133701754Y-51882780D02*
X133796992Y-51835161D01*
X133796992Y-51835161D02*
X133844611Y-51787542D01*
X133844611Y-51787542D02*
X133939849Y-51644685D01*
X133939849Y-51644685D02*
X133987468Y-51454209D01*
X133987468Y-51454209D02*
X133987468Y-51073257D01*
X133987468Y-51073257D02*
X133939849Y-50978019D01*
X133939849Y-50978019D02*
X133892230Y-50930400D01*
X133892230Y-50930400D02*
X133796992Y-50882780D01*
X133796992Y-50882780D02*
X133606516Y-50882780D01*
X133606516Y-50882780D02*
X133511278Y-50930400D01*
X133511278Y-50930400D02*
X133463659Y-50978019D01*
X133463659Y-50978019D02*
X133416040Y-51073257D01*
X133416040Y-51073257D02*
X133416040Y-51311352D01*
X133416040Y-51311352D02*
X133463659Y-51406590D01*
X133463659Y-51406590D02*
X133511278Y-51454209D01*
X133511278Y-51454209D02*
X133606516Y-51501828D01*
X133606516Y-51501828D02*
X133796992Y-51501828D01*
X133796992Y-51501828D02*
X133892230Y-51454209D01*
X133892230Y-51454209D02*
X133939849Y-51406590D01*
X133939849Y-51406590D02*
X133987468Y-51311352D01*
X132273183Y-51930400D02*
X133130325Y-50644685D01*
X131749373Y-51882780D02*
X131654135Y-51882780D01*
X131654135Y-51882780D02*
X131558897Y-51835161D01*
X131558897Y-51835161D02*
X131511278Y-51787542D01*
X131511278Y-51787542D02*
X131463659Y-51692304D01*
X131463659Y-51692304D02*
X131416040Y-51501828D01*
X131416040Y-51501828D02*
X131416040Y-51263733D01*
X131416040Y-51263733D02*
X131463659Y-51073257D01*
X131463659Y-51073257D02*
X131511278Y-50978019D01*
X131511278Y-50978019D02*
X131558897Y-50930400D01*
X131558897Y-50930400D02*
X131654135Y-50882780D01*
X131654135Y-50882780D02*
X131749373Y-50882780D01*
X131749373Y-50882780D02*
X131844611Y-50930400D01*
X131844611Y-50930400D02*
X131892230Y-50978019D01*
X131892230Y-50978019D02*
X131939849Y-51073257D01*
X131939849Y-51073257D02*
X131987468Y-51263733D01*
X131987468Y-51263733D02*
X131987468Y-51501828D01*
X131987468Y-51501828D02*
X131939849Y-51692304D01*
X131939849Y-51692304D02*
X131892230Y-51787542D01*
X131892230Y-51787542D02*
X131844611Y-51835161D01*
X131844611Y-51835161D02*
X131749373Y-51882780D01*
X131082706Y-51882780D02*
X130463659Y-51882780D01*
X130463659Y-51882780D02*
X130796992Y-51501828D01*
X130796992Y-51501828D02*
X130654135Y-51501828D01*
X130654135Y-51501828D02*
X130558897Y-51454209D01*
X130558897Y-51454209D02*
X130511278Y-51406590D01*
X130511278Y-51406590D02*
X130463659Y-51311352D01*
X130463659Y-51311352D02*
X130463659Y-51073257D01*
X130463659Y-51073257D02*
X130511278Y-50978019D01*
X130511278Y-50978019D02*
X130558897Y-50930400D01*
X130558897Y-50930400D02*
X130654135Y-50882780D01*
X130654135Y-50882780D02*
X130939849Y-50882780D01*
X130939849Y-50882780D02*
X131035087Y-50930400D01*
X131035087Y-50930400D02*
X131082706Y-50978019D01*
X129320802Y-51930400D02*
X130177944Y-50644685D01*
X128796992Y-51882780D02*
X128701754Y-51882780D01*
X128701754Y-51882780D02*
X128606516Y-51835161D01*
X128606516Y-51835161D02*
X128558897Y-51787542D01*
X128558897Y-51787542D02*
X128511278Y-51692304D01*
X128511278Y-51692304D02*
X128463659Y-51501828D01*
X128463659Y-51501828D02*
X128463659Y-51263733D01*
X128463659Y-51263733D02*
X128511278Y-51073257D01*
X128511278Y-51073257D02*
X128558897Y-50978019D01*
X128558897Y-50978019D02*
X128606516Y-50930400D01*
X128606516Y-50930400D02*
X128701754Y-50882780D01*
X128701754Y-50882780D02*
X128796992Y-50882780D01*
X128796992Y-50882780D02*
X128892230Y-50930400D01*
X128892230Y-50930400D02*
X128939849Y-50978019D01*
X128939849Y-50978019D02*
X128987468Y-51073257D01*
X128987468Y-51073257D02*
X129035087Y-51263733D01*
X129035087Y-51263733D02*
X129035087Y-51501828D01*
X129035087Y-51501828D02*
X128987468Y-51692304D01*
X128987468Y-51692304D02*
X128939849Y-51787542D01*
X128939849Y-51787542D02*
X128892230Y-51835161D01*
X128892230Y-51835161D02*
X128796992Y-51882780D01*
X128130325Y-51882780D02*
X127511278Y-51882780D01*
X127511278Y-51882780D02*
X127844611Y-51501828D01*
X127844611Y-51501828D02*
X127701754Y-51501828D01*
X127701754Y-51501828D02*
X127606516Y-51454209D01*
X127606516Y-51454209D02*
X127558897Y-51406590D01*
X127558897Y-51406590D02*
X127511278Y-51311352D01*
X127511278Y-51311352D02*
X127511278Y-51073257D01*
X127511278Y-51073257D02*
X127558897Y-50978019D01*
X127558897Y-50978019D02*
X127606516Y-50930400D01*
X127606516Y-50930400D02*
X127701754Y-50882780D01*
X127701754Y-50882780D02*
X127987468Y-50882780D01*
X127987468Y-50882780D02*
X128082706Y-50930400D01*
X128082706Y-50930400D02*
X128130325Y-50978019D01*
D10*
X54233333Y-81562295D02*
X54233333Y-82133723D01*
X54233333Y-82133723D02*
X54195238Y-82248009D01*
X54195238Y-82248009D02*
X54119047Y-82324200D01*
X54119047Y-82324200D02*
X54004762Y-82362295D01*
X54004762Y-82362295D02*
X53928571Y-82362295D01*
X55033333Y-82362295D02*
X54576190Y-82362295D01*
X54804762Y-82362295D02*
X54804762Y-81562295D01*
X54804762Y-81562295D02*
X54728571Y-81676580D01*
X54728571Y-81676580D02*
X54652381Y-81752771D01*
X54652381Y-81752771D02*
X54576190Y-81790866D01*
X118604761Y-83862295D02*
X118223809Y-83862295D01*
X118223809Y-83862295D02*
X118223809Y-83062295D01*
X119290475Y-83862295D02*
X118833332Y-83862295D01*
X119061904Y-83862295D02*
X119061904Y-83062295D01*
X119061904Y-83062295D02*
X118985713Y-83176580D01*
X118985713Y-83176580D02*
X118909523Y-83252771D01*
X118909523Y-83252771D02*
X118833332Y-83290866D01*
X119785714Y-83062295D02*
X119861904Y-83062295D01*
X119861904Y-83062295D02*
X119938095Y-83100390D01*
X119938095Y-83100390D02*
X119976190Y-83138485D01*
X119976190Y-83138485D02*
X120014285Y-83214676D01*
X120014285Y-83214676D02*
X120052380Y-83367057D01*
X120052380Y-83367057D02*
X120052380Y-83557533D01*
X120052380Y-83557533D02*
X120014285Y-83709914D01*
X120014285Y-83709914D02*
X119976190Y-83786104D01*
X119976190Y-83786104D02*
X119938095Y-83824200D01*
X119938095Y-83824200D02*
X119861904Y-83862295D01*
X119861904Y-83862295D02*
X119785714Y-83862295D01*
X119785714Y-83862295D02*
X119709523Y-83824200D01*
X119709523Y-83824200D02*
X119671428Y-83786104D01*
X119671428Y-83786104D02*
X119633333Y-83709914D01*
X119633333Y-83709914D02*
X119595237Y-83557533D01*
X119595237Y-83557533D02*
X119595237Y-83367057D01*
X119595237Y-83367057D02*
X119633333Y-83214676D01*
X119633333Y-83214676D02*
X119671428Y-83138485D01*
X119671428Y-83138485D02*
X119709523Y-83100390D01*
X119709523Y-83100390D02*
X119785714Y-83062295D01*
X120738095Y-83328961D02*
X120738095Y-83862295D01*
X120547619Y-83024200D02*
X120357142Y-83595628D01*
X120357142Y-83595628D02*
X120852381Y-83595628D01*
X158812295Y-68266666D02*
X159383723Y-68266666D01*
X159383723Y-68266666D02*
X159498009Y-68304761D01*
X159498009Y-68304761D02*
X159574200Y-68380952D01*
X159574200Y-68380952D02*
X159612295Y-68495237D01*
X159612295Y-68495237D02*
X159612295Y-68571428D01*
X158888485Y-67923809D02*
X158850390Y-67885713D01*
X158850390Y-67885713D02*
X158812295Y-67809523D01*
X158812295Y-67809523D02*
X158812295Y-67619047D01*
X158812295Y-67619047D02*
X158850390Y-67542856D01*
X158850390Y-67542856D02*
X158888485Y-67504761D01*
X158888485Y-67504761D02*
X158964676Y-67466666D01*
X158964676Y-67466666D02*
X159040866Y-67466666D01*
X159040866Y-67466666D02*
X159155152Y-67504761D01*
X159155152Y-67504761D02*
X159612295Y-67961904D01*
X159612295Y-67961904D02*
X159612295Y-67466666D01*
X89862295Y-70645238D02*
X89862295Y-71026190D01*
X89862295Y-71026190D02*
X89062295Y-71026190D01*
X89862295Y-69959524D02*
X89862295Y-70416667D01*
X89862295Y-70188095D02*
X89062295Y-70188095D01*
X89062295Y-70188095D02*
X89176580Y-70264286D01*
X89176580Y-70264286D02*
X89252771Y-70340476D01*
X89252771Y-70340476D02*
X89290866Y-70416667D01*
X89062295Y-69464285D02*
X89062295Y-69388095D01*
X89062295Y-69388095D02*
X89100390Y-69311904D01*
X89100390Y-69311904D02*
X89138485Y-69273809D01*
X89138485Y-69273809D02*
X89214676Y-69235714D01*
X89214676Y-69235714D02*
X89367057Y-69197619D01*
X89367057Y-69197619D02*
X89557533Y-69197619D01*
X89557533Y-69197619D02*
X89709914Y-69235714D01*
X89709914Y-69235714D02*
X89786104Y-69273809D01*
X89786104Y-69273809D02*
X89824200Y-69311904D01*
X89824200Y-69311904D02*
X89862295Y-69388095D01*
X89862295Y-69388095D02*
X89862295Y-69464285D01*
X89862295Y-69464285D02*
X89824200Y-69540476D01*
X89824200Y-69540476D02*
X89786104Y-69578571D01*
X89786104Y-69578571D02*
X89709914Y-69616666D01*
X89709914Y-69616666D02*
X89557533Y-69654762D01*
X89557533Y-69654762D02*
X89367057Y-69654762D01*
X89367057Y-69654762D02*
X89214676Y-69616666D01*
X89214676Y-69616666D02*
X89138485Y-69578571D01*
X89138485Y-69578571D02*
X89100390Y-69540476D01*
X89100390Y-69540476D02*
X89062295Y-69464285D01*
X89138485Y-68892857D02*
X89100390Y-68854761D01*
X89100390Y-68854761D02*
X89062295Y-68778571D01*
X89062295Y-68778571D02*
X89062295Y-68588095D01*
X89062295Y-68588095D02*
X89100390Y-68511904D01*
X89100390Y-68511904D02*
X89138485Y-68473809D01*
X89138485Y-68473809D02*
X89214676Y-68435714D01*
X89214676Y-68435714D02*
X89290866Y-68435714D01*
X89290866Y-68435714D02*
X89405152Y-68473809D01*
X89405152Y-68473809D02*
X89862295Y-68930952D01*
X89862295Y-68930952D02*
X89862295Y-68435714D01*
X84604762Y-62786104D02*
X84566666Y-62824200D01*
X84566666Y-62824200D02*
X84452381Y-62862295D01*
X84452381Y-62862295D02*
X84376190Y-62862295D01*
X84376190Y-62862295D02*
X84261904Y-62824200D01*
X84261904Y-62824200D02*
X84185714Y-62748009D01*
X84185714Y-62748009D02*
X84147619Y-62671819D01*
X84147619Y-62671819D02*
X84109523Y-62519438D01*
X84109523Y-62519438D02*
X84109523Y-62405152D01*
X84109523Y-62405152D02*
X84147619Y-62252771D01*
X84147619Y-62252771D02*
X84185714Y-62176580D01*
X84185714Y-62176580D02*
X84261904Y-62100390D01*
X84261904Y-62100390D02*
X84376190Y-62062295D01*
X84376190Y-62062295D02*
X84452381Y-62062295D01*
X84452381Y-62062295D02*
X84566666Y-62100390D01*
X84566666Y-62100390D02*
X84604762Y-62138485D01*
X85366666Y-62862295D02*
X84909523Y-62862295D01*
X85138095Y-62862295D02*
X85138095Y-62062295D01*
X85138095Y-62062295D02*
X85061904Y-62176580D01*
X85061904Y-62176580D02*
X84985714Y-62252771D01*
X84985714Y-62252771D02*
X84909523Y-62290866D01*
X85861905Y-62062295D02*
X85938095Y-62062295D01*
X85938095Y-62062295D02*
X86014286Y-62100390D01*
X86014286Y-62100390D02*
X86052381Y-62138485D01*
X86052381Y-62138485D02*
X86090476Y-62214676D01*
X86090476Y-62214676D02*
X86128571Y-62367057D01*
X86128571Y-62367057D02*
X86128571Y-62557533D01*
X86128571Y-62557533D02*
X86090476Y-62709914D01*
X86090476Y-62709914D02*
X86052381Y-62786104D01*
X86052381Y-62786104D02*
X86014286Y-62824200D01*
X86014286Y-62824200D02*
X85938095Y-62862295D01*
X85938095Y-62862295D02*
X85861905Y-62862295D01*
X85861905Y-62862295D02*
X85785714Y-62824200D01*
X85785714Y-62824200D02*
X85747619Y-62786104D01*
X85747619Y-62786104D02*
X85709524Y-62709914D01*
X85709524Y-62709914D02*
X85671428Y-62557533D01*
X85671428Y-62557533D02*
X85671428Y-62367057D01*
X85671428Y-62367057D02*
X85709524Y-62214676D01*
X85709524Y-62214676D02*
X85747619Y-62138485D01*
X85747619Y-62138485D02*
X85785714Y-62100390D01*
X85785714Y-62100390D02*
X85861905Y-62062295D01*
X86852381Y-62062295D02*
X86471429Y-62062295D01*
X86471429Y-62062295D02*
X86433333Y-62443247D01*
X86433333Y-62443247D02*
X86471429Y-62405152D01*
X86471429Y-62405152D02*
X86547619Y-62367057D01*
X86547619Y-62367057D02*
X86738095Y-62367057D01*
X86738095Y-62367057D02*
X86814286Y-62405152D01*
X86814286Y-62405152D02*
X86852381Y-62443247D01*
X86852381Y-62443247D02*
X86890476Y-62519438D01*
X86890476Y-62519438D02*
X86890476Y-62709914D01*
X86890476Y-62709914D02*
X86852381Y-62786104D01*
X86852381Y-62786104D02*
X86814286Y-62824200D01*
X86814286Y-62824200D02*
X86738095Y-62862295D01*
X86738095Y-62862295D02*
X86547619Y-62862295D01*
X86547619Y-62862295D02*
X86471429Y-62824200D01*
X86471429Y-62824200D02*
X86433333Y-62786104D01*
X72862295Y-78585238D02*
X72862295Y-78966190D01*
X72862295Y-78966190D02*
X72062295Y-78966190D01*
X72862295Y-77899524D02*
X72862295Y-78356667D01*
X72862295Y-78128095D02*
X72062295Y-78128095D01*
X72062295Y-78128095D02*
X72176580Y-78204286D01*
X72176580Y-78204286D02*
X72252771Y-78280476D01*
X72252771Y-78280476D02*
X72290866Y-78356667D01*
X72062295Y-77404285D02*
X72062295Y-77328095D01*
X72062295Y-77328095D02*
X72100390Y-77251904D01*
X72100390Y-77251904D02*
X72138485Y-77213809D01*
X72138485Y-77213809D02*
X72214676Y-77175714D01*
X72214676Y-77175714D02*
X72367057Y-77137619D01*
X72367057Y-77137619D02*
X72557533Y-77137619D01*
X72557533Y-77137619D02*
X72709914Y-77175714D01*
X72709914Y-77175714D02*
X72786104Y-77213809D01*
X72786104Y-77213809D02*
X72824200Y-77251904D01*
X72824200Y-77251904D02*
X72862295Y-77328095D01*
X72862295Y-77328095D02*
X72862295Y-77404285D01*
X72862295Y-77404285D02*
X72824200Y-77480476D01*
X72824200Y-77480476D02*
X72786104Y-77518571D01*
X72786104Y-77518571D02*
X72709914Y-77556666D01*
X72709914Y-77556666D02*
X72557533Y-77594762D01*
X72557533Y-77594762D02*
X72367057Y-77594762D01*
X72367057Y-77594762D02*
X72214676Y-77556666D01*
X72214676Y-77556666D02*
X72138485Y-77518571D01*
X72138485Y-77518571D02*
X72100390Y-77480476D01*
X72100390Y-77480476D02*
X72062295Y-77404285D01*
X72862295Y-76375714D02*
X72862295Y-76832857D01*
X72862295Y-76604285D02*
X72062295Y-76604285D01*
X72062295Y-76604285D02*
X72176580Y-76680476D01*
X72176580Y-76680476D02*
X72252771Y-76756666D01*
X72252771Y-76756666D02*
X72290866Y-76832857D01*
X60523810Y-82362295D02*
X60257143Y-81981342D01*
X60066667Y-82362295D02*
X60066667Y-81562295D01*
X60066667Y-81562295D02*
X60371429Y-81562295D01*
X60371429Y-81562295D02*
X60447619Y-81600390D01*
X60447619Y-81600390D02*
X60485714Y-81638485D01*
X60485714Y-81638485D02*
X60523810Y-81714676D01*
X60523810Y-81714676D02*
X60523810Y-81828961D01*
X60523810Y-81828961D02*
X60485714Y-81905152D01*
X60485714Y-81905152D02*
X60447619Y-81943247D01*
X60447619Y-81943247D02*
X60371429Y-81981342D01*
X60371429Y-81981342D02*
X60066667Y-81981342D01*
X60752381Y-81562295D02*
X61019048Y-82362295D01*
X61019048Y-82362295D02*
X61285714Y-81562295D01*
X61971428Y-82362295D02*
X61514285Y-82362295D01*
X61742857Y-82362295D02*
X61742857Y-81562295D01*
X61742857Y-81562295D02*
X61666666Y-81676580D01*
X61666666Y-81676580D02*
X61590476Y-81752771D01*
X61590476Y-81752771D02*
X61514285Y-81790866D01*
X60983333Y-66443247D02*
X60716667Y-66443247D01*
X60716667Y-66862295D02*
X60716667Y-66062295D01*
X60716667Y-66062295D02*
X61097619Y-66062295D01*
X61821428Y-66862295D02*
X61364285Y-66862295D01*
X61592857Y-66862295D02*
X61592857Y-66062295D01*
X61592857Y-66062295D02*
X61516666Y-66176580D01*
X61516666Y-66176580D02*
X61440476Y-66252771D01*
X61440476Y-66252771D02*
X61364285Y-66290866D01*
X61061905Y-59362295D02*
X60795238Y-58981342D01*
X60604762Y-59362295D02*
X60604762Y-58562295D01*
X60604762Y-58562295D02*
X60909524Y-58562295D01*
X60909524Y-58562295D02*
X60985714Y-58600390D01*
X60985714Y-58600390D02*
X61023809Y-58638485D01*
X61023809Y-58638485D02*
X61061905Y-58714676D01*
X61061905Y-58714676D02*
X61061905Y-58828961D01*
X61061905Y-58828961D02*
X61023809Y-58905152D01*
X61023809Y-58905152D02*
X60985714Y-58943247D01*
X60985714Y-58943247D02*
X60909524Y-58981342D01*
X60909524Y-58981342D02*
X60604762Y-58981342D01*
X61290476Y-58562295D02*
X61747619Y-58562295D01*
X61519047Y-59362295D02*
X61519047Y-58562295D01*
X62433333Y-59362295D02*
X61976190Y-59362295D01*
X62204762Y-59362295D02*
X62204762Y-58562295D01*
X62204762Y-58562295D02*
X62128571Y-58676580D01*
X62128571Y-58676580D02*
X62052381Y-58752771D01*
X62052381Y-58752771D02*
X61976190Y-58790866D01*
X145235714Y-89612295D02*
X144969047Y-89231342D01*
X144778571Y-89612295D02*
X144778571Y-88812295D01*
X144778571Y-88812295D02*
X145083333Y-88812295D01*
X145083333Y-88812295D02*
X145159523Y-88850390D01*
X145159523Y-88850390D02*
X145197618Y-88888485D01*
X145197618Y-88888485D02*
X145235714Y-88964676D01*
X145235714Y-88964676D02*
X145235714Y-89078961D01*
X145235714Y-89078961D02*
X145197618Y-89155152D01*
X145197618Y-89155152D02*
X145159523Y-89193247D01*
X145159523Y-89193247D02*
X145083333Y-89231342D01*
X145083333Y-89231342D02*
X144778571Y-89231342D01*
X145692856Y-89155152D02*
X145616666Y-89117057D01*
X145616666Y-89117057D02*
X145578571Y-89078961D01*
X145578571Y-89078961D02*
X145540475Y-89002771D01*
X145540475Y-89002771D02*
X145540475Y-88964676D01*
X145540475Y-88964676D02*
X145578571Y-88888485D01*
X145578571Y-88888485D02*
X145616666Y-88850390D01*
X145616666Y-88850390D02*
X145692856Y-88812295D01*
X145692856Y-88812295D02*
X145845237Y-88812295D01*
X145845237Y-88812295D02*
X145921428Y-88850390D01*
X145921428Y-88850390D02*
X145959523Y-88888485D01*
X145959523Y-88888485D02*
X145997618Y-88964676D01*
X145997618Y-88964676D02*
X145997618Y-89002771D01*
X145997618Y-89002771D02*
X145959523Y-89078961D01*
X145959523Y-89078961D02*
X145921428Y-89117057D01*
X145921428Y-89117057D02*
X145845237Y-89155152D01*
X145845237Y-89155152D02*
X145692856Y-89155152D01*
X145692856Y-89155152D02*
X145616666Y-89193247D01*
X145616666Y-89193247D02*
X145578571Y-89231342D01*
X145578571Y-89231342D02*
X145540475Y-89307533D01*
X145540475Y-89307533D02*
X145540475Y-89459914D01*
X145540475Y-89459914D02*
X145578571Y-89536104D01*
X145578571Y-89536104D02*
X145616666Y-89574200D01*
X145616666Y-89574200D02*
X145692856Y-89612295D01*
X145692856Y-89612295D02*
X145845237Y-89612295D01*
X145845237Y-89612295D02*
X145921428Y-89574200D01*
X145921428Y-89574200D02*
X145959523Y-89536104D01*
X145959523Y-89536104D02*
X145997618Y-89459914D01*
X145997618Y-89459914D02*
X145997618Y-89307533D01*
X145997618Y-89307533D02*
X145959523Y-89231342D01*
X145959523Y-89231342D02*
X145921428Y-89193247D01*
X145921428Y-89193247D02*
X145845237Y-89155152D01*
X146264285Y-88812295D02*
X146759523Y-88812295D01*
X146759523Y-88812295D02*
X146492857Y-89117057D01*
X146492857Y-89117057D02*
X146607142Y-89117057D01*
X146607142Y-89117057D02*
X146683333Y-89155152D01*
X146683333Y-89155152D02*
X146721428Y-89193247D01*
X146721428Y-89193247D02*
X146759523Y-89269438D01*
X146759523Y-89269438D02*
X146759523Y-89459914D01*
X146759523Y-89459914D02*
X146721428Y-89536104D01*
X146721428Y-89536104D02*
X146683333Y-89574200D01*
X146683333Y-89574200D02*
X146607142Y-89612295D01*
X146607142Y-89612295D02*
X146378571Y-89612295D01*
X146378571Y-89612295D02*
X146302380Y-89574200D01*
X146302380Y-89574200D02*
X146264285Y-89536104D01*
X145235714Y-88112295D02*
X144969047Y-87731342D01*
X144778571Y-88112295D02*
X144778571Y-87312295D01*
X144778571Y-87312295D02*
X145083333Y-87312295D01*
X145083333Y-87312295D02*
X145159523Y-87350390D01*
X145159523Y-87350390D02*
X145197618Y-87388485D01*
X145197618Y-87388485D02*
X145235714Y-87464676D01*
X145235714Y-87464676D02*
X145235714Y-87578961D01*
X145235714Y-87578961D02*
X145197618Y-87655152D01*
X145197618Y-87655152D02*
X145159523Y-87693247D01*
X145159523Y-87693247D02*
X145083333Y-87731342D01*
X145083333Y-87731342D02*
X144778571Y-87731342D01*
X145540475Y-87388485D02*
X145578571Y-87350390D01*
X145578571Y-87350390D02*
X145654761Y-87312295D01*
X145654761Y-87312295D02*
X145845237Y-87312295D01*
X145845237Y-87312295D02*
X145921428Y-87350390D01*
X145921428Y-87350390D02*
X145959523Y-87388485D01*
X145959523Y-87388485D02*
X145997618Y-87464676D01*
X145997618Y-87464676D02*
X145997618Y-87540866D01*
X145997618Y-87540866D02*
X145959523Y-87655152D01*
X145959523Y-87655152D02*
X145502380Y-88112295D01*
X145502380Y-88112295D02*
X145997618Y-88112295D01*
X146683333Y-87578961D02*
X146683333Y-88112295D01*
X146492857Y-87274200D02*
X146302380Y-87845628D01*
X146302380Y-87845628D02*
X146797619Y-87845628D01*
X123969048Y-92362295D02*
X123969048Y-91562295D01*
X124807143Y-92286104D02*
X124769047Y-92324200D01*
X124769047Y-92324200D02*
X124654762Y-92362295D01*
X124654762Y-92362295D02*
X124578571Y-92362295D01*
X124578571Y-92362295D02*
X124464285Y-92324200D01*
X124464285Y-92324200D02*
X124388095Y-92248009D01*
X124388095Y-92248009D02*
X124350000Y-92171819D01*
X124350000Y-92171819D02*
X124311904Y-92019438D01*
X124311904Y-92019438D02*
X124311904Y-91905152D01*
X124311904Y-91905152D02*
X124350000Y-91752771D01*
X124350000Y-91752771D02*
X124388095Y-91676580D01*
X124388095Y-91676580D02*
X124464285Y-91600390D01*
X124464285Y-91600390D02*
X124578571Y-91562295D01*
X124578571Y-91562295D02*
X124654762Y-91562295D01*
X124654762Y-91562295D02*
X124769047Y-91600390D01*
X124769047Y-91600390D02*
X124807143Y-91638485D01*
X125111904Y-91638485D02*
X125150000Y-91600390D01*
X125150000Y-91600390D02*
X125226190Y-91562295D01*
X125226190Y-91562295D02*
X125416666Y-91562295D01*
X125416666Y-91562295D02*
X125492857Y-91600390D01*
X125492857Y-91600390D02*
X125530952Y-91638485D01*
X125530952Y-91638485D02*
X125569047Y-91714676D01*
X125569047Y-91714676D02*
X125569047Y-91790866D01*
X125569047Y-91790866D02*
X125530952Y-91905152D01*
X125530952Y-91905152D02*
X125073809Y-92362295D01*
X125073809Y-92362295D02*
X125569047Y-92362295D01*
X98229048Y-76362295D02*
X98229048Y-75562295D01*
X99067143Y-76286104D02*
X99029047Y-76324200D01*
X99029047Y-76324200D02*
X98914762Y-76362295D01*
X98914762Y-76362295D02*
X98838571Y-76362295D01*
X98838571Y-76362295D02*
X98724285Y-76324200D01*
X98724285Y-76324200D02*
X98648095Y-76248009D01*
X98648095Y-76248009D02*
X98610000Y-76171819D01*
X98610000Y-76171819D02*
X98571904Y-76019438D01*
X98571904Y-76019438D02*
X98571904Y-75905152D01*
X98571904Y-75905152D02*
X98610000Y-75752771D01*
X98610000Y-75752771D02*
X98648095Y-75676580D01*
X98648095Y-75676580D02*
X98724285Y-75600390D01*
X98724285Y-75600390D02*
X98838571Y-75562295D01*
X98838571Y-75562295D02*
X98914762Y-75562295D01*
X98914762Y-75562295D02*
X99029047Y-75600390D01*
X99029047Y-75600390D02*
X99067143Y-75638485D01*
X99829047Y-76362295D02*
X99371904Y-76362295D01*
X99600476Y-76362295D02*
X99600476Y-75562295D01*
X99600476Y-75562295D02*
X99524285Y-75676580D01*
X99524285Y-75676580D02*
X99448095Y-75752771D01*
X99448095Y-75752771D02*
X99371904Y-75790866D01*
X80776190Y-92193247D02*
X80890476Y-92231342D01*
X80890476Y-92231342D02*
X80928571Y-92269438D01*
X80928571Y-92269438D02*
X80966667Y-92345628D01*
X80966667Y-92345628D02*
X80966667Y-92459914D01*
X80966667Y-92459914D02*
X80928571Y-92536104D01*
X80928571Y-92536104D02*
X80890476Y-92574200D01*
X80890476Y-92574200D02*
X80814286Y-92612295D01*
X80814286Y-92612295D02*
X80509524Y-92612295D01*
X80509524Y-92612295D02*
X80509524Y-91812295D01*
X80509524Y-91812295D02*
X80776190Y-91812295D01*
X80776190Y-91812295D02*
X80852381Y-91850390D01*
X80852381Y-91850390D02*
X80890476Y-91888485D01*
X80890476Y-91888485D02*
X80928571Y-91964676D01*
X80928571Y-91964676D02*
X80928571Y-92040866D01*
X80928571Y-92040866D02*
X80890476Y-92117057D01*
X80890476Y-92117057D02*
X80852381Y-92155152D01*
X80852381Y-92155152D02*
X80776190Y-92193247D01*
X80776190Y-92193247D02*
X80509524Y-92193247D01*
X81766667Y-92612295D02*
X81500000Y-92231342D01*
X81309524Y-92612295D02*
X81309524Y-91812295D01*
X81309524Y-91812295D02*
X81614286Y-91812295D01*
X81614286Y-91812295D02*
X81690476Y-91850390D01*
X81690476Y-91850390D02*
X81728571Y-91888485D01*
X81728571Y-91888485D02*
X81766667Y-91964676D01*
X81766667Y-91964676D02*
X81766667Y-92078961D01*
X81766667Y-92078961D02*
X81728571Y-92155152D01*
X81728571Y-92155152D02*
X81690476Y-92193247D01*
X81690476Y-92193247D02*
X81614286Y-92231342D01*
X81614286Y-92231342D02*
X81309524Y-92231342D01*
X82528571Y-92612295D02*
X82071428Y-92612295D01*
X82300000Y-92612295D02*
X82300000Y-91812295D01*
X82300000Y-91812295D02*
X82223809Y-91926580D01*
X82223809Y-91926580D02*
X82147619Y-92002771D01*
X82147619Y-92002771D02*
X82071428Y-92040866D01*
X96104762Y-62286104D02*
X96066666Y-62324200D01*
X96066666Y-62324200D02*
X95952381Y-62362295D01*
X95952381Y-62362295D02*
X95876190Y-62362295D01*
X95876190Y-62362295D02*
X95761904Y-62324200D01*
X95761904Y-62324200D02*
X95685714Y-62248009D01*
X95685714Y-62248009D02*
X95647619Y-62171819D01*
X95647619Y-62171819D02*
X95609523Y-62019438D01*
X95609523Y-62019438D02*
X95609523Y-61905152D01*
X95609523Y-61905152D02*
X95647619Y-61752771D01*
X95647619Y-61752771D02*
X95685714Y-61676580D01*
X95685714Y-61676580D02*
X95761904Y-61600390D01*
X95761904Y-61600390D02*
X95876190Y-61562295D01*
X95876190Y-61562295D02*
X95952381Y-61562295D01*
X95952381Y-61562295D02*
X96066666Y-61600390D01*
X96066666Y-61600390D02*
X96104762Y-61638485D01*
X96866666Y-62362295D02*
X96409523Y-62362295D01*
X96638095Y-62362295D02*
X96638095Y-61562295D01*
X96638095Y-61562295D02*
X96561904Y-61676580D01*
X96561904Y-61676580D02*
X96485714Y-61752771D01*
X96485714Y-61752771D02*
X96409523Y-61790866D01*
X97361905Y-61562295D02*
X97438095Y-61562295D01*
X97438095Y-61562295D02*
X97514286Y-61600390D01*
X97514286Y-61600390D02*
X97552381Y-61638485D01*
X97552381Y-61638485D02*
X97590476Y-61714676D01*
X97590476Y-61714676D02*
X97628571Y-61867057D01*
X97628571Y-61867057D02*
X97628571Y-62057533D01*
X97628571Y-62057533D02*
X97590476Y-62209914D01*
X97590476Y-62209914D02*
X97552381Y-62286104D01*
X97552381Y-62286104D02*
X97514286Y-62324200D01*
X97514286Y-62324200D02*
X97438095Y-62362295D01*
X97438095Y-62362295D02*
X97361905Y-62362295D01*
X97361905Y-62362295D02*
X97285714Y-62324200D01*
X97285714Y-62324200D02*
X97247619Y-62286104D01*
X97247619Y-62286104D02*
X97209524Y-62209914D01*
X97209524Y-62209914D02*
X97171428Y-62057533D01*
X97171428Y-62057533D02*
X97171428Y-61867057D01*
X97171428Y-61867057D02*
X97209524Y-61714676D01*
X97209524Y-61714676D02*
X97247619Y-61638485D01*
X97247619Y-61638485D02*
X97285714Y-61600390D01*
X97285714Y-61600390D02*
X97361905Y-61562295D01*
X97895238Y-61562295D02*
X98428572Y-61562295D01*
X98428572Y-61562295D02*
X98085714Y-62362295D01*
X147104762Y-84286104D02*
X147066666Y-84324200D01*
X147066666Y-84324200D02*
X146952381Y-84362295D01*
X146952381Y-84362295D02*
X146876190Y-84362295D01*
X146876190Y-84362295D02*
X146761904Y-84324200D01*
X146761904Y-84324200D02*
X146685714Y-84248009D01*
X146685714Y-84248009D02*
X146647619Y-84171819D01*
X146647619Y-84171819D02*
X146609523Y-84019438D01*
X146609523Y-84019438D02*
X146609523Y-83905152D01*
X146609523Y-83905152D02*
X146647619Y-83752771D01*
X146647619Y-83752771D02*
X146685714Y-83676580D01*
X146685714Y-83676580D02*
X146761904Y-83600390D01*
X146761904Y-83600390D02*
X146876190Y-83562295D01*
X146876190Y-83562295D02*
X146952381Y-83562295D01*
X146952381Y-83562295D02*
X147066666Y-83600390D01*
X147066666Y-83600390D02*
X147104762Y-83638485D01*
X147866666Y-84362295D02*
X147409523Y-84362295D01*
X147638095Y-84362295D02*
X147638095Y-83562295D01*
X147638095Y-83562295D02*
X147561904Y-83676580D01*
X147561904Y-83676580D02*
X147485714Y-83752771D01*
X147485714Y-83752771D02*
X147409523Y-83790866D01*
X148628571Y-84362295D02*
X148171428Y-84362295D01*
X148400000Y-84362295D02*
X148400000Y-83562295D01*
X148400000Y-83562295D02*
X148323809Y-83676580D01*
X148323809Y-83676580D02*
X148247619Y-83752771D01*
X148247619Y-83752771D02*
X148171428Y-83790866D01*
X149123810Y-83562295D02*
X149200000Y-83562295D01*
X149200000Y-83562295D02*
X149276191Y-83600390D01*
X149276191Y-83600390D02*
X149314286Y-83638485D01*
X149314286Y-83638485D02*
X149352381Y-83714676D01*
X149352381Y-83714676D02*
X149390476Y-83867057D01*
X149390476Y-83867057D02*
X149390476Y-84057533D01*
X149390476Y-84057533D02*
X149352381Y-84209914D01*
X149352381Y-84209914D02*
X149314286Y-84286104D01*
X149314286Y-84286104D02*
X149276191Y-84324200D01*
X149276191Y-84324200D02*
X149200000Y-84362295D01*
X149200000Y-84362295D02*
X149123810Y-84362295D01*
X149123810Y-84362295D02*
X149047619Y-84324200D01*
X149047619Y-84324200D02*
X149009524Y-84286104D01*
X149009524Y-84286104D02*
X148971429Y-84209914D01*
X148971429Y-84209914D02*
X148933333Y-84057533D01*
X148933333Y-84057533D02*
X148933333Y-83867057D01*
X148933333Y-83867057D02*
X148971429Y-83714676D01*
X148971429Y-83714676D02*
X149009524Y-83638485D01*
X149009524Y-83638485D02*
X149047619Y-83600390D01*
X149047619Y-83600390D02*
X149123810Y-83562295D01*
X88286104Y-85620237D02*
X88324200Y-85658333D01*
X88324200Y-85658333D02*
X88362295Y-85772618D01*
X88362295Y-85772618D02*
X88362295Y-85848809D01*
X88362295Y-85848809D02*
X88324200Y-85963095D01*
X88324200Y-85963095D02*
X88248009Y-86039285D01*
X88248009Y-86039285D02*
X88171819Y-86077380D01*
X88171819Y-86077380D02*
X88019438Y-86115476D01*
X88019438Y-86115476D02*
X87905152Y-86115476D01*
X87905152Y-86115476D02*
X87752771Y-86077380D01*
X87752771Y-86077380D02*
X87676580Y-86039285D01*
X87676580Y-86039285D02*
X87600390Y-85963095D01*
X87600390Y-85963095D02*
X87562295Y-85848809D01*
X87562295Y-85848809D02*
X87562295Y-85772618D01*
X87562295Y-85772618D02*
X87600390Y-85658333D01*
X87600390Y-85658333D02*
X87638485Y-85620237D01*
X88362295Y-84858333D02*
X88362295Y-85315476D01*
X88362295Y-85086904D02*
X87562295Y-85086904D01*
X87562295Y-85086904D02*
X87676580Y-85163095D01*
X87676580Y-85163095D02*
X87752771Y-85239285D01*
X87752771Y-85239285D02*
X87790866Y-85315476D01*
X87562295Y-84363094D02*
X87562295Y-84286904D01*
X87562295Y-84286904D02*
X87600390Y-84210713D01*
X87600390Y-84210713D02*
X87638485Y-84172618D01*
X87638485Y-84172618D02*
X87714676Y-84134523D01*
X87714676Y-84134523D02*
X87867057Y-84096428D01*
X87867057Y-84096428D02*
X88057533Y-84096428D01*
X88057533Y-84096428D02*
X88209914Y-84134523D01*
X88209914Y-84134523D02*
X88286104Y-84172618D01*
X88286104Y-84172618D02*
X88324200Y-84210713D01*
X88324200Y-84210713D02*
X88362295Y-84286904D01*
X88362295Y-84286904D02*
X88362295Y-84363094D01*
X88362295Y-84363094D02*
X88324200Y-84439285D01*
X88324200Y-84439285D02*
X88286104Y-84477380D01*
X88286104Y-84477380D02*
X88209914Y-84515475D01*
X88209914Y-84515475D02*
X88057533Y-84553571D01*
X88057533Y-84553571D02*
X87867057Y-84553571D01*
X87867057Y-84553571D02*
X87714676Y-84515475D01*
X87714676Y-84515475D02*
X87638485Y-84477380D01*
X87638485Y-84477380D02*
X87600390Y-84439285D01*
X87600390Y-84439285D02*
X87562295Y-84363094D01*
X87638485Y-83791666D02*
X87600390Y-83753570D01*
X87600390Y-83753570D02*
X87562295Y-83677380D01*
X87562295Y-83677380D02*
X87562295Y-83486904D01*
X87562295Y-83486904D02*
X87600390Y-83410713D01*
X87600390Y-83410713D02*
X87638485Y-83372618D01*
X87638485Y-83372618D02*
X87714676Y-83334523D01*
X87714676Y-83334523D02*
X87790866Y-83334523D01*
X87790866Y-83334523D02*
X87905152Y-83372618D01*
X87905152Y-83372618D02*
X88362295Y-83829761D01*
X88362295Y-83829761D02*
X88362295Y-83334523D01*
X65604762Y-92286104D02*
X65566666Y-92324200D01*
X65566666Y-92324200D02*
X65452381Y-92362295D01*
X65452381Y-92362295D02*
X65376190Y-92362295D01*
X65376190Y-92362295D02*
X65261904Y-92324200D01*
X65261904Y-92324200D02*
X65185714Y-92248009D01*
X65185714Y-92248009D02*
X65147619Y-92171819D01*
X65147619Y-92171819D02*
X65109523Y-92019438D01*
X65109523Y-92019438D02*
X65109523Y-91905152D01*
X65109523Y-91905152D02*
X65147619Y-91752771D01*
X65147619Y-91752771D02*
X65185714Y-91676580D01*
X65185714Y-91676580D02*
X65261904Y-91600390D01*
X65261904Y-91600390D02*
X65376190Y-91562295D01*
X65376190Y-91562295D02*
X65452381Y-91562295D01*
X65452381Y-91562295D02*
X65566666Y-91600390D01*
X65566666Y-91600390D02*
X65604762Y-91638485D01*
X66366666Y-92362295D02*
X65909523Y-92362295D01*
X66138095Y-92362295D02*
X66138095Y-91562295D01*
X66138095Y-91562295D02*
X66061904Y-91676580D01*
X66061904Y-91676580D02*
X65985714Y-91752771D01*
X65985714Y-91752771D02*
X65909523Y-91790866D01*
X66861905Y-91562295D02*
X66938095Y-91562295D01*
X66938095Y-91562295D02*
X67014286Y-91600390D01*
X67014286Y-91600390D02*
X67052381Y-91638485D01*
X67052381Y-91638485D02*
X67090476Y-91714676D01*
X67090476Y-91714676D02*
X67128571Y-91867057D01*
X67128571Y-91867057D02*
X67128571Y-92057533D01*
X67128571Y-92057533D02*
X67090476Y-92209914D01*
X67090476Y-92209914D02*
X67052381Y-92286104D01*
X67052381Y-92286104D02*
X67014286Y-92324200D01*
X67014286Y-92324200D02*
X66938095Y-92362295D01*
X66938095Y-92362295D02*
X66861905Y-92362295D01*
X66861905Y-92362295D02*
X66785714Y-92324200D01*
X66785714Y-92324200D02*
X66747619Y-92286104D01*
X66747619Y-92286104D02*
X66709524Y-92209914D01*
X66709524Y-92209914D02*
X66671428Y-92057533D01*
X66671428Y-92057533D02*
X66671428Y-91867057D01*
X66671428Y-91867057D02*
X66709524Y-91714676D01*
X66709524Y-91714676D02*
X66747619Y-91638485D01*
X66747619Y-91638485D02*
X66785714Y-91600390D01*
X66785714Y-91600390D02*
X66861905Y-91562295D01*
X67890476Y-92362295D02*
X67433333Y-92362295D01*
X67661905Y-92362295D02*
X67661905Y-91562295D01*
X67661905Y-91562295D02*
X67585714Y-91676580D01*
X67585714Y-91676580D02*
X67509524Y-91752771D01*
X67509524Y-91752771D02*
X67433333Y-91790866D01*
X147354762Y-60286104D02*
X147316666Y-60324200D01*
X147316666Y-60324200D02*
X147202381Y-60362295D01*
X147202381Y-60362295D02*
X147126190Y-60362295D01*
X147126190Y-60362295D02*
X147011904Y-60324200D01*
X147011904Y-60324200D02*
X146935714Y-60248009D01*
X146935714Y-60248009D02*
X146897619Y-60171819D01*
X146897619Y-60171819D02*
X146859523Y-60019438D01*
X146859523Y-60019438D02*
X146859523Y-59905152D01*
X146859523Y-59905152D02*
X146897619Y-59752771D01*
X146897619Y-59752771D02*
X146935714Y-59676580D01*
X146935714Y-59676580D02*
X147011904Y-59600390D01*
X147011904Y-59600390D02*
X147126190Y-59562295D01*
X147126190Y-59562295D02*
X147202381Y-59562295D01*
X147202381Y-59562295D02*
X147316666Y-59600390D01*
X147316666Y-59600390D02*
X147354762Y-59638485D01*
X148116666Y-60362295D02*
X147659523Y-60362295D01*
X147888095Y-60362295D02*
X147888095Y-59562295D01*
X147888095Y-59562295D02*
X147811904Y-59676580D01*
X147811904Y-59676580D02*
X147735714Y-59752771D01*
X147735714Y-59752771D02*
X147659523Y-59790866D01*
X148611905Y-59562295D02*
X148688095Y-59562295D01*
X148688095Y-59562295D02*
X148764286Y-59600390D01*
X148764286Y-59600390D02*
X148802381Y-59638485D01*
X148802381Y-59638485D02*
X148840476Y-59714676D01*
X148840476Y-59714676D02*
X148878571Y-59867057D01*
X148878571Y-59867057D02*
X148878571Y-60057533D01*
X148878571Y-60057533D02*
X148840476Y-60209914D01*
X148840476Y-60209914D02*
X148802381Y-60286104D01*
X148802381Y-60286104D02*
X148764286Y-60324200D01*
X148764286Y-60324200D02*
X148688095Y-60362295D01*
X148688095Y-60362295D02*
X148611905Y-60362295D01*
X148611905Y-60362295D02*
X148535714Y-60324200D01*
X148535714Y-60324200D02*
X148497619Y-60286104D01*
X148497619Y-60286104D02*
X148459524Y-60209914D01*
X148459524Y-60209914D02*
X148421428Y-60057533D01*
X148421428Y-60057533D02*
X148421428Y-59867057D01*
X148421428Y-59867057D02*
X148459524Y-59714676D01*
X148459524Y-59714676D02*
X148497619Y-59638485D01*
X148497619Y-59638485D02*
X148535714Y-59600390D01*
X148535714Y-59600390D02*
X148611905Y-59562295D01*
X149259524Y-60362295D02*
X149411905Y-60362295D01*
X149411905Y-60362295D02*
X149488095Y-60324200D01*
X149488095Y-60324200D02*
X149526191Y-60286104D01*
X149526191Y-60286104D02*
X149602381Y-60171819D01*
X149602381Y-60171819D02*
X149640476Y-60019438D01*
X149640476Y-60019438D02*
X149640476Y-59714676D01*
X149640476Y-59714676D02*
X149602381Y-59638485D01*
X149602381Y-59638485D02*
X149564286Y-59600390D01*
X149564286Y-59600390D02*
X149488095Y-59562295D01*
X149488095Y-59562295D02*
X149335714Y-59562295D01*
X149335714Y-59562295D02*
X149259524Y-59600390D01*
X149259524Y-59600390D02*
X149221429Y-59638485D01*
X149221429Y-59638485D02*
X149183333Y-59714676D01*
X149183333Y-59714676D02*
X149183333Y-59905152D01*
X149183333Y-59905152D02*
X149221429Y-59981342D01*
X149221429Y-59981342D02*
X149259524Y-60019438D01*
X149259524Y-60019438D02*
X149335714Y-60057533D01*
X149335714Y-60057533D02*
X149488095Y-60057533D01*
X149488095Y-60057533D02*
X149564286Y-60019438D01*
X149564286Y-60019438D02*
X149602381Y-59981342D01*
X149602381Y-59981342D02*
X149640476Y-59905152D01*
X129854762Y-60286104D02*
X129816666Y-60324200D01*
X129816666Y-60324200D02*
X129702381Y-60362295D01*
X129702381Y-60362295D02*
X129626190Y-60362295D01*
X129626190Y-60362295D02*
X129511904Y-60324200D01*
X129511904Y-60324200D02*
X129435714Y-60248009D01*
X129435714Y-60248009D02*
X129397619Y-60171819D01*
X129397619Y-60171819D02*
X129359523Y-60019438D01*
X129359523Y-60019438D02*
X129359523Y-59905152D01*
X129359523Y-59905152D02*
X129397619Y-59752771D01*
X129397619Y-59752771D02*
X129435714Y-59676580D01*
X129435714Y-59676580D02*
X129511904Y-59600390D01*
X129511904Y-59600390D02*
X129626190Y-59562295D01*
X129626190Y-59562295D02*
X129702381Y-59562295D01*
X129702381Y-59562295D02*
X129816666Y-59600390D01*
X129816666Y-59600390D02*
X129854762Y-59638485D01*
X130616666Y-60362295D02*
X130159523Y-60362295D01*
X130388095Y-60362295D02*
X130388095Y-59562295D01*
X130388095Y-59562295D02*
X130311904Y-59676580D01*
X130311904Y-59676580D02*
X130235714Y-59752771D01*
X130235714Y-59752771D02*
X130159523Y-59790866D01*
X131111905Y-59562295D02*
X131188095Y-59562295D01*
X131188095Y-59562295D02*
X131264286Y-59600390D01*
X131264286Y-59600390D02*
X131302381Y-59638485D01*
X131302381Y-59638485D02*
X131340476Y-59714676D01*
X131340476Y-59714676D02*
X131378571Y-59867057D01*
X131378571Y-59867057D02*
X131378571Y-60057533D01*
X131378571Y-60057533D02*
X131340476Y-60209914D01*
X131340476Y-60209914D02*
X131302381Y-60286104D01*
X131302381Y-60286104D02*
X131264286Y-60324200D01*
X131264286Y-60324200D02*
X131188095Y-60362295D01*
X131188095Y-60362295D02*
X131111905Y-60362295D01*
X131111905Y-60362295D02*
X131035714Y-60324200D01*
X131035714Y-60324200D02*
X130997619Y-60286104D01*
X130997619Y-60286104D02*
X130959524Y-60209914D01*
X130959524Y-60209914D02*
X130921428Y-60057533D01*
X130921428Y-60057533D02*
X130921428Y-59867057D01*
X130921428Y-59867057D02*
X130959524Y-59714676D01*
X130959524Y-59714676D02*
X130997619Y-59638485D01*
X130997619Y-59638485D02*
X131035714Y-59600390D01*
X131035714Y-59600390D02*
X131111905Y-59562295D01*
X131835714Y-59905152D02*
X131759524Y-59867057D01*
X131759524Y-59867057D02*
X131721429Y-59828961D01*
X131721429Y-59828961D02*
X131683333Y-59752771D01*
X131683333Y-59752771D02*
X131683333Y-59714676D01*
X131683333Y-59714676D02*
X131721429Y-59638485D01*
X131721429Y-59638485D02*
X131759524Y-59600390D01*
X131759524Y-59600390D02*
X131835714Y-59562295D01*
X131835714Y-59562295D02*
X131988095Y-59562295D01*
X131988095Y-59562295D02*
X132064286Y-59600390D01*
X132064286Y-59600390D02*
X132102381Y-59638485D01*
X132102381Y-59638485D02*
X132140476Y-59714676D01*
X132140476Y-59714676D02*
X132140476Y-59752771D01*
X132140476Y-59752771D02*
X132102381Y-59828961D01*
X132102381Y-59828961D02*
X132064286Y-59867057D01*
X132064286Y-59867057D02*
X131988095Y-59905152D01*
X131988095Y-59905152D02*
X131835714Y-59905152D01*
X131835714Y-59905152D02*
X131759524Y-59943247D01*
X131759524Y-59943247D02*
X131721429Y-59981342D01*
X131721429Y-59981342D02*
X131683333Y-60057533D01*
X131683333Y-60057533D02*
X131683333Y-60209914D01*
X131683333Y-60209914D02*
X131721429Y-60286104D01*
X131721429Y-60286104D02*
X131759524Y-60324200D01*
X131759524Y-60324200D02*
X131835714Y-60362295D01*
X131835714Y-60362295D02*
X131988095Y-60362295D01*
X131988095Y-60362295D02*
X132064286Y-60324200D01*
X132064286Y-60324200D02*
X132102381Y-60286104D01*
X132102381Y-60286104D02*
X132140476Y-60209914D01*
X132140476Y-60209914D02*
X132140476Y-60057533D01*
X132140476Y-60057533D02*
X132102381Y-59981342D01*
X132102381Y-59981342D02*
X132064286Y-59943247D01*
X132064286Y-59943247D02*
X131988095Y-59905152D01*
X70786104Y-56145237D02*
X70824200Y-56183333D01*
X70824200Y-56183333D02*
X70862295Y-56297618D01*
X70862295Y-56297618D02*
X70862295Y-56373809D01*
X70862295Y-56373809D02*
X70824200Y-56488095D01*
X70824200Y-56488095D02*
X70748009Y-56564285D01*
X70748009Y-56564285D02*
X70671819Y-56602380D01*
X70671819Y-56602380D02*
X70519438Y-56640476D01*
X70519438Y-56640476D02*
X70405152Y-56640476D01*
X70405152Y-56640476D02*
X70252771Y-56602380D01*
X70252771Y-56602380D02*
X70176580Y-56564285D01*
X70176580Y-56564285D02*
X70100390Y-56488095D01*
X70100390Y-56488095D02*
X70062295Y-56373809D01*
X70062295Y-56373809D02*
X70062295Y-56297618D01*
X70062295Y-56297618D02*
X70100390Y-56183333D01*
X70100390Y-56183333D02*
X70138485Y-56145237D01*
X70862295Y-55383333D02*
X70862295Y-55840476D01*
X70862295Y-55611904D02*
X70062295Y-55611904D01*
X70062295Y-55611904D02*
X70176580Y-55688095D01*
X70176580Y-55688095D02*
X70252771Y-55764285D01*
X70252771Y-55764285D02*
X70290866Y-55840476D01*
X70062295Y-54888094D02*
X70062295Y-54811904D01*
X70062295Y-54811904D02*
X70100390Y-54735713D01*
X70100390Y-54735713D02*
X70138485Y-54697618D01*
X70138485Y-54697618D02*
X70214676Y-54659523D01*
X70214676Y-54659523D02*
X70367057Y-54621428D01*
X70367057Y-54621428D02*
X70557533Y-54621428D01*
X70557533Y-54621428D02*
X70709914Y-54659523D01*
X70709914Y-54659523D02*
X70786104Y-54697618D01*
X70786104Y-54697618D02*
X70824200Y-54735713D01*
X70824200Y-54735713D02*
X70862295Y-54811904D01*
X70862295Y-54811904D02*
X70862295Y-54888094D01*
X70862295Y-54888094D02*
X70824200Y-54964285D01*
X70824200Y-54964285D02*
X70786104Y-55002380D01*
X70786104Y-55002380D02*
X70709914Y-55040475D01*
X70709914Y-55040475D02*
X70557533Y-55078571D01*
X70557533Y-55078571D02*
X70367057Y-55078571D01*
X70367057Y-55078571D02*
X70214676Y-55040475D01*
X70214676Y-55040475D02*
X70138485Y-55002380D01*
X70138485Y-55002380D02*
X70100390Y-54964285D01*
X70100390Y-54964285D02*
X70062295Y-54888094D01*
X70328961Y-53935713D02*
X70862295Y-53935713D01*
X70024200Y-54126189D02*
X70595628Y-54316666D01*
X70595628Y-54316666D02*
X70595628Y-53821427D01*
X102388571Y-71312295D02*
X102845714Y-71312295D01*
X102617142Y-72112295D02*
X102617142Y-71312295D01*
X103531428Y-72112295D02*
X103074285Y-72112295D01*
X103302857Y-72112295D02*
X103302857Y-71312295D01*
X103302857Y-71312295D02*
X103226666Y-71426580D01*
X103226666Y-71426580D02*
X103150476Y-71502771D01*
X103150476Y-71502771D02*
X103074285Y-71540866D01*
X104026667Y-71312295D02*
X104102857Y-71312295D01*
X104102857Y-71312295D02*
X104179048Y-71350390D01*
X104179048Y-71350390D02*
X104217143Y-71388485D01*
X104217143Y-71388485D02*
X104255238Y-71464676D01*
X104255238Y-71464676D02*
X104293333Y-71617057D01*
X104293333Y-71617057D02*
X104293333Y-71807533D01*
X104293333Y-71807533D02*
X104255238Y-71959914D01*
X104255238Y-71959914D02*
X104217143Y-72036104D01*
X104217143Y-72036104D02*
X104179048Y-72074200D01*
X104179048Y-72074200D02*
X104102857Y-72112295D01*
X104102857Y-72112295D02*
X104026667Y-72112295D01*
X104026667Y-72112295D02*
X103950476Y-72074200D01*
X103950476Y-72074200D02*
X103912381Y-72036104D01*
X103912381Y-72036104D02*
X103874286Y-71959914D01*
X103874286Y-71959914D02*
X103836190Y-71807533D01*
X103836190Y-71807533D02*
X103836190Y-71617057D01*
X103836190Y-71617057D02*
X103874286Y-71464676D01*
X103874286Y-71464676D02*
X103912381Y-71388485D01*
X103912381Y-71388485D02*
X103950476Y-71350390D01*
X103950476Y-71350390D02*
X104026667Y-71312295D01*
X105055238Y-72112295D02*
X104598095Y-72112295D01*
X104826667Y-72112295D02*
X104826667Y-71312295D01*
X104826667Y-71312295D02*
X104750476Y-71426580D01*
X104750476Y-71426580D02*
X104674286Y-71502771D01*
X104674286Y-71502771D02*
X104598095Y-71540866D01*
X145235714Y-86612295D02*
X144969047Y-86231342D01*
X144778571Y-86612295D02*
X144778571Y-85812295D01*
X144778571Y-85812295D02*
X145083333Y-85812295D01*
X145083333Y-85812295D02*
X145159523Y-85850390D01*
X145159523Y-85850390D02*
X145197618Y-85888485D01*
X145197618Y-85888485D02*
X145235714Y-85964676D01*
X145235714Y-85964676D02*
X145235714Y-86078961D01*
X145235714Y-86078961D02*
X145197618Y-86155152D01*
X145197618Y-86155152D02*
X145159523Y-86193247D01*
X145159523Y-86193247D02*
X145083333Y-86231342D01*
X145083333Y-86231342D02*
X144778571Y-86231342D01*
X145540475Y-85888485D02*
X145578571Y-85850390D01*
X145578571Y-85850390D02*
X145654761Y-85812295D01*
X145654761Y-85812295D02*
X145845237Y-85812295D01*
X145845237Y-85812295D02*
X145921428Y-85850390D01*
X145921428Y-85850390D02*
X145959523Y-85888485D01*
X145959523Y-85888485D02*
X145997618Y-85964676D01*
X145997618Y-85964676D02*
X145997618Y-86040866D01*
X145997618Y-86040866D02*
X145959523Y-86155152D01*
X145959523Y-86155152D02*
X145502380Y-86612295D01*
X145502380Y-86612295D02*
X145997618Y-86612295D01*
X146721428Y-85812295D02*
X146340476Y-85812295D01*
X146340476Y-85812295D02*
X146302380Y-86193247D01*
X146302380Y-86193247D02*
X146340476Y-86155152D01*
X146340476Y-86155152D02*
X146416666Y-86117057D01*
X146416666Y-86117057D02*
X146607142Y-86117057D01*
X146607142Y-86117057D02*
X146683333Y-86155152D01*
X146683333Y-86155152D02*
X146721428Y-86193247D01*
X146721428Y-86193247D02*
X146759523Y-86269438D01*
X146759523Y-86269438D02*
X146759523Y-86459914D01*
X146759523Y-86459914D02*
X146721428Y-86536104D01*
X146721428Y-86536104D02*
X146683333Y-86574200D01*
X146683333Y-86574200D02*
X146607142Y-86612295D01*
X146607142Y-86612295D02*
X146416666Y-86612295D01*
X146416666Y-86612295D02*
X146340476Y-86574200D01*
X146340476Y-86574200D02*
X146302380Y-86536104D01*
X74286104Y-70395237D02*
X74324200Y-70433333D01*
X74324200Y-70433333D02*
X74362295Y-70547618D01*
X74362295Y-70547618D02*
X74362295Y-70623809D01*
X74362295Y-70623809D02*
X74324200Y-70738095D01*
X74324200Y-70738095D02*
X74248009Y-70814285D01*
X74248009Y-70814285D02*
X74171819Y-70852380D01*
X74171819Y-70852380D02*
X74019438Y-70890476D01*
X74019438Y-70890476D02*
X73905152Y-70890476D01*
X73905152Y-70890476D02*
X73752771Y-70852380D01*
X73752771Y-70852380D02*
X73676580Y-70814285D01*
X73676580Y-70814285D02*
X73600390Y-70738095D01*
X73600390Y-70738095D02*
X73562295Y-70623809D01*
X73562295Y-70623809D02*
X73562295Y-70547618D01*
X73562295Y-70547618D02*
X73600390Y-70433333D01*
X73600390Y-70433333D02*
X73638485Y-70395237D01*
X74362295Y-69633333D02*
X74362295Y-70090476D01*
X74362295Y-69861904D02*
X73562295Y-69861904D01*
X73562295Y-69861904D02*
X73676580Y-69938095D01*
X73676580Y-69938095D02*
X73752771Y-70014285D01*
X73752771Y-70014285D02*
X73790866Y-70090476D01*
X73562295Y-69138094D02*
X73562295Y-69061904D01*
X73562295Y-69061904D02*
X73600390Y-68985713D01*
X73600390Y-68985713D02*
X73638485Y-68947618D01*
X73638485Y-68947618D02*
X73714676Y-68909523D01*
X73714676Y-68909523D02*
X73867057Y-68871428D01*
X73867057Y-68871428D02*
X74057533Y-68871428D01*
X74057533Y-68871428D02*
X74209914Y-68909523D01*
X74209914Y-68909523D02*
X74286104Y-68947618D01*
X74286104Y-68947618D02*
X74324200Y-68985713D01*
X74324200Y-68985713D02*
X74362295Y-69061904D01*
X74362295Y-69061904D02*
X74362295Y-69138094D01*
X74362295Y-69138094D02*
X74324200Y-69214285D01*
X74324200Y-69214285D02*
X74286104Y-69252380D01*
X74286104Y-69252380D02*
X74209914Y-69290475D01*
X74209914Y-69290475D02*
X74057533Y-69328571D01*
X74057533Y-69328571D02*
X73867057Y-69328571D01*
X73867057Y-69328571D02*
X73714676Y-69290475D01*
X73714676Y-69290475D02*
X73638485Y-69252380D01*
X73638485Y-69252380D02*
X73600390Y-69214285D01*
X73600390Y-69214285D02*
X73562295Y-69138094D01*
X73562295Y-68185713D02*
X73562295Y-68338094D01*
X73562295Y-68338094D02*
X73600390Y-68414285D01*
X73600390Y-68414285D02*
X73638485Y-68452380D01*
X73638485Y-68452380D02*
X73752771Y-68528570D01*
X73752771Y-68528570D02*
X73905152Y-68566666D01*
X73905152Y-68566666D02*
X74209914Y-68566666D01*
X74209914Y-68566666D02*
X74286104Y-68528570D01*
X74286104Y-68528570D02*
X74324200Y-68490475D01*
X74324200Y-68490475D02*
X74362295Y-68414285D01*
X74362295Y-68414285D02*
X74362295Y-68261904D01*
X74362295Y-68261904D02*
X74324200Y-68185713D01*
X74324200Y-68185713D02*
X74286104Y-68147618D01*
X74286104Y-68147618D02*
X74209914Y-68109523D01*
X74209914Y-68109523D02*
X74019438Y-68109523D01*
X74019438Y-68109523D02*
X73943247Y-68147618D01*
X73943247Y-68147618D02*
X73905152Y-68185713D01*
X73905152Y-68185713D02*
X73867057Y-68261904D01*
X73867057Y-68261904D02*
X73867057Y-68414285D01*
X73867057Y-68414285D02*
X73905152Y-68490475D01*
X73905152Y-68490475D02*
X73943247Y-68528570D01*
X73943247Y-68528570D02*
X74019438Y-68566666D01*
X84536104Y-54395237D02*
X84574200Y-54433333D01*
X84574200Y-54433333D02*
X84612295Y-54547618D01*
X84612295Y-54547618D02*
X84612295Y-54623809D01*
X84612295Y-54623809D02*
X84574200Y-54738095D01*
X84574200Y-54738095D02*
X84498009Y-54814285D01*
X84498009Y-54814285D02*
X84421819Y-54852380D01*
X84421819Y-54852380D02*
X84269438Y-54890476D01*
X84269438Y-54890476D02*
X84155152Y-54890476D01*
X84155152Y-54890476D02*
X84002771Y-54852380D01*
X84002771Y-54852380D02*
X83926580Y-54814285D01*
X83926580Y-54814285D02*
X83850390Y-54738095D01*
X83850390Y-54738095D02*
X83812295Y-54623809D01*
X83812295Y-54623809D02*
X83812295Y-54547618D01*
X83812295Y-54547618D02*
X83850390Y-54433333D01*
X83850390Y-54433333D02*
X83888485Y-54395237D01*
X84612295Y-53633333D02*
X84612295Y-54090476D01*
X84612295Y-53861904D02*
X83812295Y-53861904D01*
X83812295Y-53861904D02*
X83926580Y-53938095D01*
X83926580Y-53938095D02*
X84002771Y-54014285D01*
X84002771Y-54014285D02*
X84040866Y-54090476D01*
X83812295Y-53138094D02*
X83812295Y-53061904D01*
X83812295Y-53061904D02*
X83850390Y-52985713D01*
X83850390Y-52985713D02*
X83888485Y-52947618D01*
X83888485Y-52947618D02*
X83964676Y-52909523D01*
X83964676Y-52909523D02*
X84117057Y-52871428D01*
X84117057Y-52871428D02*
X84307533Y-52871428D01*
X84307533Y-52871428D02*
X84459914Y-52909523D01*
X84459914Y-52909523D02*
X84536104Y-52947618D01*
X84536104Y-52947618D02*
X84574200Y-52985713D01*
X84574200Y-52985713D02*
X84612295Y-53061904D01*
X84612295Y-53061904D02*
X84612295Y-53138094D01*
X84612295Y-53138094D02*
X84574200Y-53214285D01*
X84574200Y-53214285D02*
X84536104Y-53252380D01*
X84536104Y-53252380D02*
X84459914Y-53290475D01*
X84459914Y-53290475D02*
X84307533Y-53328571D01*
X84307533Y-53328571D02*
X84117057Y-53328571D01*
X84117057Y-53328571D02*
X83964676Y-53290475D01*
X83964676Y-53290475D02*
X83888485Y-53252380D01*
X83888485Y-53252380D02*
X83850390Y-53214285D01*
X83850390Y-53214285D02*
X83812295Y-53138094D01*
X83812295Y-52604761D02*
X83812295Y-52109523D01*
X83812295Y-52109523D02*
X84117057Y-52376189D01*
X84117057Y-52376189D02*
X84117057Y-52261904D01*
X84117057Y-52261904D02*
X84155152Y-52185713D01*
X84155152Y-52185713D02*
X84193247Y-52147618D01*
X84193247Y-52147618D02*
X84269438Y-52109523D01*
X84269438Y-52109523D02*
X84459914Y-52109523D01*
X84459914Y-52109523D02*
X84536104Y-52147618D01*
X84536104Y-52147618D02*
X84574200Y-52185713D01*
X84574200Y-52185713D02*
X84612295Y-52261904D01*
X84612295Y-52261904D02*
X84612295Y-52490475D01*
X84612295Y-52490475D02*
X84574200Y-52566666D01*
X84574200Y-52566666D02*
X84536104Y-52604761D01*
D13*
%TO.C,D9*%
X137610000Y-91850000D02*
X137610000Y-90150000D01*
X137610000Y-91850000D02*
X134950000Y-91850000D01*
X137610000Y-90150000D02*
X134950000Y-90150000D01*
%TO.C,D4*%
X112860000Y-89100000D02*
X112860000Y-87400000D01*
X112860000Y-89100000D02*
X110200000Y-89100000D01*
X112860000Y-87400000D02*
X110200000Y-87400000D01*
%TO.C,C14*%
X114609420Y-91240000D02*
X114890580Y-91240000D01*
X114609420Y-92260000D02*
X114890580Y-92260000D01*
D11*
%TO.C,J1*%
X49850000Y-59425000D02*
X54550000Y-59425000D01*
X49850000Y-61225000D02*
X51450000Y-61225000D01*
X49850000Y-77225000D02*
X51450000Y-77225000D01*
X49850000Y-79225000D02*
X49850000Y-59425000D01*
X51450000Y-77225000D02*
X51450000Y-61225000D01*
X54450000Y-79225000D02*
X49850000Y-79225000D01*
X54550000Y-59425000D02*
X57650000Y-59425000D01*
X57650000Y-59425000D02*
X57650000Y-79225000D01*
X57650000Y-79225000D02*
X54450000Y-79225000D01*
%TO.C,L104*%
X116900000Y-65770000D02*
X116900000Y-65770000D01*
X117000000Y-65770000D02*
X117000000Y-65770000D01*
D12*
X117500000Y-62150000D02*
X142500000Y-62150000D01*
X117500000Y-84350000D02*
X117500000Y-62150000D01*
X142500000Y-62150000D02*
X142500000Y-84350000D01*
X142500000Y-84350000D02*
X117500000Y-84350000D01*
D11*
X116900000Y-65770000D02*
G75*
G02*
X117000000Y-65770000I50000J0D01*
G01*
X117000000Y-65770000D02*
G75*
G02*
X116900000Y-65770000I-50000J0D01*
G01*
D12*
%TO.C,J2*%
X151800000Y-75000000D02*
X151800000Y-62500000D01*
X158200000Y-75000000D02*
X151800000Y-75000000D01*
D11*
X158700000Y-65000000D02*
X158700000Y-65000000D01*
X158800000Y-65000000D02*
X158800000Y-65000000D01*
D12*
X151800000Y-62500000D02*
X158200000Y-62500000D01*
X158200000Y-62500000D02*
X158200000Y-75000000D01*
D11*
X158700000Y-65000000D02*
G75*
G02*
X158800000Y-65000000I50000J0D01*
G01*
X158800000Y-65000000D02*
G75*
G02*
X158700000Y-65000000I-50000J0D01*
G01*
%TO.C,L102*%
D13*
X90240000Y-62890000D02*
X97760000Y-62890000D01*
X97760000Y-76610000D01*
X90240000Y-76610000D01*
X90240000Y-62890000D01*
D12*
%TO.C,C105*%
X95375000Y-57500000D02*
G75*
G02*
X85125000Y-57500000I-5125000J0D01*
G01*
X85125000Y-57500000D02*
G75*
G02*
X95375000Y-57500000I5125000J0D01*
G01*
D13*
%TO.C,L101*%
X75175000Y-81775000D02*
X76825000Y-81775000D01*
X73390000Y-81550000D02*
X88610000Y-81550000D01*
X88610000Y-73830000D01*
X73390000Y-73830000D01*
X73390000Y-81550000D01*
D11*
%TO.C,RV1*%
X67750000Y-82200000D02*
X67750000Y-82200000D01*
X67750000Y-82100000D02*
X67750000Y-82100000D01*
D12*
X67450000Y-81600000D02*
X63050000Y-81600000D01*
X67450000Y-76900000D02*
X67450000Y-76900000D01*
X63050000Y-81600000D02*
X63050000Y-81600000D01*
X63050000Y-76900000D02*
X67450000Y-76900000D01*
D11*
X67750000Y-82200000D02*
G75*
G02*
X67750000Y-82100000I0J50000D01*
G01*
X67750000Y-82100000D02*
G75*
G02*
X67750000Y-82200000I0J-50000D01*
G01*
D12*
X67450000Y-76900000D02*
G75*
G02*
X67450000Y-81600000I0J-2350000D01*
G01*
X63050000Y-81600000D02*
G75*
G02*
X63050000Y-76900000I0J2350000D01*
G01*
D11*
%TO.C,F1*%
X60200000Y-70500000D02*
X60200000Y-70500000D01*
X60300000Y-70500000D02*
X60300000Y-70500000D01*
D12*
X65000000Y-66250000D02*
X65000000Y-66250000D01*
X65000000Y-74750000D02*
X65000000Y-74750000D01*
D11*
X60200000Y-70500000D02*
G75*
G02*
X60300000Y-70500000I50000J0D01*
G01*
X60300000Y-70500000D02*
G75*
G02*
X60200000Y-70500000I-50000J0D01*
G01*
D12*
X65000000Y-66250000D02*
G75*
G02*
X65000000Y-74750000I0J-4250000D01*
G01*
X65000000Y-74750000D02*
G75*
G02*
X65000000Y-66250000I0J4250000D01*
G01*
D11*
%TO.C,RT1*%
X60250000Y-58250000D02*
X69750000Y-58250000D01*
X60250000Y-64250000D02*
X60250000Y-58250000D01*
X69750000Y-58250000D02*
X69750000Y-64250000D01*
X69750000Y-64250000D02*
X60250000Y-64250000D01*
D13*
%TO.C,D2*%
X99490000Y-64850000D02*
X99490000Y-68150000D01*
X99490000Y-64850000D02*
X105000000Y-64850000D01*
X99490000Y-68150000D02*
X105000000Y-68150000D01*
%TO.C,D6*%
X109610000Y-91850000D02*
X109610000Y-90150000D01*
X109610000Y-91850000D02*
X106950000Y-91850000D01*
X109610000Y-90150000D02*
X106950000Y-90150000D01*
%TO.C,D5*%
X113100000Y-89260000D02*
X116400000Y-89260000D01*
X113100000Y-89260000D02*
X113100000Y-83750000D01*
X116400000Y-89260000D02*
X116400000Y-83750000D01*
%TO.C,D8*%
X146900000Y-65740000D02*
X143600000Y-65740000D01*
X146900000Y-65740000D02*
X146900000Y-71250000D01*
X143600000Y-65740000D02*
X143600000Y-71250000D01*
%TO.C,R83*%
X143237258Y-89772500D02*
X142762742Y-89772500D01*
X143237258Y-88727500D02*
X142762742Y-88727500D01*
%TO.C,R24*%
X143237258Y-88272500D02*
X142762742Y-88272500D01*
X143237258Y-87227500D02*
X142762742Y-87227500D01*
D12*
%TO.C,IC2*%
X130150000Y-90645000D02*
X128300000Y-90645000D01*
X127950000Y-90595000D02*
X121550000Y-90595000D01*
X127950000Y-85905000D02*
X127950000Y-90595000D01*
X121550000Y-90595000D02*
X121550000Y-85905000D01*
X121550000Y-85905000D02*
X127950000Y-85905000D01*
%TO.C,IC1*%
X99900000Y-79375000D02*
X99900000Y-78125000D01*
X100000000Y-77775000D02*
X100000000Y-77225000D01*
X103000000Y-77775000D02*
X100000000Y-77775000D01*
X100000000Y-77225000D02*
X103000000Y-77225000D01*
X103000000Y-77225000D02*
X103000000Y-77775000D01*
%TO.C,BR1*%
X84325000Y-91160000D02*
X78675000Y-91160000D01*
X84325000Y-82840000D02*
X84325000Y-91160000D01*
X78675000Y-91160000D02*
X78675000Y-82840000D01*
X78675000Y-82840000D02*
X84325000Y-82840000D01*
X75975000Y-83425000D02*
X78325000Y-83425000D01*
D13*
%TO.C,C107*%
X95880000Y-53880000D02*
X95880000Y-61120000D01*
X95880000Y-53880000D02*
X115120000Y-53880000D01*
X95880000Y-61120000D02*
X115120000Y-61120000D01*
X115120000Y-53880000D02*
X115120000Y-61120000D01*
%TO.C,C58*%
X113090000Y-79461252D02*
X113090000Y-78038748D01*
X114910000Y-79461252D02*
X114910000Y-78038748D01*
%TO.C,D10*%
X150400000Y-65740000D02*
X147100000Y-65740000D01*
X150400000Y-65740000D02*
X150400000Y-71250000D01*
X147100000Y-65740000D02*
X147100000Y-71250000D01*
%TO.C,C110*%
X157159698Y-82815000D02*
X156359698Y-82815000D01*
X156759698Y-83215000D02*
X156759698Y-82415000D01*
X152750000Y-84580000D02*
X152750000Y-76420000D01*
X152710000Y-84580000D02*
X152710000Y-76420000D01*
X152670000Y-84579000D02*
X152670000Y-76421000D01*
X152630000Y-84578000D02*
X152630000Y-76422000D01*
X152590000Y-84577000D02*
X152590000Y-76423000D01*
X152550000Y-84575000D02*
X152550000Y-76425000D01*
X152510000Y-84573000D02*
X152510000Y-76427000D01*
X152470000Y-84570000D02*
X152470000Y-76430000D01*
X152430000Y-84568000D02*
X152430000Y-76432000D01*
X152390000Y-84564000D02*
X152390000Y-76436000D01*
X152350000Y-84561000D02*
X152350000Y-76439000D01*
X152310000Y-84556000D02*
X152310000Y-76444000D01*
X152270000Y-84552000D02*
X152270000Y-76448000D01*
X152230000Y-84547000D02*
X152230000Y-76453000D01*
X152190000Y-84542000D02*
X152190000Y-76458000D01*
X152150000Y-84536000D02*
X152150000Y-76464000D01*
X152110000Y-84530000D02*
X152110000Y-76470000D01*
X152070000Y-84523000D02*
X152070000Y-76477000D01*
X152030000Y-84517000D02*
X152030000Y-81540000D01*
X152030000Y-79460000D02*
X152030000Y-76483000D01*
X151990000Y-84509000D02*
X151990000Y-81540000D01*
X151990000Y-79460000D02*
X151990000Y-76491000D01*
X151950000Y-84502000D02*
X151950000Y-81540000D01*
X151950000Y-79460000D02*
X151950000Y-76498000D01*
X151910000Y-84493000D02*
X151910000Y-81540000D01*
X151910000Y-79460000D02*
X151910000Y-76507000D01*
X151870000Y-84485000D02*
X151870000Y-81540000D01*
X151870000Y-79460000D02*
X151870000Y-76515000D01*
X151830000Y-84476000D02*
X151830000Y-81540000D01*
X151830000Y-79460000D02*
X151830000Y-76524000D01*
X151790000Y-84467000D02*
X151790000Y-81540000D01*
X151790000Y-79460000D02*
X151790000Y-76533000D01*
X151750000Y-84457000D02*
X151750000Y-81540000D01*
X151750000Y-79460000D02*
X151750000Y-76543000D01*
X151710000Y-84447000D02*
X151710000Y-81540000D01*
X151710000Y-79460000D02*
X151710000Y-76553000D01*
X151670000Y-84436000D02*
X151670000Y-81540000D01*
X151670000Y-79460000D02*
X151670000Y-76564000D01*
X151630000Y-84425000D02*
X151630000Y-81540000D01*
X151630000Y-79460000D02*
X151630000Y-76575000D01*
X151590000Y-84413000D02*
X151590000Y-81540000D01*
X151590000Y-79460000D02*
X151590000Y-76587000D01*
X151550000Y-84401000D02*
X151550000Y-81540000D01*
X151550000Y-79460000D02*
X151550000Y-76599000D01*
X151510000Y-84389000D02*
X151510000Y-81540000D01*
X151510000Y-79460000D02*
X151510000Y-76611000D01*
X151470000Y-84376000D02*
X151470000Y-81540000D01*
X151470000Y-79460000D02*
X151470000Y-76624000D01*
X151430000Y-84363000D02*
X151430000Y-81540000D01*
X151430000Y-79460000D02*
X151430000Y-76637000D01*
X151390000Y-84349000D02*
X151390000Y-81540000D01*
X151390000Y-79460000D02*
X151390000Y-76651000D01*
X151350000Y-84335000D02*
X151350000Y-81540000D01*
X151350000Y-79460000D02*
X151350000Y-76665000D01*
X151310000Y-84320000D02*
X151310000Y-81540000D01*
X151310000Y-79460000D02*
X151310000Y-76680000D01*
X151270000Y-84305000D02*
X151270000Y-81540000D01*
X151270000Y-79460000D02*
X151270000Y-76695000D01*
X151230000Y-84289000D02*
X151230000Y-81540000D01*
X151230000Y-79460000D02*
X151230000Y-76711000D01*
X151190000Y-84273000D02*
X151190000Y-81540000D01*
X151190000Y-79460000D02*
X151190000Y-76727000D01*
X151150000Y-84257000D02*
X151150000Y-81540000D01*
X151150000Y-79460000D02*
X151150000Y-76743000D01*
X151110000Y-84240000D02*
X151110000Y-81540000D01*
X151110000Y-79460000D02*
X151110000Y-76760000D01*
X151070000Y-84222000D02*
X151070000Y-81540000D01*
X151070000Y-79460000D02*
X151070000Y-76778000D01*
X151030000Y-84204000D02*
X151030000Y-81540000D01*
X151030000Y-79460000D02*
X151030000Y-76796000D01*
X150990000Y-84185000D02*
X150990000Y-81540000D01*
X150990000Y-79460000D02*
X150990000Y-76815000D01*
X150950000Y-84166000D02*
X150950000Y-81540000D01*
X150950000Y-79460000D02*
X150950000Y-76834000D01*
X150910000Y-84146000D02*
X150910000Y-81540000D01*
X150910000Y-79460000D02*
X150910000Y-76854000D01*
X150870000Y-84126000D02*
X150870000Y-81540000D01*
X150870000Y-79460000D02*
X150870000Y-76874000D01*
X150830000Y-84105000D02*
X150830000Y-81540000D01*
X150830000Y-79460000D02*
X150830000Y-76895000D01*
X150790000Y-84084000D02*
X150790000Y-81540000D01*
X150790000Y-79460000D02*
X150790000Y-76916000D01*
X150750000Y-84062000D02*
X150750000Y-81540000D01*
X150750000Y-79460000D02*
X150750000Y-76938000D01*
X150710000Y-84039000D02*
X150710000Y-81540000D01*
X150710000Y-79460000D02*
X150710000Y-76961000D01*
X150670000Y-84016000D02*
X150670000Y-81540000D01*
X150670000Y-79460000D02*
X150670000Y-76984000D01*
X150630000Y-83993000D02*
X150630000Y-81540000D01*
X150630000Y-79460000D02*
X150630000Y-77007000D01*
X150590000Y-83968000D02*
X150590000Y-81540000D01*
X150590000Y-79460000D02*
X150590000Y-77032000D01*
X150550000Y-83943000D02*
X150550000Y-81540000D01*
X150550000Y-79460000D02*
X150550000Y-77057000D01*
X150510000Y-83918000D02*
X150510000Y-81540000D01*
X150510000Y-79460000D02*
X150510000Y-77082000D01*
X150470000Y-83892000D02*
X150470000Y-81540000D01*
X150470000Y-79460000D02*
X150470000Y-77108000D01*
X150430000Y-83865000D02*
X150430000Y-81540000D01*
X150430000Y-79460000D02*
X150430000Y-77135000D01*
X150390000Y-83837000D02*
X150390000Y-81540000D01*
X150390000Y-79460000D02*
X150390000Y-77163000D01*
X150350000Y-83809000D02*
X150350000Y-81540000D01*
X150350000Y-79460000D02*
X150350000Y-77191000D01*
X150310000Y-83780000D02*
X150310000Y-81540000D01*
X150310000Y-79460000D02*
X150310000Y-77220000D01*
X150270000Y-83750000D02*
X150270000Y-81540000D01*
X150270000Y-79460000D02*
X150270000Y-77250000D01*
X150230000Y-83719000D02*
X150230000Y-81540000D01*
X150230000Y-79460000D02*
X150230000Y-77281000D01*
X150190000Y-83688000D02*
X150190000Y-81540000D01*
X150190000Y-79460000D02*
X150190000Y-77312000D01*
X150150000Y-83656000D02*
X150150000Y-81540000D01*
X150150000Y-79460000D02*
X150150000Y-77344000D01*
X150110000Y-83623000D02*
X150110000Y-81540000D01*
X150110000Y-79460000D02*
X150110000Y-77377000D01*
X150070000Y-83589000D02*
X150070000Y-81540000D01*
X150070000Y-79460000D02*
X150070000Y-77411000D01*
X150030000Y-83555000D02*
X150030000Y-81540000D01*
X150030000Y-79460000D02*
X150030000Y-77445000D01*
X149990000Y-83519000D02*
X149990000Y-81540000D01*
X149990000Y-79460000D02*
X149990000Y-77481000D01*
X149950000Y-83482000D02*
X149950000Y-77518000D01*
X149910000Y-83445000D02*
X149910000Y-77555000D01*
X149870000Y-83406000D02*
X149870000Y-77594000D01*
X149830000Y-83367000D02*
X149830000Y-77633000D01*
X149790000Y-83326000D02*
X149790000Y-77674000D01*
X149750000Y-83284000D02*
X149750000Y-77716000D01*
X149710000Y-83241000D02*
X149710000Y-77759000D01*
X149670000Y-83196000D02*
X149670000Y-77804000D01*
X149630000Y-83151000D02*
X149630000Y-77849000D01*
X149590000Y-83104000D02*
X149590000Y-77896000D01*
X149550000Y-83055000D02*
X149550000Y-77945000D01*
X149510000Y-83005000D02*
X149510000Y-77995000D01*
X149470000Y-82953000D02*
X149470000Y-78047000D01*
X149430000Y-82900000D02*
X149430000Y-78100000D01*
X149390000Y-82844000D02*
X149390000Y-78156000D01*
X149350000Y-82787000D02*
X149350000Y-78213000D01*
X149310000Y-82727000D02*
X149310000Y-78273000D01*
X149270000Y-82665000D02*
X149270000Y-78335000D01*
X149230000Y-82601000D02*
X149230000Y-78399000D01*
X149190000Y-82534000D02*
X149190000Y-78466000D01*
X149150000Y-82464000D02*
X149150000Y-78536000D01*
X149110000Y-82390000D02*
X149110000Y-78610000D01*
X149070000Y-82313000D02*
X149070000Y-78687000D01*
X149030000Y-82231000D02*
X149030000Y-78769000D01*
X148990000Y-82144000D02*
X148990000Y-78856000D01*
X148950000Y-82052000D02*
X148950000Y-78948000D01*
X148910000Y-81953000D02*
X148910000Y-79047000D01*
X148870000Y-81846000D02*
X148870000Y-79154000D01*
X148830000Y-81728000D02*
X148830000Y-79272000D01*
X148790000Y-81597000D02*
X148790000Y-79403000D01*
X148750000Y-81447000D02*
X148750000Y-79553000D01*
X148710000Y-81268000D02*
X148710000Y-79732000D01*
X148670000Y-81033000D02*
X148670000Y-79967000D01*
X156870000Y-80500000D02*
G75*
G02*
X148630000Y-80500000I-4120000J0D01*
G01*
X148630000Y-80500000D02*
G75*
G02*
X156870000Y-80500000I4120000J0D01*
G01*
%TO.C,C102*%
X88880000Y-91345000D02*
X97120000Y-91345000D01*
X88880000Y-91345000D02*
X88880000Y-78105000D01*
X97120000Y-91345000D02*
X97120000Y-78105000D01*
X88880000Y-78105000D02*
X97120000Y-78105000D01*
%TO.C,C101*%
X61380000Y-82730000D02*
X61380000Y-90970000D01*
X61380000Y-82730000D02*
X74620000Y-82730000D01*
X61380000Y-90970000D02*
X74620000Y-90970000D01*
X74620000Y-82730000D02*
X74620000Y-90970000D01*
%TO.C,C109*%
X133630000Y-55380000D02*
X133630000Y-60620000D01*
X133630000Y-55380000D02*
X146370000Y-55380000D01*
X133630000Y-60620000D02*
X146370000Y-60620000D01*
X146370000Y-55380000D02*
X146370000Y-60620000D01*
%TO.C,C108*%
X115630000Y-55380000D02*
X115630000Y-60620000D01*
X115630000Y-55380000D02*
X128370000Y-55380000D01*
X115630000Y-60620000D02*
X128370000Y-60620000D01*
X128370000Y-55380000D02*
X128370000Y-60620000D01*
%TO.C,C104*%
X71380000Y-64070000D02*
X76620000Y-64070000D01*
X71380000Y-64070000D02*
X71380000Y-51330000D01*
X76620000Y-64070000D02*
X76620000Y-51330000D01*
X71380000Y-51330000D02*
X76620000Y-51330000D01*
%TO.C,C21*%
X145288748Y-76390000D02*
X146711252Y-76390000D01*
X145288748Y-79110000D02*
X146711252Y-79110000D01*
%TO.C,R14*%
X114512742Y-89727500D02*
X114987258Y-89727500D01*
X114512742Y-90772500D02*
X114987258Y-90772500D01*
%TO.C,R16*%
X102477500Y-91487258D02*
X102477500Y-91012742D01*
X103522500Y-91487258D02*
X103522500Y-91012742D01*
%TO.C,R20*%
X132012742Y-89477500D02*
X132487258Y-89477500D01*
X132012742Y-90522500D02*
X132487258Y-90522500D01*
%TO.C,R15*%
X103977500Y-91137258D02*
X103977500Y-90662742D01*
X105022500Y-91137258D02*
X105022500Y-90662742D01*
%TO.C,R17*%
X102477500Y-88012742D02*
X102477500Y-88487258D01*
X103522500Y-88012742D02*
X103522500Y-88487258D01*
%TO.C,C20*%
X145288748Y-79640000D02*
X146711252Y-79640000D01*
X145288748Y-82360000D02*
X146711252Y-82360000D01*
%TO.C,R12*%
X111487258Y-85727500D02*
X111012742Y-85727500D01*
X111487258Y-86772500D02*
X111012742Y-86772500D01*
%TO.C,R25*%
X142762742Y-85727500D02*
X143237258Y-85727500D01*
X142762742Y-86772500D02*
X143237258Y-86772500D01*
%TO.C,D7*%
X109890000Y-90150000D02*
X109890000Y-91850000D01*
X109890000Y-90150000D02*
X112550000Y-90150000D01*
X109890000Y-91850000D02*
X112550000Y-91850000D01*
%TO.C,R6*%
X104227500Y-79987258D02*
X104227500Y-79512742D01*
X105272500Y-79987258D02*
X105272500Y-79512742D01*
%TO.C,C11*%
X106140000Y-83711252D02*
X106140000Y-82288748D01*
X108860000Y-83711252D02*
X108860000Y-82288748D01*
%TO.C,R85*%
X117410000Y-75272936D02*
X117410000Y-76727064D01*
X115590000Y-75272936D02*
X115590000Y-76727064D01*
%TO.C,R3*%
X117410000Y-70772936D02*
X117410000Y-72227064D01*
X115590000Y-70772936D02*
X115590000Y-72227064D01*
%TO.C,D3*%
X104150000Y-89360000D02*
X104150000Y-86700000D01*
X104150000Y-89360000D02*
X105850000Y-89360000D01*
X105850000Y-89360000D02*
X105850000Y-86700000D01*
%TO.C,R23*%
X135762742Y-85727500D02*
X136237258Y-85727500D01*
X135762742Y-86772500D02*
X136237258Y-86772500D01*
%TO.C,C10*%
X102890000Y-84461252D02*
X102890000Y-83038748D01*
X105610000Y-84461252D02*
X105610000Y-83038748D01*
%TO.C,C19*%
X145288748Y-73140000D02*
X146711252Y-73140000D01*
X145288748Y-75860000D02*
X146711252Y-75860000D01*
%TO.C,C9*%
X113211252Y-64640000D02*
X111788748Y-64640000D01*
X113211252Y-67360000D02*
X111788748Y-67360000D01*
%TO.C,R84*%
X105727500Y-79237258D02*
X105727500Y-78762742D01*
X106772500Y-79237258D02*
X106772500Y-78762742D01*
%TO.C,R19*%
X136237258Y-88727500D02*
X135762742Y-88727500D01*
X136237258Y-89772500D02*
X135762742Y-89772500D01*
%TO.C,C12*%
X109390000Y-83711252D02*
X109390000Y-82288748D01*
X112110000Y-83711252D02*
X112110000Y-82288748D01*
%TO.C,D1*%
X98390000Y-73150000D02*
X98390000Y-74850000D01*
X98390000Y-73150000D02*
X101050000Y-73150000D01*
X98390000Y-74850000D02*
X101050000Y-74850000D01*
%TO.C,R21*%
X139737258Y-87477500D02*
X139262742Y-87477500D01*
X139737258Y-88522500D02*
X139262742Y-88522500D01*
%TO.C,R22*%
X139737258Y-88977500D02*
X139262742Y-88977500D01*
X139737258Y-90022500D02*
X139262742Y-90022500D01*
%TO.C,C106*%
X74880000Y-65280000D02*
X74880000Y-73520000D01*
X74880000Y-65280000D02*
X88120000Y-65280000D01*
X74880000Y-73520000D02*
X88120000Y-73520000D01*
X88120000Y-65280000D02*
X88120000Y-73520000D01*
%TO.C,C103*%
X77880000Y-64070000D02*
X83120000Y-64070000D01*
X77880000Y-64070000D02*
X77880000Y-51330000D01*
X83120000Y-64070000D02*
X83120000Y-51330000D01*
X77880000Y-51330000D02*
X83120000Y-51330000D01*
%TD*%
M02*
