%TF.GenerationSoftware,KiCad,Pcbnew,9.0.2*%
%TF.CreationDate,2026-03-04T08:25:36+01:00*%
%TF.ProjectId,OSLUV_OfflineConverter,4f534c55-565f-44f6-9666-6c696e65436f,01*%
%TF.SameCoordinates,Original*%
%TF.FileFunction,Legend,Bot*%
%TF.FilePolarity,Positive*%
%FSLAX46Y46*%
G04 Gerber Fmt 4.6, Leading zero omitted, Abs format (unit mm)*
G04 Created by KiCad (PCBNEW 9.0.2) date 2026-03-04 08:25:36*
%MOMM*%
%LPD*%
G01*
G04 APERTURE LIST*
%ADD10C,0.150000*%
%ADD11C,0.100000*%
G04 APERTURE END LIST*
D10*
X157132390Y-73041792D02*
X157094295Y-73117982D01*
X157094295Y-73117982D02*
X157094295Y-73232268D01*
X157094295Y-73232268D02*
X157132390Y-73346554D01*
X157132390Y-73346554D02*
X157208580Y-73422744D01*
X157208580Y-73422744D02*
X157284771Y-73460839D01*
X157284771Y-73460839D02*
X157437152Y-73498935D01*
X157437152Y-73498935D02*
X157551438Y-73498935D01*
X157551438Y-73498935D02*
X157703819Y-73460839D01*
X157703819Y-73460839D02*
X157780009Y-73422744D01*
X157780009Y-73422744D02*
X157856200Y-73346554D01*
X157856200Y-73346554D02*
X157894295Y-73232268D01*
X157894295Y-73232268D02*
X157894295Y-73156077D01*
X157894295Y-73156077D02*
X157856200Y-73041792D01*
X157856200Y-73041792D02*
X157818104Y-73003696D01*
X157818104Y-73003696D02*
X157551438Y-73003696D01*
X157551438Y-73003696D02*
X157551438Y-73156077D01*
X157894295Y-72660839D02*
X157094295Y-72660839D01*
X157094295Y-72660839D02*
X157894295Y-72203696D01*
X157894295Y-72203696D02*
X157094295Y-72203696D01*
X157894295Y-71822744D02*
X157094295Y-71822744D01*
X157094295Y-71822744D02*
X157094295Y-71632268D01*
X157094295Y-71632268D02*
X157132390Y-71517982D01*
X157132390Y-71517982D02*
X157208580Y-71441792D01*
X157208580Y-71441792D02*
X157284771Y-71403697D01*
X157284771Y-71403697D02*
X157437152Y-71365601D01*
X157437152Y-71365601D02*
X157551438Y-71365601D01*
X157551438Y-71365601D02*
X157703819Y-71403697D01*
X157703819Y-71403697D02*
X157780009Y-71441792D01*
X157780009Y-71441792D02*
X157856200Y-71517982D01*
X157856200Y-71517982D02*
X157894295Y-71632268D01*
X157894295Y-71632268D02*
X157894295Y-71822744D01*
X157170485Y-65998935D02*
X157132390Y-65960839D01*
X157132390Y-65960839D02*
X157094295Y-65884649D01*
X157094295Y-65884649D02*
X157094295Y-65694173D01*
X157094295Y-65694173D02*
X157132390Y-65617982D01*
X157132390Y-65617982D02*
X157170485Y-65579887D01*
X157170485Y-65579887D02*
X157246676Y-65541792D01*
X157246676Y-65541792D02*
X157322866Y-65541792D01*
X157322866Y-65541792D02*
X157437152Y-65579887D01*
X157437152Y-65579887D02*
X157894295Y-66037030D01*
X157894295Y-66037030D02*
X157894295Y-65541792D01*
X157360961Y-64856077D02*
X157894295Y-64856077D01*
X157056200Y-65046553D02*
X157627628Y-65237030D01*
X157627628Y-65237030D02*
X157627628Y-64741791D01*
X157094295Y-64551315D02*
X157894295Y-64284648D01*
X157894295Y-64284648D02*
X157094295Y-64017982D01*
D11*
X150500000Y-54250000D02*
X151500000Y-54250000D01*
X150750000Y-54500000D02*
X151250000Y-54500000D01*
X150250000Y-54000000D02*
X151750000Y-54000000D01*
X151000000Y-53000000D02*
X151000000Y-54000000D01*
X58750000Y-54500000D02*
X59750000Y-54500000D01*
X59250000Y-53250000D02*
X59250000Y-54250000D01*
X59000000Y-54750000D02*
X59500000Y-54750000D01*
X58500000Y-54250000D02*
X60000000Y-54250000D01*
X51250000Y-62000000D02*
X51750000Y-62000000D01*
X51000000Y-61750000D02*
X52000000Y-61750000D01*
X50750000Y-61500000D02*
X52250000Y-61500000D01*
X51500000Y-60500000D02*
X51500000Y-61500000D01*
D10*
X51289160Y-77644295D02*
X51289160Y-76844295D01*
X51289160Y-76844295D02*
X51746303Y-77644295D01*
X51746303Y-77644295D02*
X51746303Y-76844295D01*
X51670112Y-69644295D02*
X51289160Y-69644295D01*
X51289160Y-69644295D02*
X51289160Y-68844295D01*
M02*
