%TF.GenerationSoftware,KiCad,Pcbnew,9.0.2*%
%TF.CreationDate,2026-03-04T08:25:36+01:00*%
%TF.ProjectId,OSLUV_OfflineConverter,4f534c55-565f-44f6-9666-6c696e65436f,01*%
%TF.SameCoordinates,Original*%
%TF.FileFunction,Paste,Top*%
%TF.FilePolarity,Positive*%
%FSLAX46Y46*%
G04 Gerber Fmt 4.6, Leading zero omitted, Abs format (unit mm)*
G04 Created by KiCad (PCBNEW 9.0.2) date 2026-03-04 08:25:36*
%MOMM*%
%LPD*%
G01*
G04 APERTURE LIST*
G04 Aperture macros list*
%AMRoundRect*
0 Rectangle with rounded corners*
0 $1 Rounding radius*
0 $2 $3 $4 $5 $6 $7 $8 $9 X,Y pos of 4 corners*
0 Add a 4 corners polygon primitive as box body*
4,1,4,$2,$3,$4,$5,$6,$7,$8,$9,$2,$3,0*
0 Add four circle primitives for the rounded corners*
1,1,$1+$1,$2,$3*
1,1,$1+$1,$4,$5*
1,1,$1+$1,$6,$7*
1,1,$1+$1,$8,$9*
0 Add four rect primitives between the rounded corners*
20,1,$1+$1,$2,$3,$4,$5,0*
20,1,$1+$1,$4,$5,$6,$7,0*
20,1,$1+$1,$6,$7,$8,$9,0*
20,1,$1+$1,$8,$9,$2,$3,0*%
G04 Aperture macros list end*
%ADD10RoundRect,0.112500X0.187500X0.112500X-0.187500X0.112500X-0.187500X-0.112500X0.187500X-0.112500X0*%
%ADD11RoundRect,0.225000X-0.225000X-0.250000X0.225000X-0.250000X0.225000X0.250000X-0.225000X0.250000X0*%
%ADD12RoundRect,0.250000X-1.000000X-0.650000X1.000000X-0.650000X1.000000X0.650000X-1.000000X0.650000X0*%
%ADD13RoundRect,0.250000X0.650000X-1.000000X0.650000X1.000000X-0.650000X1.000000X-0.650000X-1.000000X0*%
%ADD14RoundRect,0.250000X-0.650000X1.000000X-0.650000X-1.000000X0.650000X-1.000000X0.650000X1.000000X0*%
%ADD15RoundRect,0.200000X0.200000X0.275000X-0.200000X0.275000X-0.200000X-0.275000X0.200000X-0.275000X0*%
%ADD16R,1.850000X1.550000*%
%ADD17R,0.600000X1.250000*%
%ADD18R,2.350000X1.350000*%
%ADD19RoundRect,0.250000X0.625000X-0.312500X0.625000X0.312500X-0.625000X0.312500X-0.625000X-0.312500X0*%
%ADD20RoundRect,0.250000X0.650000X-0.412500X0.650000X0.412500X-0.650000X0.412500X-0.650000X-0.412500X0*%
%ADD21RoundRect,0.250000X-0.325000X-1.100000X0.325000X-1.100000X0.325000X1.100000X-0.325000X1.100000X0*%
%ADD22RoundRect,0.250000X-0.625000X0.312500X-0.625000X-0.312500X0.625000X-0.312500X0.625000X0.312500X0*%
%ADD23RoundRect,0.200000X-0.200000X-0.275000X0.200000X-0.275000X0.200000X0.275000X-0.200000X0.275000X0*%
%ADD24RoundRect,0.200000X0.275000X-0.200000X0.275000X0.200000X-0.275000X0.200000X-0.275000X-0.200000X0*%
%ADD25RoundRect,0.200000X-0.275000X0.200000X-0.275000X-0.200000X0.275000X-0.200000X0.275000X0.200000X0*%
%ADD26RoundRect,0.250000X-0.475000X0.250000X-0.475000X-0.250000X0.475000X-0.250000X0.475000X0.250000X0*%
%ADD27RoundRect,0.250000X-0.850000X-0.350000X0.850000X-0.350000X0.850000X0.350000X-0.850000X0.350000X0*%
%ADD28RoundRect,0.250000X-1.275000X-1.125000X1.275000X-1.125000X1.275000X1.125000X-1.275000X1.125000X0*%
%ADD29RoundRect,0.225000X0.225000X0.250000X-0.225000X0.250000X-0.225000X-0.250000X0.225000X-0.250000X0*%
%ADD30RoundRect,0.125000X-0.125000X-0.125000X0.125000X-0.125000X0.125000X0.125000X-0.125000X0.125000X0*%
%ADD31RoundRect,0.250000X1.100000X-0.325000X1.100000X0.325000X-1.100000X0.325000X-1.100000X-0.325000X0*%
%ADD32RoundRect,0.250000X0.312500X0.625000X-0.312500X0.625000X-0.312500X-0.625000X0.312500X-0.625000X0*%
%ADD33RoundRect,0.125000X0.125000X-0.125000X0.125000X0.125000X-0.125000X0.125000X-0.125000X-0.125000X0*%
%ADD34RoundRect,0.150000X0.150000X-0.587500X0.150000X0.587500X-0.150000X0.587500X-0.150000X-0.587500X0*%
%ADD35RoundRect,0.225000X0.250000X-0.225000X0.250000X0.225000X-0.250000X0.225000X-0.250000X-0.225000X0*%
%ADD36RoundRect,0.150000X-0.587500X-0.150000X0.587500X-0.150000X0.587500X0.150000X-0.587500X0.150000X0*%
%ADD37RoundRect,0.250000X0.325000X1.100000X-0.325000X1.100000X-0.325000X-1.100000X0.325000X-1.100000X0*%
%ADD38RoundRect,0.250000X0.450000X-0.262500X0.450000X0.262500X-0.450000X0.262500X-0.450000X-0.262500X0*%
%ADD39RoundRect,0.250000X-0.262500X-0.450000X0.262500X-0.450000X0.262500X0.450000X-0.262500X0.450000X0*%
%ADD40RoundRect,0.225000X-0.250000X0.225000X-0.250000X-0.225000X0.250000X-0.225000X0.250000X0.225000X0*%
G04 APERTURE END LIST*
D10*
%TO.C,D9*%
X137050000Y-91000000D03*
X134950000Y-91000000D03*
%TD*%
%TO.C,D4*%
X112300000Y-88250000D03*
X110200000Y-88250000D03*
%TD*%
D11*
%TO.C,C14*%
X113975000Y-91750000D03*
X115525000Y-91750000D03*
%TD*%
D12*
%TO.C,D2*%
X101000000Y-66500000D03*
X105000000Y-66500000D03*
%TD*%
D10*
%TO.C,D6*%
X109050000Y-91000000D03*
X106950000Y-91000000D03*
%TD*%
D13*
%TO.C,D5*%
X114750000Y-87750000D03*
X114750000Y-83750000D03*
%TD*%
D14*
%TO.C,D8*%
X145250000Y-67250000D03*
X145250000Y-71250000D03*
%TD*%
D15*
%TO.C,R83*%
X142175000Y-89250000D03*
X143825000Y-89250000D03*
%TD*%
%TO.C,R24*%
X142175000Y-87750000D03*
X143825000Y-87750000D03*
%TD*%
D16*
%TO.C,IC2*%
X129225000Y-89520000D03*
X129225000Y-86980000D03*
X120275000Y-86980000D03*
X120275000Y-89520000D03*
%TD*%
D17*
%TO.C,IC1*%
X100550000Y-78750000D03*
X101500000Y-78750000D03*
X102450000Y-78750000D03*
X102450000Y-76250000D03*
X101500000Y-76250000D03*
X100550000Y-76250000D03*
%TD*%
D18*
%TO.C,BR1*%
X85850000Y-84450000D03*
X85850000Y-89550000D03*
X77150000Y-89550000D03*
X77150000Y-84450000D03*
%TD*%
D19*
%TO.C,R18*%
X145250000Y-61787500D03*
X145250000Y-64712500D03*
%TD*%
D20*
%TO.C,C58*%
X114000000Y-80312500D03*
X114000000Y-77187500D03*
%TD*%
D14*
%TO.C,D10*%
X148750000Y-67250000D03*
X148750000Y-71250000D03*
%TD*%
D11*
%TO.C,C22*%
X138725000Y-86250000D03*
X140275000Y-86250000D03*
%TD*%
D21*
%TO.C,C21*%
X144525000Y-77750000D03*
X147475000Y-77750000D03*
%TD*%
D22*
%TO.C,R2*%
X110500000Y-76787500D03*
X110500000Y-79712500D03*
%TD*%
D23*
%TO.C,R14*%
X113925000Y-90250000D03*
X115575000Y-90250000D03*
%TD*%
D24*
%TO.C,R16*%
X103000000Y-92075000D03*
X103000000Y-90425000D03*
%TD*%
D23*
%TO.C,R20*%
X131425000Y-90000000D03*
X133075000Y-90000000D03*
%TD*%
D24*
%TO.C,R15*%
X104500000Y-91725000D03*
X104500000Y-90075000D03*
%TD*%
D25*
%TO.C,R17*%
X103000000Y-87425000D03*
X103000000Y-89075000D03*
%TD*%
D26*
%TO.C,C18*%
X147750000Y-62300000D03*
X147750000Y-64200000D03*
%TD*%
D21*
%TO.C,C20*%
X144525000Y-81000000D03*
X147475000Y-81000000D03*
%TD*%
D22*
%TO.C,R8*%
X99750000Y-88537500D03*
X99750000Y-91462500D03*
%TD*%
D15*
%TO.C,R12*%
X112075000Y-86250000D03*
X110425000Y-86250000D03*
%TD*%
D27*
%TO.C,T101*%
X103760000Y-74030000D03*
X103760000Y-69470000D03*
D28*
X111735000Y-73275000D03*
X111735000Y-70225000D03*
X108385000Y-73275000D03*
X108385000Y-70225000D03*
%TD*%
D23*
%TO.C,R25*%
X142175000Y-86250000D03*
X143825000Y-86250000D03*
%TD*%
D29*
%TO.C,C15*%
X102015000Y-80500000D03*
X100465000Y-80500000D03*
%TD*%
D30*
%TO.C,D7*%
X110400000Y-91000000D03*
X112600000Y-91000000D03*
%TD*%
D24*
%TO.C,R6*%
X104750000Y-80575000D03*
X104750000Y-78925000D03*
%TD*%
D31*
%TO.C,C11*%
X107500000Y-84475000D03*
X107500000Y-81525000D03*
%TD*%
D22*
%TO.C,R85*%
X116500000Y-74537500D03*
X116500000Y-77462500D03*
%TD*%
D32*
%TO.C,R11*%
X104712500Y-62500000D03*
X101787500Y-62500000D03*
%TD*%
D22*
%TO.C,R3*%
X116500000Y-70037500D03*
X116500000Y-72962500D03*
%TD*%
%TO.C,R1*%
X108250000Y-76787500D03*
X108250000Y-79712500D03*
%TD*%
D33*
%TO.C,D3*%
X105000000Y-88850000D03*
X105000000Y-86650000D03*
%TD*%
D22*
%TO.C,R7*%
X99750000Y-83787500D03*
X99750000Y-86712500D03*
%TD*%
D11*
%TO.C,C23*%
X135225000Y-87750000D03*
X136775000Y-87750000D03*
%TD*%
D34*
%TO.C,T1*%
X106800000Y-88437500D03*
X108700000Y-88437500D03*
X107750000Y-86562500D03*
%TD*%
D35*
%TO.C,C7*%
X104100000Y-77525000D03*
X104100000Y-75975000D03*
%TD*%
D23*
%TO.C,R23*%
X135175000Y-86250000D03*
X136825000Y-86250000D03*
%TD*%
D31*
%TO.C,C10*%
X104250000Y-85225000D03*
X104250000Y-82275000D03*
%TD*%
D21*
%TO.C,C19*%
X144525000Y-74500000D03*
X147475000Y-74500000D03*
%TD*%
D36*
%TO.C,IC3*%
X131562500Y-86300000D03*
X131562500Y-88200000D03*
X133437500Y-87250000D03*
%TD*%
D37*
%TO.C,C9*%
X113975000Y-66000000D03*
X111025000Y-66000000D03*
%TD*%
D24*
%TO.C,R84*%
X106250000Y-79825000D03*
X106250000Y-78175000D03*
%TD*%
D38*
%TO.C,R4*%
X101250000Y-71412500D03*
X101250000Y-69587500D03*
%TD*%
%TO.C,R5*%
X99250000Y-71412500D03*
X99250000Y-69587500D03*
%TD*%
D15*
%TO.C,R19*%
X136825000Y-89250000D03*
X135175000Y-89250000D03*
%TD*%
D31*
%TO.C,C12*%
X110750000Y-84475000D03*
X110750000Y-81525000D03*
%TD*%
D30*
%TO.C,D1*%
X98900000Y-74000000D03*
X101100000Y-74000000D03*
%TD*%
D32*
%TO.C,R10*%
X109962500Y-62500000D03*
X107037500Y-62500000D03*
%TD*%
D15*
%TO.C,R21*%
X140325000Y-88000000D03*
X138675000Y-88000000D03*
%TD*%
D39*
%TO.C,R26*%
X141837500Y-91000000D03*
X143662500Y-91000000D03*
%TD*%
D15*
%TO.C,R22*%
X140325000Y-89500000D03*
X138675000Y-89500000D03*
%TD*%
D40*
%TO.C,C8*%
X98750000Y-77475000D03*
X98750000Y-79025000D03*
%TD*%
D32*
%TO.C,R9*%
X114712500Y-62500000D03*
X111787500Y-62500000D03*
%TD*%
M02*
