%TF.GenerationSoftware,KiCad,Pcbnew,9.0.2*%
%TF.CreationDate,2026-03-04T08:25:36+01:00*%
%TF.ProjectId,OSLUV_OfflineConverter,4f534c55-565f-44f6-9666-6c696e65436f,01*%
%TF.SameCoordinates,Original*%
%TF.FileFunction,Soldermask,Bot*%
%TF.FilePolarity,Negative*%
%FSLAX46Y46*%
G04 Gerber Fmt 4.6, Leading zero omitted, Abs format (unit mm)*
G04 Created by KiCad (PCBNEW 9.0.2) date 2026-03-04 08:25:36*
%MOMM*%
%LPD*%
G01*
G04 APERTURE LIST*
%ADD10C,3.540000*%
%ADD11R,2.000000X2.000000*%
%ADD12C,2.000000*%
%ADD13R,1.600000X1.600000*%
%ADD14C,1.600000*%
%ADD15R,1.200000X1.200000*%
%ADD16C,1.200000*%
%ADD17R,1.550000X1.550000*%
%ADD18C,1.550000*%
%ADD19R,1.800000X1.800000*%
%ADD20C,1.700000*%
%ADD21C,1.800000*%
%ADD22C,2.400000*%
%ADD23C,0.600000*%
%ADD24C,6.600000*%
G04 APERTURE END LIST*
D10*
%TO.C,J1*%
X54450000Y-61300000D03*
X54450000Y-69225000D03*
X54450000Y-77150000D03*
%TD*%
D11*
%TO.C,L104*%
X120000000Y-65770000D03*
D12*
X120000000Y-68260000D03*
X120000000Y-70750000D03*
X120000000Y-75750000D03*
X120000000Y-78240000D03*
X120000000Y-80730000D03*
X140000000Y-81965000D03*
X140000000Y-79475000D03*
X140000000Y-76985000D03*
X140000000Y-74495000D03*
X140000000Y-72005000D03*
X140000000Y-69515000D03*
X140000000Y-67025000D03*
X140000000Y-64535000D03*
%TD*%
D13*
%TO.C,J2*%
X155000000Y-65000000D03*
D14*
X155000000Y-67500000D03*
X155000000Y-70000000D03*
X155000000Y-72500000D03*
%TD*%
D15*
%TO.C,L102*%
X91500000Y-69750000D03*
D16*
X96500000Y-69750000D03*
%TD*%
D17*
%TO.C,C105*%
X92750000Y-57500000D03*
D18*
X87750000Y-57500000D03*
%TD*%
D19*
%TO.C,L101*%
X76000000Y-79940000D03*
D20*
X86000000Y-79940000D03*
X86000000Y-75440000D03*
D21*
X76000000Y-75440000D03*
%TD*%
D14*
%TO.C,RV1*%
X67750000Y-80100000D03*
X62750000Y-78400000D03*
%TD*%
D18*
%TO.C,F1*%
X62460000Y-70500000D03*
X67540000Y-70500000D03*
%TD*%
%TO.C,RT1*%
X62500000Y-61250000D03*
X67500000Y-61250000D03*
%TD*%
D22*
%TO.C,C107*%
X98000000Y-57500000D03*
X113000000Y-57500000D03*
%TD*%
D13*
%TO.C,C110*%
X154500000Y-80500000D03*
D14*
X151000000Y-80500000D03*
%TD*%
D12*
%TO.C,C102*%
X93000000Y-89725000D03*
X93000000Y-79725000D03*
%TD*%
%TO.C,C101*%
X63000000Y-86850000D03*
X73000000Y-86850000D03*
%TD*%
%TO.C,C109*%
X136250000Y-58000000D03*
X143750000Y-58000000D03*
%TD*%
%TO.C,C108*%
X118250000Y-58000000D03*
X125750000Y-58000000D03*
%TD*%
%TO.C,C104*%
X74000000Y-61450000D03*
X74000000Y-53950000D03*
%TD*%
D23*
%TO.C,H3*%
X153000000Y-89000000D03*
X154000000Y-87000000D03*
X154000000Y-91000000D03*
X156000000Y-86000000D03*
D24*
X156000000Y-89000000D03*
D23*
X156000000Y-92000000D03*
X158000000Y-87000000D03*
X158000000Y-91000000D03*
X159000000Y-89000000D03*
%TD*%
%TO.C,H2*%
X153000000Y-54000000D03*
X154000000Y-52000000D03*
X154000000Y-56000000D03*
X156000000Y-51000000D03*
D24*
X156000000Y-54000000D03*
D23*
X156000000Y-57000000D03*
X158000000Y-52000000D03*
X158000000Y-56000000D03*
X159000000Y-54000000D03*
%TD*%
%TO.C,H4*%
X51000000Y-89000000D03*
X52000000Y-87000000D03*
X52000000Y-91000000D03*
X54000000Y-86000000D03*
D24*
X54000000Y-89000000D03*
D23*
X54000000Y-92000000D03*
X56000000Y-87000000D03*
X56000000Y-91000000D03*
X57000000Y-89000000D03*
%TD*%
%TO.C,H1*%
X51000000Y-54000000D03*
X52000000Y-52000000D03*
X52000000Y-56000000D03*
X54000000Y-51000000D03*
D24*
X54000000Y-54000000D03*
D23*
X54000000Y-57000000D03*
X56000000Y-52000000D03*
X56000000Y-56000000D03*
X57000000Y-54000000D03*
%TD*%
D12*
%TO.C,C106*%
X76500000Y-69400000D03*
X86500000Y-69400000D03*
%TD*%
%TO.C,C103*%
X80500000Y-61450000D03*
X80500000Y-53950000D03*
%TD*%
M02*
