M48
; DRILL file {KiCad 9.0.2} date 2026-03-04T08:25:39+0100
; FORMAT={-:-/ absolute / metric / decimal}
; #@! TF.CreationDate,2026-03-04T08:25:39+01:00
; #@! TF.GenerationSoftware,Kicad,Pcbnew,9.0.2
; #@! TF.FileFunction,Plated,1,4,PTH
FMAT,2
METRIC
; #@! TA.AperFunction,Plated,PTH,ViaDrill
T1C0.200
; #@! TA.AperFunction,Plated,PTH,ComponentDrill
T2C0.200
; #@! TA.AperFunction,Plated,PTH,ComponentDrill
T3C0.500
; #@! TA.AperFunction,Plated,PTH,ComponentDrill
T4C0.800
; #@! TA.AperFunction,Plated,PTH,ComponentDrill
T5C0.850
; #@! TA.AperFunction,Plated,PTH,ComponentDrill
T6C0.900
; #@! TA.AperFunction,Plated,PTH,ComponentDrill
T7C1.000
; #@! TA.AperFunction,Plated,PTH,ComponentDrill
T8C1.100
; #@! TA.AperFunction,Plated,PTH,ComponentDrill
T9C1.200
; #@! TA.AperFunction,Plated,PTH,ComponentDrill
T10C1.320
; #@! TA.AperFunction,Plated,PTH,ComponentDrill
T11C1.800
%
G90
G05
T1
X99.75Y-79.5
X100.25Y-81.5
X101.5Y-92.0
X101.99Y-77.5
X102.029Y-81.5
X103.222Y-79.759
X103.24Y-86.25
X103.5Y-80.75
X103.5Y-87.75
X103.75Y-75.25
X105.75Y-81.525
X107.25Y-69.0
X107.25Y-70.0
X107.25Y-71.0
X107.25Y-72.0
X107.25Y-73.0
X107.25Y-74.0
X108.25Y-69.0
X108.25Y-70.0
X108.25Y-71.0
X108.25Y-72.0
X108.25Y-73.0
X108.25Y-74.0
X109.0Y-81.525
X109.24Y-79.712
X109.25Y-69.0
X109.25Y-70.0
X109.25Y-71.0
X109.25Y-72.0
X109.25Y-73.0
X109.25Y-74.0
X110.25Y-69.0
X110.25Y-70.0
X110.25Y-71.0
X110.25Y-72.0
X110.25Y-73.0
X110.25Y-74.0
X110.5Y-89.0
X111.25Y-69.0
X111.25Y-70.0
X111.25Y-71.0
X111.25Y-72.0
X111.25Y-73.0
X111.25Y-74.0
X111.75Y-79.75
X112.25Y-69.0
X112.25Y-70.0
X112.25Y-71.0
X112.25Y-72.0
X112.25Y-73.0
X112.25Y-74.0
X113.25Y-69.0
X113.25Y-70.0
X113.25Y-71.0
X113.25Y-72.0
X113.25Y-73.0
X113.25Y-74.0
X116.5Y-91.5
X118.25Y-89.5
X118.5Y-87.25
X133.5Y-88.0
X136.0Y-91.0
X140.5Y-91.0
X141.0Y-86.75
X143.75Y-85.25
X144.0Y-66.0
X144.0Y-67.25
X144.0Y-68.5
X144.525Y-74.5
X144.525Y-76.25
X144.525Y-77.75
X144.525Y-79.25
X144.525Y-81.0
X146.75Y-73.5
X146.75Y-75.25
X146.75Y-77.0
X147.0Y-66.0
X147.0Y-67.25
X147.0Y-68.5
T2
X51.0Y-54.0
X51.0Y-89.0
X52.0Y-52.0
X52.0Y-56.0
X52.0Y-87.0
X52.0Y-91.0
X54.0Y-51.0
X54.0Y-57.0
X54.0Y-86.0
X54.0Y-92.0
X56.0Y-52.0
X56.0Y-56.0
X56.0Y-87.0
X56.0Y-91.0
X57.0Y-54.0
X57.0Y-89.0
X153.0Y-54.0
X153.0Y-89.0
X154.0Y-52.0
X154.0Y-56.0
X154.0Y-87.0
X154.0Y-91.0
X156.0Y-51.0
X156.0Y-57.0
X156.0Y-86.0
X156.0Y-92.0
X158.0Y-52.0
X158.0Y-56.0
X158.0Y-87.0
X158.0Y-91.0
X159.0Y-54.0
X159.0Y-89.0
T3
X91.5Y-69.75
X96.5Y-69.75
T4
X151.0Y-80.5
X154.5Y-80.5
T5
X62.46Y-70.5
X62.5Y-61.25
X67.5Y-61.25
X67.54Y-70.5
X87.75Y-57.5
X92.75Y-57.5
T6
X62.75Y-78.4
X67.75Y-80.1
X155.0Y-65.0
X155.0Y-67.5
X155.0Y-70.0
X155.0Y-72.5
T7
X63.0Y-86.85
X73.0Y-86.85
X74.0Y-53.95
X74.0Y-61.45
X76.5Y-69.4
X80.5Y-53.95
X80.5Y-61.45
X86.5Y-69.4
X93.0Y-79.725
X93.0Y-89.725
X118.25Y-58.0
X125.75Y-58.0
X136.25Y-58.0
X143.75Y-58.0
T8
X76.0Y-75.44
X76.0Y-79.94
X86.0Y-75.44
X86.0Y-79.94
T9
X98.0Y-57.5
X113.0Y-57.5
T10
X120.0Y-65.77
X120.0Y-68.26
X120.0Y-70.75
X120.0Y-75.75
X120.0Y-78.24
X120.0Y-80.73
X140.0Y-64.535
X140.0Y-67.025
X140.0Y-69.515
X140.0Y-72.005
X140.0Y-74.495
X140.0Y-76.985
X140.0Y-79.475
X140.0Y-81.965
T11
X54.45Y-61.3
X54.45Y-69.225
X54.45Y-77.15
M30
